<svg width="16" height="16" viewBox="0 0 16 16" fill="none" xmlns="http://www.w3.org/2000/svg">
<path fill-rule="evenodd" clip-rule="evenodd" d="M8.00008 2.00008C4.68637 2.00008 2.00008 4.68637 2.00008 8.00008C2.00008 11.3138 4.68637 14.0001 8.00008 14.0001C11.3138 14.0001 14.0001 11.3138 14.0001 8.00008C14.0001 4.68637 11.3138 2.00008 8.00008 2.00008ZM0.666748 8.00008C0.666748 3.94999 3.94999 0.666748 8.00008 0.666748C12.0502 0.666748 15.3334 3.94999 15.3334 8.00008C15.3334 12.0502 12.0502 15.3334 8.00008 15.3334C3.94999 15.3334 0.666748 12.0502 0.666748 8.00008Z" fill="#0980AD"/>
<path fill-rule="evenodd" clip-rule="evenodd" d="M8.00008 3.33341C8.36827 3.33341 8.66675 3.63189 8.66675 4.00008V7.58806L10.9649 8.73713C11.2942 8.90179 11.4277 9.30224 11.263 9.63156C11.0984 9.96088 10.6979 10.0944 10.3686 9.9297L7.70194 8.59637C7.47608 8.48344 7.33341 8.2526 7.33341 8.00008V4.00008C7.33341 3.63189 7.63189 3.33341 8.00008 3.33341Z" fill="#0980AD"/>
</svg>
