<svg width="520" height="411" viewBox="0 0 520 411" fill="none" xmlns="http://www.w3.org/2000/svg">
<path d="M357 69.0006C487 77.9996 422 12.5 669.5 69.0005V334.5C541 287.497 458 282 357 352.5C235.778 437.115 103.119 428.5 31.5 334.5C-99.167 163 220.103 59.5241 357 69.0006Z" fill="#F7F7F8"/>
<path d="M270.059 242.254L327.879 208.715V222.297L278.635 250.569L270.059 242.254Z" fill="#202533"/>
<path d="M224.136 283.831L236.308 290.76L242.671 257.776L224.136 255.004V283.831Z" fill="#202533"/>
<path d="M238.798 290.76L283.338 264.982C284.998 263.874 286.382 261.656 286.382 259.439V240.591C286.382 238.651 284.998 237.819 283.338 238.651L238.798 264.428C237.138 265.537 235.755 267.754 235.755 269.972V288.82C235.755 291.037 237.138 291.869 238.798 290.76Z" fill="#2E394A"/>
<path d="M364.396 185.432L372.142 197.074L388.188 206.221L390.124 190.976L364.396 185.432Z" fill="#202533"/>
<path d="M365.839 188.023L340.941 231.23L353.878 238.714L378.776 195.507L365.839 188.023Z" fill="#202533"/>
<path d="M371.589 199.846C371.589 211.21 363.566 224.792 353.883 230.335C344.201 235.879 336.178 231.444 336.178 220.08C336.178 208.715 344.201 195.134 353.883 189.59C363.566 184.046 371.589 188.481 371.589 199.846Z" fill="#202533"/>
<path d="M357.203 222.851C357.203 216.754 361.353 209.547 366.609 206.498C371.866 203.449 376.015 205.944 376.015 212.041C376.015 218.139 371.866 225.346 366.609 228.395C361.63 231.444 357.203 228.949 357.203 222.851Z" fill="#202533"/>
<path d="M366.609 237.819C376.292 232.276 384.315 218.417 384.315 207.329C384.315 195.965 376.569 191.53 366.609 197.074C356.927 202.617 348.904 216.476 348.904 227.563C349.18 238.928 356.927 243.64 366.609 237.819ZM366.886 204.835C372.972 201.509 377.675 204.28 377.675 211.21C377.675 218.139 372.696 226.455 366.886 230.058C360.8 233.384 356.097 230.612 356.097 223.683C355.82 216.753 360.8 208.438 366.886 204.835Z" fill="#2E394A"/>
<path d="M366.609 231.998C373.525 228.118 379.058 218.417 379.058 210.378C379.058 202.34 373.525 199.014 366.609 203.172C359.693 207.052 354.16 216.754 354.16 224.792C354.16 232.553 359.969 235.879 366.609 231.998ZM366.886 204.558C372.972 200.954 377.952 204.003 377.952 210.933C377.952 218.139 372.972 226.732 366.886 230.335C360.799 233.939 355.82 230.89 355.82 223.96C355.543 216.754 360.523 208.161 366.886 204.558Z" fill="#DADADA"/>
<path d="M366.609 226.455C370.759 223.96 374.355 218.14 374.355 213.15C374.355 208.161 371.035 206.221 366.609 208.715C362.459 211.21 358.863 217.031 358.863 222.02C359.139 226.732 362.459 228.672 366.609 226.455ZM366.886 212.042C369.652 210.379 371.589 211.764 371.589 214.813C371.589 217.862 369.375 221.743 366.886 223.129C364.396 224.515 362.183 223.406 362.183 220.357C361.906 217.308 364.119 213.427 366.886 212.042Z" fill="#EDEDED"/>
<path d="M366.886 223.129C369.652 221.465 371.589 217.862 371.589 214.813C371.589 211.764 369.376 210.378 366.886 212.041C364.119 213.704 362.183 217.308 362.183 220.357C361.906 223.406 364.119 224.514 366.886 223.129ZM364.949 221.743C364.673 222.297 364.119 222.574 363.843 222.297C363.566 222.02 363.566 221.743 363.843 221.188C364.119 220.634 364.673 220.357 364.949 220.634C365.226 220.911 365.226 221.465 364.949 221.743ZM366.886 221.465C366.609 221.465 366.609 221.465 366.609 221.188C366.609 220.911 366.886 220.634 366.886 220.357C367.162 220.357 367.162 220.357 367.162 220.634C367.162 220.911 366.886 221.188 366.886 221.465ZM369.652 219.248C369.376 219.802 368.822 220.08 368.546 219.802C368.269 219.525 368.269 219.248 368.546 218.694C368.822 218.139 369.376 217.862 369.652 218.139C369.929 218.139 369.929 218.694 369.652 219.248ZM370.206 215.645C370.206 215.922 369.929 216.199 369.929 216.476C369.652 216.476 369.652 216.476 369.652 216.199C369.652 215.922 369.929 215.645 369.929 215.368C369.929 215.09 370.206 215.368 370.206 215.645ZM368.546 213.15C368.822 212.596 369.376 212.319 369.652 212.596C369.929 212.873 369.929 213.15 369.652 213.704C369.376 214.259 368.822 214.536 368.546 214.259C368.269 214.259 368.269 213.704 368.546 213.15ZM366.886 213.704C367.162 213.704 367.162 213.704 367.162 213.982C367.162 214.259 366.886 214.536 366.886 214.813C366.609 214.813 366.609 214.813 366.609 214.536C366.332 213.982 366.609 213.704 366.886 213.704ZM366.886 215.368C367.992 214.813 368.822 215.368 368.822 216.476C368.822 217.585 367.992 218.971 366.886 219.525C365.779 220.08 364.949 219.525 364.949 218.417C364.949 217.308 365.779 215.922 366.886 215.368ZM363.843 215.922C364.119 215.368 364.673 215.09 364.949 215.368C365.226 215.645 365.226 215.922 364.949 216.476C364.673 217.031 364.119 217.308 363.843 217.031C363.566 216.753 363.566 216.199 363.843 215.922ZM363.843 218.694C364.119 218.694 364.119 218.694 364.119 218.971C364.119 219.248 363.843 219.525 363.843 219.802C363.566 219.802 363.566 219.802 363.566 219.525C363.289 219.248 363.566 218.971 363.843 218.694Z" fill="#DAD1D1"/>
<path d="M366.886 223.129C369.652 221.465 371.589 217.862 371.589 214.813C371.589 211.764 369.376 210.378 366.886 212.041C364.119 213.704 362.183 217.308 362.183 220.357C361.906 223.406 364.119 224.514 366.886 223.129ZM364.949 221.743C364.673 222.297 364.119 222.574 363.843 222.297C363.566 222.02 363.566 221.743 363.843 221.188C364.119 220.634 364.673 220.357 364.949 220.634C365.226 220.911 365.226 221.465 364.949 221.743ZM366.886 221.465C366.609 221.465 366.609 221.465 366.609 221.188C366.609 220.911 366.886 220.634 366.886 220.357C367.162 220.357 367.162 220.357 367.162 220.634C367.162 220.911 366.886 221.188 366.886 221.465ZM369.652 219.248C369.376 219.802 368.822 220.08 368.546 219.802C368.269 219.525 368.269 219.248 368.546 218.694C368.822 218.139 369.376 217.862 369.652 218.139C369.929 218.139 369.929 218.694 369.652 219.248ZM370.206 215.645C370.206 215.922 369.929 216.199 369.929 216.476C369.652 216.476 369.652 216.476 369.652 216.199C369.652 215.922 369.929 215.645 369.929 215.368C369.929 215.09 370.206 215.368 370.206 215.645ZM368.546 213.15C368.822 212.596 369.376 212.319 369.652 212.596C369.929 212.873 369.929 213.15 369.652 213.704C369.376 214.259 368.822 214.536 368.546 214.259C368.269 214.259 368.269 213.704 368.546 213.15ZM366.886 213.704C367.162 213.704 367.162 213.704 367.162 213.982C367.162 214.259 366.886 214.536 366.886 214.813C366.609 214.813 366.609 214.813 366.609 214.536C366.332 213.982 366.609 213.704 366.886 213.704ZM366.886 215.368C367.992 214.813 368.822 215.368 368.822 216.476C368.822 217.585 367.992 218.971 366.886 219.525C365.779 220.08 364.949 219.525 364.949 218.417C364.949 217.308 365.779 215.922 366.886 215.368ZM363.843 215.922C364.119 215.368 364.673 215.09 364.949 215.368C365.226 215.645 365.226 215.922 364.949 216.476C364.673 217.031 364.119 217.308 363.843 217.031C363.566 216.753 363.566 216.199 363.843 215.922ZM363.843 218.694C364.119 218.694 364.119 218.694 364.119 218.971C364.119 219.248 363.843 219.525 363.843 219.802C363.566 219.802 363.566 219.802 363.566 219.525C363.289 219.248 363.566 218.971 363.843 218.694Z" fill="#C6C6C6"/>
<path d="M366.609 230.335C372.695 226.732 377.675 218.14 377.675 210.933C377.675 203.726 372.695 200.954 366.609 204.558C360.523 208.161 355.543 216.754 355.543 223.96C355.543 231.167 360.523 233.939 366.609 230.335ZM359.14 228.395C358.586 229.227 357.756 229.504 357.48 228.949C357.203 228.672 357.48 227.564 358.033 227.009C358.586 226.178 359.416 225.901 359.693 226.455C359.969 226.732 359.693 227.564 359.14 228.395ZM359.14 222.02C359.14 217.031 362.459 211.21 366.886 208.715C371.035 206.221 374.632 208.161 374.632 213.15C374.632 218.14 371.312 223.96 366.886 226.455C362.459 228.672 359.14 226.732 359.14 222.02ZM363.013 229.781C362.736 230.613 361.906 231.444 361.353 231.167C360.799 231.167 360.799 230.335 361.076 229.504C361.353 228.672 362.183 227.841 362.736 228.118C363.289 228.118 363.289 228.949 363.013 229.781ZM366.609 229.781C366.056 230.058 365.502 229.781 365.502 228.949C365.502 228.118 366.056 227.286 366.609 227.009C367.162 226.732 367.716 227.009 367.716 227.841C367.716 228.672 367.439 229.504 366.609 229.781ZM372.142 225.069C371.589 225.623 371.035 225.901 370.482 225.346C370.205 224.792 370.205 223.96 370.759 223.406C371.312 222.852 371.865 222.574 372.419 223.129C372.695 223.683 372.695 224.515 372.142 225.069ZM376.015 218.417C375.738 219.248 374.908 219.803 374.355 219.803C373.802 219.803 373.525 218.971 373.802 218.417C374.078 217.585 374.908 217.031 375.462 217.031C376.015 217.031 376.292 217.585 376.015 218.417ZM377.398 211.21C377.398 211.764 376.845 212.873 376.292 213.15C375.738 213.427 375.185 213.427 375.185 212.596C375.185 212.042 375.738 210.933 376.292 210.656C376.845 210.379 377.398 210.656 377.398 211.21ZM374.355 206.498C374.908 205.666 375.738 205.389 376.015 205.944C376.292 206.498 376.015 207.33 375.462 208.161C374.908 208.993 374.078 209.27 373.802 208.715C373.525 208.161 373.802 207.33 374.355 206.498ZM370.482 205.389C370.759 204.558 371.589 203.726 372.142 204.003C372.695 204.003 372.695 204.835 372.419 205.666C372.142 206.498 371.312 207.33 370.759 207.052C370.205 206.775 370.205 206.221 370.482 205.389ZM366.886 205.112C367.439 204.835 367.992 205.112 367.992 205.944C367.992 206.775 367.439 207.607 366.886 207.884C366.332 208.161 365.779 207.884 365.779 207.052C365.779 206.498 366.056 205.389 366.886 205.112ZM361.353 209.824C361.906 209.27 362.459 208.993 363.013 209.547C363.289 210.101 363.289 210.933 362.736 211.487C362.183 212.042 361.629 212.319 361.076 211.764C360.799 211.487 361.076 210.656 361.353 209.824ZM357.48 216.754C357.756 215.922 358.586 215.368 359.14 215.368C359.693 215.368 359.969 216.199 359.693 216.754C359.416 217.585 358.586 218.14 358.033 218.14C357.48 218.14 357.203 217.308 357.48 216.754ZM357.48 221.743C358.033 221.466 358.586 221.466 358.586 222.297C358.586 222.852 358.033 223.96 357.48 224.237C356.926 224.515 356.373 224.515 356.373 223.683C356.096 222.852 356.65 222.02 357.48 221.743Z" fill="#DAD1D1"/>
<path d="M324.835 208.438L332.305 219.803L348.627 229.227L350.564 213.982L324.835 208.438Z" fill="#202533"/>
<path d="M325.364 212.145L300.465 255.351L313.403 262.835L338.301 219.629L325.364 212.145Z" fill="#202533"/>
<path d="M330.922 223.683C330.922 235.047 322.899 248.629 313.216 254.173C303.533 259.716 295.511 255.281 295.511 243.917C295.511 232.553 303.533 218.971 313.216 213.427C323.175 207.884 330.922 212.596 330.922 223.683Z" fill="#202533"/>
<path d="M316.812 246.966C316.812 240.868 320.962 233.661 326.218 230.612C331.475 227.563 335.624 230.058 335.624 236.156C335.624 242.254 331.475 249.46 326.218 252.509C320.962 255.281 316.812 253.064 316.812 246.966Z" fill="#202533"/>
<path d="M326.218 261.934C335.901 256.39 343.924 242.531 343.924 231.444C343.924 220.08 336.178 215.645 326.218 221.188C316.536 226.732 308.513 240.591 308.513 251.678C308.513 262.765 316.536 267.477 326.218 261.934ZM326.218 228.949C332.305 225.623 337.008 228.395 337.008 235.324C337.008 242.254 332.028 250.569 326.218 254.173C320.132 257.499 315.429 254.727 315.429 247.797C315.429 240.868 320.132 232.275 326.218 228.949Z" fill="#2E394A"/>
<path d="M326.218 255.836C333.135 251.955 338.667 242.254 338.667 234.216C338.667 226.178 333.135 223.129 326.218 227.009C319.302 230.89 313.769 240.591 313.769 248.629C313.769 256.667 319.302 259.993 326.218 255.836ZM326.218 228.672C332.305 225.069 337.284 228.118 337.284 235.047C337.284 242.254 332.305 250.846 326.218 254.45C320.132 258.053 315.152 255.004 315.152 248.075C315.152 240.868 320.132 231.998 326.218 228.672Z" fill="#DADADA"/>
<path d="M326.218 250.292C330.368 247.798 333.964 241.977 333.964 236.988C333.964 231.998 330.645 230.058 326.218 232.553C322.069 235.047 318.472 240.868 318.472 245.857C318.472 250.847 322.069 252.787 326.218 250.292ZM326.218 235.879C328.985 234.216 330.921 235.602 330.921 238.651C330.921 241.7 328.708 245.58 326.218 246.966C323.452 248.629 321.515 247.243 321.515 244.194C321.239 241.145 323.452 237.265 326.218 235.879Z" fill="#EDEDED"/>
<path d="M326.218 246.966C328.985 245.303 330.921 241.699 330.921 238.65C330.921 235.602 328.708 234.216 326.218 235.879C323.452 237.542 321.515 241.145 321.515 244.194C321.239 247.243 323.452 248.629 326.218 246.966ZM324.282 245.857C324.005 246.411 323.452 246.689 323.175 246.411C322.898 246.134 322.898 245.857 323.175 245.303C323.452 244.748 324.005 244.471 324.282 244.748C324.558 244.748 324.558 245.303 324.282 245.857ZM326.218 245.303C325.942 245.303 325.942 245.303 325.942 245.026C325.942 244.748 326.218 244.471 326.218 244.194C326.495 244.194 326.495 244.194 326.495 244.471C326.495 244.748 326.495 245.303 326.218 245.303ZM328.985 243.085C328.708 243.64 328.155 243.917 327.878 243.64C327.601 243.363 327.601 243.085 327.878 242.531C328.155 241.977 328.708 241.699 328.985 241.977C329.261 242.254 329.261 242.531 328.985 243.085ZM329.538 239.482C329.538 239.759 329.261 240.036 329.261 240.314C328.985 240.314 328.985 240.314 328.985 240.036C328.985 239.759 329.261 239.482 329.261 239.205C329.261 239.205 329.538 239.205 329.538 239.482ZM328.155 236.987C328.431 236.433 328.985 236.156 329.261 236.433C329.538 236.71 329.538 236.987 329.261 237.542C328.985 238.096 328.431 238.373 328.155 238.096C327.878 238.096 327.878 237.542 328.155 236.987ZM326.218 237.542C326.495 237.542 326.495 237.542 326.495 237.819C326.495 238.096 326.218 238.373 326.218 238.65C325.942 238.65 325.942 238.65 325.942 238.373C325.665 238.096 325.942 237.542 326.218 237.542ZM326.218 239.205C327.325 238.65 328.155 239.205 328.155 240.314C328.155 241.422 327.325 242.808 326.218 243.363C325.112 243.917 324.282 243.363 324.282 242.254C324.282 241.422 325.112 240.036 326.218 239.205ZM323.452 239.759C323.728 239.205 324.282 238.928 324.558 239.205C324.835 239.482 324.835 239.759 324.558 240.314C324.282 240.868 323.728 241.145 323.452 240.868C323.175 240.868 323.175 240.314 323.452 239.759ZM323.175 242.808C323.452 242.808 323.452 242.808 323.452 243.085C323.452 243.362 323.175 243.64 323.175 243.917C322.898 243.917 322.898 243.917 322.898 243.64C322.898 243.085 322.898 242.808 323.175 242.808Z" fill="#DAD1D1"/>
<path d="M326.218 246.966C328.985 245.303 330.921 241.699 330.921 238.65C330.921 235.602 328.708 234.216 326.218 235.879C323.452 237.542 321.515 241.145 321.515 244.194C321.239 247.243 323.452 248.629 326.218 246.966ZM324.282 245.857C324.005 246.411 323.452 246.689 323.175 246.411C322.898 246.134 322.898 245.857 323.175 245.303C323.452 244.748 324.005 244.471 324.282 244.748C324.558 244.748 324.558 245.303 324.282 245.857ZM326.218 245.303C325.942 245.303 325.942 245.303 325.942 245.026C325.942 244.748 326.218 244.471 326.218 244.194C326.495 244.194 326.495 244.194 326.495 244.471C326.495 244.748 326.495 245.303 326.218 245.303ZM328.985 243.085C328.708 243.64 328.155 243.917 327.878 243.64C327.601 243.363 327.601 243.085 327.878 242.531C328.155 241.977 328.708 241.699 328.985 241.977C329.261 242.254 329.261 242.531 328.985 243.085ZM329.538 239.482C329.538 239.759 329.261 240.036 329.261 240.314C328.985 240.314 328.985 240.314 328.985 240.036C328.985 239.759 329.261 239.482 329.261 239.205C329.261 239.205 329.538 239.205 329.538 239.482ZM328.155 236.987C328.431 236.433 328.985 236.156 329.261 236.433C329.538 236.71 329.538 236.987 329.261 237.542C328.985 238.096 328.431 238.373 328.155 238.096C327.878 238.096 327.878 237.542 328.155 236.987ZM326.218 237.542C326.495 237.542 326.495 237.542 326.495 237.819C326.495 238.096 326.218 238.373 326.218 238.65C325.942 238.65 325.942 238.65 325.942 238.373C325.665 238.096 325.942 237.542 326.218 237.542ZM326.218 239.205C327.325 238.65 328.155 239.205 328.155 240.314C328.155 241.422 327.325 242.808 326.218 243.363C325.112 243.917 324.282 243.363 324.282 242.254C324.282 241.422 325.112 240.036 326.218 239.205ZM323.452 239.759C323.728 239.205 324.282 238.928 324.558 239.205C324.835 239.482 324.835 239.759 324.558 240.314C324.282 240.868 323.728 241.145 323.452 240.868C323.175 240.868 323.175 240.314 323.452 239.759ZM323.175 242.808C323.452 242.808 323.452 242.808 323.452 243.085C323.452 243.362 323.175 243.64 323.175 243.917C322.898 243.917 322.898 243.917 322.898 243.64C322.898 243.085 322.898 242.808 323.175 242.808Z" fill="#C6C6C6"/>
<path d="M326.218 254.45C332.305 250.846 337.284 242.254 337.284 235.047C337.284 227.841 332.305 225.069 326.218 228.672C320.132 232.275 315.152 240.868 315.152 248.075C315.152 255.004 320.132 257.776 326.218 254.45ZM318.472 252.232C317.919 253.064 317.089 253.341 316.812 252.787C316.536 252.509 316.812 251.401 317.366 250.846C317.919 250.015 318.749 249.738 319.025 250.292C319.302 250.569 319.025 251.678 318.472 252.232ZM318.472 245.857C318.472 240.868 321.792 235.047 326.218 232.553C330.368 230.058 333.964 231.998 333.964 236.988C333.964 241.977 330.645 247.797 326.218 250.292C322.069 252.787 318.472 250.846 318.472 245.857ZM322.345 253.618C322.069 254.45 321.239 255.281 320.685 255.004C320.132 255.004 320.132 254.173 320.409 253.341C320.685 252.51 321.515 251.678 322.069 251.955C322.622 251.955 322.622 252.787 322.345 253.618ZM326.218 253.618C325.665 253.895 325.112 253.618 325.112 252.787C325.112 251.955 325.665 251.124 326.218 250.846C326.772 250.569 327.325 250.846 327.325 251.678C327.325 252.51 326.772 253.341 326.218 253.618ZM331.475 248.906C330.921 249.461 330.368 249.738 329.815 249.183C329.538 248.629 329.538 247.797 330.091 247.243C330.645 246.689 331.198 246.412 331.751 246.966C332.028 247.52 332.028 248.352 331.475 248.906ZM335.348 242.254C335.071 243.085 334.241 243.64 333.688 243.64C333.134 243.64 332.858 242.808 333.134 242.254C333.411 241.422 334.241 240.868 334.794 240.868C335.348 240.868 335.624 241.422 335.348 242.254ZM336.731 235.324C336.731 235.879 336.178 236.988 335.624 237.265C335.071 237.542 334.518 237.542 334.518 236.71C334.518 236.156 335.071 235.047 335.624 234.77C336.178 234.493 336.731 234.493 336.731 235.324ZM333.688 230.612C334.241 229.781 335.071 229.504 335.348 230.058C335.624 230.612 335.348 231.444 334.794 232.275C334.241 233.107 333.411 233.384 333.134 232.83C332.858 232.275 333.134 231.167 333.688 230.612ZM330.091 229.227C330.368 228.395 331.198 227.563 331.751 227.841C332.305 227.841 332.305 228.672 332.028 229.504C331.751 230.335 330.921 231.167 330.368 230.89C329.815 230.89 329.538 230.058 330.091 229.227ZM326.218 229.227C326.772 228.949 327.325 229.227 327.325 230.058C327.325 230.89 326.772 231.721 326.218 231.998C325.665 232.275 325.112 231.998 325.112 231.167C325.112 230.335 325.665 229.504 326.218 229.227ZM320.962 233.939C321.515 233.384 322.069 233.107 322.622 233.661C322.899 234.216 322.899 235.047 322.345 235.602C321.792 236.156 321.239 236.433 320.685 235.879C320.132 235.324 320.409 234.493 320.962 233.939ZM317.089 240.591C317.366 239.759 318.196 239.205 318.749 239.205C319.302 239.205 319.579 240.036 319.302 240.591C319.025 241.422 318.196 241.977 317.642 241.977C316.812 241.977 316.812 241.422 317.089 240.591ZM316.812 245.58C317.366 245.303 317.919 245.303 317.919 246.134C317.919 246.689 317.366 247.797 316.812 248.075C316.259 248.352 315.706 248.352 315.706 247.52C315.429 246.966 315.982 246.134 316.812 245.58Z" fill="#DAD1D1"/>
<path d="M335.625 216.199L338.114 214.813C339.221 214.259 340.051 213.982 341.158 213.705C343.924 213.15 346.137 214.813 346.69 218.139L347.797 225.623V225.9L351.394 227.841C351.947 225.069 352.223 222.574 353.053 220.08C357.756 201.786 369.376 189.59 388.188 184.878L371.865 175.454C356.097 179.334 343.924 189.59 337.838 208.993C337.008 211.21 336.178 213.705 335.625 216.199Z" fill="#202533"/>
<path d="M351.393 227.564L356.926 224.515L357.48 220.08L358.586 212.042C358.586 211.764 358.586 211.487 358.586 211.487C359.416 207.33 361.629 203.172 364.673 200.123C365.779 199.014 366.609 198.183 367.992 197.628L377.675 192.085C378.782 191.53 379.611 190.976 380.718 190.976C383.485 190.422 385.698 192.085 386.251 195.411L387.358 202.895L387.911 206.775L393.444 203.726L392.614 199.291V199.014L391.507 191.53C391.231 189.313 390.401 187.65 389.017 186.264C386.528 183.492 382.378 183.215 377.675 185.987L367.992 191.53C363.289 194.302 358.863 199.569 356.096 205.112C354.713 207.884 353.883 210.933 353.33 213.705L352.223 222.297L351.393 227.564Z" fill="#2E394A"/>
<path d="M332.028 198.182C313.77 202.617 288.871 209.27 283.892 235.047L311.833 250.292C315.429 227.563 327.049 212.873 348.35 207.607L332.028 198.182Z" fill="#202533"/>
<path d="M311.833 250.569L317.366 247.52L317.919 243.085L319.026 235.047C319.026 234.77 319.026 234.493 319.026 234.493C319.856 230.335 322.069 226.177 325.112 223.129C326.219 222.02 327.049 221.188 328.155 220.634L335.625 216.476L338.115 215.09C339.221 214.536 340.051 214.259 341.158 213.982C343.924 213.427 346.137 215.09 346.691 218.417L347.797 225.9V226.177L348.351 229.781L351.117 228.118L353.607 226.732L352.777 222.297V222.02L352.5 220.634L351.394 214.536C351.117 212.319 350.287 210.656 348.904 209.27C346.414 206.498 342.264 206.221 337.561 208.992L337.008 209.27L327.879 214.536C323.176 217.308 318.749 222.574 315.983 228.118C314.6 230.89 313.77 233.938 313.216 236.71L312.11 245.303L311.833 250.569Z" fill="#2E394A"/>
<path d="M183.469 294.086L385.698 176.285V180.997L183.469 298.521L79.4492 238.373L83.3222 236.156L183.469 294.086Z" fill="#404E66"/>
<path d="M385.698 176.286L183.469 294.086L83.3222 236.156L79.4492 233.661L281.679 116.138L385.698 176.286Z" fill="#637487"/>
<path d="M241.011 157.992V273.852L133.396 211.487V95.6266L241.011 157.992Z" fill="#637487"/>
<path d="M407 62.088V177.671L241.011 273.852V157.992L407 62.088Z" fill="#404E66"/>
<path d="M298.831 0L133.119 95.9037L241.011 157.992L407 62.088L298.831 0Z" fill="#9EAAB8"/>
<path d="M205.877 276.901L213.623 288.266L229.669 297.69L231.605 282.445L205.877 276.901Z" fill="#202533"/>
<path d="M207.169 279.886L182.271 323.093L195.208 330.577L220.106 287.37L207.169 279.886Z" fill="#202533"/>
<path d="M212.793 291.592C212.793 302.956 204.77 316.538 195.088 322.081C185.405 327.625 177.382 323.19 177.382 311.826C177.382 300.461 185.405 286.88 195.088 281.336C205.047 275.793 212.793 280.227 212.793 291.592Z" fill="#202533"/>
<path d="M198.684 314.597C198.684 308.5 202.834 301.293 208.09 298.244C213.346 295.195 217.496 297.69 217.496 303.787C217.496 309.885 213.346 317.092 208.09 320.141C202.834 323.19 198.684 320.695 198.684 314.597Z" fill="#202533"/>
<path d="M208.09 329.565C217.773 324.022 225.795 310.163 225.795 299.076C225.795 287.711 218.049 283.276 208.09 288.82C198.407 294.363 190.385 308.222 190.385 319.31C190.385 330.674 198.407 335.109 208.09 329.565ZM208.09 296.581C214.176 293.255 218.879 296.027 218.879 302.956C218.879 309.885 213.9 318.201 208.09 321.804C202.004 325.13 197.301 322.359 197.301 315.429C197.301 308.5 202.004 300.184 208.09 296.581Z" fill="#2E394A"/>
<path d="M208.09 323.744C215.006 319.864 220.539 310.163 220.539 302.125C220.539 294.086 215.006 291.037 208.09 294.918C201.174 298.798 195.641 308.5 195.641 316.538C195.641 324.299 201.174 327.625 208.09 323.744ZM208.09 296.304C214.176 292.7 219.156 295.749 219.156 302.679C219.156 309.886 214.176 318.478 208.09 322.081C202.004 325.685 197.024 322.636 197.024 315.706C197.024 308.5 202.004 299.907 208.09 296.304Z" fill="#DADADA"/>
<path d="M208.09 317.924C212.239 315.429 215.836 309.608 215.836 304.619C215.836 299.63 212.516 297.69 208.09 300.184C203.94 302.679 200.344 308.5 200.344 313.489C200.344 318.478 203.94 320.418 208.09 317.924ZM208.09 303.51C210.856 301.847 212.793 303.233 212.793 306.282C212.793 309.331 210.58 313.212 208.09 314.598C205.323 316.261 203.387 314.875 203.387 311.826C203.387 308.777 205.6 305.174 208.09 303.51Z" fill="#EDEDED"/>
<path d="M208.09 314.875C210.856 313.212 212.793 309.608 212.793 306.559C212.793 303.51 210.58 302.124 208.09 303.788C205.323 305.451 203.387 309.054 203.387 312.103C203.387 315.152 205.323 316.261 208.09 314.875ZM206.153 313.489C205.877 314.043 205.323 314.32 205.047 314.043C204.77 313.766 204.77 313.489 205.047 312.934C205.323 312.38 205.877 312.103 206.153 312.38C206.43 312.657 206.43 312.934 206.153 313.489ZM208.09 312.934C207.813 312.934 207.813 312.934 207.813 312.657C207.813 312.38 208.09 312.103 208.09 311.826C208.367 311.826 208.367 311.826 208.367 312.103C208.643 312.657 208.367 312.934 208.09 312.934ZM210.856 310.717C210.58 311.271 210.026 311.549 209.75 311.271C209.473 310.994 209.473 310.717 209.75 310.163C210.026 309.608 210.58 309.331 210.856 309.608C211.133 309.885 211.133 310.44 210.856 310.717ZM211.41 307.114C211.41 307.391 211.133 307.668 211.133 307.945C210.856 307.945 210.856 307.945 210.856 307.668C210.856 307.391 211.133 307.114 211.133 306.836C211.41 306.836 211.41 307.114 211.41 307.114ZM210.026 304.896C210.303 304.342 210.856 304.065 211.133 304.342C211.41 304.619 211.41 304.896 211.133 305.451C210.856 306.005 210.303 306.282 210.026 306.005C209.75 305.728 209.75 305.451 210.026 304.896ZM208.09 305.173C208.367 305.173 208.367 305.173 208.367 305.451C208.367 305.728 208.09 306.005 208.09 306.282C207.813 306.282 207.813 306.282 207.813 306.005C207.813 305.728 207.813 305.451 208.09 305.173ZM208.09 307.114C209.197 306.559 210.026 307.114 210.026 308.222C210.026 309.331 209.197 310.717 208.09 311.271C206.983 311.826 206.153 311.271 206.153 310.163C206.43 309.054 206.983 307.668 208.09 307.114ZM205.323 307.668C205.6 307.114 206.153 306.836 206.43 307.114C206.707 307.391 206.707 307.668 206.43 308.222C206.153 308.777 205.6 309.054 205.323 308.777C205.047 308.5 205.047 307.945 205.323 307.668ZM205.047 310.44C205.323 310.44 205.323 310.44 205.323 310.717C205.323 310.994 205.047 311.271 205.047 311.549C204.77 311.549 204.77 311.549 204.77 311.271C204.77 310.994 205.047 310.44 205.047 310.44Z" fill="#DAD1D1"/>
<path d="M208.09 314.875C210.856 313.212 212.793 309.608 212.793 306.559C212.793 303.51 210.58 302.124 208.09 303.788C205.323 305.451 203.387 309.054 203.387 312.103C203.387 315.152 205.323 316.261 208.09 314.875ZM206.153 313.489C205.877 314.043 205.323 314.32 205.047 314.043C204.77 313.766 204.77 313.489 205.047 312.934C205.323 312.38 205.877 312.103 206.153 312.38C206.43 312.657 206.43 312.934 206.153 313.489ZM208.09 312.934C207.813 312.934 207.813 312.934 207.813 312.657C207.813 312.38 208.09 312.103 208.09 311.826C208.367 311.826 208.367 311.826 208.367 312.103C208.643 312.657 208.367 312.934 208.09 312.934ZM210.856 310.717C210.58 311.271 210.026 311.549 209.75 311.271C209.473 310.994 209.473 310.717 209.75 310.163C210.026 309.608 210.58 309.331 210.856 309.608C211.133 309.885 211.133 310.44 210.856 310.717ZM211.41 307.114C211.41 307.391 211.133 307.668 211.133 307.945C210.856 307.945 210.856 307.945 210.856 307.668C210.856 307.391 211.133 307.114 211.133 306.836C211.41 306.836 211.41 307.114 211.41 307.114ZM210.026 304.896C210.303 304.342 210.856 304.065 211.133 304.342C211.41 304.619 211.41 304.896 211.133 305.451C210.856 306.005 210.303 306.282 210.026 306.005C209.75 305.728 209.75 305.451 210.026 304.896ZM208.09 305.173C208.367 305.173 208.367 305.173 208.367 305.451C208.367 305.728 208.09 306.005 208.09 306.282C207.813 306.282 207.813 306.282 207.813 306.005C207.813 305.728 207.813 305.451 208.09 305.173ZM208.09 307.114C209.197 306.559 210.026 307.114 210.026 308.222C210.026 309.331 209.197 310.717 208.09 311.271C206.983 311.826 206.153 311.271 206.153 310.163C206.43 309.054 206.983 307.668 208.09 307.114ZM205.323 307.668C205.6 307.114 206.153 306.836 206.43 307.114C206.707 307.391 206.707 307.668 206.43 308.222C206.153 308.777 205.6 309.054 205.323 308.777C205.047 308.5 205.047 307.945 205.323 307.668ZM205.047 310.44C205.323 310.44 205.323 310.44 205.323 310.717C205.323 310.994 205.047 311.271 205.047 311.549C204.77 311.549 204.77 311.549 204.77 311.271C204.77 310.994 205.047 310.44 205.047 310.44Z" fill="#C6C6C6"/>
<path d="M208.09 322.081C214.176 318.478 219.156 309.886 219.156 302.679C219.156 295.472 214.176 292.701 208.09 296.304C202.004 299.907 197.024 308.5 197.024 315.706C197.024 322.636 202.004 325.685 208.09 322.081ZM200.62 320.141C200.067 320.973 199.237 321.25 198.96 320.696C198.684 320.418 198.96 319.31 199.514 318.755C200.067 317.924 200.897 317.647 201.174 318.201C201.45 318.478 201.174 319.31 200.62 320.141ZM200.344 313.489C200.344 308.5 203.663 302.679 208.09 300.184C212.24 297.69 215.836 299.63 215.836 304.619C215.836 309.608 212.516 315.429 208.09 317.924C203.94 320.418 200.344 318.478 200.344 313.489ZM204.217 321.527C203.94 322.359 203.11 323.19 202.557 322.913C202.004 322.913 202.004 322.081 202.28 321.25C202.557 320.418 203.387 319.587 203.94 319.864C204.493 319.864 204.77 320.418 204.217 321.527ZM208.09 321.527C207.537 321.804 206.983 321.527 206.983 320.696C206.983 319.864 207.537 319.033 208.09 318.755C208.643 318.478 209.196 318.755 209.196 319.587C209.196 320.141 208.643 321.25 208.09 321.527ZM213.346 316.815C212.793 317.369 212.24 317.647 211.686 317.092C211.41 316.538 211.41 315.706 211.963 315.152C212.516 314.598 213.069 314.32 213.623 314.875C214.176 315.152 213.899 316.261 213.346 316.815ZM217.219 309.886C216.943 310.717 216.113 311.272 215.559 311.272C215.006 311.272 214.729 310.44 215.006 309.886C215.283 309.054 216.113 308.5 216.666 308.5C217.496 308.5 217.496 309.331 217.219 309.886ZM218.879 302.956C218.879 303.511 218.326 304.619 217.772 304.896C217.219 305.174 216.666 305.174 216.666 304.342C216.666 303.788 217.219 302.679 217.772 302.402C218.326 302.125 218.879 302.402 218.879 302.956ZM215.836 298.244C216.389 297.413 217.219 297.135 217.496 297.69C217.772 298.244 217.496 299.076 216.943 299.907C216.389 300.739 215.559 301.016 215.283 300.462C215.006 299.907 215.283 299.076 215.836 298.244ZM211.963 296.858C212.24 296.027 213.069 295.195 213.623 295.472C214.176 295.472 214.176 296.304 213.899 297.135C213.623 297.967 212.793 298.798 212.24 298.521C211.686 298.521 211.686 297.69 211.963 296.858ZM208.09 296.858C208.643 296.581 209.196 296.858 209.196 297.69C209.196 298.521 208.643 299.353 208.09 299.63C207.537 299.907 206.983 299.63 206.983 298.798C206.983 298.244 207.537 297.135 208.09 296.858ZM202.834 301.57C203.387 301.016 203.94 300.739 204.493 301.293C204.77 301.847 204.77 302.679 204.217 303.233C203.663 303.788 203.11 304.065 202.557 303.511C202.28 303.233 202.28 302.125 202.834 301.57ZM198.96 308.223C199.237 307.391 200.067 306.837 200.62 306.837C201.174 306.837 201.45 307.668 201.174 308.223C200.897 309.054 200.067 309.608 199.514 309.608C198.96 309.608 198.684 309.054 198.96 308.223ZM198.684 313.489C199.237 313.212 199.79 313.212 199.79 314.043C199.79 314.598 199.237 315.706 198.684 315.984C198.131 316.261 197.577 316.261 197.577 315.429C197.577 314.598 198.131 313.766 198.684 313.489Z" fill="#DAD1D1"/>
<path d="M73.3647 279.1L72.1198 281.261L75.4738 283.201L76.7187 281.041L73.3647 279.1Z" fill="#E75C5B"/>
<path d="M73.6395 270.249L103.794 252.787V252.51C104.347 249.738 105.177 246.689 106.561 243.917C109.327 238.096 113.753 233.107 118.456 230.335L128.139 224.792C132.842 222.02 136.992 222.297 139.482 225.069C140.588 226.178 141.418 228.118 141.972 230.335L143.078 237.819V238.096L143.908 242.531L141.695 247.52L138.928 245.026L138.375 241.145L137.269 233.662C136.715 230.335 134.502 228.672 131.736 229.227C130.906 229.504 129.799 229.781 128.692 230.335L119.01 235.879C117.903 236.433 116.797 237.265 115.69 238.374C112.647 241.423 110.434 245.58 109.604 249.738C109.604 250.015 109.604 250.015 109.604 250.292L108.497 258.33L107.391 263.32L101.858 266.369L78.8959 279.673C75.0228 281.891 71.1497 282.445 71.1497 279.673V274.407C71.4264 272.744 72.533 271.081 73.6395 270.249Z" fill="#202533"/>
<path d="M76.9594 272.189L107.114 254.727V254.45C107.667 251.678 108.497 248.629 109.88 245.857C112.647 240.037 117.073 235.047 121.776 232.276L131.459 226.732C136.162 223.96 140.312 224.237 142.802 227.009C143.908 228.118 144.738 230.058 145.291 232.276L146.398 239.759V240.037L147.228 244.471L141.695 247.52L141.142 243.64L140.035 236.156C139.482 232.83 137.269 231.167 134.502 231.721C133.672 231.998 132.566 232.276 131.459 232.83L121.776 238.374C120.67 238.928 119.563 239.759 118.457 240.868C115.413 243.917 113.2 248.075 112.37 252.232C112.37 252.51 112.37 252.51 112.37 252.787L111.54 260.548L110.987 264.983L105.454 268.032L82.4924 281.336C78.6193 283.554 74.7462 284.108 74.7462 281.336V276.07C74.7462 274.684 75.8528 273.021 76.9594 272.189Z" fill="#695D59"/>
<path d="M78.0659 246.689L80.0025 283.554L164.657 332.337L162.72 295.472L78.0659 246.689Z" fill="url(#paint0_linear)"/>
<path d="M226.903 196.242L142.525 147.459C141.142 146.627 139.482 146.905 137.545 148.013L94.1116 173.237C89.9619 175.731 86.6422 181.275 86.6422 185.987V188.481L171.296 237.542L226.903 196.242Z" fill="url(#paint1_linear)"/>
<path d="M172.956 238.374L86.6419 188.481C86.0886 189.59 85.812 190.976 85.5354 192.085L84.9821 195.411L169.636 244.471L172.956 238.374Z" fill="#E6A90A"/>
<path d="M162.72 323.745V298.521C162.72 292.423 163.274 286.048 164.38 279.396L170.19 241.145C170.743 236.71 173.786 232.276 177.383 230.335L221.923 204.281C226.073 202.063 229.116 198.737 229.116 203.449V203.726L215.283 211.764V283.276L206.984 287.989C201.728 291.037 197.025 298.244 196.195 304.896L194.535 317.647L169.913 331.783C165.763 334 162.72 332.337 162.72 327.625V323.745Z" fill="#E6A90A"/>
<path d="M215.283 280.782V211.764L229.116 203.726V280.782H215.283Z" fill="url(#paint2_linear)"/>
<path d="M178.489 222.02L222.199 196.797C226.072 194.579 229.392 196.242 229.392 200.954V203.726L171.296 237.265V234.77C171.019 230.058 174.339 224.515 178.489 222.02Z" fill="#E6A90A"/>
<path d="M78.0659 246.689L162.72 295.749L169.913 291.592C171.02 290.76 172.126 289.097 172.126 287.711V245.857C172.126 244.471 171.02 243.917 169.913 244.471H169.636L84.9821 195.411C82.4923 206.221 78.0659 231.721 78.0659 246.689Z" fill="#DDDDDD"/>
<path opacity="0.5" d="M82.2156 245.857L80.8324 245.026C80.8324 231.444 84.1522 210.656 86.642 199.569L126.756 222.852C108.774 222.02 91.6217 231.167 82.2156 245.857Z" fill="white"/>
<path d="M193.981 296.304C192.875 298.521 191.215 300.462 189.555 301.57L180.702 306.837C178.489 308.223 176.553 307.114 176.553 304.342V246.135C176.553 243.086 178.766 239.205 181.532 237.542L202.834 225.069C205.601 223.406 207.814 224.792 207.814 227.841V274.684C207.814 278.01 205.601 282.445 202.834 284.662C199.514 287.434 196.195 291.037 193.981 296.304Z" fill="url(#paint3_linear)"/>
<path d="M181.532 273.021L201.174 257.499C203.94 255.281 206.154 251.124 206.154 247.798V228.949C206.154 226.732 204.77 225.901 202.834 227.009L181.532 239.482C179.595 240.591 178.212 243.086 178.212 245.303V271.635C177.936 273.852 179.595 274.407 181.532 273.021Z" fill="#DDDDDD"/>
<path opacity="0.5" d="M180.426 245.303C180.426 244.194 181.532 242.531 182.362 241.977L195.365 234.493C189.832 242.808 188.172 253.341 188.725 264.151L180.426 270.526V245.303Z" fill="white"/>
<path d="M198.684 263.043C198.684 263.597 199.238 263.874 199.514 263.597L203.111 261.657C203.664 261.379 203.941 260.548 203.941 259.994C203.941 259.439 203.387 259.162 203.111 259.439L199.514 261.379C198.961 261.657 198.684 262.488 198.684 263.043Z" fill="#1D1715"/>
<path d="M219.156 213.982C219.156 214.536 219.433 214.813 219.986 214.536L225.796 211.21C226.349 210.933 226.626 210.379 226.626 209.824C226.626 209.27 226.349 208.993 225.796 209.27L219.986 212.596C219.709 212.596 219.156 213.428 219.156 213.982Z" fill="#1D1715"/>
<path d="M219.156 217.585C219.156 218.14 219.433 218.417 219.986 218.14L225.796 214.813C226.349 214.536 226.626 213.982 226.626 213.427C226.626 212.873 226.349 212.596 225.796 212.873L219.986 216.199C219.709 216.199 219.156 217.031 219.156 217.585Z" fill="#1D1715"/>
<path d="M219.156 221.189C219.156 221.743 219.433 222.02 219.986 221.743L225.796 218.417C226.349 218.14 226.626 217.585 226.626 217.031C226.626 216.477 226.349 216.199 225.796 216.477L219.986 219.803C219.709 220.08 219.156 220.634 219.156 221.189Z" fill="#1D1715"/>
<path d="M219.156 225.069C219.156 225.623 219.433 225.901 219.986 225.623L225.796 222.297C226.349 222.02 226.626 221.466 226.626 220.911C226.626 220.357 226.349 220.08 225.796 220.357L219.986 223.683C219.709 223.683 219.156 224.515 219.156 225.069Z" fill="#1D1715"/>
<path d="M219.156 228.672C219.156 229.227 219.433 229.504 219.986 229.227L225.796 225.9C226.349 225.623 226.626 225.069 226.626 224.515C226.626 223.96 226.349 223.683 225.796 223.96L220.263 227.286C219.709 227.563 219.156 228.118 219.156 228.672Z" fill="#1D1715"/>
<path d="M219.156 232.276C219.156 232.83 219.433 233.107 219.986 232.83L225.796 229.504C226.349 229.227 226.626 228.672 226.626 228.118C226.626 227.564 226.349 227.287 225.796 227.564L219.986 230.89C219.709 231.167 219.156 231.721 219.156 232.276Z" fill="#1D1715"/>
<path d="M219.156 236.156C219.156 236.711 219.433 236.988 219.986 236.711L225.796 233.384C226.349 233.107 226.626 232.553 226.626 231.999C226.626 231.444 226.349 231.167 225.796 231.444L219.986 234.77C219.709 234.77 219.156 235.602 219.156 236.156Z" fill="#1D1715"/>
<path d="M161.06 329.633L159.815 331.793L163.17 333.733L164.414 331.573L161.06 329.633Z" fill="#695D59"/>
<path d="M159.124 324.853V330.12C159.124 331.783 160.507 332.337 162.444 332.06C163.827 331.783 165.21 331.228 166.87 330.397L189.832 317.092L195.365 314.043L195.918 309.608L197.025 301.57C197.025 301.293 197.025 301.016 197.025 301.016C197.578 298.521 198.408 296.304 199.514 294.086C200.621 292.423 201.728 290.76 203.111 289.652C204.217 288.543 205.047 287.711 206.154 287.157L215.837 281.336C216.943 280.782 217.773 280.505 218.88 280.227C220.816 279.95 222.476 280.505 223.306 282.168C225.519 282.445 227.179 283.831 227.456 286.603L228.562 294.086L229.116 297.967L231.329 292.978L230.499 288.543V288.266L229.392 280.782C229.116 278.564 228.286 276.901 226.902 275.515C224.413 272.744 220.263 272.467 215.56 275.238L205.877 280.782C201.174 283.554 196.748 288.82 193.981 294.364C192.598 297.135 191.768 300.184 191.215 302.956V303.233L161.06 320.696C159.954 321.804 159.124 323.467 159.124 324.853Z" fill="#202533"/>
<path d="M162.443 326.794V332.06C162.443 334.832 166.317 334.277 170.19 332.06L193.151 318.755L198.684 315.706L199.238 311.272L200.344 303.233C200.344 302.956 200.344 302.679 200.344 302.679C201.174 298.521 203.387 294.364 206.43 291.315C207.537 290.483 208.367 289.374 209.474 288.82L219.156 283.276C220.263 282.722 221.093 282.168 222.199 282.168C222.753 282.168 223.029 282.168 223.306 282.168C225.519 282.445 227.179 283.831 227.456 286.603L228.562 294.086L229.116 297.967L234.649 294.918L233.819 290.483V290.206L232.712 282.722C232.435 280.505 231.605 278.842 230.222 277.456C229.392 276.624 228.286 275.793 226.902 275.516C224.689 274.961 221.646 275.515 218.88 277.179L209.197 282.999C205.047 285.217 201.451 289.374 198.684 294.086C198.131 294.918 197.578 295.75 197.301 296.858C195.918 299.63 195.088 302.679 194.535 305.451V305.728L164.38 323.19C163.273 323.467 162.443 325.408 162.443 326.794Z" fill="#404E66"/>
<path d="M78.3426 271.358C72.8096 269.695 72.533 275.515 72.533 281.059L159.677 331.505L162.443 319.864L78.3426 271.358Z" fill="#202533"/>
<g opacity="0.2">
<path opacity="0.2" d="M101.581 240.037C101.581 244.749 104.624 250.292 108.774 252.51C109.88 253.341 111.264 253.618 112.37 253.618C115.137 253.618 117.073 251.401 117.35 248.075C117.35 247.798 117.35 247.798 117.35 247.52C117.35 242.808 114.307 237.265 110.157 235.047C109.05 234.216 107.667 233.939 106.561 233.939C104.347 233.939 102.688 235.325 101.858 237.542C101.581 238.374 101.581 239.205 101.581 240.037ZM104.071 240.037C104.071 239.759 104.071 238.928 104.347 238.374C104.624 237.542 105.177 236.433 106.561 236.433C107.114 236.433 107.944 236.71 108.774 237.265C111.817 238.928 114.307 243.086 114.583 246.412C114.583 246.689 114.583 247.243 114.583 247.52C114.583 248.629 114.307 250.847 112.094 250.847C111.54 250.847 110.71 250.569 109.88 250.015C106.837 248.352 104.071 243.64 104.071 240.037Z" fill="#3C3C3B"/>
<path opacity="0.2" d="M78.0659 246.689L162.72 295.749L169.913 291.592C171.02 290.76 172.126 289.097 172.126 287.711V282.168C154.697 270.526 117.35 248.906 117.35 248.906C115.137 242.808 102.411 237.265 97.4313 240.868C93.8348 240.591 93.2815 240.037 89.1318 240.314C88.8552 240.037 78.6192 245.857 78.0659 246.689Z" fill="#575756"/>
</g>
<path d="M148.611 282.168C148.611 283.831 149.718 284.662 151.101 283.831C151.378 283.554 151.654 283.276 151.654 282.722L152.207 268.863C152.207 268.586 151.931 268.309 151.654 268.586H151.378C149.994 269.418 148.888 271.081 148.888 272.744L148.611 282.168Z" fill="#E6A90A"/>
<path d="M151.931 268.586L149.441 284.108L155.251 287.434L157.741 271.912L151.931 268.586Z" fill="#E6A90A"/>
<path d="M154.144 285.494C154.144 287.157 155.251 287.988 156.634 287.157C156.911 286.88 157.187 286.603 157.187 286.048L157.74 272.189C157.74 271.912 157.464 271.635 157.187 271.912H156.911C155.527 272.744 154.421 274.407 154.421 276.07L154.144 285.494Z" fill="url(#paint4_linear)"/>
<path d="M167.977 236.988L160.507 241.422C158.017 242.808 155.527 245.303 153.868 248.629C152.208 251.678 151.654 254.727 151.931 257.222L152.208 270.249L154.974 271.912L155.527 268.586V255.836C155.804 252.51 157.464 248.629 160.23 246.966L166.317 242.808L170.466 238.651L167.977 236.988Z" fill="#E6A90A"/>
<path d="M170.743 238.651L163.274 243.085C160.784 244.471 158.294 246.966 156.634 250.292C154.974 253.341 154.421 256.39 154.698 258.885L154.974 271.912L156.081 271.08L156.634 257.499C156.911 254.172 159.677 249.46 162.444 247.797L169.36 244.471L170.743 238.651Z" fill="url(#paint5_linear)"/>
<path d="M67 234.77C67 236.433 68.1066 237.265 69.4898 236.433C69.7665 236.156 70.0431 235.879 70.0431 235.324L70.5964 221.465C70.5964 221.188 70.3198 220.911 70.0431 221.188H69.7665C68.3832 222.02 67.2766 223.683 67.2766 225.346L67 234.77Z" fill="#E6A90A"/>
<path d="M70.3196 221.188L68.1064 236.71L73.6394 240.036L76.4059 224.514L70.3196 221.188Z" fill="#E6A90A"/>
<path d="M72.8098 238.096C72.8098 239.759 73.9164 240.591 75.2996 239.759C75.5763 239.482 75.8529 239.205 75.8529 238.65L76.4062 224.792C76.4062 224.514 76.1296 224.237 75.8529 224.514H75.5763C74.1931 225.346 73.0865 227.009 73.0865 228.672L72.8098 238.096Z" fill="url(#paint6_linear)"/>
<path d="M86.6419 189.59L79.1724 194.025C76.6826 195.411 74.1927 197.905 72.5328 201.232C70.873 204.281 70.3197 207.33 70.5963 209.824L70.873 222.852L73.6394 224.515L74.1927 221.188V208.438C74.4694 205.112 76.1293 201.232 78.8957 199.569L84.982 195.411L89.4084 191.253L86.6419 189.59Z" fill="#E6A90A"/>
<path d="M89.4084 191.253L81.9389 195.688C79.4491 197.074 76.9593 199.569 75.2994 202.617C73.6395 205.666 73.0862 208.715 73.3629 211.21L73.6395 224.237L74.7461 223.406L75.2994 209.824C75.576 206.498 78.3425 201.786 81.109 200.123L88.0252 196.797L89.4084 191.253Z" fill="url(#paint7_linear)"/>
<path d="M94.9417 270.804L83.0458 263.874C82.4925 263.597 81.9392 262.765 81.9392 262.211V254.45C81.9392 253.896 82.4925 253.618 83.0458 253.896L94.9417 260.825C95.4949 261.102 96.0482 261.934 96.0482 262.488V270.249C95.7716 270.804 95.4949 271.081 94.9417 270.804Z" fill="#F9B233"/>
<path d="M95.2182 271.358C94.9416 271.358 94.6649 271.358 94.3883 271.081L82.4924 264.151C81.6625 263.874 81.1092 262.765 81.1092 261.934V254.173C81.1092 253.064 81.9391 252.51 82.7691 253.064L94.6649 259.993C95.4949 260.271 96.0482 261.379 96.0482 262.211V269.972C96.3248 270.803 96.0482 271.358 95.2182 271.358ZM95.2182 270.249V270.803V270.249ZM82.4924 253.896C82.4924 254.173 82.4924 254.173 82.4924 253.896V261.934C82.4924 262.488 82.7691 263.042 83.3224 263.042L95.2182 269.972H95.4949C95.4949 269.972 95.4949 269.972 95.4949 269.695V261.934C95.4949 261.379 95.2182 260.825 94.6649 260.825L82.4924 253.896C82.4924 254.173 82.4924 253.896 82.4924 253.896Z" fill="white"/>
<path d="M157.464 306.837L145.568 299.907C145.015 299.63 144.461 298.799 144.461 298.244V290.483C144.461 289.929 145.015 289.652 145.568 289.929L157.464 296.858C158.017 297.135 158.57 297.967 158.57 298.521V306.282C158.294 306.837 158.017 307.114 157.464 306.837Z" fill="#F9B233"/>
<path d="M157.74 307.391C157.464 307.391 157.187 307.391 156.91 307.114L145.015 300.184C144.185 299.907 143.631 298.798 143.631 297.967V290.206C143.631 289.097 144.461 288.543 145.291 289.097L157.187 296.027C158.017 296.304 158.57 297.413 158.57 298.244V306.005C158.847 307.114 158.57 307.391 157.74 307.391ZM157.74 306.559V307.114V306.559ZM145.015 290.206V298.244C145.015 298.798 145.291 299.353 145.845 299.353L157.74 306.282H158.017C158.017 306.282 158.017 306.282 158.017 306.005V298.244C158.017 297.69 157.74 297.135 157.187 297.135L145.015 290.206Z" fill="white"/>
<path d="M89.4086 274.407L82.769 270.526C82.2157 270.249 81.6624 269.418 81.6624 268.863V266.369C81.6624 265.814 82.2157 265.537 82.769 265.814L89.4086 269.695C89.9618 269.972 90.5151 270.804 90.5151 271.358V273.852C90.5151 274.684 89.9618 274.961 89.4086 274.407Z" fill="white"/>
<path d="M157.464 313.766L150.824 309.886C150.271 309.608 149.717 308.777 149.717 308.223V305.728C149.717 305.174 150.271 304.896 150.824 305.174L157.464 309.054C158.017 309.331 158.57 310.163 158.57 310.717V313.212C158.294 313.766 158.017 314.043 157.464 313.766Z" fill="white"/>
<path d="M133.396 284.385C133.396 284.939 133.119 285.217 132.566 284.939L105.454 268.863C104.901 268.586 104.624 268.032 104.624 267.477C104.624 266.923 104.901 266.646 105.454 266.923L132.842 282.722C133.119 283.276 133.396 283.831 133.396 284.385Z" fill="#202533"/>
<path d="M133.395 287.434C133.395 287.988 133.119 288.265 132.566 287.988L105.177 272.189C104.624 271.912 104.347 271.358 104.347 270.803C104.347 270.249 104.624 269.972 105.177 270.249L132.566 286.048C133.119 286.325 133.395 287.157 133.395 287.434Z" fill="#202533"/>
<path d="M133.395 290.76C133.395 291.314 133.119 291.592 132.566 291.314L105.177 275.515C104.624 275.238 104.347 274.684 104.347 274.129C104.347 273.575 104.624 273.298 105.177 273.575L132.566 289.374C133.119 289.651 133.395 290.206 133.395 290.76Z" fill="#202533"/>
<path d="M133.395 293.809C133.395 294.363 133.119 294.641 132.566 294.363L105.177 278.564C104.624 278.287 104.347 277.733 104.347 277.178C104.347 276.624 104.624 276.347 105.177 276.624L132.566 292.423C133.119 292.7 133.395 293.255 133.395 293.809Z" fill="#202533"/>
<path d="M133.395 296.858C133.395 297.412 133.119 297.69 132.566 297.412L105.177 281.613C104.624 281.336 104.347 280.782 104.347 280.227C104.347 279.673 104.624 279.396 105.177 279.673L132.566 295.472C133.119 295.749 133.395 296.304 133.395 296.858Z" fill="#202533"/>
<path opacity="0.25" d="M165.21 167.97L142.248 154.666C140.865 153.834 138.928 153.834 137.545 154.666L88.3018 181.552C117.073 167.97 143.355 161.595 165.21 167.97Z" fill="white"/>
<path d="M287.031 183.325C288.217 182.651 289.299 182.276 290.277 182.198C291.254 182.12 292.036 182.336 292.623 182.846C293.209 183.356 293.404 184.194 293.458 185.22C293.512 186.245 293.415 187.25 292.915 188.377C292.415 189.504 291.7 190.57 290.771 191.575C289.842 192.579 288.785 193.418 287.599 194.092C286.557 194.683 285.589 195.05 284.694 195.193C283.811 195.329 283.064 195.24 282.454 194.926C281.855 194.606 281.439 194.086 281.207 193.365L279.993 194.054L280.205 198.077L276.963 199.918L276.417 189.565L279.659 187.724L279.864 191.599L281.111 190.891C281.279 189.963 281.635 189.029 282.179 188.091C282.723 187.142 283.412 186.258 284.248 185.438C285.083 184.608 286.011 183.904 287.031 183.325ZM287.471 191.666C288.025 191.352 288.517 190.945 288.948 190.447C289.378 189.949 289.709 189.405 289.941 188.817C290.183 188.222 290.289 187.629 290.258 187.037C290.227 186.446 290.066 186.003 289.777 185.711C289.499 185.412 289.131 185.265 288.675 185.27C288.218 185.276 287.713 185.436 287.159 185.75C286.605 186.065 286.107 186.475 285.665 186.979C285.234 187.468 284.898 188.014 284.656 188.619C284.424 189.207 284.324 189.797 284.355 190.389C284.386 190.98 284.541 191.431 284.82 191.739C285.11 192.032 285.483 192.176 285.939 192.17C286.406 192.149 286.917 191.981 287.471 191.666Z" fill="white"/>
<path d="M305.456 173.076L306.003 183.429L302.71 185.298L302.497 181.26L298.008 183.809L298.221 187.847L294.929 189.717L294.383 179.364L297.675 177.494L297.88 181.384L302.369 178.835L302.164 174.945L305.456 173.076Z" fill="white"/>
<path d="M307.25 172.057L310.492 170.216L310.813 176.295L315.297 167.488L318.39 165.732L318.936 176.085L315.694 177.926L315.374 171.862L310.905 180.645L307.796 182.41L307.25 172.057Z" fill="white"/>
<path d="M331.231 158.44L331.777 168.793L328.518 170.644L328.095 162.613L323.672 165.124L324.095 173.155L320.853 174.996L320.307 164.643L331.231 158.44Z" fill="white"/>
<path d="M339.163 164.813C337.933 165.511 336.812 165.909 335.801 166.006C334.801 166.096 333.997 165.893 333.389 165.395C332.791 164.892 332.466 164.127 332.411 163.102C332.357 162.076 332.586 160.997 333.097 159.864C333.619 158.724 334.356 157.646 335.307 156.629C336.269 155.605 337.365 154.744 338.595 154.045C339.826 153.347 340.941 152.952 341.941 152.862C342.952 152.765 343.756 152.968 344.354 153.472C344.962 153.969 345.293 154.731 345.348 155.756C345.402 156.782 345.168 157.864 344.645 159.004C344.134 160.137 343.398 161.215 342.436 162.239C341.485 163.256 340.394 164.114 339.163 164.813ZM339.036 162.387C339.623 162.053 340.149 161.628 340.612 161.111C341.076 160.594 341.435 160.035 341.688 159.434C341.941 158.823 342.053 158.226 342.022 157.645C341.991 157.063 341.826 156.629 341.525 156.342C341.224 156.046 340.829 155.91 340.339 155.934C339.85 155.959 339.311 156.137 338.723 156.471C338.136 156.805 337.61 157.23 337.147 157.747C336.683 158.264 336.325 158.828 336.071 159.439C335.818 160.04 335.706 160.632 335.737 161.213C335.768 161.795 335.933 162.234 336.234 162.53C336.535 162.817 336.93 162.948 337.42 162.924C337.909 162.899 338.448 162.721 339.036 162.387Z" fill="white"/>
<path d="M352.854 157.039C351.635 157.731 350.526 158.127 349.526 158.228C348.537 158.312 347.744 158.102 347.147 157.598C346.549 157.095 346.223 156.325 346.169 155.29C346.114 154.255 346.342 153.171 346.853 152.037C347.364 150.904 348.09 149.837 349.031 148.836C349.982 147.819 351.067 146.964 352.286 146.272C353.35 145.667 354.318 145.29 355.189 145.141C356.061 144.992 356.795 145.072 357.394 145.382L355.388 148.258C354.592 147.877 353.656 147.992 352.581 148.603C351.949 148.961 351.39 149.406 350.904 149.935C350.429 150.459 350.065 151.026 349.812 151.637C349.569 152.232 349.464 152.82 349.494 153.402C349.525 153.983 349.685 154.426 349.975 154.728C350.276 155.014 350.676 155.142 351.177 155.112C351.689 155.075 352.261 154.877 352.893 154.519C353.968 153.908 354.861 152.985 355.572 151.748L357.756 152.245C357.224 153.197 356.54 154.083 355.704 154.902C354.868 155.722 353.918 156.434 352.854 157.039Z" fill="white"/>
<path d="M368.324 139.77L364.765 141.791L365.189 149.821L361.947 151.662L361.523 143.632L357.948 145.661L357.826 143.339L368.201 137.448L368.324 139.77Z" fill="white"/>
<path d="M284.452 202.57C284.49 203.292 284.249 204.013 283.73 204.733C283.217 205.45 282.463 206.121 281.468 206.745L281.554 208.369L280.399 209.024L280.314 207.41C279.313 207.918 278.534 208.118 277.978 208.008C277.421 207.899 277.124 207.48 277.085 206.753C277.047 206.031 277.285 205.318 277.799 204.613C278.312 203.902 279.066 203.234 280.061 202.609L279.968 200.855L281.123 200.199L281.215 201.954C282.216 201.445 282.995 201.243 283.551 201.347C284.114 201.446 284.414 201.854 284.452 202.57ZM278.289 206.07C278.312 206.518 278.484 206.78 278.804 206.856C279.13 206.928 279.617 206.808 280.266 206.493L280.11 203.534C279.467 203.948 278.995 204.365 278.695 204.787C278.401 205.206 278.266 205.633 278.289 206.07ZM281.42 205.838C282.693 205.007 283.306 204.144 283.259 203.248C283.235 202.805 283.058 202.556 282.725 202.499C282.399 202.432 281.912 202.559 281.264 202.879L281.42 205.838Z" fill="white" fill-opacity="0.6"/>
<path d="M291.281 196.301L289.101 202.726C288.899 203.362 288.64 203.875 288.325 204.263C288.01 204.658 287.621 204.987 287.158 205.25C286.897 205.398 286.637 205.506 286.379 205.575C286.121 205.644 285.906 205.658 285.736 205.616L286.183 204.536C286.306 204.568 286.447 204.569 286.606 204.538C286.773 204.504 286.937 204.44 287.1 204.348C287.315 204.225 287.489 204.076 287.621 203.899C287.759 203.719 287.881 203.479 287.986 203.179L288.064 202.946L285.538 199.562L286.81 198.84L288.635 201.354L290.107 196.968L291.281 196.301Z" fill="white" fill-opacity="0.6"/>
<path d="M297.519 192.759L297.764 197.42L296.542 198.115L296.345 194.379L294.388 195.49L294.388 196.443C294.388 197.078 294.35 197.633 294.274 198.108C294.205 198.573 294.062 198.992 293.847 199.366C293.638 199.731 293.337 200.024 292.946 200.246C292.763 200.35 292.537 200.446 292.266 200.533L292.276 199.584C292.368 199.549 292.447 199.514 292.512 199.477C292.76 199.336 292.941 199.143 293.056 198.898C293.171 198.647 293.238 198.39 293.257 198.128C293.283 197.855 293.297 197.482 293.299 197.007L293.292 195.159L297.519 192.759Z" fill="white" fill-opacity="0.6"/>
<path d="M307.173 189.669C307.211 190.39 306.971 191.111 306.451 191.832C305.938 192.548 305.184 193.219 304.189 193.844L304.275 195.467L303.121 196.123L303.035 194.508C302.034 195.017 301.256 195.216 300.699 195.107C300.142 194.997 299.845 194.579 299.807 193.851C299.768 193.13 300.006 192.417 300.52 191.711C301.033 191 301.787 190.333 302.782 189.708L302.69 187.953L303.844 187.298L303.937 189.052C304.938 188.544 305.716 188.341 306.272 188.445C306.835 188.545 307.136 188.953 307.173 189.669ZM301.01 193.168C301.034 193.616 301.205 193.878 301.525 193.955C301.851 194.027 302.339 193.906 302.987 193.592L302.831 190.633C302.188 191.046 301.716 191.464 301.416 191.886C301.122 192.304 300.987 192.732 301.01 193.168ZM304.141 192.936C305.414 192.106 306.027 191.242 305.98 190.346C305.956 189.904 305.779 189.654 305.447 189.597C305.121 189.531 304.634 189.657 303.985 189.977L304.141 192.936Z" fill="white" fill-opacity="0.6"/>
<path d="M309.214 186.118L310.437 185.424L310.599 188.496L313.323 183.785L314.439 183.152L314.685 187.813L313.462 188.507L313.3 185.435L310.585 190.14L309.46 190.779L309.214 186.118Z" fill="white" fill-opacity="0.6"/>
<path d="M321.797 178.974L322.043 183.634L320.82 184.329L320.623 180.593L318.666 181.704L318.666 182.657C318.666 183.292 318.628 183.847 318.553 184.322C318.483 184.787 318.341 185.206 318.125 185.58C317.916 185.945 317.616 186.238 317.224 186.46C317.042 186.564 316.815 186.66 316.544 186.748L316.555 185.798C316.647 185.764 316.726 185.728 316.791 185.691C317.039 185.55 317.22 185.357 317.335 185.112C317.449 184.862 317.516 184.605 317.536 184.342C317.562 184.069 317.576 183.696 317.578 183.221L317.571 181.373L321.797 178.974Z" fill="white" fill-opacity="0.6"/>
<path d="M329.804 179.227L329.641 176.138L328.018 179.739L327.489 180.038L325.62 178.412L325.784 181.511L324.668 182.144L324.422 177.483L325.704 176.755L327.717 178.615L329.51 174.594L330.654 173.944L330.91 178.6L329.804 179.227Z" fill="white" fill-opacity="0.6"/>
<path d="M338.299 172.031C338.303 172.107 338.302 172.218 338.296 172.365L334.197 174.693C334.287 174.995 334.487 175.163 334.798 175.196C335.115 175.22 335.498 175.104 335.948 174.849C336.522 174.523 336.986 174.086 337.34 173.537L338.031 173.837C337.81 174.22 337.523 174.578 337.171 174.91C336.819 175.241 336.418 175.535 335.968 175.791C335.394 176.117 334.883 176.302 334.435 176.346C333.988 176.391 333.634 176.301 333.373 176.077C333.119 175.844 332.98 175.498 332.956 175.038C332.932 174.584 333.024 174.112 333.234 173.621C333.449 173.122 333.757 172.653 334.157 172.216C334.557 171.779 335.015 171.414 335.53 171.122C336.039 170.833 336.497 170.677 336.906 170.655C337.321 170.623 337.649 170.728 337.89 170.969C338.137 171.2 338.273 171.554 338.299 172.031ZM335.576 171.995C335.185 172.217 334.858 172.51 334.595 172.876C334.338 173.231 334.19 173.597 334.149 173.974L337.113 172.291C337.043 171.983 336.869 171.8 336.591 171.742C336.312 171.685 335.974 171.769 335.576 171.995Z" fill="white" fill-opacity="0.6"/>
<path d="M340.49 168.359L341.713 167.665L341.813 169.559L344.445 168.065L344.345 166.171L345.568 165.476L345.814 170.137L344.591 170.831L344.493 168.99L341.862 170.484L341.959 172.326L340.736 173.02L340.49 168.359Z" fill="white" fill-opacity="0.6"/>
<path d="M352.372 162.566L350.543 163.604L350.74 167.34L349.517 168.034L349.32 164.299L347.48 165.343L347.432 164.418L352.323 161.64L352.372 162.566Z" fill="white" fill-opacity="0.6"/>
<path d="M371.377 128.497L378.864 120.165L386.769 119.757L379.282 128.088L371.377 128.497Z" fill="#FCBD17"/>
<path d="M379.704 135.993L371.794 136.412L371.382 128.494L379.292 128.075L379.704 135.993Z" fill="#FFCE4E"/>
<path d="M379.704 135.993L379.281 128.08L386.774 119.754L387.197 127.666L379.704 135.993Z" fill="#E6A90A"/>
<path fill-rule="evenodd" clip-rule="evenodd" d="M379.267 128.095L375.339 128.287L383.641 123.261L379.489 132.014L379.267 128.095Z" fill="white"/>
<path fill-rule="evenodd" clip-rule="evenodd" d="M379.267 128.095L383.641 123.261L379.489 132.014L379.267 128.095Z" fill="#F9F9F9"/>
<defs>
<linearGradient id="paint0_linear" x1="75.1796" y1="273.811" x2="164.283" y2="317.4" gradientUnits="userSpaceOnUse">
<stop stop-color="#FBBD1C"/>
<stop offset="1" stop-color="#F5B714"/>
</linearGradient>
<linearGradient id="paint1_linear" x1="81.9668" y1="175.655" x2="196.513" y2="261.492" gradientUnits="userSpaceOnUse">
<stop stop-color="#FBBD1C"/>
<stop offset="1" stop-color="#F5B714"/>
</linearGradient>
<linearGradient id="paint2_linear" x1="214.822" y1="228.127" x2="232.33" y2="229.648" gradientUnits="userSpaceOnUse">
<stop stop-color="#FBBD1C"/>
<stop offset="1" stop-color="#F5B714"/>
</linearGradient>
<linearGradient id="paint3_linear" x1="175.511" y1="250.665" x2="214.098" y2="257.691" gradientUnits="userSpaceOnUse">
<stop stop-color="#FBBD1C"/>
<stop offset="1" stop-color="#F5B714"/>
</linearGradient>
<linearGradient id="paint4_linear" x1="154.024" y1="276.764" x2="158.555" y2="277.267" gradientUnits="userSpaceOnUse">
<stop stop-color="#FBBD1C"/>
<stop offset="1" stop-color="#F5B714"/>
</linearGradient>
<linearGradient id="paint5_linear" x1="154.092" y1="249.183" x2="173.571" y2="253.749" gradientUnits="userSpaceOnUse">
<stop stop-color="#FBBD1C"/>
<stop offset="1" stop-color="#F5B714"/>
</linearGradient>
<linearGradient id="paint6_linear" x1="72.6899" y1="229.367" x2="77.2206" y2="229.869" gradientUnits="userSpaceOnUse">
<stop stop-color="#FBBD1C"/>
<stop offset="1" stop-color="#F5B714"/>
</linearGradient>
<linearGradient id="paint7_linear" x1="72.7578" y1="201.698" x2="92.2194" y2="206.299" gradientUnits="userSpaceOnUse">
<stop stop-color="#FBBD1C"/>
<stop offset="1" stop-color="#F5B714"/>
</linearGradient>
</defs>
</svg>
