<svg width="181" height="60" viewBox="0 0 181 60" fill="none" xmlns="http://www.w3.org/2000/svg">
<path d="M17.6128 19.5063C19.537 19.5063 21.2725 19.929 22.8191 20.7742C24.3657 21.6194 25.5796 22.7884 26.4608 24.281C27.342 25.7737 27.5798 27.4552 27.5798 29.3255C27.5798 31.1958 27.342 32.8773 26.4608 34.3699C25.5796 35.8626 24.3657 37.0315 22.8191 37.8767C21.2725 38.722 19.537 39.1446 17.6128 39.1446C15.9223 39.1446 14.3667 38.8209 12.946 38.1735C11.5433 37.5261 10.3743 36.6179 9.43917 35.4489C8.522 34.28 7.91056 32.9402 7.60483 31.4296H5.63561V38.7669H0.375366V19.884H5.63561V26.9516H7.65878C8.00048 25.477 8.6389 24.1821 9.57405 23.0671C10.5092 21.9342 11.6692 21.0619 13.0539 20.4505C14.4387 19.8211 15.9583 19.5063 17.6128 19.5063ZM17.6128 34.7206C18.512 34.7206 19.3212 34.4958 20.0406 34.0462C20.7599 33.5966 21.3264 32.9672 21.7401 32.1579C22.1717 31.3486 22.3875 30.4045 22.3875 29.3255C22.3875 28.2464 22.1717 27.3023 21.7401 26.493C21.3264 25.6838 20.7599 25.0543 20.0406 24.6047C19.3212 24.1551 18.512 23.9304 17.6128 23.9304C16.7136 23.9304 15.8953 24.1551 15.158 24.6047C14.4387 25.0363 13.8632 25.6658 13.4316 26.493C13.0179 27.3023 12.8111 28.2464 12.8111 29.3255C12.8111 30.4045 13.0179 31.3576 13.4316 32.1849C13.8632 32.9942 14.4387 33.6236 15.158 34.0732C15.8953 34.5048 16.7136 34.7206 17.6128 34.7206Z" fill="white"/>
<path d="M47.488 19.884V38.7669H42.1469V31.4026H34.8634V38.7669H29.5223V19.884H34.8634V26.9786H42.1469V19.884H47.488Z" fill="white"/>
<path d="M50.3973 19.884H55.6576V30.971L63.4535 19.884H68.471V38.7669H63.2108V27.7069L55.4418 38.7669H50.3973V19.884Z" fill="white"/>
<path d="M89.3036 19.884V38.7669H84.0164V24.1192H76.8409V38.7669H71.5806V19.884H89.3036Z" fill="white"/>
<path d="M101.269 39.1446C99.2729 39.1446 97.4745 38.722 95.8739 37.8767C94.2914 37.0315 93.0415 35.8626 92.1243 34.3699C91.2251 32.8773 90.7755 31.1958 90.7755 29.3255C90.7755 27.4552 91.2251 25.7737 92.1243 24.281C93.0415 22.7884 94.2914 21.6194 95.8739 20.7742C97.4745 19.929 99.2729 19.5063 101.269 19.5063C103.265 19.5063 105.055 19.929 106.637 20.7742C108.238 21.6194 109.488 22.7884 110.387 24.281C111.304 25.7737 111.763 27.4552 111.763 29.3255C111.763 31.1958 111.304 32.8773 110.387 34.3699C109.488 35.8626 108.238 37.0315 106.637 37.8767C105.055 38.722 103.265 39.1446 101.269 39.1446ZM101.269 34.7206C102.222 34.7206 103.085 34.4958 103.859 34.0462C104.632 33.5966 105.243 32.9672 105.693 32.1579C106.143 31.3307 106.367 30.3865 106.367 29.3255C106.367 28.2644 106.143 27.3293 105.693 26.52C105.243 25.6928 104.632 25.0543 103.859 24.6047C103.085 24.1551 102.222 23.9304 101.269 23.9304C100.316 23.9304 99.4527 24.1551 98.6794 24.6047C97.9061 25.0543 97.2946 25.6928 96.845 26.52C96.3954 27.3293 96.1707 28.2644 96.1707 29.3255C96.1707 30.3865 96.3954 31.3307 96.845 32.1579C97.2946 32.9672 97.9061 33.5966 98.6794 34.0462C99.4527 34.4958 100.316 34.7206 101.269 34.7206Z" fill="white"/>
<path d="M123.48 39.1446C121.502 39.1446 119.722 38.731 118.139 37.9037C116.575 37.0585 115.343 35.8895 114.444 34.3969C113.544 32.9042 113.095 31.2138 113.095 29.3255C113.095 27.4372 113.544 25.7467 114.444 24.2541C115.343 22.7614 116.575 21.6015 118.139 20.7742C119.722 19.929 121.502 19.5063 123.48 19.5063C125.207 19.5063 126.762 19.8121 128.147 20.4235C129.532 21.035 130.683 21.9162 131.6 23.0671L128.201 26.1424C126.978 24.6677 125.495 23.9304 123.75 23.9304C122.725 23.9304 121.808 24.1551 120.999 24.6047C120.207 25.0543 119.587 25.6928 119.137 26.52C118.706 27.3293 118.49 28.2644 118.49 29.3255C118.49 30.3865 118.706 31.3307 119.137 32.1579C119.587 32.9672 120.207 33.5966 120.999 34.0462C121.808 34.4958 122.725 34.7206 123.75 34.7206C125.495 34.7206 126.978 33.9833 128.201 32.5086L131.6 35.5838C130.683 36.7348 129.532 37.616 128.147 38.2274C126.762 38.8389 125.207 39.1446 123.48 39.1446Z" fill="white"/>
<path d="M149.282 24.1192H143.51V38.7669H138.249V24.1192H132.45V19.884H149.282V24.1192Z" fill="white"/>
<path d="M11.9515 50.9941C11.9515 52.3101 11.5124 53.3448 10.6342 54.0983C9.76651 54.8519 8.52322 55.2817 6.90428 55.3878V58.3488H5.0314V55.4037C3.41246 55.2976 2.16916 54.8678 1.3015 54.1143C0.433832 53.3607 0 52.3207 0 50.9941C0 49.678 0.433832 48.6539 1.3015 47.9216C2.16916 47.1787 3.41246 46.7542 5.0314 46.648V43.4482H6.90428V46.648C8.52322 46.7542 9.76651 47.1787 10.6342 47.9216C11.5124 48.6645 11.9515 49.6887 11.9515 50.9941ZM1.95224 50.9941C1.95224 51.8113 2.2009 52.448 2.69822 52.9044C3.20613 53.3607 3.98385 53.6367 5.0314 53.7322V48.3355C3.98385 48.4204 3.20613 48.6857 2.69822 49.1315C2.2009 49.5772 1.95224 50.1981 1.95224 50.9941ZM6.90428 53.7322C8.97821 53.5412 10.0152 52.6285 10.0152 50.9941C10.0152 50.1875 9.75593 49.5666 9.23745 49.1315C8.72955 48.6857 7.95183 48.4204 6.90428 48.3355V53.7322Z" fill="white" fill-opacity="0.6"/>
<path d="M23.2285 46.7595L19.2606 55.945C18.8902 56.8683 18.4405 57.5157 17.9115 57.8872C17.3824 58.2692 16.7422 58.4603 15.9909 58.4603C15.5677 58.4603 15.1497 58.3913 14.7371 58.2533C14.3244 58.1153 13.9858 57.9243 13.7213 57.6802L14.5149 56.2156C14.7053 56.396 14.9275 56.5393 15.1815 56.6455C15.446 56.7516 15.7105 56.8046 15.9751 56.8046C16.3243 56.8046 16.61 56.7144 16.8322 56.534C17.0649 56.3536 17.2766 56.0511 17.467 55.6266L17.6099 55.2923L13.9117 46.7595H15.9751L18.6416 53.0477L21.3239 46.7595H23.2285Z" fill="white" fill-opacity="0.6"/>
<path d="M33.3487 46.7595V55.2605H31.3647V48.4469H28.1904L28.111 50.1344C28.0581 51.2594 27.9523 52.2039 27.7936 52.9681C27.6454 53.7216 27.3862 54.3212 27.0158 54.767C26.6561 55.2021 26.1588 55.4197 25.5239 55.4197C25.2276 55.4197 24.8626 55.3613 24.4287 55.2445L24.524 53.573C24.6721 53.6048 24.7991 53.6208 24.9049 53.6208C25.307 53.6208 25.6085 53.4616 25.8096 53.1432C26.0106 52.8142 26.1376 52.4268 26.1905 51.9811C26.254 51.5247 26.3069 50.8773 26.3492 50.0389L26.4921 46.7595H33.3487Z" fill="white" fill-opacity="0.6"/>
<path d="M48.8134 50.9941C48.8134 52.3101 48.3743 53.3448 47.4961 54.0983C46.6284 54.8519 45.3851 55.2817 43.7662 55.3878V58.3488H41.8933V55.4037C40.2743 55.2976 39.031 54.8678 38.1634 54.1143C37.2957 53.3607 36.8619 52.3207 36.8619 50.9941C36.8619 49.678 37.2957 48.6539 38.1634 47.9216C39.031 47.1787 40.2743 46.7542 41.8933 46.648V43.4482H43.7662V46.648C45.3851 46.7542 46.6284 47.1787 47.4961 47.9216C48.3743 48.6645 48.8134 49.6887 48.8134 50.9941ZM38.8141 50.9941C38.8141 51.8113 39.0628 52.448 39.5601 52.9044C40.068 53.3607 40.8457 53.6367 41.8933 53.7322V48.3355C40.8457 48.4204 40.068 48.6857 39.5601 49.1315C39.0628 49.5772 38.8141 50.1981 38.8141 50.9941ZM43.7662 53.7322C45.8401 53.5412 46.8771 52.6285 46.8771 50.9941C46.8771 50.1875 46.6178 49.5666 46.0993 49.1315C45.5914 48.6857 44.8137 48.4204 43.7662 48.3355V53.7322Z" fill="white" fill-opacity="0.6"/>
<path d="M52.3235 46.7595H54.3075V52.3631L58.9897 46.7595H60.7991V55.2605H58.8151V49.6568L54.1488 55.2605H52.3235V46.7595Z" fill="white" fill-opacity="0.6"/>
<path d="M72.7371 46.7595V55.2605H70.7531V48.4469H67.5788L67.4994 50.1344C67.4465 51.2594 67.3407 52.2039 67.1819 52.9681C67.0338 53.7216 66.7746 54.3212 66.4042 54.767C66.0445 55.2021 65.5471 55.4197 64.9123 55.4197C64.616 55.4197 64.2509 55.3613 63.8171 55.2445L63.9123 53.573C64.0605 53.6048 64.1874 53.6208 64.2933 53.6208C64.6954 53.6208 64.9969 53.4616 65.198 53.1432C65.399 52.8142 65.526 52.4268 65.5789 51.9811C65.6424 51.5247 65.6953 50.8773 65.7376 50.0389L65.8805 46.7595H72.7371Z" fill="white" fill-opacity="0.6"/>
<path d="M85.329 55.2605V49.625L82.4721 54.369H81.615L78.8056 49.6091V55.2605H76.9962V46.7595H79.0755L82.0911 52.0766L85.2496 46.7595H87.1066L87.1225 55.2605H85.329Z" fill="white" fill-opacity="0.6"/>
<path d="M99.3068 51.0577C99.3068 51.1957 99.2962 51.392 99.2751 51.6468H92.6247C92.7411 52.2729 93.0427 52.7717 93.5294 53.1432C94.0268 53.504 94.6405 53.6844 95.3706 53.6844C96.3017 53.6844 97.0689 53.3767 97.672 52.7611L98.7354 53.9869C98.3545 54.4433 97.8731 54.7882 97.2911 55.0217C96.7091 55.2552 96.0531 55.3719 95.323 55.3719C94.3918 55.3719 93.5718 55.1862 92.8628 54.8147C92.1539 54.4433 91.6037 53.9285 91.2121 53.2705C90.8312 52.6019 90.6408 51.8484 90.6408 51.01C90.6408 50.1822 90.8259 49.4393 91.1963 48.7813C91.5772 48.1126 92.101 47.5926 92.7676 47.2211C93.4342 46.8497 94.1855 46.664 95.0214 46.664C95.8467 46.664 96.5821 46.8497 97.2276 47.2211C97.8836 47.582 98.3915 48.0967 98.7513 48.7653C99.1216 49.4233 99.3068 50.1875 99.3068 51.0577ZM95.0214 48.2559C94.3865 48.2559 93.8469 48.4469 93.4025 48.829C92.9686 49.2005 92.7041 49.6993 92.6089 50.3254H97.4181C97.3334 49.7099 97.0742 49.2111 96.6403 48.829C96.2065 48.4469 95.6669 48.2559 95.0214 48.2559Z" fill="white" fill-opacity="0.6"/>
<path d="M103.064 46.7595H105.048V50.214H109.318V46.7595H111.302V55.2605H109.318V51.9015H105.048V55.2605H103.064V46.7595Z" fill="white" fill-opacity="0.6"/>
<path d="M122.261 48.4469H119.293V55.2605H117.309V48.4469H114.325V46.7595H122.261V48.4469Z" fill="white" fill-opacity="0.6"/>
<path d="M155.028 7.22547L167.514 1.08978e-05L180 7.22547L167.514 14.4509L155.028 7.22547Z" fill="#FCBD17"/>
<path d="M167.522 28.8727L155.028 21.6618L155.036 7.22541L167.531 14.4363L167.522 28.8727Z" fill="#FFCE4E"/>
<path d="M167.522 28.8729L167.514 14.4365L180.008 7.22554L180.017 21.6619L167.522 28.8729Z" fill="#E6A90A"/>
<path fill-rule="evenodd" clip-rule="evenodd" d="M167.49 14.4471L161.287 10.8382L174.781 10.2849L167.514 21.6113L167.49 14.4471Z" fill="white"/>
<path fill-rule="evenodd" clip-rule="evenodd" d="M167.49 14.4471L174.781 10.2849L167.514 21.6113L167.49 14.4471Z" fill="#F9F9F9"/>
</svg>
