<svg width="181" height="60" viewBox="0 0 181 60" fill="none" xmlns="http://www.w3.org/2000/svg">
<path d="M17.6129 19.5781C19.5372 19.5781 21.2726 20.0022 22.8192 20.8506C24.3658 21.6989 25.5797 22.8722 26.4609 24.3703C27.3421 25.8685 27.5799 27.5562 27.5799 29.4334C27.5799 31.3105 27.3421 32.9982 26.4609 34.4964C25.5797 35.9945 24.3658 37.1678 22.8192 38.0161C21.2726 38.8645 19.5372 39.2886 17.6129 39.2886C15.9224 39.2886 14.3668 38.9637 12.9461 38.3139C11.5434 37.6641 10.3745 36.7526 9.4393 35.5794C8.52213 34.4061 7.91068 33.0614 7.60496 31.5452H5.63573V38.9096H0.375488V19.9571H5.63573V27.0508H7.65891C8.0006 25.5707 8.63902 24.2711 9.57418 23.152C10.5093 22.0148 11.6693 21.1394 13.054 20.5257C14.4388 19.8939 15.9584 19.5781 17.6129 19.5781ZM17.6129 34.8483C18.5121 34.8483 19.3214 34.6227 20.0407 34.1715C20.7601 33.7202 21.3266 33.0885 21.7402 32.2762C22.1718 31.464 22.3876 30.5163 22.3876 29.4334C22.3876 28.3504 22.1718 27.4027 21.7402 26.5905C21.3266 25.7782 20.7601 25.1465 20.0407 24.6952C19.3214 24.244 18.5121 24.0184 17.6129 24.0184C16.7137 24.0184 15.8955 24.244 15.1581 24.6952C14.4388 25.1284 13.8633 25.7602 13.4317 26.5905C13.0181 27.4027 12.8112 28.3504 12.8112 29.4334C12.8112 30.5163 13.0181 31.473 13.4317 32.3033C13.8633 33.1155 14.4388 33.7473 15.1581 34.1985C15.8955 34.6317 16.7137 34.8483 17.6129 34.8483Z" fill="#25292E"/>
<path d="M47.4882 19.9571V38.9096H42.147V31.5181H34.8636V38.9096H29.5224V19.9571H34.8636V27.0778H42.147V19.9571H47.4882Z" fill="#25292E"/>
<path d="M50.3975 19.9571H55.6577V31.0849L63.4537 19.9571H68.4711V38.9096H63.2109V27.8089L55.4419 38.9096H50.3975V19.9571Z" fill="#25292E"/>
<path d="M89.3037 19.9571V38.9096H84.0165V24.2079H76.841V38.9096H71.5807V19.9571H89.3037Z" fill="#25292E"/>
<path d="M101.269 39.2886C99.273 39.2886 97.4746 38.8645 95.8741 38.0161C94.2915 37.1678 93.0416 35.9945 92.1244 34.4964C91.2253 32.9982 90.7757 31.3105 90.7757 29.4334C90.7757 27.5562 91.2253 25.8685 92.1244 24.3703C93.0416 22.8722 94.2915 21.6989 95.8741 20.8506C97.4746 20.0022 99.273 19.5781 101.269 19.5781C103.265 19.5781 105.055 20.0022 106.637 20.8506C108.238 21.6989 109.488 22.8722 110.387 24.3703C111.304 25.8685 111.763 27.5562 111.763 29.4334C111.763 31.3105 111.304 32.9982 110.387 34.4964C109.488 35.9945 108.238 37.1678 106.637 38.0161C105.055 38.8645 103.265 39.2886 101.269 39.2886ZM101.269 34.8483C102.222 34.8483 103.086 34.6227 103.859 34.1715C104.632 33.7202 105.244 33.0885 105.693 32.2762C106.143 31.4459 106.368 30.4983 106.368 29.4334C106.368 28.3684 106.143 27.4298 105.693 26.6176C105.244 25.7873 104.632 25.1465 103.859 24.6952C103.086 24.244 102.222 24.0184 101.269 24.0184C100.316 24.0184 99.4528 24.244 98.6795 24.6952C97.9062 25.1465 97.2948 25.7873 96.8452 26.6176C96.3956 27.4298 96.1708 28.3684 96.1708 29.4334C96.1708 30.4983 96.3956 31.4459 96.8452 32.2762C97.2948 33.0885 97.9062 33.7202 98.6795 34.1715C99.4528 34.6227 100.316 34.8483 101.269 34.8483Z" fill="#25292E"/>
<path d="M123.481 39.2886C121.502 39.2886 119.722 38.8735 118.139 38.0432C116.575 37.1948 115.343 36.0216 114.444 34.5234C113.545 33.0253 113.095 31.3286 113.095 29.4334C113.095 27.5381 113.545 25.8414 114.444 24.3433C115.343 22.8451 116.575 21.6809 118.139 20.8506C119.722 20.0022 121.502 19.5781 123.481 19.5781C125.207 19.5781 126.763 19.8849 128.147 20.4986C129.532 21.1123 130.683 21.9968 131.6 23.152L128.201 26.2385C126.978 24.7584 125.495 24.0184 123.75 24.0184C122.725 24.0184 121.808 24.244 120.999 24.6952C120.207 25.1465 119.587 25.7873 119.137 26.6176C118.706 27.4298 118.49 28.3684 118.49 29.4334C118.49 30.4983 118.706 31.4459 119.137 32.2762C119.587 33.0885 120.207 33.7202 120.999 34.1715C121.808 34.6227 122.725 34.8483 123.75 34.8483C125.495 34.8483 126.978 34.1083 128.201 32.6282L131.6 35.7147C130.683 36.8699 129.532 37.7544 128.147 38.3681C126.763 38.9818 125.207 39.2886 123.481 39.2886Z" fill="#25292E"/>
<path d="M149.283 24.2079H143.51V38.9096H138.25V24.2079H132.45V19.9571H149.283V24.2079Z" fill="#25292E"/>
<path d="M11.9515 51.1819C11.9515 52.5027 11.5124 53.5413 10.6342 54.2976C9.76651 55.0539 8.52321 55.4853 6.90428 55.5918V58.5637H5.03139V55.6078C3.41246 55.5013 2.16916 55.0699 1.3015 54.3136C0.433832 53.5573 0 52.5134 0 51.1819C0 49.861 0.433832 48.8331 1.3015 48.0981C2.16916 47.3525 3.41246 46.9264 5.03139 46.8199V43.6083H6.90428V46.8199C8.52321 46.9264 9.76651 47.3525 10.6342 48.0981C11.5124 48.8438 11.9515 49.8717 11.9515 51.1819ZM1.95224 51.1819C1.95224 52.0021 2.2009 52.6412 2.69822 53.0992C3.20613 53.5573 3.98385 53.8342 5.03139 53.9301V48.5135C3.98385 48.5988 3.20613 48.8651 2.69822 49.3124C2.2009 49.7598 1.95224 50.383 1.95224 51.1819ZM6.90428 53.9301C8.97821 53.7384 10.0152 52.8223 10.0152 51.1819C10.0152 50.3723 9.75593 49.7492 9.23745 49.3124C8.72955 48.8651 7.95182 48.5988 6.90428 48.5135V53.9301Z" fill="#6B7580"/>
<path d="M23.2285 46.9317L19.2606 56.1511C18.8902 57.0778 18.4405 57.7276 17.9114 58.1004C17.3824 58.4839 16.7422 58.6756 15.9909 58.6756C15.5677 58.6756 15.1497 58.6064 14.7371 58.4679C14.3244 58.3294 13.9858 58.1377 13.7213 57.8927L14.5149 56.4227C14.7053 56.6038 14.9275 56.7476 15.1815 56.8541C15.446 56.9606 15.7105 57.0139 15.9751 57.0139C16.3243 57.0139 16.6099 56.9233 16.8322 56.7422C17.0649 56.5612 17.2766 56.2576 17.467 55.8315L17.6099 55.496L13.9117 46.9317H15.9751L18.6416 53.2431L21.3239 46.9317H23.2285Z" fill="#6B7580"/>
<path d="M33.3487 46.9317V55.464H31.3647V48.6254H28.1904L28.111 50.3191C28.0581 51.4482 27.9523 52.3962 27.7936 53.1632C27.6454 53.9195 27.3862 54.5213 27.0158 54.9687C26.6561 55.4054 26.1588 55.6238 25.5239 55.6238C25.2276 55.6238 24.8626 55.5652 24.4287 55.448L24.524 53.7703C24.6721 53.8023 24.7991 53.8183 24.9049 53.8183C25.307 53.8183 25.6085 53.6585 25.8096 53.3389C26.0106 53.0087 26.1376 52.6199 26.1905 52.1725C26.254 51.7145 26.3069 51.0647 26.3492 50.2232L26.4921 46.9317H33.3487Z" fill="#6B7580"/>
<path d="M48.8134 51.1819C48.8134 52.5027 48.3743 53.5413 47.4961 54.2976C46.6284 55.0539 45.3851 55.4853 43.7662 55.5918V58.5637H41.8933V55.6078C40.2743 55.5013 39.031 55.0699 38.1634 54.3136C37.2957 53.5573 36.8619 52.5134 36.8619 51.1819C36.8619 49.861 37.2957 48.8331 38.1634 48.0981C39.031 47.3525 40.2743 46.9264 41.8933 46.8199V43.6083H43.7662V46.8199C45.3851 46.9264 46.6284 47.3525 47.4961 48.0981C48.3743 48.8438 48.8134 49.8717 48.8134 51.1819ZM38.8141 51.1819C38.8141 52.0021 39.0628 52.6412 39.5601 53.0992C40.068 53.5573 40.8457 53.8342 41.8933 53.9301V48.5135C40.8457 48.5988 40.068 48.8651 39.5601 49.3124C39.0628 49.7598 38.8141 50.383 38.8141 51.1819ZM43.7662 53.9301C45.8401 53.7384 46.877 52.8223 46.877 51.1819C46.877 50.3723 46.6178 49.7492 46.0993 49.3124C45.5914 48.8651 44.8137 48.5988 43.7662 48.5135V53.9301Z" fill="#6B7580"/>
<path d="M52.3235 46.9317H54.3075V52.556L58.9897 46.9317H60.7991V55.464H58.8151V49.8397L54.1487 55.464H52.3235V46.9317Z" fill="#6B7580"/>
<path d="M72.7371 46.9317V55.464H70.7531V48.6254H67.5787L67.4994 50.3191C67.4465 51.4482 67.3407 52.3962 67.1819 53.1632C67.0338 53.9195 66.7746 54.5213 66.4042 54.9687C66.0444 55.4054 65.5471 55.6238 64.9122 55.6238C64.616 55.6238 64.2509 55.5652 63.8171 55.448L63.9123 53.7703C64.0605 53.8023 64.1874 53.8183 64.2932 53.8183C64.6953 53.8183 64.9969 53.6585 65.1979 53.3389C65.399 53.0087 65.526 52.6199 65.5789 52.1725C65.6424 51.7145 65.6953 51.0647 65.7376 50.2232L65.8804 46.9317H72.7371Z" fill="#6B7580"/>
<path d="M85.329 55.464V49.8078L82.472 54.5692H81.6149L78.8056 49.7918V55.464H76.9962V46.9317H79.0754L82.0911 52.2684L85.2496 46.9317H87.1066L87.1225 55.464H85.329Z" fill="#6B7580"/>
<path d="M99.3068 51.2458C99.3068 51.3843 99.2962 51.5813 99.275 51.837H92.6247C92.7411 52.4655 93.0427 52.9661 93.5294 53.3389C94.0267 53.7011 94.6405 53.8822 95.3706 53.8822C96.3017 53.8822 97.0689 53.5733 97.672 52.9554L98.7354 54.1858C98.3545 54.6438 97.873 54.99 97.2911 55.2243C96.7091 55.4587 96.053 55.5758 95.3229 55.5758C94.3918 55.5758 93.5717 55.3894 92.8628 55.0166C92.1538 54.6438 91.6036 54.1272 91.2121 53.4667C90.8312 52.7957 90.6407 52.0394 90.6407 51.1979C90.6407 50.367 90.8259 49.6214 91.1963 48.9609C91.5772 48.2899 92.1009 47.7679 92.7676 47.3951C93.4342 47.0223 94.1855 46.8358 95.0214 46.8358C95.8467 46.8358 96.5821 47.0223 97.2276 47.3951C97.8836 47.7572 98.3915 48.2739 98.7513 48.945C99.1216 49.6054 99.3068 50.3723 99.3068 51.2458ZM95.0214 48.4337C94.3865 48.4337 93.8469 48.6254 93.4024 49.0089C92.9686 49.3817 92.7041 49.8823 92.6088 50.5108H97.418C97.3334 49.893 97.0741 49.3923 96.6403 49.0089C96.2065 48.6254 95.6668 48.4337 95.0214 48.4337Z" fill="#6B7580"/>
<path d="M103.064 46.9317H105.048V50.399H109.317V46.9317H111.301V55.464H109.317V52.0926H105.048V55.464H103.064V46.9317Z" fill="#6B7580"/>
<path d="M122.261 48.6254H119.293V55.464H117.309V48.6254H114.325V46.9317H122.261V48.6254Z" fill="#6B7580"/>
<path d="M155.028 7.25208L167.514 1.56641e-05L180 7.25208L167.514 14.5041L155.028 7.25208Z" fill="#FCBD17"/>
<path d="M167.522 28.9791L155.028 21.7416L155.036 7.25207L167.531 14.4896L167.522 28.9791Z" fill="#FFCE4E"/>
<path d="M167.522 28.9791L167.514 14.4896L180.008 7.25207L180.017 21.7416L167.522 28.9791Z" fill="#E6A90A"/>
<path fill-rule="evenodd" clip-rule="evenodd" d="M167.49 14.5003L161.287 10.8781L174.781 10.3228L167.514 21.6909L167.49 14.5003Z" fill="white"/>
<path fill-rule="evenodd" clip-rule="evenodd" d="M167.49 14.5003L174.781 10.3228L167.514 21.6909L167.49 14.5003Z" fill="#F9F9F9"/>
</svg>
