<svg width="86" height="94" viewBox="0 0 86 94" fill="none" xmlns="http://www.w3.org/2000/svg">
<g clip-path="url(#clip0)" filter="url(#filter0_d)">
<path d="M29.5979 5.50722L29.5971 5.50537L38.1683 0.556842C38.8866 -0.0409593 39.9424 -0.213967 40.8656 0.318998L72.9669 18.8527C74.8949 19.9658 76.0826 22.0229 76.0826 24.2492V78.4152C76.0826 79.2895 75.6257 80.003 74.9784 80.4107L74.9795 80.4134L74.9394 80.4366C74.9128 80.4525 74.8863 80.4678 74.8593 80.4829L66.2749 85.439C65.5565 86.0393 64.499 86.2137 63.5741 85.6799L31.4728 67.1462C29.5448 66.0331 28.3571 63.976 28.3571 61.7497V7.58365C28.3571 6.64873 28.8785 5.8969 29.5979 5.50722Z" fill="url(#paint0_linear)"/>
<path d="M64.0042 24.0703L31.9028 5.53661C30.3269 4.62689 28.3573 5.76403 28.3573 7.58364V61.7497C28.3573 63.976 29.545 66.0331 31.473 67.1462L63.5743 85.6799C65.15 86.5896 67.1198 85.4524 67.1198 83.6328V29.4668C67.1196 27.2405 65.9321 25.1834 64.0042 24.0703Z" fill="#FFCE4E"/>
<path d="M63.3478 30.3953L31.7314 12.1415V21.9717L63.3478 40.2254V30.3953Z" fill="#40454A"/>
<path d="M53.1589 40.9552L53.1587 40.9548L54.833 39.991L54.8332 39.9912C55.4941 39.641 56.343 39.6909 57.2692 40.2257C59.3765 41.4423 61.085 44.7066 61.085 47.5164C61.085 49.0612 60.568 50.1456 59.7528 50.608L59.7533 50.6092L58.2236 51.4923L58.2221 51.4892C57.5497 51.8911 56.6676 51.8621 55.7009 51.3039C53.5936 50.0871 51.8851 46.823 51.8851 44.0132C51.8848 42.5054 52.3771 41.4356 53.1589 40.9552Z" fill="#D59C08"/>
<path d="M51.8849 44.0132C51.8849 41.2032 53.5933 39.9119 55.7006 41.1285C57.8079 42.3453 59.5164 45.6094 59.5164 48.4192C59.5164 51.2291 57.8079 52.5206 55.7006 51.3039C53.5933 50.0873 51.8849 46.8231 51.8849 44.0132Z" fill="#FABC1B"/>
<path d="M43.5765 35.4097L43.5763 35.4093L45.2506 34.4455L45.2508 34.4459C45.9117 34.0957 46.7606 34.1456 47.6868 34.6804C49.7942 35.8971 51.5026 39.1613 51.5026 41.971C51.5026 43.5159 50.9856 44.6003 50.1704 45.0627L50.1709 45.0639L48.6412 45.947L48.6397 45.9437C47.9673 46.3456 47.0852 46.3166 46.1185 45.7584C44.0112 44.5416 42.3027 41.2775 42.3027 38.4676C42.3024 36.9597 42.7949 35.8901 43.5765 35.4097Z" fill="#D59C08"/>
<path d="M42.3023 38.4676C42.3023 35.6576 44.0108 34.3661 46.1181 35.5829C48.2254 36.7996 49.9338 40.0638 49.9338 42.8736C49.9338 45.6833 48.2254 46.9748 46.1181 45.7583C44.0108 44.5417 42.3023 41.2775 42.3023 38.4676Z" fill="#FABC1B"/>
<path d="M33.9939 29.8761L33.9938 29.8758L35.6681 28.912L35.6682 28.9122C36.3292 28.5619 37.1781 28.6118 38.1043 29.1466C40.2116 30.3634 41.92 33.6275 41.92 36.4375C41.92 37.9823 41.403 39.0667 40.5879 39.5291L40.5884 39.5303L39.0587 40.4135L39.0572 40.4103C38.3848 40.8122 37.5026 40.7832 36.536 40.225C34.4286 39.0083 32.7202 35.7441 32.7202 32.9342C32.72 31.4263 33.2124 30.3565 33.9939 29.8761Z" fill="#D59C08"/>
<path d="M32.7201 32.9342C32.7201 30.1244 34.4285 28.8329 36.5358 30.0495C38.6432 31.2663 40.3516 34.5304 40.3516 37.3402C40.3516 40.15 38.6432 41.4415 36.5358 40.2249C34.4285 39.0083 32.7201 35.744 32.7201 32.9342Z" fill="#FABC1B"/>
<path d="M53.1589 54.0309L53.1587 54.0305L54.833 53.0667L54.8332 53.0669C55.4941 52.7167 56.343 52.7666 57.2692 53.3014C59.3765 54.518 61.085 57.7823 61.085 60.592C61.085 62.1369 60.568 63.2213 59.7528 63.6837L59.7533 63.6849L58.2236 64.568L58.2221 64.5647C57.5497 64.9666 56.6676 64.9376 55.7009 64.3794C53.5936 63.1626 51.8851 59.8985 51.8851 57.0887C51.8848 55.5809 52.3771 54.5111 53.1589 54.0309Z" fill="#D59C08"/>
<path d="M51.8849 57.0887C51.8849 54.2788 53.5933 52.9873 55.7006 54.204C57.8079 55.4208 59.5164 58.6849 59.5164 61.4947C59.5164 64.3045 57.8079 65.596 55.7006 64.3794C53.5933 63.1628 51.8849 59.8987 51.8849 57.0887Z" fill="#FABC1B"/>
<path d="M43.5765 48.4852L43.5763 48.4849L45.2506 47.5211L45.2508 47.5214C45.9117 47.1712 46.7606 47.2211 47.6868 47.7559C49.7942 48.9727 51.5026 52.2368 51.5026 55.0466C51.5026 56.5914 50.9856 57.6758 50.1704 58.1382L50.1709 58.1394L48.6412 59.0226L48.6397 59.0192C47.9673 59.4212 47.0852 59.3921 46.1185 58.8339C44.0112 57.6172 42.3027 54.353 42.3027 51.5433C42.3024 50.0354 42.7949 48.9656 43.5765 48.4852Z" fill="#D59C08"/>
<path d="M42.3023 51.5433C42.3023 48.7333 44.0108 47.4418 46.1181 48.6586C48.2254 49.8753 49.9338 53.1395 49.9338 55.9492C49.9338 58.759 48.2254 60.0507 46.1181 58.8339C44.0108 57.6172 42.3023 54.353 42.3023 51.5433Z" fill="#FABC1B"/>
<path d="M33.9939 42.9517L33.9938 42.9513L35.6681 41.9875L35.6682 41.9877C36.3292 41.6375 37.1781 41.6874 38.1043 42.2222C40.2116 43.4389 41.92 46.7031 41.92 49.513C41.92 51.0578 41.403 52.1422 40.5879 52.6047L40.5884 52.6058L39.0587 53.489L39.0572 53.4858C38.3848 53.8878 37.5026 53.8587 36.536 53.3006C34.4286 52.0838 32.7202 48.8197 32.7202 46.0097C32.72 44.5018 33.2124 43.4321 33.9939 42.9517Z" fill="#D59C08"/>
<path d="M32.7201 46.0097C32.7201 43.1999 34.4285 41.9084 36.5358 43.125C38.6432 44.3418 40.3516 47.6059 40.3516 50.4157C40.3516 53.2256 38.6432 54.5172 36.5358 53.3004C34.4285 52.0838 32.7201 48.8197 32.7201 46.0097Z" fill="#FABC1B"/>
<path d="M53.1589 67.1064L53.1587 67.1061L54.833 66.1423L54.8332 66.1424C55.4941 65.7922 56.343 65.8421 57.2692 66.3769C59.3765 67.5935 61.085 70.8578 61.085 73.6676C61.085 75.2124 60.568 76.2968 59.7528 76.7593L59.7533 76.7604L58.2236 77.6436L58.2221 77.6403C57.5497 78.0422 56.6676 78.0131 55.7009 77.455C53.5936 76.2382 51.8851 72.9741 51.8851 70.1643C51.8848 68.6566 52.3771 67.5868 53.1589 67.1064Z" fill="#D59C08"/>
<path d="M51.8849 70.1644C51.8849 67.3547 53.5933 66.063 55.7006 67.2798C57.8079 68.4965 59.5164 71.7607 59.5164 74.5704C59.5164 77.3804 57.8079 78.6719 55.7006 77.4551C53.5933 76.2384 51.8849 72.9742 51.8849 70.1644Z" fill="#FABC1B"/>
<path d="M43.5765 61.5607L43.5763 61.5604L45.2506 60.5966L45.2508 60.5969C45.9117 60.2467 46.7606 60.2966 47.6868 60.8314C49.7942 62.0482 51.5026 65.3123 51.5026 68.1221C51.5026 69.6669 50.9856 70.7513 50.1704 71.2137L50.1709 71.2149L48.6412 72.0981L48.6397 72.0947C47.9673 72.4967 47.0852 72.4676 46.1185 71.9095C44.0112 70.6927 42.3027 67.4286 42.3027 64.6188C42.3024 63.1109 42.7949 62.0411 43.5765 61.5607Z" fill="#D59C08"/>
<path d="M42.3023 64.6188C42.3023 61.809 44.0108 60.5175 46.1181 61.7341C48.2254 62.9508 49.9338 66.215 49.9338 69.0248C49.9338 71.8347 48.2254 73.1262 46.1181 71.9094C44.0108 70.6929 42.3023 67.4286 42.3023 64.6188Z" fill="#FABC1B"/>
<path d="M33.9939 56.0272L33.9938 56.0269L35.6681 55.0631L35.6682 55.0632C36.3292 54.713 37.1781 54.7629 38.1043 55.2977C40.2116 56.5145 41.92 59.7786 41.92 62.5884C41.92 64.1332 41.403 65.2176 40.5879 65.68L40.5884 65.6812L39.0587 66.5644L39.0572 66.5612C38.3848 66.9631 37.5026 66.9341 36.536 66.3759C34.4286 65.1592 32.7202 61.895 32.7202 59.0852C32.72 57.5774 33.2124 56.5076 33.9939 56.0272Z" fill="#D59C08"/>
<path d="M32.7201 59.0852C32.7201 56.2753 34.4285 54.9838 36.5358 56.2005C38.6432 57.4173 40.3516 60.6814 40.3516 63.4912C40.3516 66.301 38.6432 67.5925 36.5358 66.3759C34.4285 65.1593 32.7201 61.8952 32.7201 59.0852Z" fill="#A9BCDC"/>
<path d="M18.9986 44.1121L18.9981 44.111L23.8265 41.3169L23.8268 41.3177C25.7327 40.3024 28.181 40.447 30.8521 41.9973C36.9296 45.5243 41.8564 54.9866 41.8564 63.1319C41.8564 67.61 40.3653 70.7536 38.0144 72.094L38.016 72.0976L33.6044 74.6577L33.5998 74.6482C31.6607 75.8133 29.1167 75.7292 26.3288 74.1113C20.2512 70.5843 15.3245 61.1221 15.3245 52.9767C15.3247 48.6056 16.7446 45.5046 18.9986 44.1121Z" fill="#D49C08"/>
<path d="M17.4041 62.9207C13.7292 54.2958 14.7056 45.6185 19.585 43.5394C24.4644 41.4604 31.3991 46.7668 35.0741 55.3918C38.7491 64.0167 37.7727 72.694 32.8932 74.773C28.0138 76.8521 21.0791 71.5456 17.4041 62.9207Z" fill="#FABC1B"/>
</g>
<defs>
<filter id="filter0_d" x="-4" y="0" width="94" height="94" filterUnits="userSpaceOnUse" color-interpolation-filters="sRGB">
<feFlood flood-opacity="0" result="BackgroundImageFix"/>
<feColorMatrix in="SourceAlpha" type="matrix" values="0 0 0 0 0 0 0 0 0 0 0 0 0 0 0 0 0 0 127 0"/>
<feOffset dy="4"/>
<feGaussianBlur stdDeviation="2"/>
<feColorMatrix type="matrix" values="0 0 0 0 0 0 0 0 0 0 0 0 0 0 0 0 0 0 0.25 0"/>
<feBlend mode="normal" in2="BackgroundImageFix" result="effect1_dropShadow"/>
<feBlend mode="normal" in="SourceGraphic" in2="effect1_dropShadow" result="shape"/>
</filter>
<linearGradient id="paint0_linear" x1="77.6734" y1="27.233" x2="20.9041" y2="42.4771" gradientUnits="userSpaceOnUse">
<stop stop-color="#FBBD1C"/>
<stop offset="1" stop-color="#F5B714"/>
</linearGradient>
<clipPath id="clip0">
<rect width="86" height="86" fill="white" transform="matrix(-1 0 0 1 86 0)"/>
</clipPath>
</defs>
</svg>
