<svg width="94" height="86" viewBox="0 0 94 86" fill="none" xmlns="http://www.w3.org/2000/svg">
<g clip-path="url(#clip0)" filter="url(#filter0_d)">
<path d="M5.98087 30.4958C6.64099 29.2634 8.48412 28.2226 10.0976 28.1714C10.9864 28.1432 11.6181 28.422 11.8978 28.8831L11.8999 28.8819L13.4626 31.3999L13.4585 31.4019C13.7142 31.7827 13.7214 32.2959 13.4135 32.871C12.7534 34.1034 10.9103 35.144 9.29675 35.1954C8.36419 35.2251 7.71499 34.9165 7.4585 34.4138L5.97735 32.0273L5.97819 32.0268C5.67971 31.6408 5.65602 31.102 5.98087 30.4958Z" fill="#FABC1B"/>
<path d="M21.2976 58.7172V24.9591L75.48 27.2826V61.0405C75.4801 61.814 75.0973 62.5875 74.3317 63.0296L52.8679 75.4218C51.3414 76.3032 49.4606 76.3032 47.9341 75.4218L22.4459 60.7063C21.6803 60.2642 21.2976 59.4907 21.2976 58.7172Z" fill="url(#paint0_linear)"/>
<path d="M74.3318 25.2939L48.8436 10.5783C47.3171 9.697 45.4363 9.697 43.9098 10.5783L22.4459 22.9706C20.9149 23.8546 20.9149 26.0644 22.4459 26.9482L47.9342 41.6638C49.4607 42.5451 51.3414 42.5451 52.8679 41.6638L74.3318 29.2716C75.8629 28.3876 75.8629 26.1778 74.3318 25.2939Z" fill="#FDD364"/>
<path d="M66.0675 20.5224L38.692 36.3276L31.4302 32.1351L58.8057 16.3297L66.0675 20.5224Z" fill="#FABC1B"/>
<path d="M61.727 18.0143L34.3515 33.8197L35.774 34.6409L63.1495 18.8357L61.727 18.0143Z" fill="#40454A"/>
<path d="M38.6917 36.3276V42.3246L31.4299 38.1321V32.1351L38.6917 36.3276Z" fill="#40454A"/>
<path d="M88.3331 25.9216L71.684 35.5339C70.8333 36.0251 70.3092 36.9328 70.3092 37.9151C70.3092 38.7705 71.2354 39.3052 71.9761 38.8775L88.6252 29.2652C89.4759 28.774 90 27.8663 90 26.8841C90 26.0286 89.074 25.4938 88.3331 25.9216Z" fill="#40454A"/>
<path d="M82.2469 36.5221L65.598 46.1345C64.7472 46.6256 64.2231 47.5333 64.2231 48.5156C64.2231 49.371 65.1491 49.9057 65.8901 49.478L82.5391 39.8657C83.3899 39.3746 83.9139 38.4669 83.9139 37.4846C83.9138 36.6289 82.9878 36.0943 82.2469 36.5221Z" fill="#40454A"/>
<path d="M8.30127 33.39L8.3006 33.3887L13.9533 30.1344L13.9536 30.1353C16.1849 28.953 19.0513 29.1214 22.1783 30.9268C29.2933 35.0346 35.061 46.055 35.061 55.5417C35.061 60.7573 33.3153 64.4186 30.5632 65.9798L30.5652 65.984L25.4005 68.9658L25.3951 68.9547C23.125 70.3117 20.1468 70.2138 16.883 68.3294C9.76797 64.2215 4.0001 53.2011 4.0001 43.7144C4.0001 38.6236 5.66248 35.0119 8.30127 33.39Z" fill="#40454A"/>
<path d="M6.56421 55.5728C2.28247 45.5239 3.42013 35.4139 9.10523 32.9915C14.7903 30.5692 22.87 36.7518 27.1518 46.8007C31.4335 56.8497 30.2959 66.9597 24.6108 69.3821C18.9257 71.8044 10.8459 65.6218 6.56421 55.5728Z" fill="#FABC1B"/>
<path d="M9.42789 54.3527C6.33724 47.0992 7.15844 39.8015 11.2621 38.053C15.3657 36.3045 21.1979 40.7672 24.2885 48.0208C27.3792 55.2744 26.558 62.572 22.4543 64.3205C18.3507 66.0691 12.5185 61.6063 9.42789 54.3527Z" fill="#FFF5D9"/>
<path d="M8.93501 40.1242C10.567 37.4933 13.5158 36.8097 16.8829 38.7536V51.1524L8.93501 40.1242Z" fill="#FFCE4E"/>
<path d="M15.0822 50.1126C15.0822 48.7867 15.8884 48.1771 16.883 48.7513C17.8775 49.3254 18.6836 50.8658 18.6836 52.1919C18.6836 53.518 17.8773 54.1274 16.883 53.5531C15.8884 52.979 15.0822 51.4388 15.0822 50.1126Z" fill="#40454A"/>
<path d="M17.5845 53.3135V41.9376C17.5845 41.5501 17.2704 41.236 16.8829 41.236C16.4954 41.236 16.1813 41.5501 16.1813 41.9376V48.9911L12.384 43.7582C12.1564 43.445 11.718 43.3744 11.4042 43.6025C11.0906 43.83 11.0209 44.2687 11.2483 44.5823L17.5845 53.3135Z" fill="#40454A"/>
<path d="M16.4638 30.7289V28.1692L21.4076 28.5021V31.176L21.4042 31.1757C21.4163 31.5143 21.221 31.8393 20.8036 32.0803C19.909 32.5968 18.3464 32.532 17.3133 31.9357C16.7162 31.591 16.4288 31.1444 16.4638 30.7289Z" fill="#FABC1B"/>
<path d="M15.0898 26.5935V23.3639L22.783 23.8821V27.2895L22.7778 27.289C22.7967 27.8159 22.4925 28.3219 21.8432 28.6968C20.451 29.5005 18.0194 29.3997 16.4119 28.4717C15.4829 27.9352 15.0357 27.24 15.0898 26.5935Z" fill="#D49C08"/>
<path d="M18.6427 25.7312C16.5206 25.4726 14.9188 24.2896 15.0651 23.089C15.2114 21.8883 17.0504 21.1246 19.1726 21.3832C21.2948 21.6418 22.8965 22.8248 22.7502 24.0254C22.6039 25.2261 20.7649 25.9898 18.6427 25.7312Z" fill="#FABC1B"/>
<path d="M25.8896 36.5223L28.1762 34.8911L31.6949 40.5997L29.2824 42.3207L29.2801 42.3168C28.9166 42.5963 28.4048 42.6367 27.8112 42.3662C26.539 41.7866 25.3822 40.014 25.2275 38.407C25.1381 37.4782 25.4045 36.8105 25.8896 36.5223Z" fill="#FABC1B"/>
<path d="M28.3261 38.6392C27.4377 37.0073 27.4659 35.277 28.3891 34.7743C29.3123 34.2717 30.781 35.1872 31.6694 36.8191C32.5578 38.451 32.5297 40.1814 31.6064 40.684C30.6832 41.1866 29.2146 40.2712 28.3261 38.6392Z" fill="#D49C08"/>
</g>
<defs>
<filter id="filter0_d" x="0" y="0" width="94" height="94" filterUnits="userSpaceOnUse" color-interpolation-filters="sRGB">
<feFlood flood-opacity="0" result="BackgroundImageFix"/>
<feColorMatrix in="SourceAlpha" type="matrix" values="0 0 0 0 0 0 0 0 0 0 0 0 0 0 0 0 0 0 127 0"/>
<feOffset dy="4"/>
<feGaussianBlur stdDeviation="2"/>
<feColorMatrix type="matrix" values="0 0 0 0 0 0 0 0 0 0 0 0 0 0 0 0 0 0 0.25 0"/>
<feBlend mode="normal" in2="BackgroundImageFix" result="effect1_dropShadow"/>
<feBlend mode="normal" in="SourceGraphic" in2="effect1_dropShadow" result="shape"/>
</filter>
<linearGradient id="paint0_linear" x1="54.7316" y1="50.521" x2="47.2886" y2="50.521" gradientUnits="userSpaceOnUse">
<stop stop-color="#ECAB00"/>
<stop offset="1" stop-color="#FAC02B"/>
</linearGradient>
<clipPath id="clip0">
<rect width="86" height="86" fill="white" transform="matrix(-1 0 0 1 90 0)"/>
</clipPath>
</defs>
</svg>
