<svg width="86" height="94" viewBox="0 0 86 94" fill="none" xmlns="http://www.w3.org/2000/svg">
<g clip-path="url(#clip0)" filter="url(#filter0_d)">
<path d="M18.2621 79.6681C19.2348 79.6681 20.181 79.1633 20.7022 78.2603C21.4796 76.9141 21.0182 75.1926 19.6721 74.4154L14.2959 71.3115C12.9498 70.5345 11.2283 70.9954 10.4509 72.3418C9.67355 73.6881 10.135 75.4096 11.4811 76.1868L16.8573 79.2907C17.3007 79.5463 17.7846 79.6681 18.2621 79.6681Z" fill="#40454A"/>
<path d="M44.1536 66.5266C44.1536 56.8932 50.0105 45.7025 57.2355 41.5311C60.8676 39.4342 63.9394 39.586 66.5238 41.3292L72.1244 44.5628L54.4297 80.4345L48.3565 76.9084C45.7723 75.2141 44.1536 71.59 44.1536 66.5266Z" fill="#FABC1B"/>
<path d="M54.9836 80.6984C49.2106 78.2386 48.0553 67.9723 52.4032 57.768C56.7512 47.5637 64.9558 41.2855 70.7288 43.7453C76.5018 46.2051 77.6571 56.4714 73.3092 66.6757C68.9612 76.88 60.7566 83.1582 54.9836 80.6984Z" fill="#ECAB00"/>
<path d="M53.2787 70.4938C53.2787 79.1188 58.5227 83.0832 64.9915 79.3485C71.4604 75.6137 76.7043 65.5942 76.7043 56.9691C76.7043 48.3441 71.4604 44.3797 64.9915 48.1145C58.5227 51.8491 53.2787 61.8688 53.2787 70.4938Z" fill="#FFCE4E"/>
<path d="M61.1327 69.1311C61.1327 74.2631 64.2528 76.6218 68.1019 74.3998C71.9509 72.1775 75.071 66.2158 75.071 61.0839C75.071 55.9519 71.9509 53.5931 68.1019 55.8152C64.2528 58.0374 61.1327 63.9991 61.1327 69.1311Z" fill="#40454A"/>
<path d="M9.29585 44.9693C9.29585 53.5943 14.5398 57.5587 21.0086 53.8239C27.4775 50.0891 32.7214 40.0696 32.7214 31.4446C32.7214 22.8196 27.4775 18.8552 21.0086 22.5899C14.5398 26.3246 9.29585 36.3441 9.29585 44.9693Z" fill="url(#paint0_linear)"/>
<path d="M9.81918 46.6763C9.81918 37.043 15.6762 25.8522 22.9011 21.6809C26.5332 19.584 29.6051 19.7358 32.1896 21.479L37.7902 24.7126L20.0955 60.5843L14.6448 57.4194C14.4316 57.3109 14.224 57.1903 14.0223 57.0581C11.4379 55.3638 9.81918 51.7398 9.81918 46.6763Z" fill="#FABC1B"/>
<path d="M20.6636 60.8357C14.8906 58.3759 13.7354 48.1096 18.0833 37.9053C22.4312 27.701 30.6358 21.4228 36.4089 23.8826C42.1819 26.3424 43.3371 36.6087 38.9892 46.813C34.6413 57.0173 26.4367 63.2955 20.6636 60.8357Z" fill="#ECAB00"/>
<path d="M20.4069 47.0909C20.4069 53.0845 24.051 55.8392 28.5462 53.2441C33.0413 50.6488 36.6854 43.6862 36.6854 37.6925C36.6854 31.6991 33.0413 28.9442 28.5462 31.5395C24.051 34.1346 20.4069 41.0973 20.4069 47.0909Z" fill="#40454A"/>
<path d="M25.0921 8.08266C25 8.09576 24.95 8.10299 24.95 8.10299L26.1036 7.43699C26.1036 7.43699 26.1037 7.43682 26.1039 7.43682C26.1039 7.43682 26.1041 7.43665 26.1042 7.43665C26.1042 7.43665 36.8657 1.28396 37.1242 1.24969C41.062 -0.584694 45.5634 -0.399761 49.3864 1.80735C60.2025 8.05209 66.9216 19.69 66.9216 32.1793V41.737C65.3553 41.757 63.6331 42.2625 61.8251 43.3062C60.1113 44.2957 58.4763 45.6838 56.9764 47.3487V47.383L54.3493 45.8662V37.8088C54.3493 26.255 48.1335 15.4889 38.1276 9.71196C36.6041 8.83231 34.9461 8.35376 33.2758 8.27347C32.455 9.80014 32.0083 11.5332 32.0083 13.3574V21.5C30.461 21.5341 28.7637 22.0388 26.9829 23.067C25.2421 24.0721 23.5822 25.4878 22.0631 27.1878V27.2256L19.436 25.7088V18.9867C19.4355 14.5689 21.5296 10.5751 25.0921 8.08266Z" fill="#FABD1C"/>
<path d="M54.349 45.866V37.8086C54.349 26.2549 48.1331 15.4887 38.1272 9.71178C34.7743 7.77594 30.7707 7.77577 27.4174 9.71178C24.0644 11.6476 22.0627 15.115 22.0627 18.9867V27.2255L19.4357 25.7088V18.9867C19.4357 14.1651 21.9287 9.8475 26.104 7.43664C30.2799 5.02579 35.2654 5.02595 39.4409 7.43664C50.2571 13.6814 56.9762 25.3193 56.9762 37.8086V47.3828L54.349 45.866Z" fill="#ECAB00"/>
<path d="M33.2571 86C34.3998 86 35.5427 85.7057 36.5621 85.1173L49.1028 77.8769C49.731 77.5141 49.9463 76.7108 49.5835 76.0825C49.2207 75.4541 48.4173 75.2389 47.7893 75.6017L35.2484 82.8422C34.0197 83.5515 32.4935 83.5512 31.2657 82.8422L20.0924 76.3914C19.4639 76.0287 18.6606 76.2439 18.298 76.8721C17.9353 77.5003 18.1507 78.3037 18.7789 78.6665L29.9522 85.1173C30.9714 85.7057 32.1141 86 33.2571 86Z" fill="#ECAB00"/>
</g>
<defs>
<filter id="filter0_d" x="-4" y="0" width="94" height="94" filterUnits="userSpaceOnUse" color-interpolation-filters="sRGB">
<feFlood flood-opacity="0" result="BackgroundImageFix"/>
<feColorMatrix in="SourceAlpha" type="matrix" values="0 0 0 0 0 0 0 0 0 0 0 0 0 0 0 0 0 0 127 0"/>
<feOffset dy="4"/>
<feGaussianBlur stdDeviation="2"/>
<feColorMatrix type="matrix" values="0 0 0 0 0 0 0 0 0 0 0 0 0 0 0 0 0 0 0.25 0"/>
<feBlend mode="normal" in2="BackgroundImageFix" result="effect1_dropShadow"/>
<feBlend mode="normal" in="SourceGraphic" in2="effect1_dropShadow" result="shape"/>
</filter>
<linearGradient id="paint0_linear" x1="21.0086" y1="53.1777" x2="21.0086" y2="26.5305" gradientUnits="userSpaceOnUse">
<stop stop-color="#D5C9F1"/>
<stop offset="1" stop-color="#F2EFFA"/>
</linearGradient>
<clipPath id="clip0">
<rect width="86" height="86" fill="white" transform="matrix(-1 0 0 1 86 0)"/>
</clipPath>
</defs>
</svg>
