<svg width="86" height="89" viewBox="0 0 86 89" fill="none" xmlns="http://www.w3.org/2000/svg">
<g filter="url(#filter0_d)">
<path d="M17.7317 61.0531V22.2777L79.9673 24.9466V63.722C79.9675 64.6106 79.5278 65.499 78.6485 66.0068L53.9943 80.2409C52.2409 81.2532 50.0806 81.2532 48.3273 80.2409L19.0507 63.338C18.1712 62.8302 17.7317 61.9417 17.7317 61.0531Z" fill="url(#paint0_linear)"/>
<path d="M78.6483 22.6621L49.3719 5.75926C47.6185 4.74691 45.4581 4.74691 43.7048 5.75926L19.0507 19.9934C17.2921 21.0087 17.2921 23.547 19.0507 24.5623L48.3271 41.465C50.0806 42.4774 52.2409 42.4774 53.9942 41.465L78.6483 27.231C80.407 26.2157 80.407 23.6774 78.6483 22.6621Z" fill="#FDD364"/>
<path d="M69.1556 17.1814L37.7112 35.3359L29.3701 30.5201L60.8146 12.3658L69.1556 17.1814Z" fill="#FABC1B"/>
<path d="M64.1703 14.3007L32.7259 32.4552L34.3598 33.3985L65.8042 15.244L64.1703 14.3007Z" fill="#40454A"/>
<path d="M37.7112 35.3359V42.2243L29.3701 37.4085V30.5201L37.7112 35.3359Z" fill="#40454A"/>
<path d="M9.66215 30.9175L14.3348 28.2196C16.5845 26.6606 19.6752 26.7529 23.0615 28.9119C29.2045 32.8285 34.165 42.4009 34.3627 50.7098C34.4487 54.3243 33.6464 57.169 32.2325 59.048L32.2346 59.0511L24.6719 68.7214C24.5356 68.8955 24.3805 69.0257 24.2117 69.1162L19.5242 71.8226L9.66215 30.9175Z" fill="#40454A"/>
<path d="M6.03271 40.2055C6.03271 31.2313 11.6408 27.2414 18.4393 31.5757C24.5824 35.492 29.5428 45.0646 29.7406 53.3736C29.8265 56.988 29.0242 59.8327 27.6103 61.7117L27.6124 61.7148L20.0497 71.3849C18.9886 72.7417 16.7913 71.473 15.7303 68.8912L8.16739 50.4882L8.16947 50.4875C6.82418 47.147 6.03271 43.5719 6.03271 40.2055Z" fill="#FDD364"/>
<path d="M9.23284 38.0242L12.721 36.0162L12.7211 36.0168C14.098 35.287 15.8668 35.3911 17.7965 36.5051C22.187 39.04 25.7462 45.8406 25.7462 51.6947C25.7462 54.9131 24.669 57.1725 22.9706 58.1359L22.9718 58.1385L19.7847 59.9786L9.23284 38.0242Z" fill="url(#paint1_linear)"/>
<path d="M8.15362 51.7227C5.51142 45.5216 6.21348 39.2829 9.72171 37.7881C13.2299 36.2933 18.2158 40.1084 20.858 46.3095C23.5002 52.5106 22.7982 58.7493 19.2899 60.2441C15.7817 61.739 10.7958 57.9238 8.15362 51.7227Z" fill="#FFF5D9"/>
</g>
<defs>
<filter id="filter0_d" x="-4" y="0" width="94" height="94" filterUnits="userSpaceOnUse" color-interpolation-filters="sRGB">
<feFlood flood-opacity="0" result="BackgroundImageFix"/>
<feColorMatrix in="SourceAlpha" type="matrix" values="0 0 0 0 0 0 0 0 0 0 0 0 0 0 0 0 0 0 127 0"/>
<feOffset dy="4"/>
<feGaussianBlur stdDeviation="2"/>
<feColorMatrix type="matrix" values="0 0 0 0 0 0 0 0 0 0 0 0 0 0 0 0 0 0 0.25 0"/>
<feBlend mode="normal" in2="BackgroundImageFix" result="effect1_dropShadow"/>
<feBlend mode="normal" in="SourceGraphic" in2="effect1_dropShadow" result="shape"/>
</filter>
<linearGradient id="paint0_linear" x1="56.1351" y1="51.6389" x2="47.5858" y2="51.6389" gradientUnits="userSpaceOnUse">
<stop stop-color="#ECAB00"/>
<stop offset="1" stop-color="#FAC02B"/>
</linearGradient>
<linearGradient id="paint1_linear" x1="19.4227" y1="47.7651" x2="17.1542" y2="47.7651" gradientUnits="userSpaceOnUse">
<stop stop-color="#ECAB00"/>
<stop offset="1" stop-color="#FAC02B"/>
</linearGradient>
</defs>
</svg>
