<svg width="86" height="94" viewBox="0 0 86 94" fill="none" xmlns="http://www.w3.org/2000/svg">
<g clip-path="url(#clip0)" filter="url(#filter0_d)">
<path d="M67.6712 21.494C68.1613 21.494 68.6578 21.369 69.1129 21.1065L73.6971 18.4598C75.0789 17.662 75.5523 15.8951 74.7546 14.5132C73.9567 13.1315 72.1897 12.6582 70.808 13.4557L66.2238 16.1024C64.8421 16.9002 64.3686 18.6671 65.1663 20.049C65.7014 20.9756 66.6726 21.494 67.6712 21.494Z" fill="#FABC1B"/>
<path d="M44.9989 8.4045C45.4891 8.4045 45.9856 8.27953 46.4406 8.017L50.9884 5.39131C52.3701 4.59346 52.8436 2.8266 52.0459 1.44472C51.2482 0.0630053 49.4808 -0.410163 48.0993 0.387185L43.5516 3.01287C42.1698 3.81072 41.6963 5.57759 42.494 6.95947C43.029 7.88632 44.0004 8.4045 44.9989 8.4045Z" fill="#FABC1B"/>
<path d="M67.1859 68.5652L63.3152 66.3396L63.3151 66.34C62.6094 65.9661 61.7029 66.0193 60.7139 66.5902C58.4638 67.8893 56.6397 71.3746 56.6397 74.3749C56.6397 76.0243 57.1918 77.1821 58.0622 77.676L58.0615 77.6773L61.7778 79.8167L67.1859 68.5652Z" fill="#40454A"/>
<path d="M68.546 71.8309C68.546 68.8306 66.7219 67.4516 64.4718 68.7508C62.2217 70.0499 60.3975 73.5352 60.3975 76.5355C60.3975 79.5357 62.2217 80.9147 64.4718 79.6155C66.7219 78.3163 68.546 74.8311 68.546 71.8309Z" fill="#FABC1B"/>
<path d="M62.9152 77.7444C61.7957 77.2675 61.5717 75.2767 62.4148 73.298C63.2579 71.3192 64.8489 70.1018 65.9684 70.5788C67.0878 71.0558 67.3119 73.0466 66.4688 75.0253C65.6257 77.004 64.0347 78.2214 62.9152 77.7444Z" fill="#E9E5F6"/>
<path d="M65.7642 73.437C65.7642 72.4852 65.1855 72.0479 64.4718 72.4601C63.7581 72.8721 63.1795 73.9776 63.1795 74.9294C63.1795 75.8811 63.7581 76.3185 64.4718 75.9063C65.1855 75.4941 65.7642 74.3887 65.7642 73.437Z" fill="#40454A"/>
<path d="M47.271 84.1878C47.6719 84.1878 48.0784 84.0857 48.4506 83.8708L62.9089 75.5233C63.6401 75.101 64.0907 74.3206 64.0907 73.4761V23.3994L68.8501 20.6514C69.9807 19.9989 70.368 18.5532 69.7152 17.4226C69.0624 16.2921 67.6171 15.9041 66.4863 16.5575L60.5451 19.9876C59.8139 20.4099 59.3632 21.1903 59.3632 22.0348V72.1115L46.0868 79.7768C44.9562 80.4295 44.5689 81.8752 45.2218 83.0058C45.6595 83.7637 46.4542 84.1878 47.271 84.1878Z" fill="#40454A"/>
<path d="M24.5623 71.1195C24.9633 71.1195 25.3697 71.0174 25.742 70.8026L40.2002 62.455C40.9314 62.0328 41.382 61.2524 41.382 60.4078V10.3311L46.1779 7.56199C47.3085 6.90943 47.6958 5.46372 47.0429 4.33313C46.3904 3.2027 44.9446 2.81485 43.814 3.46792L37.8364 6.91917C37.1052 7.34145 36.6545 8.12183 36.6545 8.96638V59.0431L23.3781 66.7083C22.2475 67.3611 21.8602 68.8068 22.5131 69.9374C22.9508 70.6954 23.7455 71.1195 24.5623 71.1195Z" fill="#40454A"/>
<path d="M61.7248 24.3987C62.543 24.3987 63.3386 23.9735 63.7759 23.2136C64.4271 22.082 64.0376 20.637 62.9061 19.9858L40.1974 6.91746C39.0656 6.26659 37.6206 6.65577 36.9696 7.78721C36.3183 8.91865 36.7079 10.3638 37.8393 11.0151L60.548 24.0834C60.9197 24.297 61.325 24.3987 61.7248 24.3987Z" fill="#40454A"/>
<path d="M61.7248 38.1865C62.542 38.1865 63.3363 37.7626 63.7742 37.0042C64.427 35.8736 64.0396 34.4279 62.9092 33.7752L40.2005 20.6644C39.0697 20.0118 37.6243 20.3995 36.9716 21.5296C36.3189 22.6602 36.7061 24.1059 37.8368 24.7586L60.5455 37.8694C60.9174 38.0842 61.3241 38.1865 61.7248 38.1865Z" fill="#40454A"/>
<path d="M10.8579 70.0512V39.0475L60.6195 41.1814V72.1849C60.6195 72.8953 60.2681 73.6058 59.565 74.0118L39.8524 85.3928C38.4503 86.2023 36.7231 86.2023 35.3211 85.3928L11.9124 71.8779C11.2093 71.4721 10.8578 70.7616 10.8579 70.0512Z" fill="url(#paint0_linear)"/>
<path d="M59.5651 39.3549L36.1564 25.84C34.7544 25.0305 33.0272 25.0305 31.6252 25.84L11.9125 37.2211C10.5064 38.0328 10.5064 40.0624 11.9125 40.8742L35.3211 54.3891C36.7232 55.1986 38.4504 55.1986 39.8524 54.3891L59.5651 43.0081C60.9711 42.1963 60.9711 40.1667 59.5651 39.3549Z" fill="#FDD364"/>
<path d="M51.975 34.9728L26.8331 49.4885L20.1637 45.638L45.3058 31.1223L51.975 34.9728Z" fill="#FABC1B"/>
<path d="M47.9889 32.6694L22.8468 47.1851L24.1533 47.9393L49.2952 33.4236L47.9889 32.6694Z" fill="#40454A"/>
<path d="M26.833 49.4885V54.9962L20.1636 51.1457V45.638L26.833 49.4885Z" fill="#40454A"/>
</g>
<defs>
<filter id="filter0_d" x="-4" y="0" width="94" height="94" filterUnits="userSpaceOnUse" color-interpolation-filters="sRGB">
<feFlood flood-opacity="0" result="BackgroundImageFix"/>
<feColorMatrix in="SourceAlpha" type="matrix" values="0 0 0 0 0 0 0 0 0 0 0 0 0 0 0 0 0 0 127 0"/>
<feOffset dy="4"/>
<feGaussianBlur stdDeviation="2"/>
<feColorMatrix type="matrix" values="0 0 0 0 0 0 0 0 0 0 0 0 0 0 0 0 0 0 0.25 0"/>
<feBlend mode="normal" in2="BackgroundImageFix" result="effect1_dropShadow"/>
<feBlend mode="normal" in="SourceGraphic" in2="effect1_dropShadow" result="shape"/>
</filter>
<linearGradient id="paint0_linear" x1="41.564" y1="62.5237" x2="34.7283" y2="62.5237" gradientUnits="userSpaceOnUse">
<stop stop-color="#ECAB00"/>
<stop offset="1" stop-color="#FAC02B"/>
</linearGradient>
<clipPath id="clip0">
<rect width="86" height="86" fill="white" transform="matrix(-1 0 0 1 86 0)"/>
</clipPath>
</defs>
</svg>
