<svg width="177" height="112" viewBox="0 0 177 112" fill="none" xmlns="http://www.w3.org/2000/svg">
<path d="M15.0252 102.847C14.5956 103.553 15.2345 104.571 16.0573 104.491C22.5811 104.105 29.0357 103.435 35.2428 101.502C36.1238 101.168 36.3659 99.8151 35.454 99.4055C33.3753 98.5281 31.2092 98.033 28.9066 97.8418C41.0732 91.7377 60.6253 83.3257 64.4183 59.8034C64.5876 58.754 63.4229 58.0874 62.9313 59.0169C55.6212 83.1431 42.8589 86.9444 27.0808 96.151C27.4194 94.0832 27.7581 92.0153 28.1458 90.0258C28.3497 89.1339 27.2993 88.1563 26.4092 88.8243C21.6367 92.6941 17.865 97.4631 15.0252 102.847ZM24.8802 97.8599C24.4706 98.7719 25.4626 100.004 26.5584 99.3162C26.6367 99.267 26.715 99.2179 26.715 99.2179C28.244 99.5674 29.7238 99.8386 31.302 100.266C26.9151 101.275 22.5665 101.823 18.0706 102.136C20.1403 98.6536 22.534 95.5137 25.5065 92.7743C25.2644 94.1267 25.0714 95.5574 24.7511 96.9592C24.5362 97.312 24.6545 97.6744 24.8802 97.8599Z" fill="white"/>
<path d="M6.25879 12.4077C6.35156 12.2271 6.74463 11.5801 7.43799 10.4668L7.5918 10.2178C8.31445 9.02637 8.91016 8.1377 9.37891 7.55176C9.85254 6.96582 10.1992 6.61426 10.4189 6.49707C10.6436 6.375 10.895 6.31396 11.1733 6.31396C11.4272 6.31396 11.6201 6.36279 11.752 6.46045C11.8887 6.55322 11.957 6.75342 11.957 7.06104C11.957 7.32959 11.6958 7.72266 11.1733 8.24023C10.3677 9.03125 9.19092 10.7061 7.64307 13.2646C6.72021 14.7881 6.05127 15.7915 5.63623 16.2749C5.22119 16.7583 4.74023 17.127 4.19336 17.3809C3.65137 17.6348 3.12646 17.7617 2.61865 17.7617C2.04248 17.7617 1.56152 17.6323 1.17578 17.3735C0.794922 17.1196 0.604492 16.7998 0.604492 16.4141C0.604492 16.0576 0.736328 15.8794 1 15.8794C1.12695 15.8794 1.33447 15.9453 1.62256 16.0771C1.90576 16.2139 2.14746 16.2822 2.34766 16.2822C3.05566 16.2822 3.67334 15.9624 4.20068 15.3228C4.72803 14.6831 4.9917 14.2461 4.9917 14.0117C4.9917 13.7285 4.43018 12.6689 3.30713 10.833C2.49658 9.51465 1.97168 8.51855 1.73242 7.84473C1.49316 7.16602 1.37354 6.74854 1.37354 6.59229C1.37354 6.42139 1.50537 6.24316 1.76904 6.05762C2.03271 5.86719 2.23535 5.77197 2.37695 5.77197C2.54785 5.77197 2.72363 5.83057 2.9043 5.94775C3.08496 6.06006 3.20215 6.22852 3.25586 6.45312C3.50488 7.43945 3.90283 8.38672 4.44971 9.29492L6.25879 12.4077ZM15.9121 12.4517C16.4541 12.5298 16.9009 12.7593 17.2524 13.1401C17.6089 13.5161 17.7871 13.9507 17.7871 14.4438C17.7871 15.2788 17.4185 15.9893 16.6812 16.5752C15.9438 17.1611 14.9868 17.4541 13.8101 17.4541C13.0972 17.4541 12.4795 17.2856 11.957 16.9487C11.4346 16.6069 11.1733 16.2383 11.1733 15.8428C11.1733 15.7012 11.2344 15.5767 11.3564 15.4692C11.4785 15.3569 11.6543 15.3008 11.8838 15.3008C11.9912 15.3008 12.1133 15.3594 12.25 15.4766C12.8018 15.8818 13.373 16.0845 13.9639 16.0845C14.54 16.0845 15.0308 15.9355 15.436 15.6377C15.8413 15.335 16.0439 14.9395 16.0439 14.4512C16.0439 14.1436 15.9268 13.8896 15.6924 13.6895C15.4629 13.4844 15.2041 13.3818 14.916 13.3818C14.7354 13.3818 14.5132 13.4185 14.2495 13.4917C14.0542 13.5454 13.8833 13.5991 13.7368 13.6528C13.5903 13.7017 13.4121 13.7261 13.2021 13.7261C12.7725 13.7261 12.5576 13.4868 12.5576 13.0083C12.5576 12.8521 12.6309 12.7202 12.7773 12.6128C12.9238 12.5005 13.229 12.3955 13.6929 12.2979C15.0063 12.0293 15.6631 11.519 15.6631 10.7671C15.6631 10.5718 15.5825 10.4058 15.4214 10.269C15.2651 10.1274 15.082 10.0566 14.8721 10.0566C14.4473 10.0566 13.9858 10.2617 13.4878 10.6719C13.1265 10.9697 12.8213 11.1187 12.5723 11.1187C12.3818 11.1187 12.2256 11.0601 12.1035 10.9429C11.9814 10.8208 11.9204 10.6743 11.9204 10.5034C11.9204 10.0835 12.2549 9.69287 12.9238 9.33154C13.5928 8.96533 14.3276 8.78223 15.1284 8.78223C15.8462 8.78223 16.4053 8.94092 16.8057 9.2583C17.2109 9.57568 17.4136 9.97363 17.4136 10.4521C17.4136 11.3018 16.9131 11.9683 15.9121 12.4517ZM25.7266 14.0117C25.7412 15.125 25.917 15.8184 26.2539 16.0918C26.4492 16.2578 26.5469 16.4141 26.5469 16.5605C26.5469 16.7363 26.4224 16.9023 26.1733 17.0586C25.9243 17.2148 25.6875 17.293 25.4629 17.293C25.0234 17.293 24.6841 17.0293 24.4448 16.502C24.2104 15.9697 24.0933 15.2007 24.0933 14.1948V13.6821C24.0933 13.6626 23.9834 13.6528 23.7637 13.6528C23.2461 13.6528 22.6528 13.6968 21.9839 13.7847C21.3149 13.8677 20.9805 13.9653 20.9805 14.0776C20.9805 14.2485 20.9292 14.5098 20.8267 14.8613C20.7729 15.0322 20.7461 15.2104 20.7461 15.396L20.7754 16.0112C20.7754 16.3481 20.6899 16.6387 20.519 16.8828C20.3481 17.127 20.1016 17.249 19.7793 17.249C19.208 17.249 18.9224 16.9268 18.9224 16.2822L18.9517 15.667C18.9517 15.5205 19.0029 15.1396 19.1055 14.5244C19.2422 13.709 19.3472 12.6616 19.4204 11.3823L19.5376 9.80029C19.5474 9.64404 19.6572 9.48047 19.8672 9.30957C20.082 9.13867 20.3188 9.05322 20.5776 9.05322C21.105 9.05322 21.3687 9.25098 21.3687 9.64648C21.3687 9.65137 21.3613 9.70752 21.3467 9.81494C21.127 11.1821 21.0171 12.0562 21.0171 12.437C21.0171 12.4663 21.0195 12.4834 21.0244 12.4883C21.0635 12.5176 21.7251 12.4712 23.0093 12.3491C23.6538 12.2856 24.0322 12.2344 24.1445 12.1953C24.208 12.1758 24.2739 11.7437 24.3423 10.8989C24.4058 10.1177 24.5327 9.59521 24.7231 9.33154C24.9185 9.06299 25.1821 8.92871 25.5142 8.92871C25.8364 8.92871 26.0732 9.00439 26.2246 9.15576C26.376 9.30225 26.4321 9.5 26.3931 9.74902L26.2686 10.2983C26.249 10.3911 26.21 10.54 26.1514 10.7451C25.8633 11.7266 25.7192 12.6543 25.7192 13.5283L25.7266 14.0117ZM32.7725 14.561C31.498 16.2456 30.2725 17.0879 29.0957 17.0879C28.6562 17.0879 28.2778 16.9146 27.9604 16.5679C27.6431 16.2212 27.4844 15.7793 27.4844 15.2422C27.4844 13.9482 28.0605 12.5713 29.2129 11.1113C30.3652 9.64648 31.5273 8.91406 32.6992 8.91406C33.2949 8.91406 33.6855 9.21436 33.8711 9.81494C34.4326 9.81494 34.7134 10.0298 34.7134 10.4595C34.7134 10.6646 34.6597 11.0356 34.5522 11.5728C34.3569 12.5786 34.2593 13.3818 34.2593 13.9824C34.2593 14.6074 34.3008 15.0469 34.3838 15.3008C34.4717 15.5547 34.5352 15.7207 34.5742 15.7988C34.6133 15.877 34.7305 15.96 34.9258 16.0479C35.1211 16.1406 35.2188 16.27 35.2188 16.436C35.2188 16.6851 35.0918 16.8926 34.8379 17.0586C34.5889 17.2246 34.3276 17.3076 34.0542 17.3076C33.5952 17.3076 33.2632 17.0781 33.0581 16.6191C32.8579 16.1602 32.7578 15.623 32.7578 15.0078V14.7881C32.7578 14.7148 32.7627 14.6392 32.7725 14.561ZM32.377 10.4814C31.8838 10.4814 31.2417 11.0283 30.4507 12.1221C29.6646 13.2109 29.2715 14.1362 29.2715 14.8979C29.2715 15.2983 29.3545 15.4985 29.5205 15.4985C30.0967 15.4985 30.8047 14.9883 31.6445 13.9678C32.4893 12.9424 32.9116 12.0464 32.9116 11.2798C32.9116 11.0356 32.8555 10.8428 32.7432 10.7012C32.6357 10.5547 32.5137 10.4814 32.377 10.4814ZM41.7227 14.3193C41.2539 15.1738 40.7095 15.8525 40.0894 16.3555C39.4741 16.8584 38.8491 17.1099 38.2144 17.1099C37.8384 17.1099 37.4575 16.9121 37.0718 16.5166C36.6909 16.1211 36.5005 15.5132 36.5005 14.6929C36.5005 14.1118 36.647 13.2354 36.9399 12.0635C37.1938 11.0967 37.3208 10.3618 37.3208 9.85889C37.5161 9.44873 37.8213 9.24365 38.2363 9.24365C38.5195 9.24365 38.7441 9.33887 38.9102 9.5293C39.0811 9.71484 39.1665 9.90283 39.1665 10.0933C39.1665 10.4399 39.0444 10.9331 38.8003 11.5728C38.6587 11.9536 38.5049 12.4932 38.3389 13.1914C38.1777 13.8848 38.0972 14.3291 38.0972 14.5244C38.0972 15.1738 38.2314 15.4985 38.5 15.4985C38.9248 15.4985 39.4985 15.0908 40.2212 14.2754C40.9438 13.46 41.415 12.625 41.6348 11.7705C41.8545 10.9355 42.0498 10.3887 42.2207 10.1299C42.3916 9.87109 42.6333 9.7417 42.9458 9.7417C43.4536 9.7417 43.7075 10.0249 43.7075 10.5913C43.7075 10.6743 43.666 10.8403 43.583 11.0894C43.2949 11.9536 43.1509 12.9277 43.1509 14.0117C43.1509 15.2812 43.3657 16.0405 43.7954 16.2896C43.937 16.3726 44.0078 16.4751 44.0078 16.5972C44.0078 16.7729 43.8833 16.939 43.6343 17.0952C43.3853 17.2515 43.1484 17.3296 42.9238 17.3296C42.5381 17.3296 42.2402 17.0586 42.0303 16.5166C41.8252 15.9697 41.7227 15.2373 41.7227 14.3193ZM44.1177 6.10889C44.1177 6.20166 44.0908 6.31885 44.0371 6.46045C43.9883 6.60205 43.9175 6.75342 43.8247 6.91455C43.7319 7.0708 43.6172 7.22705 43.4805 7.3833C43.3486 7.53467 43.1997 7.66895 43.0337 7.78613H43.041C42.9238 7.86426 42.7822 7.9375 42.6162 8.00586C42.4551 8.07422 42.2842 8.13281 42.1035 8.18164C41.9229 8.22559 41.7397 8.26221 41.5542 8.2915C41.3687 8.31592 41.1953 8.32812 41.0342 8.32812C40.7559 8.32812 40.4873 8.29639 40.2285 8.23291C39.9697 8.16943 39.7305 8.0791 39.5107 7.96191C39.291 7.84473 39.0933 7.70557 38.9175 7.54443C38.7466 7.37842 38.6025 7.19775 38.4854 7.00244C38.4512 6.93896 38.417 6.86572 38.3828 6.78271C38.3535 6.69482 38.3267 6.61182 38.3022 6.53369C38.2778 6.45068 38.2583 6.37744 38.2437 6.31396C38.2339 6.25049 38.229 6.20898 38.229 6.18945C38.229 6.04297 38.251 5.92578 38.2949 5.83789C38.3438 5.74512 38.4023 5.67432 38.4707 5.62549C38.5439 5.57666 38.6196 5.54492 38.6978 5.53027C38.7808 5.51562 38.8564 5.5083 38.9248 5.5083C39.0957 5.5083 39.252 5.5498 39.3936 5.63281C39.54 5.71094 39.6255 5.85254 39.6499 6.05762C39.6548 6.16992 39.6841 6.29688 39.7378 6.43848C39.7915 6.58008 39.8745 6.70215 39.9868 6.80469C40.104 6.91211 40.2578 7.00244 40.4482 7.07568C40.6387 7.14893 40.8657 7.18555 41.1294 7.18555C41.1929 7.18555 41.2661 7.17822 41.3491 7.16357C41.437 7.14893 41.5249 7.13184 41.6128 7.1123C41.7007 7.08789 41.7861 7.05859 41.8691 7.02441C41.957 6.99023 42.0303 6.95605 42.0889 6.92188C42.1865 6.86328 42.2695 6.79248 42.3379 6.70947C42.4062 6.62646 42.4648 6.53857 42.5137 6.4458C42.5625 6.34814 42.604 6.25293 42.6382 6.16016C42.6724 6.0625 42.7017 5.97461 42.7261 5.89648C42.7505 5.81836 42.7896 5.75 42.8433 5.69141C42.9019 5.63281 42.9629 5.58398 43.0264 5.54492C43.0947 5.50586 43.1631 5.47656 43.2314 5.45703C43.3047 5.4375 43.3706 5.42773 43.4292 5.42773C43.6343 5.42773 43.8003 5.47656 43.9272 5.57422C44.0542 5.67187 44.1177 5.8501 44.1177 6.10889ZM47.6406 16.5386C47.582 17.0415 47.3013 17.293 46.7983 17.293C46.1587 17.293 45.8389 16.8315 45.8389 15.9087C45.8389 14.4146 45.9194 13.1377 46.0806 12.0781C46.2075 11.2529 46.271 10.4424 46.271 9.64648C46.271 9.45605 46.332 9.29736 46.4541 9.17041C46.5762 9.03857 46.7471 8.97266 46.9668 8.97266C47.6992 8.97266 48.0654 9.41699 48.0654 10.3057C48.0654 10.5938 47.936 11.3286 47.6772 12.5103C47.521 13.2134 47.4429 13.7236 47.4429 14.041C48.8394 10.9746 50.0991 9.44141 51.2222 9.44141C51.6763 9.44141 52.04 9.62207 52.3135 9.9834C52.5918 10.3447 52.7358 11.1455 52.7456 12.3857C52.7505 13.5186 52.8091 14.085 52.9214 14.085C53.0093 14.085 53.3145 13.5356 53.8369 12.437C54.418 11.2212 54.9136 10.418 55.3237 10.0273C55.7388 9.63672 56.1733 9.44141 56.6274 9.44141C57.1694 9.44141 57.5625 9.67578 57.8066 10.1445C58.0508 10.6084 58.2217 11.3945 58.3193 12.5029C58.3926 13.3818 58.4902 14.0459 58.6123 14.4951C58.7393 14.9443 58.9541 15.2422 59.2568 15.3887C59.501 15.5059 59.623 15.6816 59.623 15.916C59.623 16.126 59.4839 16.3384 59.2056 16.5532C58.9272 16.7632 58.644 16.8682 58.356 16.8682C57.8579 16.8682 57.4673 16.624 57.1841 16.1357C56.9058 15.6426 56.7178 14.6562 56.6201 13.1768C56.5664 12.4639 56.5078 11.9927 56.4443 11.7632C56.3857 11.5288 56.2954 11.4116 56.1733 11.4116C56.0659 11.4116 55.9097 11.5874 55.7046 11.939C55.4995 12.2856 55.1455 12.979 54.6426 14.019C54.1982 14.9565 53.8149 15.6108 53.4927 15.9819C53.1753 16.353 52.8335 16.5386 52.4673 16.5386C52.1841 16.5386 51.8984 16.4165 51.6104 16.1724C51.3271 15.9282 51.1733 15.042 51.1489 13.5137C51.1245 12.1514 51.0366 11.4702 50.8853 11.4702C50.6802 11.4702 50.187 12.0757 49.4058 13.2866C48.6245 14.4976 48.0361 15.5815 47.6406 16.5386ZM67.2549 14.4805C67.2549 14.9883 66.8276 15.5962 65.9731 16.3042C65.1187 17.0073 64.1543 17.3589 63.0801 17.3589C62.2549 17.3589 61.6055 17.1001 61.1318 16.5825C60.6582 16.0601 60.4214 15.335 60.4214 14.4072C60.4214 13.04 60.9048 11.7583 61.8716 10.562C62.8384 9.36572 63.8711 8.76758 64.9697 8.76758C65.5166 8.76758 65.9561 8.94092 66.2881 9.2876C66.6201 9.63428 66.7861 10.0469 66.7861 10.5254C66.7861 11.375 66.3784 12.1855 65.563 12.957C64.7476 13.7236 63.7026 14.2534 62.4282 14.5464C62.2817 14.5806 62.2085 14.6685 62.2085 14.8101C62.2085 15.0444 62.311 15.269 62.5161 15.4839C62.7261 15.6938 63.0044 15.7988 63.3511 15.7988C64.3325 15.7988 65.3066 15.2935 66.2734 14.2827C66.459 14.0874 66.6396 13.9897 66.8154 13.9897C67.1084 13.9897 67.2549 14.1533 67.2549 14.4805ZM62.3403 13.1841C63.1118 13.0278 63.7905 12.6982 64.3765 12.1953C64.9673 11.6924 65.2627 11.2358 65.2627 10.8257C65.2627 10.6646 65.2163 10.5303 65.1235 10.4229C65.0356 10.3105 64.9209 10.2544 64.7793 10.2544C64.3545 10.2544 63.8833 10.5669 63.3657 11.1919C62.8481 11.8169 62.5063 12.481 62.3403 13.1841ZM78.4316 12.4517C78.9736 12.5298 79.4204 12.7593 79.772 13.1401C80.1284 13.5161 80.3066 13.9507 80.3066 14.4438C80.3066 15.2788 79.938 15.9893 79.2007 16.5752C78.4634 17.1611 77.5063 17.4541 76.3296 17.4541C75.6167 17.4541 74.999 17.2856 74.4766 16.9487C73.9541 16.6069 73.6929 16.2383 73.6929 15.8428C73.6929 15.7012 73.7539 15.5767 73.876 15.4692C73.998 15.3569 74.1738 15.3008 74.4033 15.3008C74.5107 15.3008 74.6328 15.3594 74.7695 15.4766C75.3213 15.8818 75.8926 16.0845 76.4834 16.0845C77.0596 16.0845 77.5503 15.9355 77.9556 15.6377C78.3608 15.335 78.5635 14.9395 78.5635 14.4512C78.5635 14.1436 78.4463 13.8896 78.2119 13.6895C77.9824 13.4844 77.7236 13.3818 77.4355 13.3818C77.2549 13.3818 77.0327 13.4185 76.769 13.4917C76.5737 13.5454 76.4028 13.5991 76.2563 13.6528C76.1099 13.7017 75.9316 13.7261 75.7217 13.7261C75.292 13.7261 75.0771 13.4868 75.0771 13.0083C75.0771 12.8521 75.1504 12.7202 75.2969 12.6128C75.4434 12.5005 75.7485 12.3955 76.2124 12.2979C77.5259 12.0293 78.1826 11.519 78.1826 10.7671C78.1826 10.5718 78.1021 10.4058 77.9409 10.269C77.7847 10.1274 77.6016 10.0566 77.3916 10.0566C76.9668 10.0566 76.5054 10.2617 76.0073 10.6719C75.646 10.9697 75.3408 11.1187 75.0918 11.1187C74.9014 11.1187 74.7451 11.0601 74.623 10.9429C74.501 10.8208 74.4399 10.6743 74.4399 10.5034C74.4399 10.0835 74.7744 9.69287 75.4434 9.33154C76.1123 8.96533 76.8472 8.78223 77.6479 8.78223C78.3657 8.78223 78.9248 8.94092 79.3252 9.2583C79.7305 9.57568 79.9331 9.97363 79.9331 10.4521C79.9331 11.3018 79.4326 11.9683 78.4316 12.4517ZM86.4883 14.561C85.2139 16.2456 83.9883 17.0879 82.8115 17.0879C82.3721 17.0879 81.9937 16.9146 81.6763 16.5679C81.3589 16.2212 81.2002 15.7793 81.2002 15.2422C81.2002 13.9482 81.7764 12.5713 82.9287 11.1113C84.0811 9.64648 85.2432 8.91406 86.415 8.91406C87.0107 8.91406 87.4014 9.21436 87.5869 9.81494C88.1484 9.81494 88.4292 10.0298 88.4292 10.4595C88.4292 10.6646 88.3755 11.0356 88.2681 11.5728C88.0728 12.5786 87.9751 13.3818 87.9751 13.9824C87.9751 14.6074 88.0166 15.0469 88.0996 15.3008C88.1875 15.5547 88.251 15.7207 88.29 15.7988C88.3291 15.877 88.4463 15.96 88.6416 16.0479C88.8369 16.1406 88.9346 16.27 88.9346 16.436C88.9346 16.6851 88.8076 16.8926 88.5537 17.0586C88.3047 17.2246 88.0435 17.3076 87.77 17.3076C87.311 17.3076 86.979 17.0781 86.7739 16.6191C86.5737 16.1602 86.4736 15.623 86.4736 15.0078V14.7881C86.4736 14.7148 86.4785 14.6392 86.4883 14.561ZM86.0928 10.4814C85.5996 10.4814 84.9575 11.0283 84.1665 12.1221C83.3804 13.2109 82.9873 14.1362 82.9873 14.8979C82.9873 15.2983 83.0703 15.4985 83.2363 15.4985C83.8125 15.4985 84.5205 14.9883 85.3604 13.9678C86.2051 12.9424 86.6274 12.0464 86.6274 11.2798C86.6274 11.0356 86.5713 10.8428 86.459 10.7012C86.3516 10.5547 86.2295 10.4814 86.0928 10.4814ZM102.082 16.0259L102.104 16.3115C102.133 16.6973 101.72 16.8901 100.866 16.8901C100.7 16.8901 100.539 16.7729 100.382 16.5386C100.353 16.4946 100.331 16.4727 100.316 16.4727C100.224 16.4727 99.8379 16.5825 99.1592 16.8022C99.0176 16.8511 98.9126 16.8804 98.8442 16.8901C98.2827 17.0708 97.8604 17.1611 97.5771 17.1611C97.2793 17.1611 97.0376 17.0757 96.8521 16.9048C96.6714 16.7339 96.5811 16.5605 96.5811 16.3848C96.5811 16.1455 96.7227 15.9502 97.0059 15.7988C97.2891 15.6475 97.8066 15.5059 98.5586 15.374C99.3496 15.2178 99.8647 15.0908 100.104 14.9932C100.128 14.7393 100.148 14.4829 100.163 14.2241C100.211 13.3843 100.465 11.6729 100.924 9.08984C100.885 9.09961 100.473 9.33154 99.6865 9.78564C98.9736 10.2007 98.312 10.4082 97.7017 10.4082C97.3013 10.4082 97.1011 10.2373 97.1011 9.89551C97.1011 9.68066 97.167 9.51709 97.2988 9.40479C97.4355 9.2876 97.687 9.15332 98.0532 9.00195C98.4927 8.82617 99.0518 8.54541 99.7305 8.15967L100.822 7.52979C101.491 7.10498 101.92 6.89258 102.111 6.89258C102.379 6.89258 102.584 7.02197 102.726 7.28076C102.868 7.53955 102.938 7.76416 102.938 7.95459C102.938 8.11084 102.865 8.26953 102.719 8.43066C102.367 9.93457 102.135 11.1357 102.023 12.0342C101.916 12.9277 101.862 13.8066 101.862 14.6709C102.13 14.6367 102.763 14.4927 103.759 14.2388C104.354 14.0874 104.965 14.0117 105.59 14.0117C105.761 14.3535 105.846 14.583 105.846 14.7002C105.846 14.8711 105.807 15.0054 105.729 15.103C105.651 15.2007 105.46 15.3008 105.158 15.4033C104.855 15.501 104.345 15.5986 103.627 15.6963C102.875 15.8086 102.36 15.9185 102.082 16.0259ZM112.951 16.48C113.38 16.0503 113.881 15.1641 114.452 13.8213C114.53 13.6406 114.618 13.4526 114.716 13.2573C114.809 13.062 114.889 12.8691 114.958 12.6787C114.997 12.5811 115.041 12.481 115.089 12.3784C115.265 11.9976 115.441 11.5068 115.617 10.9062C115.792 10.3057 115.902 9.88086 115.946 9.63184C116.02 9.21191 116.337 9.00195 116.898 9.00195C117.26 9.00195 117.482 9.06543 117.565 9.19238C117.653 9.31934 117.746 9.47314 117.843 9.65381C117.941 9.83447 118.056 10.3081 118.188 11.0747C118.324 11.8364 118.432 12.4834 118.51 13.0156C118.607 13.6504 118.773 14.312 119.008 15.0005C119.608 13.6138 120.143 12.4395 120.612 11.4775C121.085 10.5107 121.464 9.79297 121.747 9.32422C122.035 8.85547 122.24 8.56738 122.362 8.45996C122.489 8.34766 122.616 8.2915 122.743 8.2915C122.978 8.2915 123.231 8.35986 123.505 8.49658C123.778 8.6333 123.937 8.77002 123.981 8.90674C124.03 9.56592 124.083 10.8013 124.142 12.6128C124.167 13.2622 124.208 13.8408 124.267 14.3486C124.325 14.8564 124.43 15.2788 124.582 15.6157C124.792 16.0356 124.896 16.3945 124.896 16.6924C124.896 16.9316 124.801 17.1294 124.611 17.2856C124.42 17.4419 124.149 17.52 123.798 17.52C123.285 17.52 122.946 17.1709 122.78 16.4727C122.619 15.7744 122.538 14.5366 122.538 12.7593C122.538 12.4956 122.562 11.9927 122.611 11.2505L122.633 10.7817C121.959 12.0757 121.391 13.2354 120.927 14.2607C120.292 15.6621 119.857 16.5117 119.623 16.8096C119.389 17.1074 119.132 17.2563 118.854 17.2563H118.737C118.38 17.2563 118.109 17.166 117.924 16.9854C117.738 16.8047 117.536 16.27 117.316 15.3813C117.096 14.4878 116.933 13.6235 116.825 12.7886C116.776 12.4468 116.732 12.2197 116.693 12.1074C116.498 12.8105 116.374 13.228 116.32 13.3599C116.31 13.3794 116.293 13.4258 116.269 13.499C116.122 13.9482 115.895 14.5195 115.587 15.2129C115.285 15.9014 115.004 16.4434 114.745 16.8389C114.486 17.2295 114.289 17.4688 114.152 17.5566C114.015 17.6494 113.854 17.6958 113.668 17.6958C113.468 17.6958 113.271 17.6177 113.075 17.4614C112.88 17.3101 112.782 17.1367 112.782 16.9414C112.782 16.7656 112.833 16.6167 112.936 16.4946L112.951 16.48ZM131.481 14.3193C131.012 15.1738 130.468 15.8525 129.848 16.3555C129.232 16.8584 128.607 17.1099 127.973 17.1099C127.597 17.1099 127.216 16.9121 126.83 16.5166C126.449 16.1211 126.259 15.5132 126.259 14.6929C126.259 14.1118 126.405 13.2354 126.698 12.0635C126.952 11.0967 127.079 10.3618 127.079 9.85889C127.274 9.44873 127.58 9.24365 127.995 9.24365C128.278 9.24365 128.502 9.33887 128.668 9.5293C128.839 9.71484 128.925 9.90283 128.925 10.0933C128.925 10.4399 128.803 10.9331 128.559 11.5728C128.417 11.9536 128.263 12.4932 128.097 13.1914C127.936 13.8848 127.855 14.3291 127.855 14.5244C127.855 15.1738 127.99 15.4985 128.258 15.4985C128.683 15.4985 129.257 15.0908 129.979 14.2754C130.702 13.46 131.173 12.625 131.393 11.7705C131.613 10.9355 131.808 10.3887 131.979 10.1299C132.15 9.87109 132.392 9.7417 132.704 9.7417C133.212 9.7417 133.466 10.0249 133.466 10.5913C133.466 10.6743 133.424 10.8403 133.341 11.0894C133.053 11.9536 132.909 12.9277 132.909 14.0117C132.909 15.2812 133.124 16.0405 133.554 16.2896C133.695 16.3726 133.766 16.4751 133.766 16.5972C133.766 16.7729 133.642 16.939 133.393 17.0952C133.144 17.2515 132.907 17.3296 132.682 17.3296C132.296 17.3296 131.999 17.0586 131.789 16.5166C131.583 15.9697 131.481 15.2373 131.481 14.3193ZM142.182 14.0117C142.196 15.125 142.372 15.8184 142.709 16.0918C142.904 16.2578 143.002 16.4141 143.002 16.5605C143.002 16.7363 142.877 16.9023 142.628 17.0586C142.379 17.2148 142.143 17.293 141.918 17.293C141.479 17.293 141.139 17.0293 140.9 16.502C140.666 15.9697 140.548 15.2007 140.548 14.1948V13.6821C140.548 13.6626 140.438 13.6528 140.219 13.6528C139.701 13.6528 139.108 13.6968 138.439 13.7847C137.77 13.8677 137.436 13.9653 137.436 14.0776C137.436 14.2485 137.384 14.5098 137.282 14.8613C137.228 15.0322 137.201 15.2104 137.201 15.396L137.23 16.0112C137.23 16.3481 137.145 16.6387 136.974 16.8828C136.803 17.127 136.557 17.249 136.234 17.249C135.663 17.249 135.377 16.9268 135.377 16.2822L135.407 15.667C135.407 15.5205 135.458 15.1396 135.561 14.5244C135.697 13.709 135.802 12.6616 135.875 11.3823L135.993 9.80029C136.002 9.64404 136.112 9.48047 136.322 9.30957C136.537 9.13867 136.774 9.05322 137.033 9.05322C137.56 9.05322 137.824 9.25098 137.824 9.64648C137.824 9.65137 137.816 9.70752 137.802 9.81494C137.582 11.1821 137.472 12.0562 137.472 12.437C137.472 12.4663 137.475 12.4834 137.479 12.4883C137.519 12.5176 138.18 12.4712 139.464 12.3491C140.109 12.2856 140.487 12.2344 140.6 12.1953C140.663 12.1758 140.729 11.7437 140.797 10.8989C140.861 10.1177 140.988 9.59521 141.178 9.33154C141.374 9.06299 141.637 8.92871 141.969 8.92871C142.292 8.92871 142.528 9.00439 142.68 9.15576C142.831 9.30225 142.887 9.5 142.848 9.74902L142.724 10.2983C142.704 10.3911 142.665 10.54 142.606 10.7451C142.318 11.7266 142.174 12.6543 142.174 13.5283L142.182 14.0117ZM149.418 14.876C147.909 16.0674 146.747 16.6631 145.932 16.6631C145.404 16.6631 144.987 16.4531 144.679 16.0332C144.372 15.6133 144.218 15.1079 144.218 14.5171C144.218 13.7603 144.372 12.813 144.679 11.6753C144.987 10.5376 145.243 9.88086 145.448 9.70508C145.658 9.5293 145.934 9.44141 146.276 9.44141C146.491 9.44141 146.667 9.53906 146.803 9.73438C146.94 9.92969 147.008 10.1567 147.008 10.4155C147.008 10.4888 146.833 10.9014 146.481 11.6533C146.051 12.5713 145.836 13.3623 145.836 14.0264C145.836 14.3438 145.888 14.6025 145.99 14.8027C146.098 15.0029 146.208 15.103 146.32 15.103C146.554 15.103 146.83 15.0371 147.147 14.9053C147.465 14.7686 147.851 14.522 148.305 14.1655C148.764 13.8042 149.057 13.5332 149.184 13.3525C149.311 13.1719 149.413 12.9351 149.491 12.6421C149.574 12.3442 149.638 11.7119 149.682 10.7451C149.706 10.1787 149.733 9.82227 149.762 9.67578C149.796 9.5293 149.884 9.39502 150.026 9.27295C150.167 9.15088 150.358 9.08984 150.597 9.08984C150.919 9.08984 151.146 9.1582 151.278 9.29492C151.415 9.43164 151.483 9.75391 151.483 10.2617C151.483 10.9502 151.359 12.4175 151.11 14.6636C150.866 16.9097 150.417 18.5356 149.762 19.5415C149.113 20.5522 148.234 21.0576 147.125 21.0576C146.139 21.0576 145.275 20.7988 144.533 20.2812C143.795 19.7637 143.427 19.3047 143.427 18.9043C143.427 18.6748 143.483 18.4917 143.595 18.355C143.712 18.2183 143.864 18.1499 144.049 18.1499C144.21 18.1499 144.345 18.2183 144.452 18.355C145.146 19.1606 145.99 19.5635 146.986 19.5635C148.246 19.5635 149.057 18.001 149.418 14.876ZM155.028 16.5386C154.97 17.0415 154.689 17.293 154.186 17.293C153.546 17.293 153.227 16.8315 153.227 15.9087C153.227 14.4146 153.307 13.1377 153.468 12.0781C153.595 11.2529 153.659 10.4424 153.659 9.64648C153.659 9.45605 153.72 9.29736 153.842 9.17041C153.964 9.03857 154.135 8.97266 154.354 8.97266C155.087 8.97266 155.453 9.41699 155.453 10.3057C155.453 10.5938 155.324 11.3286 155.065 12.5103C154.909 13.2134 154.831 13.7236 154.831 14.041C156.227 10.9746 157.487 9.44141 158.61 9.44141C159.064 9.44141 159.428 9.62207 159.701 9.9834C159.979 10.3447 160.124 11.1455 160.133 12.3857C160.138 13.5186 160.197 14.085 160.309 14.085C160.397 14.085 160.702 13.5356 161.225 12.437C161.806 11.2212 162.301 10.418 162.711 10.0273C163.126 9.63672 163.561 9.44141 164.015 9.44141C164.557 9.44141 164.95 9.67578 165.194 10.1445C165.438 10.6084 165.609 11.3945 165.707 12.5029C165.78 13.3818 165.878 14.0459 166 14.4951C166.127 14.9443 166.342 15.2422 166.645 15.3887C166.889 15.5059 167.011 15.6816 167.011 15.916C167.011 16.126 166.872 16.3384 166.593 16.5532C166.315 16.7632 166.032 16.8682 165.744 16.8682C165.246 16.8682 164.855 16.624 164.572 16.1357C164.293 15.6426 164.105 14.6562 164.008 13.1768C163.954 12.4639 163.896 11.9927 163.832 11.7632C163.773 11.5288 163.683 11.4116 163.561 11.4116C163.454 11.4116 163.297 11.5874 163.092 11.939C162.887 12.2856 162.533 12.979 162.03 14.019C161.586 14.9565 161.203 15.6108 160.88 15.9819C160.563 16.353 160.221 16.5386 159.855 16.5386C159.572 16.5386 159.286 16.4165 158.998 16.1724C158.715 15.9282 158.561 15.042 158.537 13.5137C158.512 12.1514 158.424 11.4702 158.273 11.4702C158.068 11.4702 157.575 12.0757 156.793 13.2866C156.012 14.4976 155.424 15.5815 155.028 16.5386ZM173.251 14.876C171.742 16.0674 170.58 16.6631 169.765 16.6631C169.237 16.6631 168.82 16.4531 168.512 16.0332C168.205 15.6133 168.051 15.1079 168.051 14.5171C168.051 13.7603 168.205 12.813 168.512 11.6753C168.82 10.5376 169.076 9.88086 169.281 9.70508C169.491 9.5293 169.767 9.44141 170.109 9.44141C170.324 9.44141 170.5 9.53906 170.636 9.73438C170.773 9.92969 170.841 10.1567 170.841 10.4155C170.841 10.4888 170.666 10.9014 170.314 11.6533C169.884 12.5713 169.669 13.3623 169.669 14.0264C169.669 14.3438 169.721 14.6025 169.823 14.8027C169.931 15.0029 170.041 15.103 170.153 15.103C170.387 15.103 170.663 15.0371 170.98 14.9053C171.298 14.7686 171.684 14.522 172.138 14.1655C172.597 13.8042 172.89 13.5332 173.017 13.3525C173.144 13.1719 173.246 12.9351 173.324 12.6421C173.407 12.3442 173.471 11.7119 173.515 10.7451C173.539 10.1787 173.566 9.82227 173.595 9.67578C173.629 9.5293 173.717 9.39502 173.859 9.27295C174 9.15088 174.191 9.08984 174.43 9.08984C174.752 9.08984 174.979 9.1582 175.111 9.29492C175.248 9.43164 175.316 9.75391 175.316 10.2617C175.316 10.9502 175.192 12.4175 174.943 14.6636C174.699 16.9097 174.25 18.5356 173.595 19.5415C172.946 20.5522 172.067 21.0576 170.958 21.0576C169.972 21.0576 169.108 20.7988 168.366 20.2812C167.628 19.7637 167.26 19.3047 167.26 18.9043C167.26 18.6748 167.316 18.4917 167.428 18.355C167.545 18.2183 167.697 18.1499 167.882 18.1499C168.043 18.1499 168.178 18.2183 168.285 18.355C168.979 19.1606 169.823 19.5635 170.819 19.5635C172.079 19.5635 172.89 18.001 173.251 14.876ZM5.72412 36.2646C5.94385 36.3184 6.14893 36.4136 6.33936 36.5503C6.52979 36.687 6.75684 36.936 7.02051 37.2974C7.52832 38.0005 7.92871 38.4619 8.22168 38.6816C8.51465 38.9014 8.83447 39.0112 9.18115 39.0112C9.54248 39.0112 9.72314 39.1235 9.72314 39.3481C9.72314 39.563 9.59863 39.7803 9.34961 40C9.10059 40.2197 8.70752 40.3296 8.17041 40.3296C7.34521 40.3296 6.50781 39.6484 5.6582 38.2861C5.16504 37.4854 4.75244 37.085 4.42041 37.085C4.37646 37.085 4.25684 37.1167 4.06152 37.1802C3.87109 37.2437 3.74658 37.3022 3.68799 37.356C3.62939 37.4048 3.58057 37.7148 3.5415 38.2861L3.46094 39.6338C3.45117 39.8535 3.36084 40.0415 3.18994 40.1978C3.01904 40.3589 2.80664 40.4395 2.55273 40.4395C2.28418 40.4395 2.07422 40.3638 1.92285 40.2124C1.77148 40.0659 1.6958 39.917 1.6958 39.7656C1.6958 39.5801 1.75684 39.1821 1.87891 38.5718C2.17188 37.0337 2.40381 35.1538 2.57471 32.9321C2.59424 32.6489 2.71143 32.3901 2.92627 32.1558C3.14111 31.9214 3.39258 31.8042 3.68066 31.8042C3.88086 31.8042 4.04688 31.8896 4.17871 32.0605C4.31055 32.2314 4.37646 32.4292 4.37646 32.6538C4.37646 32.8296 4.34717 33.0078 4.28857 33.1885C4.21533 33.3984 4.11035 33.8281 3.97363 34.4775C3.8418 35.127 3.76123 35.6226 3.73193 35.9644C4.31299 35.7886 4.76465 35.5444 5.08691 35.2319C5.40918 34.9194 5.80957 34.4189 6.28809 33.7305C6.68848 33.1641 7.06445 32.7466 7.41602 32.478C7.76758 32.2046 8.15332 32.0679 8.57324 32.0679C8.80273 32.0679 9.01514 32.1655 9.21045 32.3608C9.41064 32.5513 9.51074 32.7539 9.51074 32.9688C9.51074 33.1494 9.45459 33.2861 9.34229 33.3789C9.23486 33.4668 9.04443 33.5522 8.771 33.6353C8.42432 33.7378 8.05322 34.0161 7.65771 34.4702C6.8374 35.4126 6.19287 36.0107 5.72412 36.2646ZM15.6484 37.561C14.374 39.2456 13.1484 40.0879 11.9717 40.0879C11.5322 40.0879 11.1538 39.9146 10.8364 39.5679C10.519 39.2212 10.3604 38.7793 10.3604 38.2422C10.3604 36.9482 10.9365 35.5713 12.0889 34.1113C13.2412 32.6465 14.4033 31.9141 15.5752 31.9141C16.1709 31.9141 16.5615 32.2144 16.7471 32.8149C17.3086 32.8149 17.5894 33.0298 17.5894 33.4595C17.5894 33.6646 17.5356 34.0356 17.4282 34.5728C17.2329 35.5786 17.1353 36.3818 17.1353 36.9824C17.1353 37.6074 17.1768 38.0469 17.2598 38.3008C17.3477 38.5547 17.4111 38.7207 17.4502 38.7988C17.4893 38.877 17.6064 38.96 17.8018 39.0479C17.9971 39.1406 18.0947 39.27 18.0947 39.436C18.0947 39.6851 17.9678 39.8926 17.7139 40.0586C17.4648 40.2246 17.2036 40.3076 16.9302 40.3076C16.4712 40.3076 16.1392 40.0781 15.9341 39.6191C15.7339 39.1602 15.6338 38.623 15.6338 38.0078V37.7881C15.6338 37.7148 15.6387 37.6392 15.6484 37.561ZM15.2529 33.4814C14.7598 33.4814 14.1177 34.0283 13.3267 35.1221C12.5405 36.2109 12.1475 37.1362 12.1475 37.8979C12.1475 38.2983 12.2305 38.4985 12.3965 38.4985C12.9727 38.4985 13.6807 37.9883 14.5205 36.9678C15.3652 35.9424 15.7876 35.0464 15.7876 34.2798C15.7876 34.0356 15.7314 33.8428 15.6191 33.7012C15.5117 33.5547 15.3896 33.4814 15.2529 33.4814ZM23.3462 36.2646C23.5659 36.3184 23.771 36.4136 23.9614 36.5503C24.1519 36.687 24.3789 36.936 24.6426 37.2974C25.1504 38.0005 25.5508 38.4619 25.8438 38.6816C26.1367 38.9014 26.4565 39.0112 26.8032 39.0112C27.1646 39.0112 27.3452 39.1235 27.3452 39.3481C27.3452 39.563 27.2207 39.7803 26.9717 40C26.7227 40.2197 26.3296 40.3296 25.7925 40.3296C24.9673 40.3296 24.1299 39.6484 23.2803 38.2861C22.7871 37.4854 22.3745 37.085 22.0425 37.085C21.9985 37.085 21.8789 37.1167 21.6836 37.1802C21.4932 37.2437 21.3687 37.3022 21.3101 37.356C21.2515 37.4048 21.2026 37.7148 21.1636 38.2861L21.083 39.6338C21.0732 39.8535 20.9829 40.0415 20.812 40.1978C20.6411 40.3589 20.4287 40.4395 20.1748 40.4395C19.9062 40.4395 19.6963 40.3638 19.5449 40.2124C19.3936 40.0659 19.3179 39.917 19.3179 39.7656C19.3179 39.5801 19.3789 39.1821 19.501 38.5718C19.7939 37.0337 20.0259 35.1538 20.1968 32.9321C20.2163 32.6489 20.3335 32.3901 20.5483 32.1558C20.7632 31.9214 21.0146 31.8042 21.3027 31.8042C21.5029 31.8042 21.6689 31.8896 21.8008 32.0605C21.9326 32.2314 21.9985 32.4292 21.9985 32.6538C21.9985 32.8296 21.9692 33.0078 21.9106 33.1885C21.8374 33.3984 21.7324 33.8281 21.5957 34.4775C21.4639 35.127 21.3833 35.6226 21.354 35.9644C21.9351 35.7886 22.3867 35.5444 22.709 35.2319C23.0312 34.9194 23.4316 34.4189 23.9102 33.7305C24.3105 33.1641 24.6865 32.7466 25.0381 32.478C25.3896 32.2046 25.7754 32.0679 26.1953 32.0679C26.4248 32.0679 26.6372 32.1655 26.8325 32.3608C27.0327 32.5513 27.1328 32.7539 27.1328 32.9688C27.1328 33.1494 27.0767 33.2861 26.9644 33.3789C26.8569 33.4668 26.6665 33.5522 26.3931 33.6353C26.0464 33.7378 25.6753 34.0161 25.2798 34.4702C24.4595 35.4126 23.8149 36.0107 23.3462 36.2646ZM38.8003 35.0122C38.7368 34.5679 38.605 34.2188 38.4048 33.9648C38.2046 33.7109 37.9678 33.584 37.6943 33.584C36.9863 33.584 36.3491 33.8232 35.7827 34.3018C35.4751 34.5654 35.2163 34.6973 35.0063 34.6973C34.811 34.6973 34.6572 34.6436 34.5449 34.5361C34.4326 34.4238 34.3765 34.2944 34.3765 34.1479C34.3765 33.6108 34.7695 33.147 35.5557 32.7563C36.3418 32.3608 37.1597 32.1631 38.0093 32.1631C38.439 32.1631 38.8809 32.2949 39.335 32.5586C39.7891 32.8223 40.082 33.147 40.2139 33.5327C40.2578 33.6646 40.3066 33.7915 40.3604 33.9136C40.5557 34.3823 40.6533 34.9634 40.6533 35.6567C40.6533 36.8188 40.2261 37.876 39.3716 38.8281C38.5171 39.7803 37.2915 40.2563 35.6948 40.2563C35.2163 40.2563 34.7622 40.0586 34.3325 39.6631C33.9077 39.2627 33.6953 38.8428 33.6953 38.4033C33.6953 38.2031 33.7808 38.0493 33.9517 37.9419C34.1274 37.8296 34.3057 37.7734 34.4863 37.7734C34.8037 37.7734 35.0479 37.9443 35.2188 38.2861C35.2871 38.4277 35.4238 38.5742 35.6289 38.7256C35.834 38.8721 36.0464 38.9453 36.2661 38.9453C36.8374 38.9453 37.3696 38.7256 37.8628 38.2861C38.3608 37.8467 38.666 37.2339 38.7783 36.4478C38.7344 36.4478 38.6099 36.4722 38.4048 36.521C37.7896 36.6626 37.0522 36.7334 36.1929 36.7334C35.9634 36.7334 35.7656 36.6675 35.5996 36.5356C35.4385 36.3989 35.3579 36.2354 35.3579 36.0449C35.3579 35.835 35.5166 35.6641 35.834 35.5322C36.1514 35.4004 36.3857 35.3345 36.5371 35.3345C36.6738 35.3052 36.8374 35.2832 37.0278 35.2686C37.9116 35.2002 38.5024 35.1147 38.8003 35.0122ZM43.6855 39.5386C43.627 40.0415 43.3462 40.293 42.8433 40.293C42.2036 40.293 41.8838 39.8315 41.8838 38.9087C41.8838 37.4146 41.9644 36.1377 42.1255 35.0781C42.2524 34.2529 42.3159 33.4424 42.3159 32.6465C42.3159 32.4561 42.377 32.2974 42.499 32.1704C42.6211 32.0386 42.792 31.9727 43.0117 31.9727C43.7441 31.9727 44.1104 32.417 44.1104 33.3057C44.1104 33.5938 43.981 34.3286 43.7222 35.5103C43.5659 36.2134 43.4878 36.7236 43.4878 37.041C44.8843 33.9746 46.144 32.4414 47.2671 32.4414C47.7212 32.4414 48.085 32.6221 48.3584 32.9834C48.6367 33.3447 48.7808 34.1455 48.7905 35.3857C48.7954 36.5186 48.854 37.085 48.9663 37.085C49.0542 37.085 49.3594 36.5356 49.8818 35.437C50.4629 34.2212 50.9585 33.418 51.3687 33.0273C51.7837 32.6367 52.2183 32.4414 52.6724 32.4414C53.2144 32.4414 53.6074 32.6758 53.8516 33.1445C54.0957 33.6084 54.2666 34.3945 54.3643 35.5029C54.4375 36.3818 54.5352 37.0459 54.6572 37.4951C54.7842 37.9443 54.999 38.2422 55.3018 38.3887C55.5459 38.5059 55.668 38.6816 55.668 38.916C55.668 39.126 55.5288 39.3384 55.2505 39.5532C54.9722 39.7632 54.689 39.8682 54.4009 39.8682C53.9028 39.8682 53.5122 39.624 53.229 39.1357C52.9507 38.6426 52.7627 37.6562 52.665 36.1768C52.6113 35.4639 52.5527 34.9927 52.4893 34.7632C52.4307 34.5288 52.3403 34.4116 52.2183 34.4116C52.1108 34.4116 51.9546 34.5874 51.7495 34.939C51.5444 35.2856 51.1904 35.979 50.6875 37.019C50.2432 37.9565 49.8599 38.6108 49.5376 38.9819C49.2202 39.353 48.8784 39.5386 48.5122 39.5386C48.229 39.5386 47.9434 39.4165 47.6553 39.1724C47.3721 38.9282 47.2183 38.042 47.1938 36.5137C47.1694 35.1514 47.0815 34.4702 46.9302 34.4702C46.7251 34.4702 46.2319 35.0757 45.4507 36.2866C44.6694 37.4976 44.0811 38.5815 43.6855 39.5386ZM63.666 36.2866C63.3389 37.4292 62.7163 38.3936 61.7983 39.1797C60.8853 39.9609 59.9722 40.3516 59.0591 40.3516C58.3364 40.3516 57.7407 40.0879 57.272 39.5605C56.8032 39.0283 56.5688 38.3765 56.5688 37.605C56.5688 36.3452 56.9985 35.105 57.8579 33.8843C58.7173 32.6636 59.7598 32.0532 60.9854 32.0532C61.8203 32.0532 62.4966 32.3633 63.0142 32.9834C63.5317 33.5986 63.7905 34.3335 63.7905 35.188C63.7905 35.5591 63.749 35.9229 63.666 36.2793V36.2866ZM59.8574 33.9722C59.5156 34.2749 59.1812 34.7583 58.854 35.4224C58.5269 36.0864 58.3633 36.7529 58.3633 37.4219C58.3633 37.8271 58.4365 38.1616 58.583 38.4253C58.7344 38.689 58.9321 38.8208 59.1763 38.8208C59.7817 38.8208 60.4116 38.4619 61.0659 37.7441C61.7202 37.0264 62.0474 36.2207 62.0474 35.3271C62.0474 34.8242 61.9399 34.4116 61.7251 34.0894C61.5151 33.7622 61.2197 33.5986 60.8389 33.5986C60.4775 33.5986 60.1528 33.7231 59.8647 33.9722H59.8574ZM72.9458 39.5239C72.8481 39.9194 72.7261 40.647 72.5796 41.7065C72.4331 42.771 72.3452 43.4839 72.3159 43.8452C72.2866 44.2114 72.1597 44.5215 71.9351 44.7754C71.7153 45.0293 71.5176 45.1562 71.3418 45.1562C71.1221 45.1562 70.9048 45.0732 70.6899 44.9072C70.4751 44.7412 70.3677 44.5605 70.3677 44.3652C70.3677 43.9697 70.4287 43.5132 70.5508 42.9956C71.2832 40.0708 71.6836 37.0557 71.752 33.9502V33.8037C71.752 33.1982 71.7715 32.7905 71.8105 32.5806C71.8496 32.3657 71.9717 32.1606 72.1768 31.9653C72.3818 31.77 72.6235 31.6724 72.9019 31.6724C73.1362 31.6724 73.3267 31.7773 73.4731 31.9873C73.6245 32.1973 73.7002 32.5 73.7002 32.8955C73.7002 33.2959 73.627 33.9966 73.4805 34.9976C74.0225 34.0942 74.6694 33.3472 75.4214 32.7563C76.1782 32.1606 76.8667 31.8628 77.4868 31.8628C78.0337 31.8628 78.4976 32.0581 78.8784 32.4487C79.2642 32.8394 79.457 33.3301 79.457 33.9209C79.457 35.498 78.8442 36.9336 77.6187 38.2275C76.3979 39.5166 75.1895 40.1611 73.9932 40.1611C73.4365 40.1611 73.0874 39.9487 72.9458 39.5239ZM77.2012 33.5254C76.6055 33.5254 75.8315 34.1064 74.8794 35.2686C73.9321 36.4307 73.4585 37.3438 73.4585 38.0078C73.4585 38.1787 73.5415 38.3325 73.7075 38.4692C73.8784 38.6011 74.0762 38.667 74.3008 38.667C74.9209 38.667 75.6313 38.1812 76.4321 37.2095C77.2378 36.2329 77.6406 35.2905 77.6406 34.3823C77.6406 34.0796 77.5942 33.8623 77.5015 33.7305C77.4087 33.5938 77.3086 33.5254 77.2012 33.5254ZM85.8438 37.561C84.5693 39.2456 83.3438 40.0879 82.167 40.0879C81.7275 40.0879 81.3491 39.9146 81.0317 39.5679C80.7144 39.2212 80.5557 38.7793 80.5557 38.2422C80.5557 36.9482 81.1318 35.5713 82.2842 34.1113C83.4365 32.6465 84.5986 31.9141 85.7705 31.9141C86.3662 31.9141 86.7568 32.2144 86.9424 32.8149C87.5039 32.8149 87.7847 33.0298 87.7847 33.4595C87.7847 33.6646 87.731 34.0356 87.6235 34.5728C87.4282 35.5786 87.3306 36.3818 87.3306 36.9824C87.3306 37.6074 87.3721 38.0469 87.4551 38.3008C87.543 38.5547 87.6064 38.7207 87.6455 38.7988C87.6846 38.877 87.8018 38.96 87.9971 39.0479C88.1924 39.1406 88.29 39.27 88.29 39.436C88.29 39.6851 88.1631 39.8926 87.9092 40.0586C87.6602 40.2246 87.3989 40.3076 87.1255 40.3076C86.6665 40.3076 86.3345 40.0781 86.1294 39.6191C85.9292 39.1602 85.8291 38.623 85.8291 38.0078V37.7881C85.8291 37.7148 85.834 37.6392 85.8438 37.561ZM85.4482 33.4814C84.9551 33.4814 84.313 34.0283 83.522 35.1221C82.7358 36.2109 82.3428 37.1362 82.3428 37.8979C82.3428 38.2983 82.4258 38.4985 82.5918 38.4985C83.168 38.4985 83.876 37.9883 84.7158 36.9678C85.5605 35.9424 85.9829 35.0464 85.9829 34.2798C85.9829 34.0356 85.9268 33.8428 85.8145 33.7012C85.707 33.5547 85.585 33.4814 85.4482 33.4814ZM93.666 31.9727C93.4023 31.6113 92.9556 31.1597 92.3257 30.6177C91.6958 30.0854 91.3809 29.6509 91.3809 29.314C91.3809 29.0552 91.4395 28.8379 91.5566 28.6621C91.6787 28.4814 91.8154 28.3594 91.9668 28.2959C92.1182 28.2275 92.4551 28.1274 92.9775 27.9956C94.2959 27.6782 95.4092 27.3486 96.3174 27.0068C96.4932 26.9336 96.6519 26.897 96.7935 26.897C97.1353 26.897 97.3062 27.0923 97.3062 27.4829C97.3062 27.7173 97.0181 27.9858 96.4419 28.2886C95.8706 28.5864 94.9014 28.894 93.5342 29.2114C93.3438 29.2407 93.2485 29.3066 93.2485 29.4092C93.2485 29.4727 93.4438 29.6558 93.8345 29.9585C95.3628 31.145 96.127 32.7661 96.127 34.8218C96.127 35.6177 95.9072 36.4868 95.4678 37.4292C95.0283 38.3667 94.4424 39.0625 93.71 39.5166C92.9824 39.9658 92.2744 40.1904 91.5859 40.1904C90.9268 40.1904 90.4116 39.8926 90.0405 39.2969C89.6694 38.6963 89.4839 38.0005 89.4839 37.2095C89.4839 35.9253 89.894 34.7192 90.7144 33.5913C91.5347 32.4585 92.3965 31.8921 93.2998 31.8921L93.666 31.9727ZM91.271 37.1436C91.271 38.1738 91.4297 38.689 91.7471 38.689C92.0156 38.689 92.3794 38.5107 92.8384 38.1543C93.2974 37.793 93.6685 37.2729 93.9517 36.5942C94.2349 35.9106 94.3765 35.2686 94.3765 34.668C94.3765 34.1846 94.335 33.8037 94.252 33.5254C94.1738 33.2471 94.1006 33.1079 94.0322 33.1079C93.2852 33.1079 92.6382 33.5864 92.0913 34.5435C91.5444 35.5005 91.271 36.3672 91.271 37.1436ZM104.271 36.2866C103.944 37.4292 103.322 38.3936 102.404 39.1797C101.491 39.9609 100.578 40.3516 99.6646 40.3516C98.9419 40.3516 98.3462 40.0879 97.8774 39.5605C97.4087 39.0283 97.1743 38.3765 97.1743 37.605C97.1743 36.3452 97.604 35.105 98.4634 33.8843C99.3228 32.6636 100.365 32.0532 101.591 32.0532C102.426 32.0532 103.102 32.3633 103.62 32.9834C104.137 33.5986 104.396 34.3335 104.396 35.188C104.396 35.5591 104.354 35.9229 104.271 36.2793V36.2866ZM100.463 33.9722C100.121 34.2749 99.7866 34.7583 99.4595 35.4224C99.1323 36.0864 98.9688 36.7529 98.9688 37.4219C98.9688 37.8271 99.042 38.1616 99.1885 38.4253C99.3398 38.689 99.5376 38.8208 99.7817 38.8208C100.387 38.8208 101.017 38.4619 101.671 37.7441C102.326 37.0264 102.653 36.2207 102.653 35.3271C102.653 34.8242 102.545 34.4116 102.331 34.0894C102.121 33.7622 101.825 33.5986 101.444 33.5986C101.083 33.5986 100.758 33.7231 100.47 33.9722H100.463ZM107.743 39.5386C107.685 40.0415 107.404 40.293 106.901 40.293C106.261 40.293 105.941 39.8315 105.941 38.9087C105.941 37.4146 106.022 36.1377 106.183 35.0781C106.31 34.2529 106.374 33.4424 106.374 32.6465C106.374 32.4561 106.435 32.2974 106.557 32.1704C106.679 32.0386 106.85 31.9727 107.069 31.9727C107.802 31.9727 108.168 32.417 108.168 33.3057C108.168 33.5938 108.039 34.3286 107.78 35.5103C107.624 36.2134 107.545 36.7236 107.545 37.041C108.942 33.9746 110.202 32.4414 111.325 32.4414C111.779 32.4414 112.143 32.6221 112.416 32.9834C112.694 33.3447 112.838 34.1455 112.848 35.3857C112.853 36.5186 112.912 37.085 113.024 37.085C113.112 37.085 113.417 36.5356 113.939 35.437C114.521 34.2212 115.016 33.418 115.426 33.0273C115.841 32.6367 116.276 32.4414 116.73 32.4414C117.272 32.4414 117.665 32.6758 117.909 33.1445C118.153 33.6084 118.324 34.3945 118.422 35.5029C118.495 36.3818 118.593 37.0459 118.715 37.4951C118.842 37.9443 119.057 38.2422 119.359 38.3887C119.604 38.5059 119.726 38.6816 119.726 38.916C119.726 39.126 119.586 39.3384 119.308 39.5532C119.03 39.7632 118.747 39.8682 118.458 39.8682C117.96 39.8682 117.57 39.624 117.287 39.1357C117.008 38.6426 116.82 37.6562 116.723 36.1768C116.669 35.4639 116.61 34.9927 116.547 34.7632C116.488 34.5288 116.398 34.4116 116.276 34.4116C116.168 34.4116 116.012 34.5874 115.807 34.939C115.602 35.2856 115.248 35.979 114.745 37.019C114.301 37.9565 113.917 38.6108 113.595 38.9819C113.278 39.353 112.936 39.5386 112.57 39.5386C112.287 39.5386 112.001 39.4165 111.713 39.1724C111.43 38.9282 111.276 38.042 111.251 36.5137C111.227 35.1514 111.139 34.4702 110.988 34.4702C110.783 34.4702 110.29 35.0757 109.508 36.2866C108.727 37.4976 108.139 38.5815 107.743 39.5386ZM125.775 37.561C124.501 39.2456 123.275 40.0879 122.099 40.0879C121.659 40.0879 121.281 39.9146 120.963 39.5679C120.646 39.2212 120.487 38.7793 120.487 38.2422C120.487 36.9482 121.063 35.5713 122.216 34.1113C123.368 32.6465 124.53 31.9141 125.702 31.9141C126.298 31.9141 126.688 32.2144 126.874 32.8149C127.436 32.8149 127.716 33.0298 127.716 33.4595C127.716 33.6646 127.663 34.0356 127.555 34.5728C127.36 35.5786 127.262 36.3818 127.262 36.9824C127.262 37.6074 127.304 38.0469 127.387 38.3008C127.475 38.5547 127.538 38.7207 127.577 38.7988C127.616 38.877 127.733 38.96 127.929 39.0479C128.124 39.1406 128.222 39.27 128.222 39.436C128.222 39.6851 128.095 39.8926 127.841 40.0586C127.592 40.2246 127.331 40.3076 127.057 40.3076C126.598 40.3076 126.266 40.0781 126.061 39.6191C125.861 39.1602 125.761 38.623 125.761 38.0078V37.7881C125.761 37.7148 125.766 37.6392 125.775 37.561ZM125.38 33.4814C124.887 33.4814 124.245 34.0283 123.454 35.1221C122.667 36.2109 122.274 37.1362 122.274 37.8979C122.274 38.2983 122.357 38.4985 122.523 38.4985C123.1 38.4985 123.808 37.9883 124.647 36.9678C125.492 35.9424 125.915 35.0464 125.915 34.2798C125.915 34.0356 125.858 33.8428 125.746 33.7012C125.639 33.5547 125.517 33.4814 125.38 33.4814ZM136.132 37.4805C136.132 37.9883 135.705 38.5962 134.85 39.3042C133.996 40.0073 133.031 40.3589 131.957 40.3589C131.132 40.3589 130.482 40.1001 130.009 39.5825C129.535 39.0601 129.298 38.335 129.298 37.4072C129.298 36.04 129.782 34.7583 130.749 33.562C131.715 32.3657 132.748 31.7676 133.847 31.7676C134.394 31.7676 134.833 31.9409 135.165 32.2876C135.497 32.6343 135.663 33.0469 135.663 33.5254C135.663 34.375 135.255 35.1855 134.44 35.957C133.625 36.7236 132.58 37.2534 131.305 37.5464C131.159 37.5806 131.085 37.6685 131.085 37.8101C131.085 38.0444 131.188 38.269 131.393 38.4839C131.603 38.6938 131.881 38.7988 132.228 38.7988C133.209 38.7988 134.184 38.2935 135.15 37.2827C135.336 37.0874 135.517 36.9897 135.692 36.9897C135.985 36.9897 136.132 37.1533 136.132 37.4805ZM131.217 36.1841C131.989 36.0278 132.667 35.6982 133.253 35.1953C133.844 34.6924 134.14 34.2358 134.14 33.8257C134.14 33.6646 134.093 33.5303 134 33.4229C133.913 33.3105 133.798 33.2544 133.656 33.2544C133.231 33.2544 132.76 33.5669 132.243 34.1919C131.725 34.8169 131.383 35.481 131.217 36.1841ZM139.296 39.5386C139.237 40.0415 138.957 40.293 138.454 40.293C137.814 40.293 137.494 39.8315 137.494 38.9087C137.494 37.4146 137.575 36.1377 137.736 35.0781C137.863 34.2529 137.926 33.4424 137.926 32.6465C137.926 32.4561 137.987 32.2974 138.109 32.1704C138.231 32.0386 138.402 31.9727 138.622 31.9727C139.354 31.9727 139.721 32.417 139.721 33.3057C139.721 33.5938 139.591 34.3286 139.333 35.5103C139.176 36.2134 139.098 36.7236 139.098 37.041C140.495 33.9746 141.754 32.4414 142.877 32.4414C143.332 32.4414 143.695 32.6221 143.969 32.9834C144.247 33.3447 144.391 34.1455 144.401 35.3857C144.406 36.5186 144.464 37.085 144.577 37.085C144.665 37.085 144.97 36.5356 145.492 35.437C146.073 34.2212 146.569 33.418 146.979 33.0273C147.394 32.6367 147.829 32.4414 148.283 32.4414C148.825 32.4414 149.218 32.6758 149.462 33.1445C149.706 33.6084 149.877 34.3945 149.975 35.5029C150.048 36.3818 150.146 37.0459 150.268 37.4951C150.395 37.9443 150.609 38.2422 150.912 38.3887C151.156 38.5059 151.278 38.6816 151.278 38.916C151.278 39.126 151.139 39.3384 150.861 39.5532C150.583 39.7632 150.299 39.8682 150.011 39.8682C149.513 39.8682 149.123 39.624 148.839 39.1357C148.561 38.6426 148.373 37.6562 148.275 36.1768C148.222 35.4639 148.163 34.9927 148.1 34.7632C148.041 34.5288 147.951 34.4116 147.829 34.4116C147.721 34.4116 147.565 34.5874 147.36 34.939C147.155 35.2856 146.801 35.979 146.298 37.019C145.854 37.9565 145.47 38.6108 145.148 38.9819C144.831 39.353 144.489 39.5386 144.123 39.5386C143.839 39.5386 143.554 39.4165 143.266 39.1724C142.982 38.9282 142.829 38.042 142.804 36.5137C142.78 35.1514 142.692 34.4702 142.541 34.4702C142.335 34.4702 141.842 35.0757 141.061 36.2866C140.28 37.4976 139.691 38.5815 139.296 39.5386Z" fill="white"/>
</svg>
