<svg width="538" height="538" viewBox="0 0 538 538" fill="none" xmlns="http://www.w3.org/2000/svg">
<circle cx="267.5" cy="269.5" r="175.5" fill="url(#paint0_radial)"/>
<path opacity="0.3" d="M402.647 402.646C385.094 420.199 364.256 434.123 341.322 443.622C318.388 453.122 293.808 458.011 268.984 458.011C244.161 458.011 219.581 453.122 196.647 443.622C173.713 434.123 152.875 420.199 135.322 402.646C117.769 385.093 103.846 364.255 94.3462 341.321C84.8467 318.388 79.9573 293.807 79.9573 268.984C79.9573 244.16 84.8467 219.58 94.3462 196.646C103.846 173.713 117.769 152.874 135.322 135.322" stroke="#C7CFD9"/>
<path d="M354.232 354.232C343.037 365.427 329.747 374.307 315.12 380.366C300.493 386.425 284.816 389.543 268.984 389.543C253.152 389.543 237.475 386.425 222.849 380.366C208.222 374.307 194.931 365.427 183.736 354.232C172.541 343.037 163.661 329.747 157.603 315.12C151.544 300.493 148.426 284.816 148.426 268.984C148.426 253.152 151.544 237.475 157.602 222.848C163.661 208.221 172.541 194.931 183.736 183.736" stroke="#FFCE4E" stroke-width="5"/>
<path opacity="0.3" d="M332.505 332.27C324.165 340.61 314.264 347.226 303.368 351.739C292.471 356.253 280.792 358.576 268.998 358.576C257.204 358.576 245.525 356.253 234.628 351.739C223.732 347.226 213.831 340.61 205.491 332.27C197.151 323.93 190.536 314.03 186.022 303.133C181.509 292.236 179.186 280.558 179.186 268.763C179.186 256.969 181.509 245.29 186.022 234.393C190.536 223.497 197.151 213.596 205.491 205.256" stroke="#C7CFD9"/>
<path d="M327.025 242.847C326.596 243.553 327.235 244.571 328.057 244.491C334.581 244.105 341.036 243.435 347.243 241.502C348.124 241.168 348.366 239.815 347.454 239.406C345.375 238.528 343.209 238.033 340.907 237.842C353.073 231.738 372.625 223.326 376.418 199.803C376.588 198.754 375.423 198.087 374.931 199.017C367.621 223.143 354.859 226.944 339.081 236.151C339.419 234.083 339.758 232.015 340.146 230.026C340.35 229.134 339.299 228.156 338.409 228.824C333.637 232.694 329.865 237.463 327.025 242.847ZM336.88 237.86C336.471 238.772 337.463 240.004 338.558 239.316C338.637 239.267 338.715 239.218 338.715 239.218C340.244 239.567 341.724 239.839 343.302 240.266C338.915 241.275 334.567 241.823 330.071 242.136C332.14 238.654 334.534 235.514 337.507 232.774C337.264 234.127 337.071 235.557 336.751 236.959C336.536 237.312 336.655 237.674 336.88 237.86Z" fill="white"/>
<path d="M318.259 152.408C318.352 152.227 318.745 151.58 319.438 150.467L319.592 150.218C320.314 149.026 320.91 148.138 321.379 147.552C321.853 146.966 322.199 146.614 322.419 146.497C322.644 146.375 322.895 146.314 323.173 146.314C323.427 146.314 323.62 146.363 323.752 146.46C323.889 146.553 323.957 146.753 323.957 147.061C323.957 147.33 323.696 147.723 323.173 148.24C322.368 149.031 321.191 150.706 319.643 153.265C318.72 154.788 318.051 155.792 317.636 156.275C317.221 156.758 316.74 157.127 316.193 157.381C315.651 157.635 315.126 157.762 314.619 157.762C314.042 157.762 313.562 157.632 313.176 157.374C312.795 157.12 312.604 156.8 312.604 156.414C312.604 156.058 312.736 155.879 313 155.879C313.127 155.879 313.334 155.945 313.623 156.077C313.906 156.214 314.147 156.282 314.348 156.282C315.056 156.282 315.673 155.962 316.201 155.323C316.728 154.683 316.992 154.246 316.992 154.012C316.992 153.729 316.43 152.669 315.307 150.833C314.497 149.515 313.972 148.519 313.732 147.845C313.493 147.166 313.374 146.749 313.374 146.592C313.374 146.421 313.505 146.243 313.769 146.058C314.033 145.867 314.235 145.772 314.377 145.772C314.548 145.772 314.724 145.831 314.904 145.948C315.085 146.06 315.202 146.229 315.256 146.453C315.505 147.439 315.903 148.387 316.45 149.295L318.259 152.408ZM327.912 152.452C328.454 152.53 328.901 152.759 329.252 153.14C329.609 153.516 329.787 153.951 329.787 154.444C329.787 155.279 329.418 155.989 328.681 156.575C327.944 157.161 326.987 157.454 325.81 157.454C325.097 157.454 324.479 157.286 323.957 156.949C323.435 156.607 323.173 156.238 323.173 155.843C323.173 155.701 323.234 155.577 323.356 155.469C323.479 155.357 323.654 155.301 323.884 155.301C323.991 155.301 324.113 155.359 324.25 155.477C324.802 155.882 325.373 156.084 325.964 156.084C326.54 156.084 327.031 155.936 327.436 155.638C327.841 155.335 328.044 154.939 328.044 154.451C328.044 154.144 327.927 153.89 327.692 153.689C327.463 153.484 327.204 153.382 326.916 153.382C326.735 153.382 326.513 153.418 326.25 153.492C326.054 153.545 325.883 153.599 325.737 153.653C325.59 153.702 325.412 153.726 325.202 153.726C324.772 153.726 324.558 153.487 324.558 153.008C324.558 152.852 324.631 152.72 324.777 152.613C324.924 152.5 325.229 152.396 325.693 152.298C327.006 152.029 327.663 151.519 327.663 150.767C327.663 150.572 327.583 150.406 327.421 150.269C327.265 150.127 327.082 150.057 326.872 150.057C326.447 150.057 325.986 150.262 325.488 150.672C325.126 150.97 324.821 151.119 324.572 151.119C324.382 151.119 324.226 151.06 324.104 150.943C323.981 150.821 323.92 150.674 323.92 150.503C323.92 150.083 324.255 149.693 324.924 149.332C325.593 148.965 326.328 148.782 327.128 148.782C327.846 148.782 328.405 148.941 328.806 149.258C329.211 149.576 329.414 149.974 329.414 150.452C329.414 151.302 328.913 151.968 327.912 152.452ZM337.727 154.012C337.741 155.125 337.917 155.818 338.254 156.092C338.449 156.258 338.547 156.414 338.547 156.561C338.547 156.736 338.422 156.902 338.173 157.059C337.924 157.215 337.688 157.293 337.463 157.293C337.023 157.293 336.684 157.029 336.445 156.502C336.21 155.97 336.093 155.201 336.093 154.195V153.682C336.093 153.663 335.983 153.653 335.764 153.653C335.246 153.653 334.653 153.697 333.984 153.785C333.315 153.868 332.98 153.965 332.98 154.078C332.98 154.249 332.929 154.51 332.827 154.861C332.773 155.032 332.746 155.21 332.746 155.396L332.775 156.011C332.775 156.348 332.69 156.639 332.519 156.883C332.348 157.127 332.102 157.249 331.779 157.249C331.208 157.249 330.922 156.927 330.922 156.282L330.952 155.667C330.952 155.521 331.003 155.14 331.105 154.524C331.242 153.709 331.347 152.662 331.42 151.382L331.538 149.8C331.547 149.644 331.657 149.48 331.867 149.31C332.082 149.139 332.319 149.053 332.578 149.053C333.105 149.053 333.369 149.251 333.369 149.646C333.369 149.651 333.361 149.708 333.347 149.815C333.127 151.182 333.017 152.056 333.017 152.437C333.017 152.466 333.02 152.483 333.024 152.488C333.063 152.518 333.725 152.471 335.009 152.349C335.654 152.286 336.032 152.234 336.145 152.195C336.208 152.176 336.274 151.744 336.342 150.899C336.406 150.118 336.533 149.595 336.723 149.332C336.918 149.063 337.182 148.929 337.514 148.929C337.836 148.929 338.073 149.004 338.225 149.156C338.376 149.302 338.432 149.5 338.393 149.749L338.269 150.298C338.249 150.391 338.21 150.54 338.151 150.745C337.863 151.727 337.719 152.654 337.719 153.528L337.727 154.012ZM344.772 154.561C343.498 156.246 342.272 157.088 341.096 157.088C340.656 157.088 340.278 156.915 339.96 156.568C339.643 156.221 339.484 155.779 339.484 155.242C339.484 153.948 340.061 152.571 341.213 151.111C342.365 149.646 343.527 148.914 344.699 148.914C345.295 148.914 345.686 149.214 345.871 149.815C346.433 149.815 346.713 150.03 346.713 150.459C346.713 150.665 346.66 151.036 346.552 151.573C346.357 152.579 346.259 153.382 346.259 153.982C346.259 154.607 346.301 155.047 346.384 155.301C346.472 155.555 346.535 155.721 346.574 155.799C346.613 155.877 346.73 155.96 346.926 156.048C347.121 156.141 347.219 156.27 347.219 156.436C347.219 156.685 347.092 156.893 346.838 157.059C346.589 157.225 346.328 157.308 346.054 157.308C345.595 157.308 345.263 157.078 345.058 156.619C344.858 156.16 344.758 155.623 344.758 155.008V154.788C344.758 154.715 344.763 154.639 344.772 154.561ZM344.377 150.481C343.884 150.481 343.242 151.028 342.451 152.122C341.665 153.211 341.271 154.136 341.271 154.898C341.271 155.298 341.354 155.499 341.521 155.499C342.097 155.499 342.805 154.988 343.645 153.968C344.489 152.942 344.912 152.046 344.912 151.28C344.912 151.036 344.855 150.843 344.743 150.701C344.636 150.555 344.514 150.481 344.377 150.481ZM353.723 154.319C353.254 155.174 352.709 155.853 352.089 156.355C351.474 156.858 350.849 157.11 350.214 157.11C349.838 157.11 349.458 156.912 349.072 156.517C348.691 156.121 348.5 155.513 348.5 154.693C348.5 154.112 348.647 153.235 348.94 152.063C349.194 151.097 349.321 150.362 349.321 149.859C349.516 149.449 349.821 149.244 350.236 149.244C350.52 149.244 350.744 149.339 350.91 149.529C351.081 149.715 351.167 149.903 351.167 150.093C351.167 150.44 351.044 150.933 350.8 151.573C350.659 151.954 350.505 152.493 350.339 153.191C350.178 153.885 350.097 154.329 350.097 154.524C350.097 155.174 350.231 155.499 350.5 155.499C350.925 155.499 351.499 155.091 352.221 154.275C352.944 153.46 353.415 152.625 353.635 151.771C353.854 150.936 354.05 150.389 354.221 150.13C354.392 149.871 354.633 149.742 354.946 149.742C355.454 149.742 355.708 150.025 355.708 150.591C355.708 150.674 355.666 150.84 355.583 151.089C355.295 151.954 355.151 152.928 355.151 154.012C355.151 155.281 355.366 156.041 355.795 156.29C355.937 156.373 356.008 156.475 356.008 156.597C356.008 156.773 355.883 156.939 355.634 157.095C355.385 157.251 355.148 157.33 354.924 157.33C354.538 157.33 354.24 157.059 354.03 156.517C353.825 155.97 353.723 155.237 353.723 154.319ZM356.118 146.109C356.118 146.202 356.091 146.319 356.037 146.46C355.988 146.602 355.917 146.753 355.825 146.915C355.732 147.071 355.617 147.227 355.48 147.383C355.349 147.535 355.2 147.669 355.034 147.786H355.041C354.924 147.864 354.782 147.938 354.616 148.006C354.455 148.074 354.284 148.133 354.104 148.182C353.923 148.226 353.74 148.262 353.554 148.292C353.369 148.316 353.195 148.328 353.034 148.328C352.756 148.328 352.487 148.296 352.229 148.233C351.97 148.169 351.73 148.079 351.511 147.962C351.291 147.845 351.093 147.706 350.917 147.544C350.747 147.378 350.603 147.198 350.485 147.002C350.451 146.939 350.417 146.866 350.383 146.783C350.354 146.695 350.327 146.612 350.302 146.534C350.278 146.451 350.258 146.377 350.244 146.314C350.234 146.25 350.229 146.209 350.229 146.189C350.229 146.043 350.251 145.926 350.295 145.838C350.344 145.745 350.402 145.674 350.471 145.625C350.544 145.577 350.62 145.545 350.698 145.53C350.781 145.516 350.856 145.508 350.925 145.508C351.096 145.508 351.252 145.55 351.394 145.633C351.54 145.711 351.625 145.853 351.65 146.058C351.655 146.17 351.684 146.297 351.738 146.438C351.792 146.58 351.875 146.702 351.987 146.805C352.104 146.912 352.258 147.002 352.448 147.076C352.639 147.149 352.866 147.186 353.129 147.186C353.193 147.186 353.266 147.178 353.349 147.164C353.437 147.149 353.525 147.132 353.613 147.112C353.701 147.088 353.786 147.059 353.869 147.024C353.957 146.99 354.03 146.956 354.089 146.922C354.187 146.863 354.27 146.792 354.338 146.709C354.406 146.626 354.465 146.539 354.514 146.446C354.562 146.348 354.604 146.253 354.638 146.16C354.672 146.062 354.702 145.975 354.726 145.896C354.75 145.818 354.79 145.75 354.843 145.691C354.902 145.633 354.963 145.584 355.026 145.545C355.095 145.506 355.163 145.477 355.231 145.457C355.305 145.438 355.371 145.428 355.429 145.428C355.634 145.428 355.8 145.477 355.927 145.574C356.054 145.672 356.118 145.85 356.118 146.109ZM359.641 156.539C359.582 157.042 359.301 157.293 358.798 157.293C358.159 157.293 357.839 156.832 357.839 155.909C357.839 154.415 357.919 153.138 358.081 152.078C358.208 151.253 358.271 150.442 358.271 149.646C358.271 149.456 358.332 149.297 358.454 149.17C358.576 149.039 358.747 148.973 358.967 148.973C359.699 148.973 360.065 149.417 360.065 150.306C360.065 150.594 359.936 151.329 359.677 152.51C359.521 153.213 359.443 153.724 359.443 154.041C360.839 150.975 362.099 149.441 363.222 149.441C363.676 149.441 364.04 149.622 364.313 149.983C364.592 150.345 364.736 151.146 364.746 152.386C364.75 153.519 364.809 154.085 364.921 154.085C365.009 154.085 365.314 153.536 365.837 152.437C366.418 151.221 366.914 150.418 367.324 150.027C367.739 149.637 368.173 149.441 368.627 149.441C369.169 149.441 369.562 149.676 369.807 150.145C370.051 150.608 370.222 151.395 370.319 152.503C370.393 153.382 370.49 154.046 370.612 154.495C370.739 154.944 370.954 155.242 371.257 155.389C371.501 155.506 371.623 155.682 371.623 155.916C371.623 156.126 371.484 156.338 371.206 156.553C370.927 156.763 370.644 156.868 370.356 156.868C369.858 156.868 369.467 156.624 369.184 156.136C368.906 155.643 368.718 154.656 368.62 153.177C368.566 152.464 368.508 151.993 368.444 151.763C368.386 151.529 368.295 151.412 368.173 151.412C368.066 151.412 367.91 151.587 367.705 151.939C367.5 152.286 367.146 152.979 366.643 154.019C366.198 154.957 365.815 155.611 365.493 155.982C365.175 156.353 364.833 156.539 364.467 156.539C364.184 156.539 363.898 156.417 363.61 156.172C363.327 155.928 363.173 155.042 363.149 153.514C363.125 152.151 363.037 151.47 362.885 151.47C362.68 151.47 362.187 152.076 361.406 153.287C360.625 154.498 360.036 155.582 359.641 156.539ZM379.255 154.48C379.255 154.988 378.828 155.596 377.973 156.304C377.119 157.007 376.154 157.359 375.08 157.359C374.255 157.359 373.605 157.1 373.132 156.583C372.658 156.06 372.421 155.335 372.421 154.407C372.421 153.04 372.905 151.758 373.872 150.562C374.838 149.366 375.871 148.768 376.97 148.768C377.517 148.768 377.956 148.941 378.288 149.288C378.62 149.634 378.786 150.047 378.786 150.525C378.786 151.375 378.378 152.186 377.563 152.957C376.748 153.724 375.703 154.253 374.428 154.546C374.282 154.581 374.208 154.668 374.208 154.81C374.208 155.044 374.311 155.269 374.516 155.484C374.726 155.694 375.004 155.799 375.351 155.799C376.333 155.799 377.307 155.293 378.273 154.283C378.459 154.087 378.64 153.99 378.815 153.99C379.108 153.99 379.255 154.153 379.255 154.48ZM374.34 153.184C375.112 153.028 375.791 152.698 376.376 152.195C376.967 151.692 377.263 151.236 377.263 150.826C377.263 150.665 377.216 150.53 377.124 150.423C377.036 150.311 376.921 150.254 376.779 150.254C376.354 150.254 375.883 150.567 375.366 151.192C374.848 151.817 374.506 152.481 374.34 153.184ZM390.432 152.452C390.974 152.53 391.42 152.759 391.772 153.14C392.128 153.516 392.307 153.951 392.307 154.444C392.307 155.279 391.938 155.989 391.201 156.575C390.463 157.161 389.506 157.454 388.33 157.454C387.617 157.454 386.999 157.286 386.477 156.949C385.954 156.607 385.693 156.238 385.693 155.843C385.693 155.701 385.754 155.577 385.876 155.469C385.998 155.357 386.174 155.301 386.403 155.301C386.511 155.301 386.633 155.359 386.77 155.477C387.321 155.882 387.893 156.084 388.483 156.084C389.06 156.084 389.55 155.936 389.956 155.638C390.361 155.335 390.563 154.939 390.563 154.451C390.563 154.144 390.446 153.89 390.212 153.689C389.982 153.484 389.724 153.382 389.436 153.382C389.255 153.382 389.033 153.418 388.769 153.492C388.574 153.545 388.403 153.599 388.256 153.653C388.11 153.702 387.932 153.726 387.722 153.726C387.292 153.726 387.077 153.487 387.077 153.008C387.077 152.852 387.15 152.72 387.297 152.613C387.443 152.5 387.749 152.396 388.212 152.298C389.526 152.029 390.183 151.519 390.183 150.767C390.183 150.572 390.102 150.406 389.941 150.269C389.785 150.127 389.602 150.057 389.392 150.057C388.967 150.057 388.505 150.262 388.007 150.672C387.646 150.97 387.341 151.119 387.092 151.119C386.901 151.119 386.745 151.06 386.623 150.943C386.501 150.821 386.44 150.674 386.44 150.503C386.44 150.083 386.774 149.693 387.443 149.332C388.112 148.965 388.847 148.782 389.648 148.782C390.366 148.782 390.925 148.941 391.325 149.258C391.73 149.576 391.933 149.974 391.933 150.452C391.933 151.302 391.433 151.968 390.432 152.452ZM398.488 154.561C397.214 156.246 395.988 157.088 394.812 157.088C394.372 157.088 393.994 156.915 393.676 156.568C393.359 156.221 393.2 155.779 393.2 155.242C393.2 153.948 393.776 152.571 394.929 151.111C396.081 149.646 397.243 148.914 398.415 148.914C399.011 148.914 399.401 149.214 399.587 149.815C400.148 149.815 400.429 150.03 400.429 150.459C400.429 150.665 400.375 151.036 400.268 151.573C400.073 152.579 399.975 153.382 399.975 153.982C399.975 154.607 400.017 155.047 400.1 155.301C400.188 155.555 400.251 155.721 400.29 155.799C400.329 155.877 400.446 155.96 400.642 156.048C400.837 156.141 400.935 156.27 400.935 156.436C400.935 156.685 400.808 156.893 400.554 157.059C400.305 157.225 400.043 157.308 399.77 157.308C399.311 157.308 398.979 157.078 398.774 156.619C398.574 156.16 398.474 155.623 398.474 155.008V154.788C398.474 154.715 398.479 154.639 398.488 154.561ZM398.093 150.481C397.6 150.481 396.958 151.028 396.167 152.122C395.38 153.211 394.987 154.136 394.987 154.898C394.987 155.298 395.07 155.499 395.236 155.499C395.812 155.499 396.521 154.988 397.36 153.968C398.205 152.942 398.627 152.046 398.627 151.28C398.627 151.036 398.571 150.843 398.459 150.701C398.352 150.555 398.229 150.481 398.093 150.481ZM414.082 156.026L414.104 156.312C414.133 156.697 413.72 156.89 412.866 156.89C412.7 156.89 412.539 156.773 412.382 156.539C412.353 156.495 412.331 156.473 412.316 156.473C412.224 156.473 411.838 156.583 411.159 156.802C411.018 156.851 410.913 156.88 410.844 156.89C410.283 157.071 409.86 157.161 409.577 157.161C409.279 157.161 409.038 157.076 408.852 156.905C408.671 156.734 408.581 156.561 408.581 156.385C408.581 156.146 408.723 155.95 409.006 155.799C409.289 155.647 409.807 155.506 410.559 155.374C411.35 155.218 411.865 155.091 412.104 154.993C412.128 154.739 412.148 154.483 412.163 154.224C412.211 153.384 412.465 151.673 412.924 149.09C412.885 149.1 412.473 149.332 411.687 149.786C410.974 150.201 410.312 150.408 409.702 150.408C409.301 150.408 409.101 150.237 409.101 149.896C409.101 149.681 409.167 149.517 409.299 149.405C409.436 149.288 409.687 149.153 410.053 149.002C410.493 148.826 411.052 148.545 411.73 148.16L412.822 147.53C413.491 147.105 413.92 146.893 414.111 146.893C414.379 146.893 414.584 147.022 414.726 147.281C414.868 147.54 414.938 147.764 414.938 147.955C414.938 148.111 414.865 148.27 414.719 148.431C414.367 149.935 414.135 151.136 414.023 152.034C413.916 152.928 413.862 153.807 413.862 154.671C414.13 154.637 414.763 154.493 415.759 154.239C416.354 154.087 416.965 154.012 417.59 154.012C417.761 154.354 417.846 154.583 417.846 154.7C417.846 154.871 417.807 155.005 417.729 155.103C417.651 155.201 417.46 155.301 417.158 155.403C416.855 155.501 416.345 155.599 415.627 155.696C414.875 155.809 414.36 155.918 414.082 156.026ZM424.951 156.48C425.38 156.05 425.881 155.164 426.452 153.821C426.53 153.641 426.618 153.453 426.716 153.257C426.809 153.062 426.889 152.869 426.958 152.679C426.997 152.581 427.041 152.481 427.089 152.378C427.265 151.998 427.441 151.507 427.617 150.906C427.792 150.306 427.902 149.881 427.946 149.632C428.02 149.212 428.337 149.002 428.898 149.002C429.26 149.002 429.482 149.065 429.565 149.192C429.653 149.319 429.746 149.473 429.843 149.654C429.941 149.834 430.056 150.308 430.188 151.075C430.324 151.836 430.432 152.483 430.51 153.016C430.607 153.65 430.773 154.312 431.008 155C431.608 153.614 432.143 152.439 432.612 151.478C433.085 150.511 433.464 149.793 433.747 149.324C434.035 148.855 434.24 148.567 434.362 148.46C434.489 148.348 434.616 148.292 434.743 148.292C434.978 148.292 435.231 148.36 435.505 148.497C435.778 148.633 435.937 148.77 435.981 148.907C436.03 149.566 436.083 150.801 436.142 152.613C436.167 153.262 436.208 153.841 436.267 154.349C436.325 154.856 436.43 155.279 436.582 155.616C436.792 156.036 436.896 156.395 436.896 156.692C436.896 156.932 436.801 157.129 436.611 157.286C436.42 157.442 436.149 157.52 435.798 157.52C435.285 157.52 434.946 157.171 434.78 156.473C434.619 155.774 434.538 154.537 434.538 152.759C434.538 152.496 434.562 151.993 434.611 151.25L434.633 150.782C433.959 152.076 433.391 153.235 432.927 154.261C432.292 155.662 431.857 156.512 431.623 156.81C431.389 157.107 431.132 157.256 430.854 157.256H430.737C430.38 157.256 430.109 157.166 429.924 156.985C429.738 156.805 429.536 156.27 429.316 155.381C429.096 154.488 428.933 153.624 428.825 152.789C428.776 152.447 428.732 152.22 428.693 152.107C428.498 152.811 428.374 153.228 428.32 153.36C428.31 153.379 428.293 153.426 428.269 153.499C428.122 153.948 427.895 154.52 427.587 155.213C427.285 155.901 427.004 156.443 426.745 156.839C426.486 157.229 426.289 157.469 426.152 157.557C426.015 157.649 425.854 157.696 425.668 157.696C425.468 157.696 425.271 157.618 425.075 157.461C424.88 157.31 424.782 157.137 424.782 156.941C424.782 156.766 424.833 156.617 424.936 156.495L424.951 156.48ZM443.481 154.319C443.012 155.174 442.468 155.853 441.848 156.355C441.232 156.858 440.607 157.11 439.973 157.11C439.597 157.11 439.216 156.912 438.83 156.517C438.449 156.121 438.259 155.513 438.259 154.693C438.259 154.112 438.405 153.235 438.698 152.063C438.952 151.097 439.079 150.362 439.079 149.859C439.274 149.449 439.58 149.244 439.995 149.244C440.278 149.244 440.502 149.339 440.668 149.529C440.839 149.715 440.925 149.903 440.925 150.093C440.925 150.44 440.803 150.933 440.559 151.573C440.417 151.954 440.263 152.493 440.097 153.191C439.936 153.885 439.855 154.329 439.855 154.524C439.855 155.174 439.99 155.499 440.258 155.499C440.683 155.499 441.257 155.091 441.979 154.275C442.702 153.46 443.173 152.625 443.393 151.771C443.613 150.936 443.808 150.389 443.979 150.13C444.15 149.871 444.392 149.742 444.704 149.742C445.212 149.742 445.466 150.025 445.466 150.591C445.466 150.674 445.424 150.84 445.341 151.089C445.053 151.954 444.909 152.928 444.909 154.012C444.909 155.281 445.124 156.041 445.554 156.29C445.695 156.373 445.766 156.475 445.766 156.597C445.766 156.773 445.642 156.939 445.393 157.095C445.144 157.251 444.907 157.33 444.682 157.33C444.296 157.33 443.999 157.059 443.789 156.517C443.583 155.97 443.481 155.237 443.481 154.319ZM454.182 154.012C454.196 155.125 454.372 155.818 454.709 156.092C454.904 156.258 455.002 156.414 455.002 156.561C455.002 156.736 454.877 156.902 454.628 157.059C454.379 157.215 454.143 157.293 453.918 157.293C453.479 157.293 453.139 157.029 452.9 156.502C452.666 155.97 452.548 155.201 452.548 154.195V153.682C452.548 153.663 452.438 153.653 452.219 153.653C451.701 153.653 451.108 153.697 450.439 153.785C449.77 153.868 449.436 153.965 449.436 154.078C449.436 154.249 449.384 154.51 449.282 154.861C449.228 155.032 449.201 155.21 449.201 155.396L449.23 156.011C449.23 156.348 449.145 156.639 448.974 156.883C448.803 157.127 448.557 157.249 448.234 157.249C447.663 157.249 447.377 156.927 447.377 156.282L447.407 155.667C447.407 155.521 447.458 155.14 447.561 154.524C447.697 153.709 447.802 152.662 447.875 151.382L447.993 149.8C448.002 149.644 448.112 149.48 448.322 149.31C448.537 149.139 448.774 149.053 449.033 149.053C449.56 149.053 449.824 149.251 449.824 149.646C449.824 149.651 449.816 149.708 449.802 149.815C449.582 151.182 449.472 152.056 449.472 152.437C449.472 152.466 449.475 152.483 449.479 152.488C449.519 152.518 450.18 152.471 451.464 152.349C452.109 152.286 452.487 152.234 452.6 152.195C452.663 152.176 452.729 151.744 452.797 150.899C452.861 150.118 452.988 149.595 453.178 149.332C453.374 149.063 453.637 148.929 453.969 148.929C454.292 148.929 454.528 149.004 454.68 149.156C454.831 149.302 454.887 149.5 454.848 149.749L454.724 150.298C454.704 150.391 454.665 150.54 454.606 150.745C454.318 151.727 454.174 152.654 454.174 153.528L454.182 154.012ZM461.418 154.876C459.909 156.067 458.747 156.663 457.932 156.663C457.404 156.663 456.987 156.453 456.679 156.033C456.372 155.613 456.218 155.108 456.218 154.517C456.218 153.76 456.372 152.813 456.679 151.675C456.987 150.538 457.243 149.881 457.448 149.705C457.658 149.529 457.934 149.441 458.276 149.441C458.491 149.441 458.667 149.539 458.803 149.734C458.94 149.93 459.008 150.157 459.008 150.416C459.008 150.489 458.833 150.901 458.481 151.653C458.051 152.571 457.836 153.362 457.836 154.026C457.836 154.344 457.888 154.603 457.99 154.803C458.098 155.003 458.208 155.103 458.32 155.103C458.554 155.103 458.83 155.037 459.147 154.905C459.465 154.769 459.851 154.522 460.305 154.166C460.764 153.804 461.057 153.533 461.184 153.353C461.311 153.172 461.413 152.935 461.491 152.642C461.574 152.344 461.638 151.712 461.682 150.745C461.706 150.179 461.733 149.822 461.762 149.676C461.796 149.529 461.884 149.395 462.026 149.273C462.167 149.151 462.358 149.09 462.597 149.09C462.919 149.09 463.146 149.158 463.278 149.295C463.415 149.432 463.483 149.754 463.483 150.262C463.483 150.95 463.359 152.417 463.11 154.664C462.866 156.91 462.417 158.536 461.762 159.542C461.113 160.552 460.234 161.058 459.125 161.058C458.139 161.058 457.275 160.799 456.533 160.281C455.795 159.764 455.427 159.305 455.427 158.904C455.427 158.675 455.483 158.492 455.595 158.355C455.712 158.218 455.864 158.15 456.049 158.15C456.21 158.15 456.345 158.218 456.452 158.355C457.146 159.161 457.99 159.563 458.986 159.563C460.246 159.563 461.057 158.001 461.418 154.876ZM467.028 156.539C466.97 157.042 466.689 157.293 466.186 157.293C465.546 157.293 465.227 156.832 465.227 155.909C465.227 154.415 465.307 153.138 465.468 152.078C465.595 151.253 465.659 150.442 465.659 149.646C465.659 149.456 465.72 149.297 465.842 149.17C465.964 149.039 466.135 148.973 466.354 148.973C467.087 148.973 467.453 149.417 467.453 150.306C467.453 150.594 467.324 151.329 467.065 152.51C466.909 153.213 466.831 153.724 466.831 154.041C468.227 150.975 469.487 149.441 470.61 149.441C471.064 149.441 471.428 149.622 471.701 149.983C471.979 150.345 472.124 151.146 472.133 152.386C472.138 153.519 472.197 154.085 472.309 154.085C472.397 154.085 472.702 153.536 473.225 152.437C473.806 151.221 474.301 150.418 474.711 150.027C475.126 149.637 475.561 149.441 476.015 149.441C476.557 149.441 476.95 149.676 477.194 150.145C477.438 150.608 477.609 151.395 477.707 152.503C477.78 153.382 477.878 154.046 478 154.495C478.127 154.944 478.342 155.242 478.645 155.389C478.889 155.506 479.011 155.682 479.011 155.916C479.011 156.126 478.872 156.338 478.593 156.553C478.315 156.763 478.032 156.868 477.744 156.868C477.246 156.868 476.855 156.624 476.572 156.136C476.293 155.643 476.105 154.656 476.008 153.177C475.954 152.464 475.896 151.993 475.832 151.763C475.773 151.529 475.683 151.412 475.561 151.412C475.454 151.412 475.297 151.587 475.092 151.939C474.887 152.286 474.533 152.979 474.03 154.019C473.586 154.957 473.203 155.611 472.88 155.982C472.563 156.353 472.221 156.539 471.855 156.539C471.572 156.539 471.286 156.417 470.998 156.172C470.715 155.928 470.561 155.042 470.537 153.514C470.512 152.151 470.424 151.47 470.273 151.47C470.068 151.47 469.575 152.076 468.793 153.287C468.012 154.498 467.424 155.582 467.028 156.539ZM485.251 154.876C483.742 156.067 482.58 156.663 481.765 156.663C481.237 156.663 480.82 156.453 480.512 156.033C480.205 155.613 480.051 155.108 480.051 154.517C480.051 153.76 480.205 152.813 480.512 151.675C480.82 150.538 481.076 149.881 481.281 149.705C481.491 149.529 481.767 149.441 482.109 149.441C482.324 149.441 482.5 149.539 482.636 149.734C482.773 149.93 482.841 150.157 482.841 150.416C482.841 150.489 482.666 150.901 482.314 151.653C481.884 152.571 481.669 153.362 481.669 154.026C481.669 154.344 481.721 154.603 481.823 154.803C481.931 155.003 482.041 155.103 482.153 155.103C482.387 155.103 482.663 155.037 482.98 154.905C483.298 154.769 483.684 154.522 484.138 154.166C484.597 153.804 484.89 153.533 485.017 153.353C485.144 153.172 485.246 152.935 485.324 152.642C485.407 152.344 485.471 151.712 485.515 150.745C485.539 150.179 485.566 149.822 485.595 149.676C485.629 149.529 485.717 149.395 485.859 149.273C486 149.151 486.191 149.09 486.43 149.09C486.752 149.09 486.979 149.158 487.111 149.295C487.248 149.432 487.316 149.754 487.316 150.262C487.316 150.95 487.192 152.417 486.943 154.664C486.699 156.91 486.25 158.536 485.595 159.542C484.946 160.552 484.067 161.058 482.958 161.058C481.972 161.058 481.108 160.799 480.366 160.281C479.628 159.764 479.26 159.305 479.26 158.904C479.26 158.675 479.316 158.492 479.428 158.355C479.545 158.218 479.697 158.15 479.882 158.15C480.043 158.15 480.178 158.218 480.285 158.355C480.979 159.161 481.823 159.563 482.819 159.563C484.079 159.563 484.89 158.001 485.251 154.876ZM317.724 176.265C317.944 176.318 318.149 176.414 318.339 176.55C318.53 176.687 318.757 176.936 319.021 177.297C319.528 178 319.929 178.462 320.222 178.682C320.515 178.901 320.834 179.011 321.181 179.011C321.542 179.011 321.723 179.124 321.723 179.348C321.723 179.563 321.599 179.78 321.35 180C321.101 180.22 320.708 180.33 320.17 180.33C319.345 180.33 318.508 179.648 317.658 178.286C317.165 177.485 316.752 177.085 316.42 177.085C316.376 177.085 316.257 177.117 316.062 177.18C315.871 177.244 315.747 177.302 315.688 177.356C315.629 177.405 315.581 177.715 315.542 178.286L315.461 179.634C315.451 179.854 315.361 180.042 315.19 180.198C315.019 180.359 314.807 180.439 314.553 180.439C314.284 180.439 314.074 180.364 313.923 180.212C313.771 180.066 313.696 179.917 313.696 179.766C313.696 179.58 313.757 179.182 313.879 178.572C314.172 177.034 314.404 175.154 314.575 172.932C314.594 172.649 314.711 172.39 314.926 172.156C315.141 171.921 315.393 171.804 315.681 171.804C315.881 171.804 316.047 171.89 316.179 172.061C316.311 172.231 316.376 172.429 316.376 172.654C316.376 172.83 316.347 173.008 316.289 173.188C316.215 173.398 316.11 173.828 315.974 174.478C315.842 175.127 315.761 175.623 315.732 175.964C316.313 175.789 316.765 175.544 317.087 175.232C317.409 174.919 317.81 174.419 318.288 173.73C318.688 173.164 319.064 172.747 319.416 172.478C319.768 172.205 320.153 172.068 320.573 172.068C320.803 172.068 321.015 172.166 321.21 172.361C321.411 172.551 321.511 172.754 321.511 172.969C321.511 173.149 321.455 173.286 321.342 173.379C321.235 173.467 321.044 173.552 320.771 173.635C320.424 173.738 320.053 174.016 319.658 174.47C318.837 175.413 318.193 176.011 317.724 176.265ZM327.648 177.561C326.374 179.246 325.148 180.088 323.972 180.088C323.532 180.088 323.154 179.915 322.836 179.568C322.519 179.221 322.36 178.779 322.36 178.242C322.36 176.948 322.937 175.571 324.089 174.111C325.241 172.646 326.403 171.914 327.575 171.914C328.171 171.914 328.562 172.214 328.747 172.815C329.309 172.815 329.589 173.03 329.589 173.459C329.589 173.665 329.536 174.036 329.428 174.573C329.233 175.579 329.135 176.382 329.135 176.982C329.135 177.607 329.177 178.047 329.26 178.301C329.348 178.555 329.411 178.721 329.45 178.799C329.489 178.877 329.606 178.96 329.802 179.048C329.997 179.141 330.095 179.27 330.095 179.436C330.095 179.685 329.968 179.893 329.714 180.059C329.465 180.225 329.204 180.308 328.93 180.308C328.471 180.308 328.139 180.078 327.934 179.619C327.734 179.16 327.634 178.623 327.634 178.008V177.788C327.634 177.715 327.639 177.639 327.648 177.561ZM327.253 173.481C326.76 173.481 326.118 174.028 325.327 175.122C324.541 176.211 324.147 177.136 324.147 177.898C324.147 178.298 324.23 178.499 324.396 178.499C324.973 178.499 325.681 177.988 326.521 176.968C327.365 175.942 327.788 175.046 327.788 174.28C327.788 174.036 327.731 173.843 327.619 173.701C327.512 173.555 327.39 173.481 327.253 173.481ZM335.346 176.265C335.566 176.318 335.771 176.414 335.961 176.55C336.152 176.687 336.379 176.936 336.643 177.297C337.15 178 337.551 178.462 337.844 178.682C338.137 178.901 338.457 179.011 338.803 179.011C339.165 179.011 339.345 179.124 339.345 179.348C339.345 179.563 339.221 179.78 338.972 180C338.723 180.22 338.33 180.33 337.792 180.33C336.967 180.33 336.13 179.648 335.28 178.286C334.787 177.485 334.375 177.085 334.042 177.085C333.999 177.085 333.879 177.117 333.684 177.18C333.493 177.244 333.369 177.302 333.31 177.356C333.251 177.405 333.203 177.715 333.164 178.286L333.083 179.634C333.073 179.854 332.983 180.042 332.812 180.198C332.641 180.359 332.429 180.439 332.175 180.439C331.906 180.439 331.696 180.364 331.545 180.212C331.394 180.066 331.318 179.917 331.318 179.766C331.318 179.58 331.379 179.182 331.501 178.572C331.794 177.034 332.026 175.154 332.197 172.932C332.216 172.649 332.333 172.39 332.548 172.156C332.763 171.921 333.015 171.804 333.303 171.804C333.503 171.804 333.669 171.89 333.801 172.061C333.933 172.231 333.999 172.429 333.999 172.654C333.999 172.83 333.969 173.008 333.911 173.188C333.837 173.398 333.732 173.828 333.596 174.478C333.464 175.127 333.383 175.623 333.354 175.964C333.935 175.789 334.387 175.544 334.709 175.232C335.031 174.919 335.432 174.419 335.91 173.73C336.311 173.164 336.687 172.747 337.038 172.478C337.39 172.205 337.775 172.068 338.195 172.068C338.425 172.068 338.637 172.166 338.833 172.361C339.033 172.551 339.133 172.754 339.133 172.969C339.133 173.149 339.077 173.286 338.964 173.379C338.857 173.467 338.667 173.552 338.393 173.635C338.046 173.738 337.675 174.016 337.28 174.47C336.459 175.413 335.815 176.011 335.346 176.265ZM350.8 175.012C350.737 174.568 350.605 174.219 350.405 173.965C350.205 173.711 349.968 173.584 349.694 173.584C348.986 173.584 348.349 173.823 347.783 174.302C347.475 174.565 347.216 174.697 347.006 174.697C346.811 174.697 346.657 174.644 346.545 174.536C346.433 174.424 346.376 174.294 346.376 174.148C346.376 173.611 346.77 173.147 347.556 172.756C348.342 172.361 349.16 172.163 350.009 172.163C350.439 172.163 350.881 172.295 351.335 172.559C351.789 172.822 352.082 173.147 352.214 173.533C352.258 173.665 352.307 173.792 352.36 173.914C352.556 174.382 352.653 174.963 352.653 175.657C352.653 176.819 352.226 177.876 351.372 178.828C350.517 179.78 349.292 180.256 347.695 180.256C347.216 180.256 346.762 180.059 346.333 179.663C345.908 179.263 345.695 178.843 345.695 178.403C345.695 178.203 345.781 178.049 345.952 177.942C346.127 177.83 346.306 177.773 346.486 177.773C346.804 177.773 347.048 177.944 347.219 178.286C347.287 178.428 347.424 178.574 347.629 178.726C347.834 178.872 348.046 178.945 348.266 178.945C348.837 178.945 349.37 178.726 349.863 178.286C350.361 177.847 350.666 177.234 350.778 176.448C350.734 176.448 350.61 176.472 350.405 176.521C349.79 176.663 349.052 176.733 348.193 176.733C347.963 176.733 347.766 176.667 347.6 176.536C347.438 176.399 347.358 176.235 347.358 176.045C347.358 175.835 347.517 175.664 347.834 175.532C348.151 175.4 348.386 175.334 348.537 175.334C348.674 175.305 348.837 175.283 349.028 175.269C349.912 175.2 350.502 175.115 350.8 175.012ZM355.686 179.539C355.627 180.042 355.346 180.293 354.843 180.293C354.204 180.293 353.884 179.832 353.884 178.909C353.884 177.415 353.964 176.138 354.125 175.078C354.252 174.253 354.316 173.442 354.316 172.646C354.316 172.456 354.377 172.297 354.499 172.17C354.621 172.039 354.792 171.973 355.012 171.973C355.744 171.973 356.11 172.417 356.11 173.306C356.11 173.594 355.981 174.329 355.722 175.51C355.566 176.213 355.488 176.724 355.488 177.041C356.884 173.975 358.144 172.441 359.267 172.441C359.721 172.441 360.085 172.622 360.358 172.983C360.637 173.345 360.781 174.146 360.791 175.386C360.795 176.519 360.854 177.085 360.966 177.085C361.054 177.085 361.359 176.536 361.882 175.437C362.463 174.221 362.958 173.418 363.369 173.027C363.784 172.637 364.218 172.441 364.672 172.441C365.214 172.441 365.607 172.676 365.852 173.145C366.096 173.608 366.267 174.395 366.364 175.503C366.438 176.382 366.535 177.046 366.657 177.495C366.784 177.944 366.999 178.242 367.302 178.389C367.546 178.506 367.668 178.682 367.668 178.916C367.668 179.126 367.529 179.338 367.25 179.553C366.972 179.763 366.689 179.868 366.401 179.868C365.903 179.868 365.512 179.624 365.229 179.136C364.951 178.643 364.763 177.656 364.665 176.177C364.611 175.464 364.553 174.993 364.489 174.763C364.431 174.529 364.34 174.412 364.218 174.412C364.111 174.412 363.955 174.587 363.75 174.939C363.544 175.286 363.19 175.979 362.688 177.019C362.243 177.957 361.86 178.611 361.538 178.982C361.22 179.353 360.878 179.539 360.512 179.539C360.229 179.539 359.943 179.417 359.655 179.172C359.372 178.928 359.218 178.042 359.194 176.514C359.169 175.151 359.082 174.47 358.93 174.47C358.725 174.47 358.232 175.076 357.451 176.287C356.669 177.498 356.081 178.582 355.686 179.539ZM375.666 176.287C375.339 177.429 374.716 178.394 373.798 179.18C372.885 179.961 371.972 180.352 371.059 180.352C370.336 180.352 369.741 180.088 369.272 179.561C368.803 179.028 368.569 178.376 368.569 177.605C368.569 176.345 368.999 175.105 369.858 173.884C370.717 172.664 371.76 172.053 372.985 172.053C373.82 172.053 374.497 172.363 375.014 172.983C375.532 173.599 375.791 174.333 375.791 175.188C375.791 175.559 375.749 175.923 375.666 176.279V176.287ZM371.857 173.972C371.516 174.275 371.181 174.758 370.854 175.422C370.527 176.086 370.363 176.753 370.363 177.422C370.363 177.827 370.437 178.162 370.583 178.425C370.734 178.689 370.932 178.821 371.176 178.821C371.782 178.821 372.412 178.462 373.066 177.744C373.72 177.026 374.047 176.221 374.047 175.327C374.047 174.824 373.94 174.412 373.725 174.089C373.515 173.762 373.22 173.599 372.839 173.599C372.478 173.599 372.153 173.723 371.865 173.972H371.857ZM384.946 179.524C384.848 179.919 384.726 180.647 384.58 181.707C384.433 182.771 384.345 183.484 384.316 183.845C384.287 184.211 384.16 184.521 383.935 184.775C383.715 185.029 383.518 185.156 383.342 185.156C383.122 185.156 382.905 185.073 382.69 184.907C382.475 184.741 382.368 184.561 382.368 184.365C382.368 183.97 382.429 183.513 382.551 182.996C383.283 180.071 383.684 177.056 383.752 173.95V173.804C383.752 173.198 383.771 172.791 383.811 172.581C383.85 172.366 383.972 172.161 384.177 171.965C384.382 171.77 384.624 171.672 384.902 171.672C385.136 171.672 385.327 171.777 385.473 171.987C385.625 172.197 385.7 172.5 385.7 172.896C385.7 173.296 385.627 173.997 385.48 174.998C386.022 174.094 386.669 173.347 387.421 172.756C388.178 172.161 388.867 171.863 389.487 171.863C390.034 171.863 390.498 172.058 390.878 172.449C391.264 172.839 391.457 173.33 391.457 173.921C391.457 175.498 390.844 176.934 389.619 178.228C388.398 179.517 387.189 180.161 385.993 180.161C385.437 180.161 385.087 179.949 384.946 179.524ZM389.201 173.525C388.605 173.525 387.832 174.106 386.879 175.269C385.932 176.431 385.458 177.344 385.458 178.008C385.458 178.179 385.542 178.333 385.708 178.469C385.878 178.601 386.076 178.667 386.301 178.667C386.921 178.667 387.631 178.181 388.432 177.209C389.238 176.233 389.641 175.291 389.641 174.382C389.641 174.08 389.594 173.862 389.501 173.73C389.409 173.594 389.309 173.525 389.201 173.525ZM397.844 177.561C396.569 179.246 395.344 180.088 394.167 180.088C393.728 180.088 393.349 179.915 393.032 179.568C392.714 179.221 392.556 178.779 392.556 178.242C392.556 176.948 393.132 175.571 394.284 174.111C395.437 172.646 396.599 171.914 397.771 171.914C398.366 171.914 398.757 172.214 398.942 172.815C399.504 172.815 399.785 173.03 399.785 173.459C399.785 173.665 399.731 174.036 399.624 174.573C399.428 175.579 399.331 176.382 399.331 176.982C399.331 177.607 399.372 178.047 399.455 178.301C399.543 178.555 399.606 178.721 399.646 178.799C399.685 178.877 399.802 178.96 399.997 179.048C400.192 179.141 400.29 179.27 400.29 179.436C400.29 179.685 400.163 179.893 399.909 180.059C399.66 180.225 399.399 180.308 399.125 180.308C398.667 180.308 398.334 180.078 398.129 179.619C397.929 179.16 397.829 178.623 397.829 178.008V177.788C397.829 177.715 397.834 177.639 397.844 177.561ZM397.448 173.481C396.955 173.481 396.313 174.028 395.522 175.122C394.736 176.211 394.343 177.136 394.343 177.898C394.343 178.298 394.426 178.499 394.592 178.499C395.168 178.499 395.876 177.988 396.716 176.968C397.561 175.942 397.983 175.046 397.983 174.28C397.983 174.036 397.927 173.843 397.814 173.701C397.707 173.555 397.585 173.481 397.448 173.481ZM405.666 171.973C405.402 171.611 404.956 171.16 404.326 170.618C403.696 170.085 403.381 169.651 403.381 169.314C403.381 169.055 403.439 168.838 403.557 168.662C403.679 168.481 403.815 168.359 403.967 168.296C404.118 168.228 404.455 168.127 404.978 167.996C406.296 167.678 407.409 167.349 408.317 167.007C408.493 166.934 408.652 166.897 408.793 166.897C409.135 166.897 409.306 167.092 409.306 167.483C409.306 167.717 409.018 167.986 408.442 168.289C407.871 168.586 406.901 168.894 405.534 169.211C405.344 169.241 405.249 169.307 405.249 169.409C405.249 169.473 405.444 169.656 405.834 169.958C407.363 171.145 408.127 172.766 408.127 174.822C408.127 175.618 407.907 176.487 407.468 177.429C407.028 178.367 406.442 179.062 405.71 179.517C404.982 179.966 404.274 180.19 403.586 180.19C402.927 180.19 402.412 179.893 402.041 179.297C401.669 178.696 401.484 178 401.484 177.209C401.484 175.925 401.894 174.719 402.714 173.591C403.535 172.458 404.396 171.892 405.3 171.892L405.666 171.973ZM403.271 177.144C403.271 178.174 403.43 178.689 403.747 178.689C404.016 178.689 404.379 178.511 404.838 178.154C405.297 177.793 405.668 177.273 405.952 176.594C406.235 175.911 406.376 175.269 406.376 174.668C406.376 174.185 406.335 173.804 406.252 173.525C406.174 173.247 406.101 173.108 406.032 173.108C405.285 173.108 404.638 173.586 404.091 174.543C403.544 175.5 403.271 176.367 403.271 177.144ZM416.271 176.287C415.944 177.429 415.322 178.394 414.404 179.18C413.491 179.961 412.578 180.352 411.665 180.352C410.942 180.352 410.346 180.088 409.877 179.561C409.409 179.028 409.174 178.376 409.174 177.605C409.174 176.345 409.604 175.105 410.463 173.884C411.323 172.664 412.365 172.053 413.591 172.053C414.426 172.053 415.102 172.363 415.62 172.983C416.137 173.599 416.396 174.333 416.396 175.188C416.396 175.559 416.354 175.923 416.271 176.279V176.287ZM412.463 173.972C412.121 174.275 411.787 174.758 411.459 175.422C411.132 176.086 410.969 176.753 410.969 177.422C410.969 177.827 411.042 178.162 411.188 178.425C411.34 178.689 411.538 178.821 411.782 178.821C412.387 178.821 413.017 178.462 413.671 177.744C414.326 177.026 414.653 176.221 414.653 175.327C414.653 174.824 414.545 174.412 414.331 174.089C414.121 173.762 413.825 173.599 413.444 173.599C413.083 173.599 412.758 173.723 412.47 173.972H412.463ZM419.743 179.539C419.685 180.042 419.404 180.293 418.901 180.293C418.261 180.293 417.941 179.832 417.941 178.909C417.941 177.415 418.022 176.138 418.183 175.078C418.31 174.253 418.374 173.442 418.374 172.646C418.374 172.456 418.435 172.297 418.557 172.17C418.679 172.039 418.85 171.973 419.069 171.973C419.802 171.973 420.168 172.417 420.168 173.306C420.168 173.594 420.039 174.329 419.78 175.51C419.624 176.213 419.545 176.724 419.545 177.041C420.942 173.975 422.202 172.441 423.325 172.441C423.779 172.441 424.143 172.622 424.416 172.983C424.694 173.345 424.838 174.146 424.848 175.386C424.853 176.519 424.912 177.085 425.024 177.085C425.112 177.085 425.417 176.536 425.939 175.437C426.521 174.221 427.016 173.418 427.426 173.027C427.841 172.637 428.276 172.441 428.73 172.441C429.272 172.441 429.665 172.676 429.909 173.145C430.153 173.608 430.324 174.395 430.422 175.503C430.495 176.382 430.593 177.046 430.715 177.495C430.842 177.944 431.057 178.242 431.359 178.389C431.604 178.506 431.726 178.682 431.726 178.916C431.726 179.126 431.586 179.338 431.308 179.553C431.03 179.763 430.747 179.868 430.458 179.868C429.96 179.868 429.57 179.624 429.287 179.136C429.008 178.643 428.82 177.656 428.723 176.177C428.669 175.464 428.61 174.993 428.547 174.763C428.488 174.529 428.398 174.412 428.276 174.412C428.168 174.412 428.012 174.587 427.807 174.939C427.602 175.286 427.248 175.979 426.745 177.019C426.301 177.957 425.917 178.611 425.595 178.982C425.278 179.353 424.936 179.539 424.57 179.539C424.287 179.539 424.001 179.417 423.713 179.172C423.43 178.928 423.276 178.042 423.251 176.514C423.227 175.151 423.139 174.47 422.988 174.47C422.783 174.47 422.29 175.076 421.508 176.287C420.727 177.498 420.139 178.582 419.743 179.539ZM437.775 177.561C436.501 179.246 435.275 180.088 434.099 180.088C433.659 180.088 433.281 179.915 432.963 179.568C432.646 179.221 432.487 178.779 432.487 178.242C432.487 176.948 433.063 175.571 434.216 174.111C435.368 172.646 436.53 171.914 437.702 171.914C438.298 171.914 438.688 172.214 438.874 172.815C439.436 172.815 439.716 173.03 439.716 173.459C439.716 173.665 439.663 174.036 439.555 174.573C439.36 175.579 439.262 176.382 439.262 176.982C439.262 177.607 439.304 178.047 439.387 178.301C439.475 178.555 439.538 178.721 439.577 178.799C439.616 178.877 439.733 178.96 439.929 179.048C440.124 179.141 440.222 179.27 440.222 179.436C440.222 179.685 440.095 179.893 439.841 180.059C439.592 180.225 439.331 180.308 439.057 180.308C438.598 180.308 438.266 180.078 438.061 179.619C437.861 179.16 437.761 178.623 437.761 178.008V177.788C437.761 177.715 437.766 177.639 437.775 177.561ZM437.38 173.481C436.887 173.481 436.245 174.028 435.454 175.122C434.667 176.211 434.274 177.136 434.274 177.898C434.274 178.298 434.357 178.499 434.523 178.499C435.1 178.499 435.808 177.988 436.647 176.968C437.492 175.942 437.915 175.046 437.915 174.28C437.915 174.036 437.858 173.843 437.746 173.701C437.639 173.555 437.517 173.481 437.38 173.481ZM448.132 177.48C448.132 177.988 447.705 178.596 446.85 179.304C445.996 180.007 445.031 180.359 443.957 180.359C443.132 180.359 442.482 180.1 442.009 179.583C441.535 179.06 441.298 178.335 441.298 177.407C441.298 176.04 441.782 174.758 442.749 173.562C443.715 172.366 444.748 171.768 445.847 171.768C446.394 171.768 446.833 171.941 447.165 172.288C447.497 172.634 447.663 173.047 447.663 173.525C447.663 174.375 447.255 175.186 446.44 175.957C445.625 176.724 444.58 177.253 443.305 177.546C443.159 177.581 443.085 177.668 443.085 177.81C443.085 178.044 443.188 178.269 443.393 178.484C443.603 178.694 443.881 178.799 444.228 178.799C445.209 178.799 446.184 178.293 447.15 177.283C447.336 177.087 447.517 176.99 447.692 176.99C447.985 176.99 448.132 177.153 448.132 177.48ZM443.217 176.184C443.989 176.028 444.667 175.698 445.253 175.195C445.844 174.692 446.14 174.236 446.14 173.826C446.14 173.665 446.093 173.53 446 173.423C445.913 173.311 445.798 173.254 445.656 173.254C445.231 173.254 444.76 173.567 444.243 174.192C443.725 174.817 443.383 175.481 443.217 176.184ZM451.296 179.539C451.237 180.042 450.957 180.293 450.454 180.293C449.814 180.293 449.494 179.832 449.494 178.909C449.494 177.415 449.575 176.138 449.736 175.078C449.863 174.253 449.926 173.442 449.926 172.646C449.926 172.456 449.987 172.297 450.109 172.17C450.231 172.039 450.402 171.973 450.622 171.973C451.354 171.973 451.721 172.417 451.721 173.306C451.721 173.594 451.591 174.329 451.333 175.51C451.176 176.213 451.098 176.724 451.098 177.041C452.495 173.975 453.754 172.441 454.877 172.441C455.332 172.441 455.695 172.622 455.969 172.983C456.247 173.345 456.391 174.146 456.401 175.386C456.406 176.519 456.464 177.085 456.577 177.085C456.665 177.085 456.97 176.536 457.492 175.437C458.073 174.221 458.569 173.418 458.979 173.027C459.394 172.637 459.829 172.441 460.283 172.441C460.825 172.441 461.218 172.676 461.462 173.145C461.706 173.608 461.877 174.395 461.975 175.503C462.048 176.382 462.146 177.046 462.268 177.495C462.395 177.944 462.609 178.242 462.912 178.389C463.156 178.506 463.278 178.682 463.278 178.916C463.278 179.126 463.139 179.338 462.861 179.553C462.583 179.763 462.299 179.868 462.011 179.868C461.513 179.868 461.123 179.624 460.839 179.136C460.561 178.643 460.373 177.656 460.275 176.177C460.222 175.464 460.163 174.993 460.1 174.763C460.041 174.529 459.951 174.412 459.829 174.412C459.721 174.412 459.565 174.587 459.36 174.939C459.155 175.286 458.801 175.979 458.298 177.019C457.854 177.957 457.47 178.611 457.148 178.982C456.831 179.353 456.489 179.539 456.123 179.539C455.839 179.539 455.554 179.417 455.266 179.172C454.982 178.928 454.829 178.042 454.804 176.514C454.78 175.151 454.692 174.47 454.541 174.47C454.335 174.47 453.842 175.076 453.061 176.287C452.28 177.498 451.691 178.582 451.296 179.539Z" fill="white"/>
<defs>
<radialGradient id="paint0_radial" cx="0" cy="0" r="1" gradientUnits="userSpaceOnUse" gradientTransform="translate(267.5 269.5) rotate(90) scale(175.5)">
<stop offset="0.00257297" stop-color="#FFCE4E" stop-opacity="0.12"/>
<stop offset="1" stop-color="#FFCE4E" stop-opacity="0"/>
</radialGradient>
</defs>
</svg>
