<svg width="15" height="15" viewBox="0 0 15 15" fill="none" xmlns="http://www.w3.org/2000/svg">
<path d="M11.1454 9.86619L14.2246 10.8926C14.3329 10.9287 14.4062 11.0302 14.4062 11.1444V12.2812C14.4062 13.4548 13.4548 14.4062 12.2812 14.4062C5.82497 14.4062 0.591626 9.17131 0.593751 2.71503C0.594282 1.54363 1.54416 0.59375 2.71556 0.59375H3.85563C3.96984 0.59375 4.07131 0.667063 4.10744 0.775438L5.13381 3.85456C5.17153 3.96825 5.12903 4.09309 5.02916 4.1595L3.6495 5.07909C3.54538 5.14869 3.50075 5.2815 3.54538 5.39838C4.56431 8.04559 6.95441 10.4357 9.60162 11.4546C9.7185 11.4998 9.85131 11.4546 9.92091 11.3505L10.8405 9.97084C10.9069 9.87097 11.0317 9.82847 11.1454 9.86619Z" fill="white"/>
</svg>
