<svg width="28" height="28" viewBox="0 0 28 28" fill="none" xmlns="http://www.w3.org/2000/svg">
<circle cx="14" cy="14" r="14" fill="#3AB7E5"/>
<path fill-rule="evenodd" clip-rule="evenodd" d="M20 8.42979L17.7859 19.621C17.7859 19.621 17.4762 20.3972 16.6246 20.0246L11.5149 16.0975L9.65698 15.1972L6.5293 14.1419C6.5293 14.1419 6.04901 13.9714 6.00261 13.5988C5.9562 13.2262 6.54438 13.0247 6.54438 13.0247L18.9785 8.13525C18.9779 8.13468 20 7.68455 20 8.42979Z" fill="white"/>
<path fill-rule="evenodd" clip-rule="evenodd" d="M11.1217 19.4946C11.1217 19.4946 10.9726 19.4809 10.7864 18.8906C10.6008 18.301 9.65588 15.1966 9.65588 15.1966L17.1659 10.4157C17.1659 10.4157 17.5992 10.1516 17.5841 10.4157C17.5841 10.4157 17.6613 10.4622 17.4292 10.6798C17.1972 10.8974 11.5295 16.0038 11.5295 16.0038" fill="#D2E5F1"/>
<path fill-rule="evenodd" clip-rule="evenodd" d="M13.4737 17.6028L11.4528 19.4498C11.4528 19.4498 11.295 19.5698 11.1222 19.4946L11.5091 16.0635" fill="#B5CFE4"/>
</svg>
