<svg width="1170" height="275" viewBox="0 0 1170 275" fill="none" xmlns="http://www.w3.org/2000/svg">
<rect width="1170" height="275" rx="4" fill="#515A63"/>
<path fill-rule="evenodd" clip-rule="evenodd" d="M1037.37 120.61L1040.8 112.109L1044.11 128.95L1028.2 122.047L1037.37 120.61Z" fill="#FFCE4E"/>
<path fill-rule="evenodd" clip-rule="evenodd" d="M139.883 226.287L132 230.966L149.148 231.683L139.913 217L139.883 226.287Z" fill="#FFCE4E"/>
<path fill-rule="evenodd" clip-rule="evenodd" d="M171.265 83.2873L179.148 87.9658L162 88.6831L171.236 74L171.265 83.2873Z" fill="#FFCE4E"/>
<path opacity="0.1" fill-rule="evenodd" clip-rule="evenodd" d="M61.2172 60.6101L60.958 69.7736L51.9997 55.1336L69.3204 56.0723L61.2172 60.6101Z" fill="white"/>
<path opacity="0.1" fill-rule="evenodd" clip-rule="evenodd" d="M455.883 31.3958L448 26.7173L465.148 26L455.913 40.6831L455.883 31.3958Z" fill="white"/>
<path opacity="0.1" fill-rule="evenodd" clip-rule="evenodd" d="M1094.03 224.103L1102.03 228.574L1084.91 229.741L1093.75 214.82L1094.03 224.103Z" fill="white"/>
<path opacity="0.1" fill-rule="evenodd" clip-rule="evenodd" d="M554.173 233.533L552.993 224.442L564.134 237.498L546.881 239.285L554.173 233.533Z" fill="white"/>
<path opacity="0.1" fill-rule="evenodd" clip-rule="evenodd" d="M1084.66 67.5001L1089.08 74.8061L1097.92 74.8061L1102.34 67.5001L1097.92 60.1939L1089.08 60.1939L1084.66 67.5001ZM1087.75 58L1082 67.5001L1087.75 77L1099.25 77L1105 67.5001L1099.25 58L1087.75 58Z" fill="white"/>
<path opacity="0.1" fill-rule="evenodd" clip-rule="evenodd" d="M54.6557 189.5L59.0779 196.806L67.9221 196.806L72.3443 189.5L67.9221 182.194L59.0779 182.194L54.6557 189.5ZM57.75 180L52 189.5L57.75 199L69.25 199L75 189.5L69.25 180L57.75 180Z" fill="white"/>
<path opacity="0.1" fill-rule="evenodd" clip-rule="evenodd" d="M729.656 258.5L734.078 265.806L742.922 265.806L747.344 258.5L742.922 251.194L734.078 251.194L729.656 258.5ZM732.75 249L727 258.5L732.75 268L744.25 268L750 258.5L744.25 249L732.75 249Z" fill="white"/>
</svg>
