<svg width="160" height="160" viewBox="0 0 160 160" fill="none" xmlns="http://www.w3.org/2000/svg">
<g clip-path="url(#clip0)">
<path d="M36.9816 115.685V39.0388L160 44.3141V120.96C160 122.716 159.131 124.472 157.393 125.476L108.66 153.612C105.194 155.613 100.924 155.613 97.4584 153.612L39.5887 120.201C37.8503 119.197 36.9813 117.441 36.9816 115.685Z" fill="url(#paint0_linear)"/>
<path d="M157.393 39.7989L99.523 6.38767C96.0571 4.38673 91.7871 4.38673 88.3212 6.38767L39.5884 34.5236C36.1121 36.5305 36.1121 41.548 39.5884 43.5549L97.4584 76.9658C100.924 78.9667 105.194 78.9667 108.66 76.9658L157.393 48.8299C160.869 46.823 160.869 41.8058 157.393 39.7989Z" fill="#CDEDFA"/>
<path d="M138.629 28.9656L76.474 64.8506L59.9865 55.3315L122.142 19.4465L138.629 28.9656Z" fill="#0980AD"/>
<path d="M128.775 23.271L66.6197 59.156L69.8494 61.0207L132.004 25.1357L128.775 23.271Z" fill="#274E75"/>
<path d="M76.474 64.8504V78.4663L59.9865 68.9472V55.3313L76.474 64.8504Z" fill="#274E75"/>
<path d="M9.76588 57.8026L9.76431 57.7995L22.5984 50.4111L22.5993 50.413C27.6656 47.7286 34.1734 48.1108 41.2734 52.2101C57.4274 61.5367 70.5231 86.5583 70.5231 108.097C70.5231 119.939 66.5596 128.252 60.3109 131.796L60.3153 131.806L48.589 138.576L48.5768 138.551C43.4224 141.632 36.6606 141.41 29.2503 137.131C13.0959 127.805 0.00025177 102.783 0.00025177 81.2439C-6.10352e-05 69.6854 3.77431 61.4851 9.76588 57.8026Z" fill="url(#paint1_linear)"/>
<path d="M5.83467 108.154C-3.88687 85.3385 -1.30385 62.3841 11.604 56.8842C24.5119 51.3843 42.8566 65.4217 52.5781 88.2376C62.2997 111.053 59.7167 134.008 46.8088 139.508C33.9009 145.008 15.5562 130.97 5.83467 108.154Z" fill="#0980AD"/>
<path d="M12.3361 105.384C5.31892 88.9152 7.18344 72.3463 16.5006 68.3763C25.8178 64.4064 39.0594 74.5388 46.0765 91.0077C53.0937 107.477 51.2292 124.045 41.912 128.015C32.5948 131.985 19.3532 121.853 12.3361 105.384Z" fill="#B7E3F4"/>
<path d="M25.9396 99.5879C24.5807 96.3987 24.9418 93.1902 26.746 92.4215C28.5503 91.6527 31.1145 93.6148 32.4733 96.8039C33.8322 99.9931 33.4711 103.202 31.6668 103.97C29.8626 104.739 27.2984 102.777 25.9396 99.5879Z" fill="#0980AD"/>
<path d="M28.0004 99.5V75.5928C28.0004 74.7131 28.7135 74 29.5932 74C30.4729 74 31.186 74.7131 31.186 75.5928V97L46.5004 102.5C47.5004 103 48.4607 103.272 48.4607 104.453C48.4607 105.634 47.939 106.636 46.7581 106.375L28.0004 99.5Z" fill="#0980AD"/>
</g>
<defs>
<linearGradient id="paint0_linear" x1="105.066" y1="97.0757" x2="95.2064" y2="97.0757" gradientUnits="userSpaceOnUse">
<stop stop-color="#94C2D5"/>
<stop offset="1" stop-color="#B7E3F4"/>
</linearGradient>
<linearGradient id="paint1_linear" x1="33.2771" y1="91.2336" x2="21.2556" y2="70.412" gradientUnits="userSpaceOnUse">
<stop stop-color="#274E75"/>
<stop offset="1" stop-color="#0980AD"/>
</linearGradient>
<clipPath id="clip0">
<rect width="160" height="160" fill="white" transform="matrix(-1 0 0 1 160 0)"/>
</clipPath>
</defs>
</svg>
