<svg width="421" height="370" viewBox="0 0 421 370" fill="none" xmlns="http://www.w3.org/2000/svg">
<g clip-path="url(#clip0)">
<path d="M210.3 367.374C317.057 374.3 406.793 330.702 410.731 269.996C414.669 209.29 331.318 154.464 224.561 147.539C117.804 140.614 28.068 184.212 24.1301 244.918C20.1922 305.624 103.544 360.449 210.3 367.374Z" fill="#E9F0F2"/>
<path d="M350.277 306.65C375.865 306.65 396.608 293.655 396.608 277.625C396.608 261.596 375.865 248.601 350.277 248.601C324.689 248.601 303.946 261.596 303.946 277.625C303.946 293.655 324.689 306.65 350.277 306.65Z" fill="#D3E1E6"/>
<path d="M44.438 193.346C44.438 193.346 43.8972 183.882 39.8409 173.876C35.7847 163.781 27.9427 153.685 18.9289 151.793C9.91511 149.9 6.12931 155.939 8.02221 161.888C9.64469 167.026 16.3149 171.262 21.4528 175.769C26.5005 180.276 36.0551 191.003 38.6692 201.459L43.7169 201.999L44.438 193.346Z" fill="#0980AD"/>
<g opacity="0.15">
<path opacity="0.15" d="M44.438 193.346C44.438 193.346 43.8972 183.882 39.8409 173.876C35.7847 163.781 27.9427 153.685 18.9289 151.793C9.91511 149.9 6.12931 155.939 8.02221 161.888C9.64469 167.026 16.3149 171.262 21.4528 175.769C26.5005 180.276 36.0551 191.003 38.6692 201.459L43.7169 201.999L44.438 193.346Z" fill="black"/>
</g>
<path d="M40.9226 198.033C40.6522 198.033 40.3818 197.763 40.3818 197.493C39.4804 171.262 13.7911 156.57 13.5206 156.39C13.2502 156.209 13.1601 155.849 13.3404 155.578C13.5206 155.308 13.8812 155.218 14.1516 155.398C14.422 155.578 40.6522 170.541 41.6437 197.402C41.5536 197.763 41.2832 198.033 40.9226 198.033Z" fill="white"/>
<path d="M48.4943 239.587C48.4943 239.587 43.2663 242.922 35.0637 241.48C32.4497 241.029 29.8357 240.038 28.0329 238.055C25.9598 235.891 25.5992 233.638 24.9682 230.753C24.6978 229.582 24.4274 228.32 23.7063 227.328C21.9937 224.895 18.4783 224.985 15.5037 224.354C11.3574 223.452 7.5716 220.478 6.30966 216.422C5.13787 212.365 7.03077 207.408 10.9968 205.785C9.37436 204.794 7.75187 203.712 6.21953 202.721C4.77732 201.819 3.24497 200.828 2.07318 199.566C0.901381 198.214 0 196.591 0 194.879C0 192.355 1.8929 190.011 4.23649 189.02C6.58008 187.938 9.28422 187.938 11.8081 188.208C14.332 188.479 16.946 189.11 19.3797 190.011C20.1008 190.282 20.7318 190.552 21.4529 190.462C22.4444 190.372 23.2556 189.831 24.0669 189.29C29.5653 185.684 38.5791 185.955 41.5536 192.805C42.0043 193.797 42.2748 194.879 42.7254 195.87C44.4381 199.566 49.3055 198.484 52.3702 200.197C54.3533 201.278 55.6152 203.532 55.9757 205.875C56.6067 209.571 55.6152 213.717 54.8941 217.323C54.2631 220.838 53.3617 224.264 52.3702 227.689C51.559 230.483 50.6576 233.277 49.7562 236.072C49.4858 236.703 49.0351 239.226 48.4943 239.587Z" fill="#4699BA"/>
<path d="M51.8293 231.114C49.035 223.092 44.1676 216.512 38.6691 211.284C38.579 211.193 38.4889 211.013 38.3987 211.013C36.6861 209.391 34.8833 207.858 33.0806 206.506C31.8187 198.845 34.8833 192.174 34.8833 192.174C34.9735 191.904 34.8833 191.543 34.6129 191.453C34.3425 191.363 33.982 191.453 33.8918 191.724C33.8017 191.994 30.9173 198.123 31.8187 205.605C19.7402 196.771 7.21096 193.256 7.03069 193.166C6.76027 193.076 6.39972 193.256 6.30958 193.526C6.21944 193.797 6.39972 194.157 6.67013 194.248C6.94055 194.338 22.895 198.845 36.1453 210.472C28.0329 209.03 18.3881 212.996 17.9374 213.177C17.667 213.267 17.4867 213.627 17.667 213.898C17.7571 214.078 17.9374 214.258 18.2078 214.258C18.2979 214.258 18.3881 214.258 18.3881 214.258C18.4782 214.168 29.8356 209.571 37.8579 212.095C43.2662 217.233 48.0435 223.723 50.8378 231.565C50.9279 231.835 51.1082 231.925 51.3786 231.925C51.4688 231.925 51.4688 231.925 51.5589 231.925C51.7392 231.745 51.9194 231.384 51.8293 231.114Z" fill="white"/>
<path d="M48.6743 238.776C48.6743 241.119 50.3869 244.004 52.6404 245.266L162.519 308.723C164.682 309.985 168.197 309.985 170.361 308.723L320.711 221.92C322.874 220.658 324.677 217.774 324.677 215.43C324.677 213.086 322.964 210.202 320.711 208.94L210.833 145.483C208.669 144.221 205.154 144.221 202.991 145.483L52.5503 232.286C50.3869 233.548 48.6743 236.432 48.6743 238.776Z" fill="#37474F"/>
<path d="M166.395 301.151V309.624C164.953 309.624 163.511 309.354 162.429 308.723L52.5505 245.266C50.3872 244.004 48.5845 241.119 48.5845 238.776C48.5845 236.612 50.1168 233.908 52.0999 232.556C50.3872 233.818 50.4774 235.621 52.4604 236.793L162.339 300.25C163.601 300.881 164.953 301.151 166.395 301.151Z" fill="#263238"/>
<path d="M44.9789 232.376C42.9057 231.204 41.2832 228.229 41.2832 225.706V94.5547C41.2832 92.0309 42.9958 89.0563 45.2493 87.7944L195.6 0.991441C197.763 -0.270492 201.188 -0.36063 203.171 0.811164C205.244 1.98296 206.867 4.95752 206.867 7.48138V138.632C206.867 141.156 205.154 144.131 202.901 145.393L52.5505 232.286C50.3871 233.548 47.052 233.548 44.9789 232.376Z" fill="#455A64"/>
<path d="M52.0998 232.466C49.9365 233.457 46.8718 233.457 44.9789 232.376C42.9057 231.204 41.2832 228.229 41.2832 225.706V94.5547C41.2832 93.2927 41.7339 91.9406 42.455 90.6787L49.8463 94.9152C49.1252 96.1771 48.6745 97.5292 48.6745 98.7911V229.942C48.6745 232.286 50.2069 233.367 52.0998 232.466Z" fill="#263238"/>
<path d="M48.6743 98.8814V230.032C48.6743 232.556 50.3869 233.548 52.6404 232.286L202.991 145.483C205.154 144.221 206.957 141.156 206.957 138.722V7.48137C206.957 4.95751 205.244 3.96599 202.991 5.22792L52.5503 92.0309C50.3869 93.2928 48.6743 96.3575 48.6743 98.8814Z" fill="#37474F"/>
<path d="M52.5502 236.793L162.429 300.25C164.592 301.512 168.107 301.512 170.271 300.25L320.621 213.447C322.784 212.185 322.784 210.202 320.621 208.94L210.743 145.483C208.579 144.221 205.064 144.221 202.901 145.483L52.5502 232.286C50.3869 233.548 50.3869 235.531 52.5502 236.793Z" fill="#455A64"/>
<path d="M54.7137 99.3322L199.656 15.6841C200.918 14.963 201.999 15.5038 201.999 17.0361V130.61C201.999 132.142 200.918 133.945 199.656 134.666L54.7137 218.314C53.4518 219.036 52.3701 218.495 52.3701 216.962V103.388C52.3701 101.946 53.3616 100.053 54.7137 99.3322Z" fill="#FAFAFA"/>
<path d="M65.3502 233.367L204.974 152.784C206.056 152.153 207.858 152.153 208.94 152.784L216.061 156.93C217.143 157.561 217.143 158.553 216.061 159.184L76.3471 239.767C75.2654 240.398 73.4626 240.398 72.381 239.767L65.2601 235.621C64.2686 235.08 64.2686 233.998 65.3502 233.367Z" fill="#37474F"/>
<path d="M83.738 244.004L223.362 163.42C224.444 162.789 226.246 162.789 227.328 163.42L271.225 188.749C272.307 189.38 272.307 190.372 271.225 191.002L131.782 271.496C130.7 272.127 128.897 272.127 127.816 271.496L83.738 246.257C82.6563 245.626 82.6563 244.635 83.738 244.004Z" fill="#263238"/>
<path d="M208.85 199.656L213.176 197.132C213.357 197.042 213.357 196.861 213.176 196.771L208.129 193.887C207.948 193.797 207.588 193.797 207.408 193.887L203.081 196.411C202.901 196.501 202.901 196.681 203.081 196.771L208.129 199.656C208.399 199.746 208.67 199.836 208.85 199.656ZM200.287 189.65L195.96 192.174C195.78 192.264 195.78 192.445 195.96 192.535L201.008 195.419C201.188 195.509 201.549 195.509 201.729 195.419L206.056 192.895C206.236 192.805 206.236 192.625 206.056 192.535L201.008 189.65C200.737 189.56 200.467 189.56 200.287 189.65ZM186.135 197.853L178.744 202.089C178.563 202.18 178.563 202.36 178.744 202.45L183.791 205.334C183.972 205.424 184.332 205.424 184.513 205.334L191.904 201.098C192.084 201.008 192.084 200.827 191.904 200.737L186.856 197.853C186.586 197.673 186.315 197.673 186.135 197.853ZM193.887 193.346L189.56 195.87C189.38 195.96 189.38 196.14 189.56 196.23L194.608 199.115C194.788 199.205 195.149 199.205 195.329 199.115L199.656 196.591C199.836 196.501 199.836 196.321 199.656 196.23L194.608 193.346C194.338 193.256 194.067 193.256 193.887 193.346ZM176.671 203.261L172.344 205.785C172.164 205.875 172.164 206.055 172.344 206.146L177.392 209.03C177.572 209.12 177.932 209.12 178.113 209.03L182.439 206.506C182.62 206.416 182.62 206.236 182.439 206.146L177.392 203.261C177.211 203.171 176.941 203.171 176.671 203.261ZM170.361 206.957L166.034 209.481C165.854 209.571 165.854 209.751 166.034 209.841L171.082 212.726C171.262 212.816 171.623 212.816 171.803 212.726L176.13 210.202C176.31 210.112 176.31 209.931 176.13 209.841L171.082 206.957C170.812 206.867 170.541 206.867 170.361 206.957ZM190.191 218.765L194.518 216.241C194.698 216.151 194.698 215.971 194.518 215.881L189.47 212.996C189.29 212.906 188.929 212.906 188.749 212.996L184.422 215.52C184.242 215.61 184.242 215.79 184.422 215.881L189.47 218.765C189.741 218.945 190.011 218.945 190.191 218.765ZM183.791 222.461L188.118 219.937C188.298 219.847 188.298 219.666 188.118 219.576L183.07 216.692C182.89 216.602 182.529 216.602 182.349 216.692L178.023 219.216C177.842 219.306 177.842 219.486 178.023 219.576L183.07 222.461C183.341 222.551 183.611 222.641 183.791 222.461ZM177.392 226.156L181.718 223.632C181.899 223.542 181.899 223.362 181.718 223.272L176.671 220.387C176.49 220.297 176.13 220.297 175.949 220.387L171.623 222.911C171.442 223.001 171.442 223.182 171.623 223.272L176.671 226.156C176.941 226.246 177.211 226.246 177.392 226.156ZM171.082 229.852L175.409 227.328C175.589 227.238 175.589 227.058 175.409 226.967L170.361 224.083C170.181 223.993 169.82 223.993 169.64 224.083L165.313 226.607C165.133 226.697 165.133 226.877 165.313 226.967L170.361 229.852C170.541 229.942 170.812 229.942 171.082 229.852ZM202.45 203.351L206.777 200.827C206.957 200.737 206.957 200.557 206.777 200.467L201.729 197.582C201.549 197.492 201.188 197.492 201.008 197.582L196.681 200.106C196.501 200.196 196.501 200.377 196.681 200.467L201.729 203.351C201.999 203.441 202.27 203.441 202.45 203.351ZM196.591 215.159L206.326 209.571C206.506 209.481 206.506 209.3 206.326 209.21L194.067 202.089C193.887 201.999 193.526 201.999 193.346 202.089L188.298 204.974C188.118 205.064 188.118 205.244 188.298 205.334L194.788 209.12C194.969 209.21 194.969 209.391 194.788 209.481L190.732 211.824C190.552 211.914 190.552 212.095 190.732 212.185L195.78 215.069C196.05 215.25 196.411 215.25 196.591 215.159ZM163.961 210.653L159.634 213.176C159.454 213.267 159.454 213.447 159.634 213.537L164.682 216.421C164.862 216.511 165.223 216.511 165.403 216.421L169.73 213.897C169.91 213.807 169.91 213.627 169.73 213.537L164.682 210.653C164.412 210.562 164.141 210.562 163.961 210.653ZM157.561 214.348L153.235 216.872C153.054 216.962 153.054 217.142 153.235 217.233L158.282 220.117C158.463 220.207 158.823 220.207 159.003 220.117L163.33 217.593C163.51 217.503 163.51 217.323 163.33 217.233L158.282 214.348C158.012 214.168 157.742 214.168 157.561 214.348ZM125.652 255.631C125.833 255.722 126.193 255.722 126.373 255.631L130.7 253.108C130.88 253.017 130.88 252.837 130.7 252.747L125.652 249.863C125.472 249.772 125.112 249.772 124.931 249.863L120.605 252.386C120.424 252.477 120.424 252.657 120.605 252.747L125.652 255.631ZM106.453 243.823L102.126 246.347C101.946 246.437 101.946 246.618 102.126 246.708L107.174 249.592C107.354 249.682 107.715 249.682 107.895 249.592L112.222 247.068C112.402 246.978 112.402 246.798 112.222 246.708L107.174 243.823C106.904 243.733 106.633 243.733 106.453 243.823ZM116.729 252.477C116.909 252.567 117.27 252.567 117.45 252.477L121.776 249.953C121.957 249.863 121.957 249.682 121.776 249.592L116.729 246.708C116.548 246.618 116.188 246.618 116.008 246.708L111.681 249.232C111.501 249.322 111.501 249.502 111.681 249.592L116.729 252.477ZM136.92 257.885L141.246 255.361C141.427 255.271 141.427 255.091 141.246 255L136.199 252.116C136.018 252.026 135.658 252.026 135.477 252.116L131.151 254.64C130.971 254.73 130.971 254.91 131.151 255L136.199 257.885C136.379 257.975 136.739 257.975 136.92 257.885ZM129.799 261.581C129.979 261.671 130.34 261.671 130.52 261.581L134.846 259.057C135.027 258.966 135.027 258.786 134.846 258.696L129.799 255.812C129.618 255.722 129.258 255.722 129.078 255.812L124.751 258.336C124.571 258.426 124.571 258.606 124.751 258.696L129.799 261.581ZM112.853 240.128L108.526 242.652C108.346 242.742 108.346 242.922 108.526 243.012L113.574 245.896C113.754 245.987 114.115 245.987 114.295 245.896L118.622 243.373C118.802 243.282 118.802 243.102 118.622 243.012L113.574 240.128C113.303 240.038 113.033 240.038 112.853 240.128ZM144.762 221.649L140.435 224.173C140.255 224.263 140.255 224.444 140.435 224.534L145.483 227.418C145.663 227.508 146.024 227.508 146.204 227.418L150.53 224.894C150.711 224.804 150.711 224.624 150.53 224.534L145.483 221.649C145.302 221.559 144.942 221.559 144.762 221.649ZM119.253 236.432L114.926 238.956C114.746 239.046 114.746 239.226 114.926 239.316L119.974 242.201C120.154 242.291 120.515 242.291 120.695 242.201L125.021 239.677C125.202 239.587 125.202 239.407 125.021 239.316L119.974 236.432C119.703 236.342 119.433 236.342 119.253 236.432ZM151.161 218.044L146.835 220.568C146.655 220.658 146.655 220.838 146.835 220.928L151.883 223.813C152.063 223.903 152.423 223.903 152.604 223.813L156.93 221.289C157.111 221.199 157.111 221.018 156.93 220.928L151.883 218.044C151.702 217.864 151.342 217.864 151.161 218.044ZM138.362 225.345L134.035 227.869C133.855 227.959 133.855 228.139 134.035 228.229L139.083 231.114C139.263 231.204 139.624 231.204 139.804 231.114L144.131 228.59C144.311 228.5 144.311 228.32 144.131 228.229L139.083 225.345C138.903 225.255 138.542 225.255 138.362 225.345ZM131.962 229.041L127.635 231.565C127.455 231.655 127.455 231.835 127.635 231.925L132.683 234.81C132.863 234.9 133.224 234.9 133.404 234.81L137.731 232.286C137.911 232.196 137.911 232.015 137.731 231.925L132.683 229.041C132.503 228.951 132.142 228.951 131.962 229.041ZM125.652 232.736L121.326 235.26C121.145 235.35 121.145 235.531 121.326 235.621L126.373 238.505C126.554 238.595 126.914 238.595 127.095 238.505L131.421 235.981C131.601 235.891 131.601 235.711 131.421 235.621L126.373 232.736C126.103 232.646 125.833 232.646 125.652 232.736ZM158.282 237.243L162.609 234.719C162.789 234.629 162.789 234.449 162.609 234.359L157.561 231.474C157.381 231.384 157.02 231.384 156.84 231.474L152.514 233.998C152.333 234.088 152.333 234.269 152.514 234.359L157.561 237.243C157.742 237.333 158.102 237.333 158.282 237.243ZM214.348 181.538L210.022 184.062C209.841 184.152 209.841 184.332 210.022 184.422L215.069 187.307C215.25 187.397 215.61 187.397 215.79 187.307L220.117 184.783C220.297 184.693 220.297 184.512 220.117 184.422L215.069 181.538C214.889 181.448 214.528 181.448 214.348 181.538ZM206.596 185.955L202.27 188.479C202.089 188.569 202.089 188.749 202.27 188.839L207.317 191.724C207.498 191.814 207.858 191.814 208.039 191.724L212.365 189.2C212.545 189.109 212.545 188.929 212.365 188.839L207.317 185.955C207.137 185.865 206.777 185.865 206.596 185.955ZM220.748 177.842L216.421 180.366C216.241 180.456 216.241 180.637 216.421 180.727L221.469 183.611C221.649 183.701 222.01 183.701 222.19 183.611L226.517 181.087C226.697 180.997 226.697 180.817 226.517 180.727L221.469 177.842C221.289 177.752 220.928 177.752 220.748 177.842ZM187.667 211.914L191.994 209.391C192.174 209.3 192.174 209.12 191.994 209.03L186.946 206.146C186.766 206.055 186.405 206.055 186.225 206.146L181.899 208.669C181.718 208.76 181.718 208.94 181.899 209.03L186.946 211.914C187.217 212.005 187.487 212.005 187.667 211.914ZM227.869 174.147C227.689 174.056 227.328 174.056 227.148 174.147L222.821 176.67C222.641 176.761 222.641 176.941 222.821 177.031L227.869 179.915C228.049 180.006 228.41 180.006 228.59 179.915L232.917 177.392C233.097 177.301 233.097 177.121 232.917 177.031L227.869 174.147ZM164.682 233.548L169.009 231.024C169.189 230.934 169.189 230.753 169.009 230.663L163.961 227.779C163.781 227.689 163.42 227.689 163.24 227.779L158.913 230.303C158.733 230.393 158.733 230.573 158.913 230.663L163.961 233.548C164.141 233.638 164.502 233.638 164.682 233.548ZM243.012 188.298L247.339 185.774C247.519 185.684 247.519 185.504 247.339 185.414L242.291 182.529C242.111 182.439 241.75 182.439 241.57 182.529L237.243 185.053C237.063 185.143 237.063 185.324 237.243 185.414L242.291 188.298C242.471 188.388 242.832 188.479 243.012 188.298ZM229.401 187.848L233.728 185.324C233.908 185.234 233.908 185.053 233.728 184.963L228.68 182.079C228.5 181.989 228.139 181.989 227.959 182.079L223.632 184.603C223.452 184.693 223.452 184.873 223.632 184.963L228.68 187.848C228.86 187.938 229.221 187.938 229.401 187.848ZM235.08 178.293C234.9 178.203 234.539 178.203 234.359 178.293L230.032 180.817C229.852 180.907 229.852 181.087 230.032 181.177L235.08 184.062C235.26 184.152 235.621 184.152 235.801 184.062L240.128 181.538C240.308 181.448 240.308 181.267 240.128 181.177L235.08 178.293ZM236.432 177.572L248.691 184.693C248.871 184.783 249.232 184.783 249.412 184.693L253.739 182.169C253.919 182.079 253.919 181.898 253.739 181.808L241.48 174.687C241.299 174.597 240.939 174.597 240.759 174.687L236.432 177.211C236.162 177.211 236.162 177.392 236.432 177.572ZM221.559 185.684L217.233 188.208C217.052 188.298 217.052 188.479 217.233 188.569L222.28 191.453C222.461 191.543 222.821 191.543 223.001 191.453L227.328 188.929C227.508 188.839 227.508 188.659 227.328 188.569L222.28 185.684C222.1 185.594 221.74 185.594 221.559 185.684ZM173.516 213.447L169.189 215.971C169.009 216.061 169.009 216.241 169.189 216.331L174.237 219.216C174.417 219.306 174.778 219.306 174.958 219.216L179.285 216.692C179.465 216.602 179.465 216.421 179.285 216.331L174.237 213.447C173.966 213.357 173.696 213.357 173.516 213.447ZM235.891 191.994C236.071 192.084 236.432 192.084 236.612 191.994L240.939 189.47C241.119 189.38 241.119 189.2 240.939 189.11L235.891 186.225C235.711 186.135 235.35 186.135 235.17 186.225L230.843 188.749C230.663 188.839 230.663 189.019 230.843 189.11L235.891 191.994ZM179.915 209.751L175.589 212.275C175.409 212.365 175.409 212.545 175.589 212.636L180.637 215.52C180.817 215.61 181.177 215.61 181.358 215.52L185.684 212.996C185.865 212.906 185.865 212.726 185.684 212.636L180.637 209.751C180.366 209.661 180.096 209.661 179.915 209.751ZM132.052 251.936C132.232 252.026 132.593 252.026 132.773 251.936L137.1 249.412C137.28 249.322 137.28 249.141 137.1 249.051L132.052 246.167C131.872 246.077 131.511 246.077 131.331 246.167L127.004 248.691C126.824 248.781 126.824 248.961 127.004 249.051L132.052 251.936ZM122.407 242.922L118.081 245.446C117.901 245.536 117.901 245.716 118.081 245.806L123.129 248.691C123.309 248.781 123.669 248.781 123.85 248.691L128.176 246.167C128.357 246.077 128.357 245.896 128.176 245.806L123.129 242.922C122.948 242.832 122.588 242.832 122.407 242.922ZM139.083 248.33L143.41 245.806C143.59 245.716 143.59 245.536 143.41 245.446L138.362 242.561C138.182 242.471 137.821 242.471 137.641 242.561L133.314 245.085C133.134 245.175 133.134 245.356 133.314 245.446L138.362 248.33C138.632 248.42 138.903 248.42 139.083 248.33ZM145.483 244.635L149.809 242.111C149.99 242.021 149.99 241.84 149.809 241.75L144.762 238.866C144.581 238.776 144.221 238.776 144.041 238.866L139.714 241.39C139.534 241.48 139.534 241.66 139.714 241.75L144.762 244.635C145.032 244.725 145.302 244.725 145.483 244.635ZM151.883 240.939L156.209 238.415C156.389 238.325 156.389 238.145 156.209 238.054L151.161 235.17C150.981 235.08 150.621 235.08 150.44 235.17L146.114 237.694C145.933 237.784 145.933 237.964 146.114 238.054L151.161 240.939C151.342 241.029 151.702 241.029 151.883 240.939ZM128.807 239.226L124.481 241.75C124.3 241.84 124.3 242.021 124.481 242.111L129.528 244.995C129.709 245.085 130.069 245.085 130.249 244.995L134.576 242.471C134.756 242.381 134.756 242.201 134.576 242.111L129.528 239.226C129.258 239.136 128.987 239.136 128.807 239.226ZM135.207 235.531L130.88 238.054C130.7 238.145 130.7 238.325 130.88 238.415L135.928 241.299C136.108 241.39 136.469 241.39 136.649 241.299L140.976 238.776C141.156 238.685 141.156 238.505 140.976 238.415L135.928 235.531C135.658 235.44 135.387 235.44 135.207 235.531ZM160.716 220.838L156.389 223.362C156.209 223.452 156.209 223.632 156.389 223.723L161.437 226.607C161.617 226.697 161.978 226.697 162.158 226.607L166.485 224.083C166.665 223.993 166.665 223.813 166.485 223.723L161.437 220.838C161.257 220.748 160.896 220.748 160.716 220.838ZM154.316 224.534L149.99 227.058C149.809 227.148 149.809 227.328 149.99 227.418L155.037 230.303C155.218 230.393 155.578 230.393 155.758 230.303L160.085 227.779C160.265 227.689 160.265 227.508 160.085 227.418L155.037 224.534C154.857 224.353 154.497 224.353 154.316 224.534ZM167.116 217.142L162.789 219.666C162.609 219.756 162.609 219.937 162.789 220.027L167.837 222.911C168.017 223.001 168.378 223.001 168.558 222.911L172.885 220.387C173.065 220.297 173.065 220.117 172.885 220.027L167.837 217.142C167.657 217.052 167.296 217.052 167.116 217.142ZM141.607 231.835L137.28 234.359C137.1 234.449 137.1 234.629 137.28 234.719L142.328 237.604C142.508 237.694 142.869 237.694 143.049 237.604L147.376 235.08C147.556 234.99 147.556 234.809 147.376 234.719L142.328 231.835C142.057 231.745 141.787 231.745 141.607 231.835ZM147.916 228.229L143.59 230.753C143.41 230.843 143.41 231.024 143.59 231.114L148.638 233.998C148.818 234.088 149.178 234.088 149.359 233.998L153.685 231.474C153.866 231.384 153.866 231.204 153.685 231.114L148.638 228.229C148.457 228.049 148.187 228.049 147.916 228.229ZM143.319 254.189L147.646 251.665C147.826 251.575 147.826 251.395 147.646 251.305L142.598 248.42C142.418 248.33 142.057 248.33 141.877 248.42L137.551 250.944C137.37 251.034 137.37 251.215 137.551 251.305L142.598 254.189C142.779 254.279 143.139 254.369 143.319 254.189ZM105.822 250.403L100.774 247.519C100.594 247.429 100.233 247.429 100.053 247.519L95.7265 250.043C95.5463 250.133 95.5463 250.313 95.7265 250.403L100.774 253.288C100.955 253.378 101.315 253.378 101.495 253.288L105.822 250.764C106.002 250.764 106.002 250.584 105.822 250.403ZM115.377 253.288L110.329 250.403C110.149 250.313 109.788 250.313 109.608 250.403L102.847 254.279C102.667 254.369 102.667 254.55 102.847 254.64L107.895 257.524C108.075 257.614 108.436 257.614 108.616 257.524L115.377 253.648C115.557 253.558 115.557 253.378 115.377 253.288ZM98.0701 244.815L93.0224 241.93C92.8421 241.84 92.4816 241.84 92.3013 241.93L86.893 244.995C86.7127 245.085 86.7127 245.266 86.893 245.356L91.9407 248.24C92.121 248.33 92.4816 248.33 92.6619 248.24L98.0701 245.175C98.2504 245.085 98.2504 244.905 98.0701 244.815ZM102.216 242.381C102.397 242.471 102.757 242.471 102.938 242.381L107.264 239.857C107.444 239.767 107.444 239.587 107.264 239.497L102.216 236.612C102.036 236.522 101.676 236.522 101.495 236.612L97.1688 239.136C96.9885 239.226 96.9885 239.407 97.1688 239.497L102.216 242.381ZM124.3 256.443L119.253 253.558C119.072 253.468 118.712 253.468 118.531 253.558L110.149 258.426C109.968 258.516 109.968 258.696 110.149 258.786L115.196 261.671C115.377 261.761 115.737 261.761 115.917 261.671L124.3 256.803C124.481 256.713 124.481 256.533 124.3 256.443ZM128.447 262.392L123.399 259.507C123.219 259.417 122.858 259.417 122.678 259.507L117.27 262.572C117.089 262.662 117.089 262.842 117.27 262.933L122.317 265.817C122.498 265.907 122.858 265.907 123.038 265.817L128.447 262.752C128.717 262.662 128.717 262.482 128.447 262.392ZM149.719 214.979C149.9 215.069 150.26 215.069 150.44 214.979L154.767 212.455C154.947 212.365 154.947 212.185 154.767 212.095L149.719 209.21C149.539 209.12 149.178 209.12 148.998 209.21L144.672 211.734C144.491 211.824 144.491 212.005 144.672 212.095L149.719 214.979ZM136.92 222.37C137.1 222.461 137.46 222.461 137.641 222.37L141.967 219.847C142.148 219.756 142.148 219.576 141.967 219.486L136.92 216.602C136.739 216.511 136.379 216.511 136.199 216.602L131.872 219.125C131.692 219.216 131.692 219.396 131.872 219.486L136.92 222.37ZM108.526 238.685C108.706 238.776 109.067 238.776 109.247 238.685L113.574 236.162C113.754 236.071 113.754 235.891 113.574 235.801L108.526 232.917C108.346 232.826 107.985 232.826 107.805 232.917L103.478 235.44C103.298 235.531 103.298 235.711 103.478 235.801L108.526 238.685ZM143.319 218.675C143.5 218.765 143.86 218.765 144.041 218.675L148.367 216.151C148.547 216.061 148.547 215.881 148.367 215.79L143.319 212.906C143.139 212.816 142.779 212.816 142.598 212.906L138.272 215.43C138.091 215.52 138.091 215.7 138.272 215.79L143.319 218.675ZM130.52 226.066C130.7 226.156 131.061 226.156 131.241 226.066L135.568 223.542C135.748 223.452 135.748 223.272 135.568 223.182L130.52 220.297C130.34 220.207 129.979 220.207 129.799 220.297L125.472 222.821C125.292 222.911 125.292 223.092 125.472 223.182L130.52 226.066ZM131.962 262.842C131.782 262.752 131.421 262.752 131.241 262.842L124.481 266.718C124.3 266.809 124.3 266.989 124.481 267.079L129.528 269.963C129.709 270.053 130.069 270.053 130.249 269.963L137.01 266.087C137.19 265.997 137.19 265.817 137.01 265.727L131.962 262.842ZM121.326 231.384C121.506 231.474 121.867 231.474 122.047 231.384L126.373 228.86C126.554 228.77 126.554 228.59 126.373 228.5L121.326 225.615C121.145 225.525 120.785 225.525 120.605 225.615L116.278 228.049C116.098 228.139 116.098 228.32 116.278 228.41L121.326 231.384ZM114.926 235.08C115.106 235.17 115.467 235.17 115.647 235.08L119.974 232.556C120.154 232.466 120.154 232.286 119.974 232.196L114.926 229.311C114.746 229.221 114.385 229.221 114.205 229.311L109.878 231.835C109.698 231.925 109.698 232.105 109.878 232.196L114.926 235.08ZM250.313 194.518C250.133 194.428 249.772 194.428 249.592 194.518L238.866 200.737C238.685 200.827 238.685 201.008 238.866 201.098L243.913 203.982C244.094 204.072 244.454 204.072 244.635 203.982L255.361 197.763C255.541 197.673 255.541 197.492 255.361 197.402L250.313 194.518ZM236.252 202.63C236.071 202.54 235.711 202.54 235.531 202.63L231.204 205.154C231.024 205.244 231.024 205.424 231.204 205.515L236.252 208.399C236.432 208.489 236.793 208.489 236.973 208.399L241.299 205.875C241.48 205.785 241.48 205.605 241.299 205.515L236.252 202.63ZM149.719 250.494L154.046 247.97C154.226 247.88 154.226 247.699 154.046 247.609L148.998 244.725C148.818 244.635 148.457 244.635 148.277 244.725L143.95 247.249C143.77 247.339 143.77 247.519 143.95 247.609L148.998 250.494C149.178 250.674 149.539 250.674 149.719 250.494ZM223.452 210.022C223.272 209.931 222.911 209.931 222.731 210.022L218.404 212.545C218.224 212.636 218.224 212.816 218.404 212.906L223.452 215.79C223.632 215.881 223.993 215.881 224.173 215.79L228.5 213.267C228.68 213.176 228.68 212.996 228.5 212.906L223.452 210.022ZM256.713 190.822C256.533 190.732 256.172 190.732 255.992 190.822L251.665 193.346C251.485 193.436 251.485 193.616 251.665 193.707L256.713 196.591C256.893 196.681 257.254 196.681 257.434 196.591L261.761 194.067C261.941 193.977 261.941 193.797 261.761 193.707L256.713 190.822ZM268.161 190.011L255.902 182.89C255.722 182.8 255.361 182.8 255.181 182.89L250.854 185.414C250.674 185.504 250.674 185.684 250.854 185.774L263.113 192.895C263.293 192.985 263.654 192.985 263.834 192.895L268.161 190.371C268.341 190.371 268.341 190.191 268.161 190.011ZM199.566 223.813C199.385 223.723 199.025 223.723 198.844 223.813L193.436 226.877C193.256 226.967 193.256 227.148 193.436 227.238L198.484 230.122C198.664 230.212 199.025 230.212 199.205 230.122L204.613 227.058C204.794 226.967 204.794 226.787 204.613 226.697L199.566 223.813ZM215.7 214.528C215.52 214.438 215.159 214.438 214.979 214.528L208.219 218.404C208.039 218.495 208.039 218.675 208.219 218.765L213.267 221.649C213.447 221.739 213.807 221.739 213.988 221.649L220.748 217.773C220.928 217.683 220.928 217.503 220.748 217.413L215.7 214.528ZM184.783 232.376C184.603 232.286 184.242 232.286 184.062 232.376L148.097 253.108C147.916 253.198 147.916 253.378 148.097 253.468L153.144 256.353C153.325 256.443 153.685 256.443 153.866 256.353L189.831 235.621C190.011 235.531 190.011 235.35 189.831 235.26L184.783 232.376ZM146.745 254.279C146.564 254.189 146.204 254.189 146.024 254.279L140.615 257.344C140.435 257.434 140.435 257.614 140.615 257.705L145.663 260.589C145.843 260.679 146.204 260.679 146.384 260.589L151.792 257.524C151.973 257.434 151.973 257.254 151.792 257.164L146.745 254.279ZM192.174 228.049C191.994 227.959 191.633 227.959 191.453 228.049L186.045 231.114C185.865 231.204 185.865 231.384 186.045 231.474L191.093 234.359C191.273 234.449 191.633 234.449 191.814 234.359L197.222 231.294C197.402 231.204 197.402 231.024 197.222 230.934L192.174 228.049ZM139.353 258.606C139.173 258.516 138.813 258.516 138.632 258.606L133.224 261.671C133.044 261.761 133.044 261.941 133.224 262.031L138.272 264.916C138.452 265.006 138.813 265.006 138.993 264.916L144.401 261.851C144.581 261.761 144.581 261.581 144.401 261.49L139.353 258.606ZM206.957 219.576C206.777 219.486 206.416 219.486 206.236 219.576L200.828 222.641C200.647 222.731 200.647 222.911 200.828 223.001L205.875 225.886C206.056 225.976 206.416 225.976 206.596 225.886L212.005 222.821C212.185 222.731 212.185 222.551 212.005 222.461L206.957 219.576ZM229.852 206.326C229.672 206.236 229.311 206.236 229.131 206.326L224.804 208.85C224.624 208.94 224.624 209.12 224.804 209.21L229.852 212.095C230.032 212.185 230.393 212.185 230.573 212.095L234.9 209.571C235.08 209.481 235.08 209.3 234.9 209.21L229.852 206.326ZM243.823 196.14L248.15 193.616C248.33 193.526 248.33 193.346 248.15 193.256L243.102 190.371C242.922 190.281 242.561 190.281 242.381 190.371L238.055 192.895C237.874 192.985 237.874 193.166 238.055 193.256L243.102 196.14C243.283 196.321 243.643 196.321 243.823 196.14ZM215.25 195.96L219.576 193.436C219.757 193.346 219.757 193.166 219.576 193.076L214.528 190.191C214.348 190.101 213.988 190.101 213.807 190.191L209.481 192.715C209.3 192.805 209.3 192.985 209.481 193.076L214.528 195.96C214.799 196.14 215.069 196.14 215.25 195.96ZM200.828 221.018L213.627 213.627C213.807 213.537 213.807 213.357 213.627 213.267L208.579 210.382C208.399 210.292 208.039 210.292 207.858 210.382L195.059 217.773C194.878 217.864 194.878 218.044 195.059 218.134L200.106 221.018C200.287 221.109 200.557 221.109 200.828 221.018ZM236.702 199.836C236.883 199.926 237.243 199.926 237.424 199.836L241.75 197.312C241.93 197.222 241.93 197.042 241.75 196.952L236.702 194.067C236.522 193.977 236.162 193.977 235.981 194.067L231.655 196.501C231.474 196.591 231.474 196.771 231.655 196.861L236.702 199.836ZM230.212 195.69L234.539 193.166C234.719 193.076 234.719 192.895 234.539 192.805L229.491 189.921C229.311 189.831 228.951 189.831 228.77 189.921L224.444 192.445C224.263 192.535 224.263 192.715 224.444 192.805L229.491 195.69C229.672 195.78 230.032 195.78 230.212 195.69ZM194.428 224.714L198.754 222.19C198.935 222.1 198.935 221.92 198.754 221.83L193.707 218.945C193.526 218.855 193.166 218.855 192.986 218.945L188.659 221.469C188.479 221.559 188.479 221.739 188.659 221.83L193.707 224.714C193.887 224.804 194.247 224.804 194.428 224.714ZM222.641 208.039C222.821 208.129 223.182 208.129 223.362 208.039L227.689 205.515C227.869 205.424 227.869 205.244 227.689 205.154L222.641 202.27C222.461 202.18 222.1 202.18 221.92 202.27L217.593 204.794C217.413 204.884 217.413 205.064 217.593 205.154L222.641 208.039ZM162.429 243.192L166.755 240.668C166.936 240.578 166.936 240.398 166.755 240.308L161.708 237.424C161.527 237.333 161.167 237.333 160.986 237.424L156.66 239.947C156.48 240.038 156.48 240.218 156.66 240.308L161.708 243.192C161.978 243.282 162.248 243.282 162.429 243.192ZM168.828 239.497L173.155 236.973C173.335 236.883 173.335 236.702 173.155 236.612L168.107 233.728C167.927 233.638 167.567 233.638 167.386 233.728L163.06 236.252C162.879 236.342 162.879 236.522 163.06 236.612L168.107 239.497C168.378 239.587 168.648 239.587 168.828 239.497ZM156.029 246.888L160.356 244.364C160.536 244.274 160.536 244.094 160.356 244.004L155.308 241.119C155.128 241.029 154.767 241.029 154.587 241.119L150.26 243.643C150.08 243.733 150.08 243.913 150.26 244.004L155.308 246.888C155.578 246.978 155.849 246.978 156.029 246.888ZM181.628 232.105L185.955 229.581C186.135 229.491 186.135 229.311 185.955 229.221L180.907 226.337C180.727 226.246 180.366 226.246 180.186 226.337L175.859 228.86C175.679 228.951 175.679 229.131 175.859 229.221L180.907 232.105C181.087 232.195 181.448 232.195 181.628 232.105ZM175.228 235.801L179.555 233.277C179.735 233.187 179.735 233.007 179.555 232.917L174.507 230.032C174.327 229.942 173.966 229.942 173.786 230.032L169.459 232.556C169.279 232.646 169.279 232.826 169.459 232.917L174.507 235.801C174.778 235.891 175.048 235.891 175.228 235.801ZM188.028 228.41L192.355 225.886C192.535 225.796 192.535 225.615 192.355 225.525L187.307 222.641C187.127 222.551 186.766 222.551 186.586 222.641L182.259 225.165C182.079 225.255 182.079 225.435 182.259 225.525L187.307 228.41C187.487 228.5 187.848 228.5 188.028 228.41ZM217.233 173.876C217.413 173.966 217.773 173.966 217.954 173.876L222.28 171.352C222.461 171.262 222.461 171.082 222.28 170.992L220.928 170.181C220.748 170.09 220.387 170.09 220.207 170.181L215.881 172.704C215.7 172.795 215.7 172.975 215.881 173.065L217.233 173.876ZM185.774 194.157C185.955 194.247 186.315 194.247 186.496 194.157L190.822 191.633C191.002 191.543 191.002 191.363 190.822 191.273L185.774 188.388C185.594 188.298 185.234 188.298 185.053 188.388L180.727 190.912C180.546 191.002 180.546 191.183 180.727 191.273L185.774 194.157ZM198.574 186.766C198.754 186.856 199.115 186.856 199.295 186.766L203.622 184.242C203.802 184.152 203.802 183.972 203.622 183.881L198.574 180.997C198.394 180.907 198.033 180.907 197.853 180.997L193.526 183.521C193.346 183.611 193.346 183.791 193.526 183.881L198.574 186.766ZM178.023 198.664C178.203 198.754 178.563 198.754 178.744 198.664L183.07 196.14C183.251 196.05 183.251 195.87 183.07 195.78L178.023 192.895C177.842 192.805 177.482 192.805 177.301 192.895L172.975 195.419C172.795 195.509 172.795 195.69 172.975 195.78L178.023 198.664ZM192.174 190.462C192.355 190.552 192.715 190.552 192.895 190.462L197.222 187.938C197.402 187.848 197.402 187.667 197.222 187.577L192.174 184.693C191.994 184.603 191.633 184.603 191.453 184.693L187.127 187.217C186.946 187.307 186.946 187.487 187.127 187.577L192.174 190.462ZM165.223 206.055C165.403 206.146 165.764 206.146 165.944 206.055L170.271 203.532C170.451 203.441 170.451 203.261 170.271 203.171L165.223 200.287C165.043 200.196 164.682 200.196 164.502 200.287L160.175 202.81C159.995 202.901 159.995 203.081 160.175 203.171L165.223 206.055ZM171.623 202.36C171.803 202.45 172.164 202.45 172.344 202.36L176.671 199.836C176.851 199.746 176.851 199.566 176.671 199.475L171.623 196.591C171.442 196.501 171.082 196.501 170.902 196.591L166.575 199.115C166.395 199.205 166.395 199.385 166.575 199.475L171.623 202.36ZM204.433 181.267C204.613 181.358 204.974 181.358 205.154 181.267L209.481 178.744C209.661 178.653 209.661 178.473 209.481 178.383L208.129 177.572C207.948 177.482 207.588 177.482 207.408 177.572L203.081 180.096C202.901 180.186 202.901 180.366 203.081 180.456L204.433 181.267ZM223.632 170.181C223.813 170.271 224.173 170.271 224.354 170.181L228.68 167.657C228.86 167.566 228.86 167.386 228.68 167.296L227.328 166.485C227.148 166.395 226.787 166.395 226.607 166.485L222.28 169.009C222.1 169.099 222.1 169.279 222.28 169.369L223.632 170.181ZM234.269 176.31C234.449 176.4 234.81 176.4 234.99 176.31L239.316 173.786C239.497 173.696 239.497 173.516 239.316 173.425L234.269 170.541C234.088 170.451 233.728 170.451 233.548 170.541L229.221 173.065C229.041 173.155 229.041 173.335 229.221 173.425L234.269 176.31ZM250.223 192.535L254.55 190.011C254.73 189.921 254.73 189.74 254.55 189.65L249.502 186.766C249.322 186.676 248.961 186.676 248.781 186.766L244.454 189.29C244.274 189.38 244.274 189.56 244.454 189.65L249.502 192.535C249.682 192.625 250.043 192.625 250.223 192.535ZM210.833 177.572C211.013 177.662 211.374 177.662 211.554 177.572L215.881 175.048C216.061 174.958 216.061 174.778 215.881 174.687L214.528 173.876C214.348 173.786 213.988 173.786 213.807 173.876L209.481 176.4C209.3 176.49 209.3 176.67 209.481 176.761L210.833 177.572ZM158.823 209.661C159.003 209.751 159.364 209.751 159.544 209.661L163.871 207.137C164.051 207.047 164.051 206.867 163.871 206.777L158.823 203.892C158.643 203.802 158.282 203.802 158.102 203.892L153.775 206.416C153.595 206.506 153.595 206.686 153.775 206.777L158.823 209.661Z" fill="#455A64"/>
<path d="M187.126 248.06L230.212 223.182C231.474 222.461 233.638 222.461 234.9 223.182L259.597 237.424C260.859 238.145 260.859 239.407 259.597 240.128L216.602 265.006C215.34 265.727 213.176 265.727 211.914 265.006L187.217 250.764C185.864 250.043 185.864 248.781 187.126 248.06Z" fill="#263238"/>
<path d="M196.591 28.5736V35.1537L98.4307 91.8506C97.7096 92.2111 97.1688 91.9407 97.1688 91.1295L97.259 88.7859C97.259 88.7859 95.4562 88.1549 95.4562 88.245L66.0712 105.191C65.3501 105.552 64.8093 106.543 64.8093 107.354V109.878C64.8093 110.689 64.2684 111.591 63.5473 112.041L60.1221 114.025V107.444C60.1221 106.633 60.6629 105.732 61.384 105.281L195.329 27.9427C196.05 27.492 196.591 27.8525 196.591 28.5736Z" fill="#0980AD"/>
<path d="M196.591 127.275C196.591 128.086 196.05 128.988 195.329 129.438L61.4743 206.687C60.7532 207.047 60.2124 206.777 60.2124 205.965V113.934L63.6376 111.951C64.3587 111.591 65.4404 105.552 66.0714 105.191L95.4564 88.2451C96.1775 87.8846 97.7098 92.3013 98.4309 91.8507L196.591 35.1538V43.1761V127.275Z" fill="#EBEBEB"/>
<path d="M66.071 139.173L124.931 105.191C125.652 104.83 126.193 105.101 126.193 105.912V163.69C126.193 164.502 125.652 165.403 124.931 165.854L66.071 199.836C65.3499 200.196 64.8091 199.926 64.8091 199.115V141.336C64.8091 140.525 65.3499 139.533 66.071 139.173Z" fill="#FAFAFA"/>
<path d="M66.071 123.94L190.732 51.9194C191.453 51.5588 191.994 51.8293 191.994 52.6405V61.2937C191.994 62.105 191.453 63.0064 190.732 63.4571L66.071 135.387C65.3499 135.748 64.8091 135.477 64.8091 134.666V126.013C64.8091 125.292 65.3499 124.3 66.071 123.94Z" fill="#455A64"/>
<path d="M145.753 84.7296V86.9831C145.753 87.4338 146.113 87.614 146.474 87.4338L182.71 66.5217V62.5557L146.474 83.4677C146.113 83.7381 145.753 84.2789 145.753 84.7296Z" fill="#FAFAFA"/>
<path d="M186.585 60.3022C187.036 60.0318 187.307 60.3022 187.307 60.7529V63.0064C187.307 63.4571 186.946 64.088 186.585 64.2683L182.709 66.5218V62.5557L186.585 60.3022Z" fill="#0980AD"/>
<path d="M186.315 63.4571L185.864 63.367C185.864 63.1867 185.954 63.0064 185.954 62.8262C185.954 62.3755 185.774 62.0149 185.594 61.9248C185.414 61.8346 185.143 61.8346 184.963 61.9248C184.512 62.1952 184.062 63.0064 184.062 63.7275C184.062 64.1782 184.242 64.5388 184.422 64.6289C184.512 64.719 184.602 64.7191 184.692 64.7191C184.783 64.7191 184.963 64.719 185.053 64.6289C185.323 64.4486 185.594 64.0881 185.774 63.7275L186.225 63.9078C186.225 63.9078 186.225 63.9078 186.315 63.9078C186.405 63.9078 186.405 63.9078 186.495 63.8177C186.495 63.5473 186.405 63.4571 186.315 63.4571ZM184.963 64.2684C184.873 64.3585 184.783 64.3585 184.692 64.2684C184.512 64.1782 184.422 63.9078 184.422 63.6374C184.422 63.0064 184.783 62.3755 185.143 62.1051C185.233 62.1051 185.323 62.0149 185.323 62.0149H185.414C185.594 62.1051 185.684 62.3755 185.684 62.6459C185.684 63.367 185.323 64.0881 184.963 64.2684Z" fill="#FAFAFA"/>
<path d="M196.591 35.1538V43.1761L60.2124 121.957V113.934L62.7363 112.492C63.4574 112.132 63.6376 111.501 63.9982 110.329L64.8996 107.354C65.17 106.363 65.4404 105.642 66.1615 105.191L95.5465 88.2451C96.2676 87.8846 96.7183 87.7944 97.2591 88.6958L98.3408 90.5887C98.7014 91.2197 98.8816 91.6704 99.6027 91.2197L196.591 35.1538Z" fill="#E6E6E6"/>
<path d="M190.822 32.7199C191.724 32.2692 192.355 32.6298 192.355 33.6213C192.355 34.6128 191.634 35.7846 190.822 36.3254C189.921 36.7761 189.29 36.4156 189.29 35.4241C189.29 34.4325 190.011 33.2607 190.822 32.7199Z" fill="#455A64"/>
<path d="M185.234 35.9648C186.045 35.5141 186.766 35.8747 186.766 36.8662C186.766 37.8577 186.045 39.0295 185.234 39.5703C184.422 40.021 183.701 39.6605 183.701 38.6689C183.701 37.6774 184.422 36.4155 185.234 35.9648Z" fill="#455A64"/>
<path d="M179.645 39.2099C180.547 38.7592 181.178 39.1198 181.178 40.1113C181.178 41.1028 180.456 42.2746 179.645 42.8154C178.834 43.2661 178.113 42.9056 178.113 41.9141C178.113 40.8324 178.834 39.6606 179.645 39.2099Z" fill="#455A64"/>
<path opacity="0.5" d="M65.8908 114.475L63.9979 115.557L64.719 114.115C64.8091 114.025 64.8091 113.844 64.719 113.754C64.6288 113.664 64.5387 113.754 64.5387 113.844L63.457 115.827V115.917V116.008V116.098L64.5387 116.909H64.6288C64.6288 116.909 64.719 116.819 64.719 116.729C64.8091 116.639 64.8091 116.458 64.719 116.368L63.9979 115.827L65.8908 114.746C65.9809 114.656 66.071 114.565 66.071 114.385C65.9809 114.565 65.9809 114.475 65.8908 114.475Z" fill="#455A64"/>
<path opacity="0.5" d="M67.5133 113.574L69.4062 112.492L68.6851 111.951C68.5949 111.861 68.5949 111.771 68.6851 111.591C68.7752 111.501 68.8654 111.411 68.8654 111.411L69.947 112.222V112.312V112.402V112.492L68.8654 114.475C68.8654 114.565 68.7752 114.565 68.7752 114.565H68.6851C68.5949 114.475 68.5949 114.385 68.6851 114.205L69.4062 112.763L67.5133 113.844C67.4232 113.935 67.333 113.844 67.333 113.664C67.333 113.754 67.4232 113.664 67.5133 113.574Z" fill="#455A64"/>
<path opacity="0.5" d="M73.8229 107.985C73.8229 107.895 73.7328 107.895 73.6426 107.985L73.3722 108.616C72.9215 108.526 72.3807 108.977 72.0201 109.788C71.5695 110.78 71.5695 112.042 72.0201 112.492C72.2906 112.763 72.561 112.763 72.9215 112.582C73.1919 112.402 73.5525 112.042 73.8229 111.501C73.9131 111.411 73.9131 111.23 73.8229 111.14C73.7328 111.05 73.6426 111.14 73.6426 111.23C73.2821 111.951 72.7413 112.312 72.3807 111.951C72.0201 111.591 72.0201 110.689 72.3807 109.968C72.6511 109.428 73.0117 109.067 73.2821 109.067L73.1018 109.518C73.0117 109.608 73.1018 109.788 73.1919 109.698L74.0032 109.157C74.0933 109.157 74.0933 108.977 74.0933 108.977L73.8229 107.985Z" fill="#455A64"/>
<path opacity="0.5" d="M94.645 91.9408L95.3661 90.4084C95.4562 90.2281 95.4562 90.0479 95.3661 89.9577C95.276 89.8676 95.1858 89.9577 95.0957 90.138L94.3746 91.6703L93.6535 90.9492C93.5633 90.8591 93.4732 90.9492 93.383 91.1295C93.2929 91.3098 93.2929 91.4901 93.383 91.5802L94.1041 92.3013L93.383 93.8337C93.2929 94.0139 93.2929 94.1942 93.383 94.2844C93.383 94.2844 93.4732 94.2844 93.5633 94.2844C93.6535 94.2844 93.6535 94.1942 93.7436 94.1041L94.4647 92.5717L95.1858 93.2928C95.1858 93.2928 95.276 93.2928 95.3661 93.2928C95.4562 93.2928 95.4562 93.2027 95.5464 93.1126C95.6365 92.9323 95.6365 92.752 95.5464 92.6619L94.645 91.9408Z" fill="#455A64"/>
<path d="M76.437 109.878V107.354C76.437 106.543 76.9778 105.642 77.6989 105.191L188.479 41.2832C189.2 40.9226 189.741 41.193 189.741 42.0043V44.5281C189.741 45.3394 189.2 46.2408 188.479 46.6914L77.6088 110.509C76.9778 110.96 76.437 110.599 76.437 109.878Z" fill="#FAFAFA"/>
<path d="M187.758 42.5451L188.118 43.2663C188.118 43.2663 188.208 43.3564 188.208 43.2663L188.929 42.9958C189.019 42.9958 189.11 43.086 189.019 43.2663L188.479 44.2578C188.479 44.3479 188.389 44.3479 188.479 44.438L188.569 45.3394C188.569 45.5197 188.479 45.7 188.389 45.6098L187.758 45.5197C187.758 45.5197 187.667 45.5197 187.667 45.6098L187.036 46.4211C186.946 46.5112 186.856 46.5112 186.856 46.331L186.946 45.3394C186.946 45.2493 186.946 45.2493 186.946 45.1592L186.406 44.7986C186.315 44.7085 186.405 44.5282 186.496 44.438L187.217 43.8972C187.307 43.8972 187.307 43.8071 187.307 43.7169L187.667 42.6353C187.487 42.5451 187.667 42.455 187.758 42.5451Z" stroke="#E0E0E0" stroke-width="0.75" stroke-miterlimit="10"/>
<g opacity="0.5">
<g opacity="0.5">
<path opacity="0.5" d="M191.093 40.9226C190.912 40.9226 190.822 40.8325 190.732 40.7423C190.642 40.562 190.642 40.2916 190.912 40.2015L194.338 38.2185C194.518 38.1283 194.788 38.1283 194.878 38.3987C194.969 38.579 194.969 38.8494 194.698 38.9396L191.273 40.9226C191.273 40.9226 191.183 40.9226 191.093 40.9226Z" fill="#455A64"/>
</g>
<g opacity="0.5">
<path opacity="0.5" d="M191.093 42.9958C190.912 42.9958 190.822 42.9057 190.732 42.8156C190.642 42.6353 190.642 42.3649 190.912 42.2747L194.338 40.2917C194.518 40.2016 194.788 40.2016 194.878 40.472C194.969 40.6523 194.969 40.9227 194.698 41.0128L191.273 42.9958C191.273 42.9958 191.183 42.9958 191.093 42.9958Z" fill="#455A64"/>
</g>
<g opacity="0.5">
<path opacity="0.5" d="M191.093 44.9788C190.912 44.9788 190.822 44.8886 190.732 44.7985C190.642 44.6182 190.642 44.3478 190.912 44.2576L194.338 42.2746C194.518 42.1845 194.788 42.1845 194.878 42.4549C194.969 42.6352 194.969 42.9056 194.698 42.9957L191.273 44.9788C191.273 44.9788 191.183 44.9788 191.093 44.9788Z" fill="#455A64"/>
</g>
</g>
<path d="M93.0226 152.784C97.9802 147.736 99.2422 145.483 99.2422 143.41C99.2422 141.517 98.4309 140.074 95.7268 141.607C93.6536 142.779 92.572 144.311 91.8509 146.384C91.5804 147.195 90.7692 148.007 89.958 148.187L86.5327 148.908C85.7215 149.088 85.1806 148.547 85.3609 147.736C86.8933 141.607 90.6791 135.928 95.9972 132.863C102.397 129.168 106.093 131.962 106.093 138.182C106.093 144.131 102.938 149.178 99.783 152.784C99.2422 153.415 98.7915 154.587 98.7915 155.398V157.471C98.7915 158.282 98.1605 159.364 97.4394 159.725L93.2029 162.158C92.4818 162.609 91.8509 162.248 91.8509 161.437V155.308C91.941 154.497 92.3917 153.415 93.0226 152.784Z" fill="#455A64"/>
<path d="M91.8511 170.721C91.8511 168.378 93.0229 165.854 95.3665 164.502C97.6199 163.15 98.7917 164.322 98.7917 166.755C98.7917 169.099 97.6199 171.713 95.3665 172.975C93.0229 174.327 91.8511 173.065 91.8511 170.721Z" fill="#455A64"/>
<path d="M231.655 7.57159L228.32 5.67869C227.779 5.40827 227.058 5.40827 226.337 5.85896L143.951 53.3617C142.418 54.2631 141.156 56.4264 141.156 58.2292V176.671C141.156 177.572 141.427 178.203 141.967 178.473L145.303 180.366L226.337 130.7C227.869 129.799 229.131 127.635 229.131 125.833L231.655 7.57159Z" fill="#0980AD"/>
<path opacity="0.15" d="M145.212 180.456L141.967 178.563C141.517 178.293 141.156 177.662 141.156 176.761V58.3193C141.156 57.3278 141.517 56.3362 142.058 55.3447L145.393 57.2376C144.852 58.139 144.491 59.2207 144.491 60.2122V178.654C144.401 179.465 144.762 180.096 145.212 180.456Z" fill="black"/>
<path d="M147.286 55.2546L229.672 7.75183C231.204 6.85044 232.466 7.57155 232.466 9.37431V127.816C232.466 129.618 231.204 131.782 229.672 132.683L147.286 180.276C145.753 181.177 144.491 180.456 144.491 178.654V60.2122C144.401 58.4094 145.663 56.156 147.286 55.2546Z" fill="#0980AD"/>
<path opacity="0.4" d="M228.229 5.58863L231.474 7.48153C230.934 7.21112 230.303 7.30126 229.581 7.75195L147.195 55.2547C146.474 55.7054 145.753 56.4265 145.302 57.2377L141.967 55.3448C142.418 54.5336 143.139 53.8125 143.86 53.3618L226.246 5.85905C227.058 5.40836 227.779 5.31822 228.229 5.58863Z" fill="white"/>
<path d="M156.57 59.942L222.551 21.9037C223.723 21.1826 224.714 21.8136 224.714 23.1657V124.391C224.714 125.743 223.723 127.455 222.551 128.086L156.57 166.125C155.398 166.846 154.407 166.215 154.407 164.863V63.6377C154.497 62.2856 155.398 60.6631 156.57 59.942Z" fill="white"/>
<path d="M208.85 82.2961L209.481 81.7553C209.391 81.6651 208.039 80.0426 205.335 79.3215L205.154 80.1328C207.588 80.7637 208.85 82.206 208.85 82.2961Z" fill="#37474F"/>
<path d="M210.292 85.6311L208.94 84.279C208.219 83.5579 208.219 82.4763 208.94 81.7552C209.661 81.0341 210.743 81.0341 211.464 81.7552L212.816 83.1072C213.537 83.8284 213.537 84.91 212.816 85.6311C212.185 86.2621 211.013 86.3522 210.292 85.6311Z" fill="#0980AD"/>
<path d="M222.371 116.459C224.174 119.523 225.435 121.687 225.435 121.687C225.435 121.687 245.356 111.14 246.528 109.698C247.609 108.346 247.609 105.462 247.79 104.02C248.06 101.496 247.159 99.3324 246.978 98.431C246.708 96.8085 249.052 96.7184 250.133 98.9718C250.945 100.594 251.035 102.397 251.756 102.397C252.026 102.397 254.19 100.324 254.55 99.9634C255.812 98.6113 257.975 96.3578 259.688 96.6282C260.229 96.7184 260.679 97.1691 260.86 97.8C261.04 98.7916 260.95 99.6929 261.491 100.504C261.671 100.865 262.032 101.135 262.122 101.586C262.302 102.127 262.032 102.758 262.122 103.298C262.212 104.11 263.023 104.47 263.113 105.282C263.203 105.912 262.933 106.543 262.933 107.174C262.933 107.535 263.023 107.896 263.023 108.346C263.023 109.157 262.482 109.969 262.032 110.6C260.139 112.853 258.336 114.115 256.082 115.557C254.28 116.729 251.846 117.811 249.773 118.892C247.7 119.974 224.174 138.092 221.109 135.928C219.847 135.027 216.422 130.7 212.906 125.923" fill="#FFA8A7"/>
<path d="M212.095 126.644C206.957 119.704 202.27 111.05 202.27 111.05C198.664 100.955 202.72 94.1945 202.72 94.1945C202.72 94.1945 207.858 92.572 212.185 99.4225C214.078 102.397 219.035 110.87 222.371 116.459" fill="#FFA8A7"/>
<path d="M193.617 94.3747C193.617 94.3747 199.295 92.0311 202.991 92.3015C206.687 92.5719 209.481 93.5634 212.185 97.9802C215.791 103.839 221.83 113.935 221.83 113.935C221.83 113.935 218.405 121.867 210.202 126.464L199.115 109.788L193.617 94.3747Z" fill="#455A64"/>
<path d="M175.589 104.888C173.786 106.331 172.254 108.494 171.533 110.837C170.902 112.911 170.271 115.885 170.271 119.581V138.6L170 174.475C182.079 178.621 197.312 174.926 210.202 160.684C210.202 160.684 209.481 114.713 209.481 107.232C209.481 106.871 209.481 106.511 209.481 106.24C209.03 95.6041 199.836 90.6465 190.732 95.7844L183.161 100.111L175.589 104.888Z" fill="#F0F0F0"/>
<path d="M179.645 60.7533C179.645 60.7533 173.786 60.3026 172.434 65.8011C171.262 70.6685 180.096 89.9581 179.916 89.6876C179.735 89.3271 179.645 60.7533 179.645 60.7533Z" fill="#263238"/>
<path d="M200.467 49.7564C200.467 49.7564 198.304 43.8974 187.667 48.0438C182.259 50.2071 180.186 56.8773 180.186 56.8773L200.467 49.7564Z" fill="#0980AD"/>
<path opacity="0.4" d="M200.467 49.7564C200.467 49.7564 198.304 43.8974 187.667 48.0438C182.259 50.2071 180.186 56.8773 180.186 56.8773L200.467 49.7564Z" fill="black"/>
<path d="M183.702 65.4404C183.702 73.5529 189.38 78.6006 196.411 76.7077C203.442 74.8148 209.121 66.7024 209.121 58.5899C209.121 50.4775 203.081 50.4775 196.051 52.3704C189.02 54.2633 183.702 57.328 183.702 65.4404Z" fill="#263238"/>
<path d="M177.031 78.24C177.031 78.24 178.924 87.8848 179.645 89.327C180.366 90.7692 181.989 90.8593 181.989 90.8593L181.899 83.7384L177.031 78.24Z" fill="#263238"/>
<path d="M179.375 63.0969C179.375 63.0969 177.392 63.2772 175.77 65.5306C174.237 67.7841 175.049 73.1924 177.032 78.2401L180.547 77.7894L179.375 63.0969Z" fill="#263238"/>
<path d="M181.628 77.4288C180.907 78.1499 179.916 76.7978 179.014 75.9866C178.113 75.1753 175.319 74.4542 173.876 78.3302C172.434 82.2061 175.138 86.1722 177.392 86.3525C181.268 86.713 181.809 83.7385 181.809 83.7385L181.899 100.234C188.389 107.084 199.746 98.9718 194.608 95.9972V91.1298C194.608 91.1298 198.124 90.7692 199.836 90.0481C202.63 88.7862 204.433 85.7215 205.335 81.9357C206.687 75.8964 207.228 71.1191 206.056 60.2124C204.794 48.3142 192.445 51.469 185.685 58.1392C179.104 64.7193 181.628 77.4288 181.628 77.4288Z" fill="#FFA8A7"/>
<path d="M181.629 78.8709C181.268 78.961 179.916 76.7076 179.015 76.0766C177.843 75.0851 179.375 63.0967 179.375 63.0967C177.933 60.032 180.547 55.3449 183.251 53.452C185.324 52.0098 187.488 51.4689 189.651 51.1084C191.634 50.7478 193.527 50.4774 195.51 50.2971C197.853 50.1169 200.197 50.0267 202.541 49.4859C204.434 49.0352 205.876 48.4944 207.769 47.593C209.211 46.8719 210.473 48.4042 209.121 51.0182C208.49 52.19 206.687 55.2547 204.343 57.0575C198.575 61.3841 191.904 62.3756 186.135 63.0066C184.783 63.1869 184.513 64.7192 183.882 68.8656C183.341 72.381 182.8 78.5103 181.629 78.8709Z" fill="#263238"/>
<path d="M174.958 63.187L170.722 61.6547C171.353 60.1223 172.795 59.1308 173.967 59.5815C175.138 59.9421 175.589 61.5646 174.958 63.187Z" fill="#263238"/>
<path d="M194.699 91.0396C194.699 91.0396 188.389 91.2199 186.135 90.4988C184.693 89.958 183.431 88.6961 183.071 87.7947C183.071 87.7947 183.521 89.8678 184.783 91.4903C186.406 93.4734 194.699 93.0227 194.699 93.0227V91.0396Z" fill="#F28F8F"/>
<path d="M193.166 72.5615C193.166 73.3728 192.625 74.2741 191.904 74.4544C191.183 74.6347 190.642 74.0939 190.642 73.2826C190.642 72.4714 191.183 71.57 191.904 71.3897C192.625 71.2094 193.166 71.7503 193.166 72.5615Z" fill="#263238"/>
<path d="M191.093 67.0629L188.389 69.4966C188.028 68.6854 188.298 67.5136 189.019 66.7925C189.831 66.1615 190.732 66.2517 191.093 67.0629Z" fill="#263238"/>
<path d="M194.157 82.3865L197.042 82.8372C196.771 83.8287 195.87 84.6399 195.059 84.4597C194.248 84.3695 193.797 83.4681 194.157 82.3865Z" fill="#F28F8F"/>
<path d="M204.794 64.6293L202.36 63.0969C202.901 62.1054 203.802 61.7448 204.523 62.1054C205.154 62.5561 205.334 63.7279 204.794 64.6293Z" fill="#263238"/>
<path d="M203.712 69.3164C203.712 70.1276 203.171 71.029 202.45 71.2093C201.729 71.3896 201.188 70.8487 201.188 70.0375C201.188 69.2263 201.729 68.3249 202.45 68.1446C203.171 67.9643 203.712 68.5052 203.712 69.3164Z" fill="#263238"/>
<path d="M197.493 69.7671L197.583 78.6908L202.18 76.257L197.493 69.7671Z" fill="#F28F8F"/>
<path d="M156.389 158.192C159.905 121.686 165.674 108.707 174.687 105.101C177.752 107.445 178.203 118.261 174.778 126.284C174.778 126.284 167.296 150.531 166.665 158.733C166.124 166.034 166.755 176.04 167.476 181.809C167.567 182.8 168.107 183.611 168.829 184.152C170.721 185.504 170.541 187.307 171.893 189.11C172.975 190.462 173.966 190.732 173.786 191.273C173.516 191.904 172.524 193.076 170.992 192.625C170.271 192.445 169.73 192.084 168.648 191.273C168.648 191.273 169.189 193.887 170.992 196.771C173.426 200.738 173.245 203.352 167.296 204.073C163.601 204.523 160.896 202.18 159.274 192.805C158.823 190.101 157.651 185.234 157.201 181.718C155.939 171.713 155.849 164.051 156.389 158.192Z" fill="#FFA8A7"/>
<path d="M177.211 103.388C177.211 103.388 170.631 105.462 167.296 110.69C163.871 115.918 160.536 124.391 158.012 139.534C158.012 139.534 161.978 145.212 172.794 140.886C172.794 140.886 177.932 121.596 178.563 114.025C179.194 105.642 177.211 103.388 177.211 103.388Z" fill="#455A64"/>
<path d="M183.341 50.0267C177.211 53.9026 174.597 58.4997 174.417 64.0882C174.327 68.7754 174.687 73.8232 174.868 75.6259C172.524 77.3385 170.992 80.1328 170.992 82.837C170.992 86.6228 174.056 88.8762 177.842 87.8847C181.628 86.8932 184.693 82.9271 184.693 79.1413C184.693 76.347 182.98 74.364 180.546 73.9133C180.546 73.8232 179.284 65.8009 180.636 57.7786C181.989 49.6662 197.132 44.979 200.557 49.6661C199.475 45.7001 191.814 44.7086 183.341 50.0267Z" fill="#0980AD"/>
<path opacity="0.15" d="M183.341 50.0267C177.211 53.9026 174.597 58.4997 174.417 64.0882C174.327 68.7754 174.687 73.8232 174.868 75.6259C172.524 77.3385 170.992 80.1328 170.992 82.837C170.992 86.6228 174.056 88.8762 177.842 87.8847C181.628 86.8932 184.693 82.9271 184.693 79.1413C184.693 76.347 182.98 74.364 180.546 73.9133C180.546 73.8232 179.284 65.8009 180.636 57.7786C181.989 49.6662 197.132 44.979 200.557 49.6661C199.475 45.7001 191.814 44.7086 183.341 50.0267Z" fill="black"/>
<path d="M181.087 80.1328C181.087 78.3301 179.645 77.2484 177.752 77.6991C175.949 78.1498 174.417 80.0427 174.417 81.8454C174.417 83.6482 175.859 84.7299 177.752 84.2792C179.645 83.8285 181.087 81.9356 181.087 80.1328Z" fill="#0980AD"/>
<path d="M129.258 138.091C129.078 138.272 128.988 138.362 128.808 138.542C128.537 138.903 128.447 139.173 128.357 139.444C128.267 139.624 128.267 139.894 128.357 139.984C128.357 140.165 128.447 140.255 128.537 140.345C128.627 140.435 128.627 140.435 128.717 140.525L125.382 138.632C125.202 138.542 125.112 138.452 125.022 138.272C124.932 138.091 124.932 137.821 124.932 137.46C125.022 137.28 125.112 137.1 125.202 136.83C125.382 136.559 125.563 136.379 125.743 136.108L129.258 138.091Z" fill="#0980AD"/>
<path d="M129.258 138.001C127.545 139.804 128.176 140.976 130.61 140.705L144.401 139.083V122.137L129.258 138.001Z" fill="#0980AD"/>
<path d="M129.258 138.001C128.176 139.173 127.996 140.074 128.627 140.525L125.292 138.632C124.571 138.182 124.751 137.28 125.833 136.108L140.976 120.334L144.311 122.227L129.258 138.001Z" fill="#0980AD"/>
<path opacity="0.15" d="M129.258 138.091C129.078 138.272 128.988 138.362 128.808 138.542C128.537 138.903 128.447 139.173 128.357 139.444C128.267 139.624 128.267 139.894 128.357 139.984C128.357 140.165 128.447 140.255 128.537 140.345C128.627 140.435 128.627 140.435 128.717 140.525L125.382 138.632C125.202 138.542 125.112 138.452 125.022 138.272C124.932 138.091 124.932 137.821 124.932 137.46C125.022 137.28 125.112 137.1 125.202 136.83C125.382 136.559 125.563 136.379 125.743 136.108L129.258 138.091Z" fill="black"/>
<path opacity="0.4" d="M144.401 122.227L129.258 138.001L125.923 136.018L141.066 120.244L144.401 122.227Z" fill="white"/>
<path d="M222.371 116.458C224.174 119.523 225.436 121.686 225.436 121.686C225.436 121.686 245.356 111.14 246.528 109.698C247.61 108.346 247.61 105.462 247.79 104.019C248.06 101.496 247.159 99.3322 246.979 98.4309C246.708 96.538 249.503 96.8985 250.404 97.7098C251.035 98.2506 251.395 99.0618 251.846 99.7829C252.297 100.504 253.108 102.848 253.919 103.028C254.55 103.118 255.902 102.217 256.353 101.856C258.516 100.234 259.868 97.89 261.581 95.8169C261.942 95.3662 262.302 94.9155 262.753 94.7352C263.564 94.4648 264.465 94.9155 265.187 95.3662C265.908 95.8169 266.539 96.2675 266.989 96.9887C267.26 97.4393 267.44 98.0703 267.62 98.6111C268.522 102.397 266.539 105.642 264.285 108.526C262.032 111.411 259.147 113.754 256.083 115.737C254.28 116.909 251.846 117.991 249.773 119.072C247.7 120.154 225.255 138.993 222.101 136.83C220.839 135.928 215.611 131.512 212.095 126.734" fill="#FFA8A7"/>
<path d="M369.566 83.8286C376.777 83.8286 380.563 85.9919 383.538 92.6621C386.422 99.0619 395.256 117.54 394.895 122.047C394.445 126.554 376.146 145.573 376.146 145.573L370.918 139.264L382.276 120.244L371.189 104.2L369.566 83.8286Z" fill="#FFA8A7"/>
<path d="M352.079 280.059C352.079 280.059 352.891 282.493 353.341 284.656C353.702 286.369 354.153 289.253 353.612 290.515C352.981 291.777 350.637 292.678 347.032 292.588C344.688 292.588 340.992 294.211 338.469 295.563C335.855 297.005 330.536 297.546 327.742 297.275C324.497 296.915 321.162 295.022 320.621 293.67C320.08 292.318 319.63 290.515 328.373 287.721C328.463 287.721 338.919 284.296 342.615 280.239L352.079 280.059Z" fill="#263238"/>
<path d="M352.08 280.239L350.367 280.059L342.705 280.239C339.01 284.296 328.554 287.721 328.463 287.721C327.923 287.901 327.472 287.991 327.021 288.172C325.489 289.433 326.751 291.507 330.356 291.777C333.962 292.138 345.229 288.352 347.663 287.09C350.187 286.008 352.08 283.574 352.08 280.239Z" fill="#FFA8A7"/>
<path d="M352.079 276.995C352.079 276.995 352.079 279.068 352.079 280.33C352.079 281.502 350.637 283.304 347.032 283.214C344.418 283.124 342.615 282.403 342.795 280.33V277.265L352.079 276.995Z" fill="#FFA8A7"/>
<path d="M376.687 266.178C377.318 266.448 377.498 267.71 377.498 270.234C377.498 272.127 377.859 275.462 375.605 276.093C373.352 276.724 370.107 276.274 368.665 274.471C366.952 272.127 365.78 270.144 363.256 267.35C361.093 264.916 358.75 262.573 357.938 259.237C357.217 256.173 357.938 254.911 360.012 254.1C361.995 253.288 363.978 253.919 366.862 256.353C367.854 256.984 368.755 257.525 369.386 257.705C371.369 258.336 376.056 265.908 376.687 266.178Z" fill="#263238"/>
<path d="M376.777 263.834L376.687 266.899C376.687 266.899 374.614 270.955 368.845 266.899C368.755 266.629 368.214 260.589 368.214 260.589L376.777 263.834Z" fill="#FFA8A7"/>
<path d="M369.476 257.705C368.755 257.525 367.944 256.984 366.952 256.353C364.608 255.632 359.741 256.443 361.904 259.868C364.248 263.474 366.772 265.367 368.845 266.989C371.459 268.251 372.36 266.719 372.36 266.719L371.459 259.417C370.648 258.516 370.017 257.885 369.476 257.705Z" fill="#FFA8A7"/>
<path d="M381.014 220.929C379.842 210.743 377.679 204.884 377.679 204.884C377.679 204.884 379.662 191.183 381.194 178.023C384.8 147.105 382.366 146.655 378.039 135.928C378.039 135.928 338.469 130.79 336.756 147.286C334.683 167.837 335.584 207.588 335.945 214.799C336.305 222.1 336.846 225.345 339.01 240.579C340.632 252.206 342.255 277.535 342.255 277.535C347.483 280.51 352.44 276.994 352.44 276.994C352.44 276.994 357.398 245.807 357.308 237.424C357.127 227.148 354.603 219.036 354.603 219.036C354.603 219.036 357.939 185.594 358.84 180.276C358.84 180.276 359.831 190.913 360.102 198.214C360.462 205.515 362.445 212.456 364.158 225.976C365.69 237.694 368.124 262.212 368.124 262.212C373.352 265.186 376.958 263.834 376.958 263.834C376.958 263.834 382.186 231.114 381.014 220.929Z" fill="#0980AD"/>
<path d="M352.801 77.1584L354.243 92.572L367.764 91.7608L366.682 74.6345L352.801 77.1584Z" fill="#FFA8A7"/>
<path d="M379.932 90.4086C378.58 86.3524 375.786 83.9187 369.566 83.9187L367.313 84.0088C366.862 86.2623 360.192 88.1552 353.612 85.8116C352.711 86.082 350.097 86.5327 348.745 86.713L345.59 87.1637C340.812 88.696 338.649 97.0789 338.198 110.239C337.748 123.399 335.765 151.612 335.765 151.612C335.765 151.612 346.04 157.111 362.355 155.038C376.868 153.145 382.546 144.491 382.096 145.573C382.096 145.573 379.842 135.117 374.614 124.391C382.186 105.552 381.915 96.4479 379.932 90.4086Z" fill="#37474F"/>
<path d="M348.654 86.6228C342.345 87.434 336.846 88.5157 334.503 94.8254C330.266 106.273 324.407 113.845 320.711 117.811C316.745 122.047 300.521 130.16 296.915 129.529C293.309 128.898 289.974 123.76 288.081 124.841C286.189 125.923 290.335 129.619 290.064 130.52C289.884 131.421 283.214 129.529 280.149 127.275C276.994 125.112 275.192 131.421 279.248 136.109C283.304 140.886 290.876 141.247 299.168 139.534C307.461 137.911 322.514 132.954 328.553 127.365C336.395 120.064 337.838 116.008 341.263 109.698C352.079 101.405 348.654 86.6228 348.654 86.6228Z" fill="#FFA8A7"/>
<path d="M345.68 58.0491C345.68 58.0491 340.542 51.9197 344.598 46.0607C349.285 39.0299 357.668 36.6863 367.944 39.751C372.992 41.2834 380.473 48.3141 380.924 58.1392C381.194 65.7108 359.922 70.7585 360.282 75.9865L345.68 58.0491Z" fill="#263238"/>
<path d="M342.795 60.3025C342.795 60.3025 339.821 64.8094 340.181 65.3502C340.542 65.8009 342.435 66.3417 342.435 66.3417L342.795 60.3025Z" fill="#F28F8F"/>
<path d="M351.899 45.9704C349.015 47.5028 343.967 50.2971 342.705 60.9334C341.353 71.9302 343.787 75.8061 345.319 77.2483C346.311 78.2399 351.539 78.6004 354.243 77.699C357.668 76.6174 365.059 73.0118 368.485 67.3332C372.541 60.6629 373.442 51.7393 368.665 48.2239C362.085 43.3564 354.333 44.7085 351.899 45.9704Z" fill="#FFA8A7"/>
<path d="M351.088 46.4212C351.088 46.4212 348.564 56.4265 351.629 62.8263C351.629 62.8263 353.432 58.9504 356.767 60.0321C360.192 61.2038 359.831 65.7108 357.217 67.9642C354.513 70.3078 351.989 69.0459 351.989 69.0459C351.989 69.0459 352.079 74.6344 356.857 76.7977C356.857 76.7977 366.772 81.5751 375.786 71.9303C383.898 63.1869 382.907 47.593 370.918 43.6269C358.66 39.751 351.088 46.4212 351.088 46.4212Z" fill="#263238"/>
<path d="M391.38 88.7861C383.448 88.7861 377.048 82.3863 377.048 74.4541V55.9758C384.98 55.9758 391.38 62.3756 391.38 70.3078V88.7861Z" fill="#263238"/>
<path d="M343.336 41.9143C338.829 46.4212 338.649 59.5814 351.538 62.8264L360.011 39.5707C355.054 36.3258 347.302 37.8581 343.336 41.9143Z" fill="#263238"/>
<path d="M350.277 66.4319C348.925 65.9812 348.294 64.4488 348.744 63.1869C349.195 61.8348 350.727 61.2038 351.989 61.6545L350.277 66.4319Z" fill="#263238"/>
<path opacity="0.1" d="M358.84 180.276L361.003 166.485C361.003 166.485 366.862 166.035 373.262 162.249C373.262 162.249 370.558 166.305 363.437 168.018L361.274 183.972L360.372 200.738L358.84 180.276Z" fill="black"/>
</g>
<defs>
<clipPath id="clip0">
<rect width="421" height="370" fill="white"/>
</clipPath>
</defs>
</svg>
