<svg width="56" height="56" viewBox="0 0 56 56" fill="none" xmlns="http://www.w3.org/2000/svg">
<g clip-path="url(#clip0)">
<path d="M45.3662 41.1719V19.8662L11.1699 21.3326V42.6383C11.1698 43.1266 11.4114 43.6147 11.8946 43.8937L25.4412 51.7148C26.4047 52.2711 27.5916 52.2711 28.5551 51.7148L44.6415 42.4273C45.1247 42.1484 45.3663 41.6602 45.3662 41.1719Z" fill="url(#paint0_linear)"/>
<path d="M55.1605 25.0155L47.1045 20.3643C46.8387 20.2108 46.8378 19.8276 47.1027 19.6727L55.2754 14.8954C56.224 14.3478 56.2454 12.9862 55.3145 12.4089L42.2955 4.3355C41.3203 3.73077 40.0915 3.71141 39.0977 4.28519L30.8926 9.08019C30.1459 9.51659 29.2226 9.519 28.4736 9.08653L20.2718 4.35125C19.1206 3.68658 17.6971 3.709 16.5673 4.40955L1.48605 13.7619C0.407723 14.4306 0.432551 16.0079 1.53144 16.6424L9.06694 20.993C9.33327 21.1467 9.3336 21.5309 9.06771 21.6852L0.724582 26.5262C-0.241527 27.084 -0.241527 28.4784 0.724582 29.0362L14.2717 36.8576C15.235 37.4138 16.422 37.4138 17.3854 36.8576L25.2856 32.2737C26.0313 31.841 26.9515 31.84 27.6982 32.2711L35.8607 36.9836C36.9766 37.6279 38.3516 37.6279 39.4676 36.9836L55.1608 27.9232C56.2797 27.2769 56.2797 25.6615 55.1605 25.0155Z" fill="#40454A"/>
<path d="M11.8946 20.0774L27.981 10.7899C28.9445 10.2337 30.1314 10.2337 31.0949 10.7899L44.6415 18.611C45.6078 19.1689 45.6078 20.5636 44.6415 21.1215L28.555 30.409C27.5915 30.9652 26.4046 30.9652 25.4411 30.409L11.8946 22.5879C10.9284 22.03 10.9284 20.6353 11.8946 20.0774Z" fill="url(#paint1_linear)"/>
<path d="M11.8946 20.0774L27.981 10.7899C28.9445 10.2337 30.1314 10.2337 31.0949 10.7899L44.6415 18.611C45.6078 19.1689 45.6078 20.5636 44.6415 21.1215L28.555 30.409C27.5915 30.9652 26.4046 30.9652 25.4411 30.409L11.8946 22.5879C10.9284 22.03 10.9284 20.6353 11.8946 20.0774Z" fill="url(#paint2_linear)"/>
<path d="M44.2218 38.6753L42.7023 36.3959L41.1826 40.4299L41.9828 39.9679V41.3344L43.4216 40.5037V39.1372L44.2218 38.6753Z" fill="#40454A"/>
<path d="M44.2218 40.3848L41.1826 42.1395V42.8787L44.2218 41.124V40.3848Z" fill="#40454A"/>
</g>
<defs>
<linearGradient id="paint0_linear" x1="24.2649" y1="35.9991" x2="28.9625" y2="35.9991" gradientUnits="userSpaceOnUse">
<stop stop-color="#ECAB00"/>
<stop offset="1" stop-color="#FAC02B"/>
</linearGradient>
<linearGradient id="paint1_linear" x1="33.1176" y1="20.5995" x2="17.2806" y2="20.5995" gradientUnits="userSpaceOnUse">
<stop stop-color="#CC8241"/>
<stop offset="1" stop-color="#DEA861"/>
</linearGradient>
<linearGradient id="paint2_linear" x1="30.4497" y1="20.3" x2="26.2497" y2="20.3" gradientUnits="userSpaceOnUse">
<stop stop-color="#F9BB1A"/>
<stop offset="0.973958" stop-color="#FFD056"/>
<stop offset="1" stop-color="#FFD157"/>
</linearGradient>
<clipPath id="clip0">
<rect width="56" height="56" fill="white"/>
</clipPath>
</defs>
</svg>
