<svg width="56" height="56" viewBox="0 0 56 56" fill="none" xmlns="http://www.w3.org/2000/svg">
<g clip-path="url(#clip0)">
<path d="M39.6021 3.58603L39.6026 3.58483L34.0214 0.362535C33.5537 -0.0267308 32.8661 -0.139387 32.265 0.20766L11.3618 12.2761C10.1064 13.0009 9.33301 14.3404 9.33301 15.7901V51.061C9.33301 51.6303 9.63051 52.0949 10.052 52.3604L10.0513 52.3621L10.0774 52.3772C10.0947 52.3876 10.112 52.3976 10.1296 52.4074L15.7194 55.6346C16.1872 56.0256 16.8758 56.1391 17.4781 55.7915L38.3813 43.723C39.6367 42.9982 40.4101 41.6587 40.4101 40.2091V4.93813C40.4101 4.32935 40.0706 3.83978 39.6021 3.58603Z" fill="url(#paint0_linear)"/>
<path d="M17.1977 15.6737L38.1009 3.60521C39.1271 3.01284 40.4096 3.75331 40.4096 4.93817V40.2091C40.4096 41.6588 39.6362 42.9983 38.3808 43.7231L17.4776 55.7915C16.4516 56.3839 15.1689 55.6434 15.1689 54.4586V19.1877C15.1691 17.738 15.9423 16.3985 17.1977 15.6737Z" fill="#FFCE4E"/>
<path d="M17.625 19.7922L38.2124 7.90601V14.3071L17.625 26.1932V19.7922Z" fill="#40454A"/>
<path d="M24.2598 26.6683L24.2599 26.6681L23.1697 26.0405L23.1696 26.0406C22.7392 25.8126 22.1864 25.8451 21.5833 26.1933C20.2111 26.9855 19.0986 29.1111 19.0986 30.9408C19.0986 31.9467 19.4353 32.6528 19.9661 32.9539L19.9658 32.9547L20.9618 33.5298L20.9628 33.5277C21.4006 33.7894 21.9751 33.7705 22.6045 33.4071C23.9768 32.6147 25.0892 30.4893 25.0892 28.6596C25.0894 27.6778 24.7689 26.9812 24.2598 26.6683Z" fill="#D59C08"/>
<path d="M25.0895 28.6597C25.0895 26.83 23.977 25.9891 22.6048 26.7813C21.2326 27.5736 20.1201 29.6991 20.1201 31.5287C20.1201 33.3585 21.2326 34.1995 22.6048 33.4071C23.977 32.6149 25.0895 30.4895 25.0895 28.6597Z" fill="#FABC1B"/>
<path d="M30.5001 23.0574L30.5002 23.0572L29.4099 22.4296L29.4098 22.4298C28.9794 22.2018 28.4266 22.2342 27.8235 22.5825C26.4513 23.3748 25.3389 25.5003 25.3389 27.3299C25.3389 28.3358 25.6755 29.042 26.2063 29.3431L26.206 29.3438L27.2021 29.9189L27.2031 29.9167C27.6409 30.1785 28.2153 30.1596 28.8448 29.7961C30.217 29.0038 31.3294 26.8783 31.3294 25.0486C31.3297 24.0667 31.009 23.3702 30.5001 23.0574Z" fill="#D59C08"/>
<path d="M31.3297 25.0487C31.3297 23.2189 30.2172 22.3779 28.845 23.1703C27.4728 23.9626 26.3604 26.0881 26.3604 27.9177C26.3604 29.7473 27.4728 30.5883 28.845 29.7961C30.2172 29.0039 31.3297 26.8784 31.3297 25.0487Z" fill="#FABC1B"/>
<path d="M36.7393 19.4542L36.7394 19.454L35.6492 18.8264L35.6491 18.8265C35.2187 18.5985 34.6659 18.631 34.0628 18.9792C32.6906 19.7715 31.5781 21.897 31.5781 23.7267C31.5781 24.7327 31.9148 25.4388 32.4456 25.7399L32.4453 25.7407L33.4413 26.3158L33.4423 26.3137C33.8801 26.5754 34.4546 26.5565 35.084 26.193C36.4563 25.4007 37.5687 23.2752 37.5687 21.4455C37.5688 20.4637 37.2482 19.767 36.7393 19.4542Z" fill="#D59C08"/>
<path d="M37.569 21.4456C37.569 19.616 36.4565 18.775 35.0843 19.5672C33.7121 20.3595 32.5996 22.485 32.5996 24.3146C32.5996 26.1442 33.7121 26.9852 35.0843 26.193C36.4565 25.4008 37.569 23.2752 37.569 21.4456Z" fill="#FABC1B"/>
<path d="M24.2598 35.1827L24.2599 35.1825L23.1697 34.5549L23.1696 34.555C22.7392 34.327 22.1864 34.3595 21.5833 34.7077C20.2111 35.4999 19.0986 37.6255 19.0986 39.4552C19.0986 40.4611 19.4353 41.1672 19.9661 41.4683L19.9658 41.4691L20.9618 42.0442L20.9628 42.042C21.4006 42.3037 21.9751 42.2848 22.6045 41.9214C23.9768 41.129 25.0892 39.0036 25.0892 37.1739C25.0894 36.1921 24.7689 35.4955 24.2598 35.1827Z" fill="#D59C08"/>
<path d="M25.0895 37.1739C25.0895 35.3442 23.977 34.5032 22.6048 35.2955C21.2326 36.0878 20.1201 38.2133 20.1201 40.0429C20.1201 41.8725 21.2326 42.7135 22.6048 41.9213C23.977 41.1291 25.0895 39.0036 25.0895 37.1739Z" fill="#FABC1B"/>
<path d="M30.5001 31.5718L30.5002 31.5716L29.4099 30.944L29.4098 30.9442C28.9794 30.7162 28.4266 30.7486 27.8235 31.0969C26.4513 31.8892 25.3389 34.0147 25.3389 35.8443C25.3389 36.8502 25.6755 37.5564 26.2063 37.8575L26.206 37.8582L27.2021 38.4333L27.2031 38.4312C27.6409 38.6929 28.2153 38.674 28.8448 38.3105C30.217 37.5182 31.3294 35.3927 31.3294 33.5631C31.3297 32.5812 31.009 31.8846 30.5001 31.5718Z" fill="#D59C08"/>
<path d="M31.3297 33.5631C31.3297 31.7333 30.2172 30.8924 28.845 31.6847C27.4728 32.477 26.3604 34.6025 26.3604 36.4321C26.3604 38.2617 27.4728 39.1028 28.845 38.3105C30.2172 37.5182 31.3297 35.3927 31.3297 33.5631Z" fill="#FABC1B"/>
<path d="M36.7393 27.9684L36.7394 27.9682L35.6492 27.3406L35.6491 27.3407C35.2187 27.1126 34.6659 27.1451 34.0628 27.4934C32.6906 28.2857 31.5781 30.4112 31.5781 32.2409C31.5781 33.2468 31.9148 33.953 32.4456 34.2541L32.4453 34.2548L33.4413 34.8299L33.4423 34.8279C33.8801 35.0896 34.4546 35.0707 35.084 34.7072C36.4563 33.9149 37.5687 31.7894 37.5687 29.9597C37.5688 28.9778 37.2482 28.2812 36.7393 27.9684Z" fill="#D59C08"/>
<path d="M37.569 29.9597C37.569 28.1301 36.4565 27.2891 35.0843 28.0813C33.7121 28.8736 32.5996 30.9991 32.5996 32.8287C32.5996 34.6585 33.7121 35.4995 35.0843 34.7071C36.4565 33.9149 37.569 31.7895 37.569 29.9597Z" fill="#FABC1B"/>
<path d="M24.2598 43.6972L24.2599 43.6969L23.1697 43.0693L23.1696 43.0694C22.7392 42.8414 22.1864 42.8739 21.5833 43.2221C20.2111 44.0143 19.0986 46.1399 19.0986 47.9696C19.0986 48.9755 19.4353 49.6816 19.9661 49.9827L19.9658 49.9835L20.9618 50.5586L20.9628 50.5564C21.4006 50.8181 21.9751 50.7992 22.6045 50.4358C23.9768 49.6434 25.0892 47.518 25.0892 45.6883C25.0894 44.7066 24.7689 44.01 24.2598 43.6972Z" fill="#D59C08"/>
<path d="M25.0895 45.6883C25.0895 43.8587 23.977 43.0176 22.6048 43.8099C21.2326 44.6022 20.1201 46.7277 20.1201 48.5573C20.1201 50.3871 21.2326 51.2281 22.6048 50.4357C23.977 49.6434 25.0895 47.5179 25.0895 45.6883Z" fill="#FABC1B"/>
<path d="M30.5001 40.086L30.5002 40.0857L29.4099 39.4581L29.4098 39.4584C28.9794 39.2303 28.4266 39.2628 27.8235 39.611C26.4513 40.4034 25.3389 42.5288 25.3389 44.3585C25.3389 45.3644 25.6755 46.0705 26.2063 46.3716L26.206 46.3724L27.2021 46.9475L27.2031 46.9453C27.6409 47.207 28.2153 47.1881 28.8448 46.8246C30.217 46.0323 31.3294 43.9069 31.3294 42.0772C31.3297 41.0954 31.009 40.3988 30.5001 40.086Z" fill="#D59C08"/>
<path d="M31.3297 42.0772C31.3297 40.2475 30.2172 39.4066 28.845 40.1988C27.4728 40.9911 26.3604 43.1166 26.3604 44.9462C26.3604 46.7759 27.4728 47.6169 28.845 46.8246C30.2172 46.0324 31.3297 43.9068 31.3297 42.0772Z" fill="#FABC1B"/>
<path d="M36.7393 36.4828L36.7394 36.4826L35.6492 35.855L35.6491 35.8551C35.2187 35.627 34.6659 35.6595 34.0628 36.0078C32.6906 36.8001 31.5781 38.9256 31.5781 40.7552C31.5781 41.7611 31.9148 42.4673 32.4456 42.7684L32.4453 42.7691L33.4413 43.3442L33.4423 43.3421C33.8801 43.6039 34.4546 43.585 35.084 43.2215C36.4563 42.4292 37.5687 40.3037 37.5687 38.4741C37.5688 37.4922 37.2482 36.7956 36.7393 36.4828Z" fill="#D59C08"/>
<path d="M37.569 38.474C37.569 36.6442 36.4565 35.8032 35.0843 36.5956C33.7121 37.3879 32.5996 39.5134 32.5996 41.343C32.5996 43.1726 33.7121 44.0136 35.0843 43.2214C36.4565 42.4292 37.569 40.3037 37.569 38.474Z" fill="#A9BCDC"/>
<path d="M46.5043 28.724L46.5046 28.7233L43.3606 26.9038L43.3604 26.9044C42.1193 26.2433 40.5251 26.3374 38.7857 27.3469C34.8283 29.6436 31.6201 35.805 31.6201 41.1089C31.6201 44.0249 32.5911 46.0719 34.1219 46.9447L34.1208 46.9471L36.9935 48.6142L36.9965 48.608C38.2592 49.3666 39.9157 49.3119 41.7311 48.2583C45.6886 45.9617 48.8967 39.8002 48.8967 34.4963C48.8966 31.65 47.972 29.6307 46.5043 28.724Z" fill="#D49C08"/>
<path d="M47.543 40.9715C49.936 35.3553 49.3002 29.705 46.1229 28.3512C42.9456 26.9974 38.43 30.4527 36.037 36.069C33.644 41.6852 34.2798 47.3355 37.4571 48.6893C40.6344 50.0431 45.15 46.5878 47.543 40.9715Z" fill="#FABC1B"/>
</g>
<defs>
<linearGradient id="paint0_linear" x1="8.29711" y1="17.7331" x2="45.2632" y2="27.6595" gradientUnits="userSpaceOnUse">
<stop stop-color="#FBBD1C"/>
<stop offset="1" stop-color="#F5B714"/>
</linearGradient>
<clipPath id="clip0">
<rect width="56" height="56" fill="white"/>
</clipPath>
</defs>
</svg>
