<svg width="56" height="56" viewBox="0 0 56 56" fill="none" xmlns="http://www.w3.org/2000/svg">
<g clip-path="url(#clip0)">
<path d="M54.7101 19.8577C54.2802 19.0552 53.08 18.3775 52.0294 18.3442C51.4507 18.3258 51.0393 18.5074 50.8572 18.8076L50.8558 18.8068L49.8383 20.4465L49.8409 20.4478C49.6744 20.6957 49.6697 21.0299 49.8702 21.4044C50.3 22.2069 51.5002 22.8844 52.5509 22.9179C53.1581 22.9373 53.5809 22.7363 53.7479 22.409L54.7123 20.855L54.7118 20.8547C54.9062 20.6033 54.9216 20.2524 54.7101 19.8577Z" fill="#FABC1B"/>
<path d="M44.7366 38.2344V16.2524L9.45508 17.7654V39.7473C9.45497 40.251 9.70423 40.7546 10.2028 41.0425L24.1792 49.1119C25.1732 49.6858 26.3979 49.6858 27.3919 49.1119L43.9889 39.5296C44.4874 39.2418 44.7366 38.7381 44.7366 38.2344Z" fill="url(#paint0_linear)"/>
<path d="M10.2028 16.4704L26.7998 6.88818C27.7938 6.31429 29.0185 6.31429 30.0125 6.88818L43.989 14.9575C44.9859 15.5332 44.9859 16.9721 43.989 17.5477L27.392 27.1299C26.398 27.7038 25.1733 27.7038 24.1793 27.1299L10.2028 19.0605C9.20584 18.4849 9.20584 17.0459 10.2028 16.4704Z" fill="#FDD364"/>
<path d="M15.584 13.3634L33.4099 23.6552L38.1385 20.9252L20.3126 10.6333L15.584 13.3634Z" fill="#FABC1B"/>
<path d="M18.4107 11.7302L36.2366 22.0221L35.3103 22.5568L17.4844 12.2651L18.4107 11.7302Z" fill="#40454A"/>
<path d="M33.4102 23.6552V27.5602L38.1388 24.8302V20.9252L33.4102 23.6552Z" fill="#40454A"/>
<path d="M1.08544 16.8792L11.9267 23.1384C12.4807 23.4582 12.8219 24.0492 12.8219 24.6889C12.8219 25.2459 12.2188 25.5941 11.7365 25.3156L0.895234 19.0564C0.34125 18.7366 0 18.1455 0 17.5059C0 16.9488 0.602984 16.6006 1.08544 16.8792Z" fill="#40454A"/>
<path d="M5.04844 23.7818L15.8896 30.041C16.4436 30.3608 16.7848 30.9518 16.7848 31.5915C16.7848 32.1485 16.1818 32.4967 15.6994 32.2182L4.85813 25.959C4.30414 25.6392 3.96289 25.0481 3.96289 24.4085C3.963 23.8513 4.56598 23.5032 5.04844 23.7818Z" fill="#40454A"/>
<path d="M53.1994 21.7422L53.1998 21.7413L49.519 19.6223L49.5188 19.6229C48.0659 18.853 46.1994 18.9627 44.1631 20.1382C39.5301 22.8131 35.7744 29.9892 35.7744 36.1666C35.7744 39.5628 36.9111 41.9469 38.7033 42.9635L38.7019 42.9662L42.065 44.9079L42.0685 44.9006C43.5467 45.7843 45.486 45.7205 47.6113 44.4934C52.2443 41.8186 56.0001 34.6425 56.0001 28.4651C56.0001 25.1501 54.9177 22.7983 53.1994 21.7422Z" fill="#40454A"/>
<path d="M54.3301 36.1868C57.1183 29.6433 56.3775 23.0601 52.6755 21.4827C48.9736 19.9054 43.7124 23.9313 40.9243 30.4748C38.1362 37.0183 38.877 43.6016 42.5789 45.1789C46.2808 46.7563 51.542 42.7304 54.3301 36.1868Z" fill="#FABC1B"/>
<path d="M52.4662 35.3924C54.4787 30.6692 53.944 25.9172 51.2718 24.7787C48.5997 23.6401 44.802 26.5461 42.7895 31.2693C40.777 35.9926 41.3117 40.7445 43.9839 41.8831C46.656 43.0217 50.4537 40.1157 52.4662 35.3924Z" fill="#FFF5D9"/>
<path d="M52.7867 26.1274C51.724 24.4142 49.8039 23.9691 47.6113 25.2349V33.3085L52.7867 26.1274Z" fill="#FFCE4E"/>
<path d="M48.7836 32.6314C48.7836 31.768 48.2586 31.3711 47.611 31.7449C46.9634 32.1188 46.4385 33.1218 46.4385 33.9854C46.4385 34.8489 46.9635 35.2457 47.611 34.8717C48.2586 34.4979 48.7836 33.4949 48.7836 32.6314Z" fill="#40454A"/>
<path d="M47.1543 34.7157V27.3082C47.1543 27.0558 47.3588 26.8513 47.6112 26.8513C47.8635 26.8513 48.068 27.0558 48.068 27.3082V31.9012L50.5407 28.4937C50.6889 28.2897 50.9743 28.2438 51.1787 28.3923C51.3829 28.5404 51.4282 28.8261 51.2801 29.0303L47.1543 34.7157Z" fill="#40454A"/>
<path d="M47.8843 20.0094V18.3427L44.665 18.5594V20.3006L44.6672 20.3004C44.6594 20.5209 44.7866 20.7325 45.0583 20.8894C45.6409 21.2258 46.6584 21.1836 47.3311 20.7953C47.7199 20.5708 47.907 20.28 47.8843 20.0094Z" fill="#FABC1B"/>
<path d="M48.779 17.3166V15.2136L43.7695 15.551V17.7698L43.7729 17.7695C43.7606 18.1126 43.9586 18.442 44.3815 18.6862C45.288 19.2095 46.8714 19.1439 47.9181 18.5396C48.5231 18.1903 48.8142 17.7376 48.779 17.3166Z" fill="#D49C08"/>
<path d="M46.4653 16.7551C47.8472 16.5867 48.8902 15.8164 48.7949 15.0346C48.6997 14.2528 47.5022 13.7555 46.1203 13.9239C44.7384 14.0923 43.6954 14.8626 43.7907 15.6444C43.8859 16.4262 45.0834 16.9235 46.4653 16.7551Z" fill="#FABC1B"/>
<path d="M41.747 23.782L40.2581 22.7198L37.9668 26.4371L39.5378 27.5577L39.5393 27.5552C39.776 27.7372 40.1092 27.7635 40.4958 27.5874C41.3242 27.2099 42.0774 26.0557 42.1782 25.0093C42.2364 24.4044 42.0629 23.9697 41.747 23.782Z" fill="#FABC1B"/>
<path d="M40.1601 25.1604C40.7386 24.0978 40.7202 22.971 40.1191 22.6437C39.5179 22.3164 38.5616 22.9126 37.9831 23.9752C37.4045 25.0378 37.4229 26.1646 38.0241 26.4919C38.6252 26.8192 39.5816 26.2231 40.1601 25.1604Z" fill="#D49C08"/>
</g>
<defs>
<linearGradient id="paint0_linear" x1="22.9656" y1="32.8974" x2="27.8122" y2="32.8974" gradientUnits="userSpaceOnUse">
<stop stop-color="#ECAB00"/>
<stop offset="1" stop-color="#FAC02B"/>
</linearGradient>
<clipPath id="clip0">
<rect width="56" height="56" fill="white"/>
</clipPath>
</defs>
</svg>
