<svg width="56" height="56" viewBox="0 0 56 56" fill="none" xmlns="http://www.w3.org/2000/svg">
<g clip-path="url(#clip0)">
<path d="M15.3857 41.1707L18.2367 39.5314L18.2368 39.5317C18.7566 39.2563 19.4243 39.2954 20.1527 39.7161C21.8101 40.673 23.1537 43.2401 23.1537 45.45C23.1537 46.6649 22.747 47.5177 22.106 47.8815L22.1064 47.8825L19.3691 49.4582L15.3857 41.1707Z" fill="#40454A"/>
<path d="M5.19238 35.2954L8.04335 33.6562L8.04346 33.6564C8.56321 33.381 9.23095 33.4203 9.95938 33.8409C11.6167 34.7978 12.9603 37.3649 12.9603 39.5747C12.9603 40.7897 12.5536 41.6425 11.9126 42.0063L11.913 42.0072L9.17571 43.583L5.19238 35.2954Z" fill="#40454A"/>
<path d="M38.3662 37.3008V23.2152L32.1139 25.0178L3.31055 21.6942V35.7799C3.31055 36.2116 3.52416 36.6433 3.95138 36.89L20.7463 46.624C21.5983 47.1158 22.6479 47.1158 23.5 46.624L37.7253 38.411C38.1526 38.1643 38.3662 37.7325 38.3662 37.3008Z" fill="#FABC1B"/>
<path d="M37.7253 34.6985L23.5 42.9116C22.648 43.4034 21.5984 43.4034 20.7463 42.9116L3.95137 33.1776C3.52405 32.931 3.31044 32.4993 3.31055 32.0676V35.78C3.31055 36.2117 3.52416 36.6434 3.95137 36.89L20.7463 46.624C21.5983 47.1159 22.6479 47.1159 23.5 46.624L37.7253 38.4109C38.1526 38.1642 38.3662 37.7325 38.3661 37.3007V33.5883C38.3662 34.0201 38.1526 34.4518 37.7253 34.6985Z" fill="#40454A"/>
<path d="M37.7253 22.1053L37.0858 21.736L32.1797 24.571L30.729 23.7334L29.6406 17.4376L20.9303 12.3713C20.0784 11.8795 19.0287 11.8795 18.1767 12.3713L3.95137 20.5843C3.09694 21.0776 3.09694 22.311 3.95137 22.8043L20.7463 32.5382C21.5983 33.0301 22.6479 33.0301 23.5 32.5382L37.7253 24.3251C38.5798 23.8319 38.5798 22.5986 37.7253 22.1053Z" fill="url(#paint0_linear)"/>
<path d="M4.19141 37.7008C4.19141 35.491 5.53497 34.4752 7.19233 35.4322C8.84969 36.3891 10.1932 38.9562 10.1932 41.166C10.1932 43.3759 8.84969 44.3916 7.19233 43.4347C5.53497 42.4779 4.19141 39.9107 4.19141 37.7008Z" fill="#FABC1B"/>
<path d="M8.33357 42.0629C9.15811 41.7116 9.32313 40.2453 8.70214 38.7879C8.08115 37.3305 6.90932 36.4338 6.08477 36.7851C5.26022 37.1365 5.09521 38.6027 5.71619 40.0602C6.33718 41.5176 7.50902 42.4143 8.33357 42.0629Z" fill="#E9E5F6"/>
<path d="M6.24023 38.8838C6.24023 38.1828 6.66636 37.8607 7.19213 38.1642C7.71778 38.4677 8.14401 39.282 8.14401 39.983C8.14401 40.684 7.71789 41.0061 7.19213 40.7026C6.66636 40.3991 6.24023 39.5848 6.24023 38.8838Z" fill="#40454A"/>
<path d="M14.3838 43.576C14.3838 41.3662 15.7274 40.3504 17.3847 41.3073C19.0421 42.2643 20.3856 44.8314 20.3856 47.0412C20.3856 49.251 19.0421 50.2668 17.3847 49.3099C15.7274 48.3529 14.3838 45.7858 14.3838 43.576Z" fill="#FABC1B"/>
<path d="M15.5166 44.2298C15.5166 42.854 16.3531 42.2216 17.3851 42.8174C18.417 43.4131 19.2535 45.0114 19.2535 46.3874C19.2535 47.7633 18.417 48.3956 17.3851 47.7998C16.3531 47.2041 15.5166 45.6058 15.5166 44.2298Z" fill="#E9E5F6"/>
<path d="M16.4326 44.759C16.4326 44.058 16.8587 43.7359 17.3845 44.0394C17.9103 44.3429 18.3364 45.1572 18.3364 45.8582C18.3364 46.5592 17.9103 46.8813 17.3845 46.5778C16.8587 46.2743 16.4326 45.46 16.4326 44.759Z" fill="#40454A"/>
<path d="M29.6374 17.4356L20.9303 12.3712C20.0784 11.8794 19.0287 11.8794 18.1767 12.3712L3.95138 20.5843C3.09694 21.0776 3.09694 22.311 3.95138 22.8043L12.1204 27.558L29.6374 17.4356Z" fill="#FDD364"/>
<path d="M30.7295 23.7334L13.21 33.8574L19.5694 37.529V31.8584L20.7469 32.5383C21.5988 33.0302 22.6485 33.0302 23.5005 32.5383L34.7402 26.0491L30.7295 23.7334Z" fill="#FDD364"/>
<path d="M13.2091 33.8573L30.7286 23.7334L29.6397 17.4341L12.1201 27.558L13.2091 33.8573Z" fill="#DEAD2C"/>
<path d="M37.7248 22.1053L37.0853 21.736L19.5684 31.8584L20.7459 32.5382C21.5978 33.0301 22.6475 33.0301 23.4995 32.5382L37.7248 24.3251C38.5794 23.8319 38.5794 22.5986 37.7248 22.1053Z" fill="#FDD364"/>
<path d="M22.055 33.1276C21.4191 33.1276 20.8566 32.6705 20.7449 32.0225L17.6757 14.224L12.8567 11.4417L11.8318 24.3588C11.7736 25.0916 11.1315 25.6386 10.3997 25.5804C9.66685 25.5223 9.11998 24.8811 9.17806 24.1483L10.3697 9.12966C10.4058 8.67433 10.6729 8.26931 11.0772 8.0568C11.4815 7.84428 11.9665 7.85391 12.3622 8.08217L19.5471 12.2303C19.8894 12.428 20.1262 12.7675 20.1933 13.157L23.3685 31.5701C23.4934 32.2945 23.0074 32.983 22.2829 33.108C22.2063 33.1213 22.1301 33.1276 22.055 33.1276Z" fill="#FABC1B"/>
<path d="M35.7669 25.2239C35.131 25.2239 34.5685 24.7668 34.4568 24.1188L31.3876 6.32027L26.5686 3.53798L25.5437 16.4552C25.4857 17.188 24.8435 17.7353 24.1116 17.6768C23.3788 17.6186 22.8319 16.9774 22.89 16.2446L24.0816 1.22591C24.1177 0.770577 24.3848 0.365562 24.7892 0.153046C25.1934 -0.0593604 25.6785 -0.0499541 26.0741 0.178421L33.259 4.32669C33.6014 4.52433 33.8381 4.86383 33.9052 5.25331L37.0804 23.6665C37.2053 24.3909 36.7193 25.0795 35.9948 25.2044C35.9182 25.2174 35.842 25.2239 35.7669 25.2239Z" fill="#FABC1B"/>
<path d="M33.2589 4.32657L26.0741 0.178309C25.6625 -0.0592538 25.1555 -0.0594726 24.7438 0.177871L11.0325 8.08175C10.6204 8.31931 10.3663 8.75878 10.3662 9.23456C10.3661 9.71023 10.6197 10.1499 11.0318 10.3878L18.2167 14.536C18.4227 14.6549 18.6523 14.7142 18.8823 14.7142C19.1117 14.7142 19.3413 14.655 19.547 14.5364L33.2583 6.63264C33.6704 6.39507 33.9245 5.95561 33.9246 5.47982C33.9247 5.00415 33.671 4.56447 33.2589 4.32657ZM23.0983 9.41645L18.5846 6.80129L21.5565 5.08815L26.0702 7.70342L23.0983 9.41645ZM18.8827 11.8465L14.361 9.23587L15.9228 8.33561L20.4365 10.9508L18.8827 11.8465ZM28.732 6.16889L24.2183 3.55362L25.4081 2.86784L29.9299 5.47851L28.732 6.16889Z" fill="#40454A"/>
<path d="M24.0444 21.3115C23.5837 21.3115 23.1358 21.072 22.8895 20.6442C22.5229 20.0071 22.7421 19.1932 23.3793 18.8266L36.1669 11.4676C36.804 11.1011 37.6177 11.3202 37.9846 11.9574C38.3512 12.5946 38.132 13.4083 37.4948 13.775L24.7072 21.1339C24.4979 21.2541 24.2695 21.3115 24.0444 21.3115Z" fill="#40454A"/>
<path d="M32.1834 54.9795C31.9576 54.9795 31.7288 54.922 31.5191 54.801L23.3775 50.1004C22.9657 49.8626 22.7119 49.4232 22.7119 48.9476V14.5927C22.7119 13.8576 23.3078 13.2616 24.043 13.2616C24.7781 13.2616 25.3741 13.8575 25.3741 14.5927V48.1791L32.8502 52.4955C33.4869 52.8631 33.705 53.6772 33.3375 54.3138C33.0909 54.7408 32.6435 54.9795 32.1834 54.9795Z" fill="#40454A"/>
<path d="M44.9715 47.6206C44.7457 47.6206 44.5169 47.5631 44.3072 47.4421L36.1655 42.7415C35.7536 42.5037 35.5 42.0643 35.5 41.5887V7.23368C35.5 6.49857 36.0959 5.90259 36.8311 5.90259C37.5662 5.90259 38.1622 6.49846 38.1622 7.23368V40.8202L45.6383 45.1366C46.275 45.5042 46.4931 46.3183 46.1256 46.955C45.879 47.3819 45.4316 47.6206 44.9715 47.6206Z" fill="#40454A"/>
<path d="M24.0444 29.0755C23.5844 29.0755 23.1371 28.8368 22.8904 28.4098C22.5229 27.7731 22.741 26.959 23.3777 26.5914L36.1653 19.2085C36.8019 18.8413 37.6159 19.059 37.9835 19.6957C38.351 20.3324 38.1329 21.1465 37.4963 21.5141L24.7087 28.897C24.4991 29.018 24.2702 29.0755 24.0444 29.0755Z" fill="#40454A"/>
<path d="M52.6884 47.0191V29.5605L24.667 30.7621V48.2207C24.667 48.6207 24.8649 49.0208 25.2608 49.2494L36.3613 55.6582C37.1507 56.1139 38.1234 56.1139 38.9129 55.6582L52.0946 48.0478C52.4906 47.8192 52.6884 47.4191 52.6884 47.0191Z" fill="url(#paint1_linear)"/>
<path d="M25.2608 29.7336L38.4426 22.1231C39.2321 21.6674 40.2047 21.6674 40.9942 22.1231L52.0947 28.532C52.8864 28.9892 52.8864 30.132 52.0947 30.5891L38.9129 38.1995C38.1234 38.6553 37.1508 38.6553 36.3613 38.1995L25.2608 31.7907C24.4691 31.3335 24.4691 30.1906 25.2608 29.7336Z" fill="#FDD364"/>
<path d="M29.5352 27.2658L43.693 35.4399L47.4486 33.2716L33.2908 25.0976L29.5352 27.2658Z" fill="#FABC1B"/>
<path d="M31.7796 25.9689L45.9374 34.1428L45.2018 34.5676L31.0439 26.3936L31.7796 25.9689Z" fill="#40454A"/>
<path d="M43.6924 35.4399V38.5414L47.448 36.373V33.2716L43.6924 35.4399Z" fill="#40454A"/>
</g>
<defs>
<linearGradient id="paint0_linear" x1="10.6051" y1="16.5466" x2="29.5145" y2="27.464" gradientUnits="userSpaceOnUse">
<stop stop-color="#DEA861"/>
<stop offset="1" stop-color="#EBCBA0"/>
</linearGradient>
<linearGradient id="paint1_linear" x1="35.3974" y1="42.7803" x2="39.2467" y2="42.7803" gradientUnits="userSpaceOnUse">
<stop stop-color="#ECAB00"/>
<stop offset="1" stop-color="#FAC02B"/>
</linearGradient>
<clipPath id="clip0">
<rect width="56" height="56" fill="white"/>
</clipPath>
</defs>
</svg>
