<svg width="56" height="56" viewBox="0 0 56 56" fill="none" xmlns="http://www.w3.org/2000/svg">
<g clip-path="url(#clip0)">
<path d="M44.1082 51.8769C43.4748 51.8769 42.8587 51.5482 42.5193 50.9602C42.0131 50.0836 42.3136 48.9626 43.1901 48.4565L46.6909 46.4354C47.5674 45.9294 48.6884 46.2295 49.1946 47.1063C49.7008 47.9829 49.4003 49.1039 48.5238 49.61L45.023 51.6311C44.7343 51.7976 44.4192 51.8769 44.1082 51.8769Z" fill="#40454A"/>
<path d="M27.2487 43.3196C27.2487 37.0467 23.4349 29.7597 18.7303 27.0435C16.3651 25.6781 14.3649 25.7769 12.682 26.912L9.03516 29.0176L20.5573 52.376L24.5119 50.0799C26.1947 48.9766 27.2487 46.6167 27.2487 43.3196Z" fill="#FABC1B"/>
<path d="M20.197 52.5478C23.9561 50.946 24.7084 44.261 21.8772 37.6163C19.046 30.9717 13.7034 26.8836 9.94427 28.4853C6.1851 30.087 5.43284 36.7721 8.26404 43.4167C11.0952 50.0614 16.4378 54.1495 20.197 52.5478Z" fill="#ECAB00"/>
<path d="M21.3066 45.9029C21.3066 51.5192 17.8919 54.1006 13.6797 51.6687C9.46742 49.2367 6.05273 42.7124 6.05273 37.0961C6.05273 31.4798 9.46742 28.8983 13.6797 31.3303C17.8919 33.7621 21.3066 40.2866 21.3066 45.9029Z" fill="#FFCE4E"/>
<path d="M16.1924 45.0155C16.1924 48.3573 14.1606 49.8932 11.6543 48.4463C9.14796 46.9992 7.11621 43.1172 7.11621 39.7755C7.11621 36.4337 9.14796 34.8978 11.6543 36.3447C14.1606 37.7917 16.1924 41.6738 16.1924 45.0155Z" fill="#40454A"/>
<path d="M49.9472 29.2823C49.9472 34.8986 46.5325 37.48 42.3203 35.0481C38.108 32.6161 34.6934 26.0918 34.6934 20.4755C34.6934 14.8592 38.108 12.2777 42.3203 14.7097C46.5325 17.1415 49.9472 23.6659 49.9472 29.2823Z" fill="url(#paint0_linear)"/>
<path d="M49.6062 30.3938C49.6062 24.121 45.7923 16.834 41.0878 14.1177C38.7227 12.7523 36.7224 12.8512 35.0395 13.9863L31.3926 16.0918L42.9147 39.4502L46.464 37.3893C46.6028 37.3187 46.738 37.2402 46.8694 37.1541C48.5522 36.0508 49.6062 33.6909 49.6062 30.3938Z" fill="#FABC1B"/>
<path d="M42.5446 39.6139C46.3038 38.0122 47.0561 31.3272 44.2249 24.6825C41.3937 18.0378 36.0511 13.9497 32.2919 15.5515C28.5328 17.1532 27.7805 23.8382 30.6117 30.4829C33.4429 37.1276 38.7855 41.2157 42.5446 39.6139Z" fill="#ECAB00"/>
<path d="M42.7123 30.6637C42.7123 34.5666 40.3394 36.3603 37.4123 34.6705C34.4852 32.9805 32.1123 28.4467 32.1123 24.5439C32.1123 20.6412 34.4852 18.8473 37.4123 20.5373C40.3394 22.2271 42.7123 26.7609 42.7123 30.6637Z" fill="#40454A"/>
<path d="M39.6607 5.26314C39.7207 5.27167 39.7533 5.27638 39.7533 5.27638L39.0021 4.8427C39.0021 4.8427 39.002 4.84259 39.0018 4.84259C39.0018 4.84259 39.0017 4.84248 39.0016 4.84248C39.0016 4.84248 31.9942 0.836079 31.8259 0.813766C29.2617 -0.380718 26.3305 -0.260296 23.8412 1.17689C16.7981 5.24324 12.4229 12.8214 12.4229 20.954V27.1776C13.4428 27.1906 14.5642 27.5198 15.7415 28.1994C16.8575 28.8437 17.9221 29.7476 18.8988 30.8317V30.854L20.6095 29.8664V24.6197C20.6095 17.0963 24.657 10.0858 31.1725 6.32408C32.1645 5.75128 33.2441 5.43967 34.3318 5.38739C34.8663 6.3815 35.1571 7.51003 35.1571 8.69785V14C36.1647 14.0222 37.2699 14.3509 38.4295 15.0204C39.563 15.6749 40.6439 16.5967 41.6331 17.7037V17.7283L43.3437 16.7406V12.3634C43.344 9.48677 41.9805 6.88616 39.6607 5.26314Z" fill="#FABD1C"/>
<path d="M20.6101 29.8663V24.6196C20.6101 17.0962 24.6577 10.0857 31.1732 6.324C33.3565 5.06345 35.9634 5.06334 38.147 6.324C40.3304 7.58455 41.6338 9.84237 41.6338 12.3635V17.7283L43.3444 16.7407V12.3635C43.3444 9.22386 41.7211 6.41237 39.0022 4.84251C36.283 3.27266 33.0367 3.27276 30.3177 4.84251C23.2746 8.90886 18.8994 16.487 18.8994 24.6196V30.854L20.6101 29.8663Z" fill="#ECAB00"/>
<path d="M34.3445 56C33.6005 56 32.8563 55.8084 32.1925 55.4253L24.0264 50.7105C23.6174 50.4743 23.4771 49.9512 23.7134 49.5421C23.9496 49.1329 24.4728 48.9928 24.8817 49.229L33.0479 53.9438C33.848 54.4057 34.8418 54.4054 35.6413 53.9438L42.9169 49.7432C43.3262 49.5071 43.8492 49.6472 44.0854 50.0563C44.3215 50.4653 44.1813 50.9885 43.7722 51.2247L36.4966 55.4253C35.8329 55.8084 35.0888 56 34.3445 56Z" fill="#ECAB00"/>
</g>
<defs>
<linearGradient id="paint0_linear" x1="42.3203" y1="34.6273" x2="42.3203" y2="17.2756" gradientUnits="userSpaceOnUse">
<stop stop-color="#D5C9F1"/>
<stop offset="1" stop-color="#F2EFFA"/>
</linearGradient>
<clipPath id="clip0">
<rect width="56" height="56" fill="white"/>
</clipPath>
</defs>
</svg>
