<svg width="56" height="56" viewBox="0 0 56 56" fill="none" xmlns="http://www.w3.org/2000/svg">
<g clip-path="url(#clip0)">
<path d="M12.4951 27.6436L15.3856 25.9475L15.3857 25.9478C16.2451 25.4924 17.3491 25.5572 18.5535 26.2526C21.2939 27.8349 23.5154 32.0795 23.5154 35.7335C23.5154 37.7423 22.843 39.1524 21.783 39.7539L21.7838 39.7555L19.0812 41.3467L12.4951 27.6436Z" fill="#40454A"/>
<path d="M10.8389 31.6208C10.8389 27.9669 13.0604 26.2875 15.8009 27.8696C18.5413 29.4518 20.7629 33.6964 20.7629 37.3504C20.7629 41.0043 18.5414 42.6838 15.8009 41.1016C13.0605 39.5193 10.8389 35.2747 10.8389 31.6208Z" fill="#40454A"/>
<path d="M17.6732 38.8364C19.0366 38.2555 19.3094 35.831 18.2826 33.4212C17.2558 31.0113 15.3182 29.5287 13.9549 30.1096C12.5915 30.6905 12.3187 33.1149 13.3455 35.5248C14.3723 37.9346 16.3099 39.4173 17.6732 38.8364Z" fill="#FFF5D9"/>
<path d="M14.2266 33.5769C14.2266 32.4178 14.9313 31.8852 15.8005 32.387C16.6697 32.8889 17.3744 34.2352 17.3744 35.3942C17.3744 36.5532 16.6697 37.0859 15.8005 36.584C14.9313 36.0822 14.2266 34.7359 14.2266 33.5769Z" fill="#40454A"/>
<path d="M29.373 45.5271L20.8485 40.5728C19.7211 39.9219 19.7211 38.2946 20.8485 37.6437L30.7111 31.9495C31.9995 31.2056 33.5869 31.2056 34.8753 31.9495L43.8543 37.1661L29.373 45.5271Z" fill="#40454A"/>
<path d="M31.7897 31.7981V28.9387C33.3049 28.0639 34.2383 26.4474 34.2383 24.6978C34.2383 24.22 33.9833 23.7786 33.5697 23.5397L21.7802 16.7331C20.9897 16.2767 20.0251 16.2392 19.2014 16.6326C18.8323 16.8089 18.4827 17.0134 18.1514 17.2395L13.2256 20.0876L25.814 35.2531L32.9212 43.3025L38.897 39.8474V35.9356L31.7897 31.7981Z" fill="#FFDE87"/>
<path d="M31.7903 28.9387L25.8145 32.3938V35.2532L31.7903 31.7981V28.9387Z" fill="#FABC1B"/>
<path d="M32.9218 43.3026L8.71777 29.2942V27.2378C8.71777 24.1849 10.4715 21.4035 13.2262 20.0876C14.0499 19.6942 15.0145 19.7318 15.8051 20.1882L27.5945 26.9948C28.0082 27.2337 28.2631 27.6751 28.2631 28.1528C28.2631 29.9024 27.3298 31.519 25.8146 32.3937V35.2531L32.9218 39.3907V43.3026Z" fill="#FABC1B"/>
<path d="M16.9287 22.1187C16.539 22.1187 16.1547 22.0158 15.8171 21.8209L9.08149 17.932C8.64465 17.6798 8.38379 17.2281 8.38379 16.7237C8.38379 16.2192 8.64465 15.7675 9.08149 15.5153L17.0801 10.8974C17.755 10.5079 18.6281 10.5078 19.3029 10.8974L26.0386 14.7862C26.4755 15.0384 26.7363 15.4903 26.7363 15.9947C26.7362 16.4991 26.4754 16.9507 26.0386 17.203L18.0402 21.8209C17.7026 22.0158 17.3183 22.1187 16.9287 22.1187ZM18.1914 11.9489C18.0383 11.9489 17.8874 11.9894 17.7547 12.0659L9.75612 16.6839C9.74704 16.6891 9.73304 16.6972 9.73304 16.7237C9.73304 16.7503 9.74704 16.7582 9.75612 16.7635L16.4918 20.6523C16.757 20.8053 17.1 20.8054 17.3654 20.6523L25.3638 16.0344C25.3729 16.0291 25.3869 16.021 25.3869 15.9946C25.3869 15.968 25.3729 15.9599 25.3638 15.9547L18.6282 12.0658C18.4956 11.9894 18.3446 11.9489 18.1914 11.9489Z" fill="#40454A"/>
<path d="M26.0616 15.314V4.72034L9.05859 5.44954V16.0432C9.05859 16.2859 9.17869 16.5287 9.41888 16.6674L16.1545 20.5562C16.6336 20.8328 17.2238 20.8328 17.7028 20.5562L25.7013 15.9383C25.9415 15.7995 26.0616 15.5567 26.0616 15.314Z" fill="url(#paint0_linear)"/>
<path d="M9.41896 4.82526L17.4174 0.207335C17.8965 -0.0692744 18.4867 -0.0692744 18.9658 0.207335L25.7014 4.09616C26.1819 4.37354 26.1819 5.06698 25.7014 5.34435L17.7029 9.96227C17.2238 10.2389 16.6337 10.2389 16.1546 9.96227L9.41896 6.07355C8.93847 5.79618 8.93847 5.10274 9.41896 4.82526Z" fill="#FDD364"/>
<path d="M12.0127 3.328L20.6035 8.28783L22.8823 6.97216L14.2915 2.01233L12.0127 3.328Z" fill="#FABC1B"/>
<path d="M13.3741 2.54089L21.9648 7.50072L21.5184 7.75841L12.9277 2.79858L13.3741 2.54089Z" fill="#40454A"/>
<path d="M20.6025 8.28772V10.1696L22.8814 8.85395V6.97205L20.6025 8.28772Z" fill="#40454A"/>
<path d="M33.6876 23.6435C33.6876 22.3417 32.9931 21.1389 31.8659 20.4881L25.6677 16.9095C25.3154 16.7062 24.9121 16.7754 24.6411 17.0074L24.6398 17.0063L20.2836 19.5789C20.1717 19.6183 20.0685 19.6791 19.98 19.7582L19.975 19.7612L19.9757 19.7618C19.8003 19.9207 19.6846 20.1495 19.6846 20.4193C19.6846 21.721 20.3791 22.9238 21.5064 23.5747L27.7046 27.1533C27.8494 27.2368 28.48 27.2011 28.6447 27.1215C30.261 26.341 33.1953 24.4386 33.1953 24.4386C33.2262 24.423 33.256 24.4058 33.285 24.3868L33.3026 24.3767L33.3016 24.3758C33.5294 24.2192 33.6876 23.9593 33.6876 23.6435Z" fill="#FABC1B"/>
<path d="M27.7046 27.1532L21.5064 23.5747C20.3791 22.9238 19.6846 21.721 19.6846 20.4192C19.6846 19.7331 20.4272 19.3043 21.0215 19.6473L27.2196 23.2259C28.347 23.8768 29.0414 25.0796 29.0414 26.3813C29.0414 27.0674 28.2987 27.4963 27.7046 27.1532Z" fill="#D49C08"/>
<path d="M40.0337 18.9696L35.6667 21.5038C32.5726 23.2994 30.6683 26.6062 30.6683 30.1837V43.0512C30.6683 44.1208 30.1393 45.0063 29.3721 45.543L43.8566 37.1396C44.6334 36.6042 45.1703 35.7132 45.1703 34.6355V21.9275C45.1703 19.2915 42.3138 17.6465 40.0337 18.9696Z" fill="#40454A"/>
<path d="M37.0518 41.9465L39.9422 40.2505L39.9423 40.2508C40.8018 39.7954 41.9057 39.8602 43.1102 40.5556C45.8505 42.1378 48.0721 46.3825 48.0721 50.0365C48.0721 52.0453 47.3997 53.4554 46.3397 54.0569L46.3404 54.0585L43.6379 55.6497L37.0518 41.9465Z" fill="#D49C08"/>
<path d="M35.3955 45.9237C35.3955 42.2698 37.617 40.5903 40.3575 42.1724C43.0979 43.7547 45.3195 47.9993 45.3195 51.6533C45.3195 55.3072 43.098 56.9866 40.3575 55.4044C37.6171 53.8223 35.3955 49.5777 35.3955 45.9237Z" fill="#40454A"/>
<path d="M42.2328 53.1259C43.5961 52.545 43.869 50.1205 42.8422 47.7107C41.8154 45.3009 39.8778 43.8182 38.5144 44.3991C37.1511 44.98 36.8783 47.4045 37.9051 49.8143C38.9319 52.2242 40.8695 53.7068 42.2328 53.1259Z" fill="#FFF5D9"/>
<path d="M38.7832 47.8798C38.7832 46.7209 39.4879 46.1881 40.3571 46.6899C41.2263 47.1919 41.931 48.5382 41.931 49.6972C41.931 50.8563 41.2263 51.3889 40.3571 50.8871C39.4879 50.3852 38.7832 49.0388 38.7832 47.8798Z" fill="#40454A"/>
<path d="M43.3859 39.0688C41.9402 38.2342 40.6153 38.1563 39.5836 38.703L39.5835 38.7025L36.1143 40.7383L36.7844 42.1325C36.6482 42.7205 36.5742 43.3785 36.5742 44.1026C36.5742 44.3939 36.5868 44.6883 36.6096 44.9847L45.9193 50.7415L49.2272 48.8318C48.6864 44.8762 46.2772 40.738 43.3859 39.0688Z" fill="#FABC1B"/>
<path d="M39.0977 46.8029L45.9192 50.7414C45.37 46.7953 42.9653 42.6744 40.0817 41.0095C36.7924 39.1105 34.126 41.1263 34.126 45.5119C34.126 45.9368 34.1516 46.3683 34.1998 46.8029H39.0977Z" fill="#D49C08"/>
<path d="M21.3599 27.1876L18.8899 25.7615C17.4012 24.902 15.6404 24.6431 13.9673 25.0381C13.2224 25.2139 12.5187 25.5143 11.8827 25.9211L9.15582 27.4698L9.69274 28.0813L8.71777 29.2942L12.854 31.6822L18.0689 37.6221L20.6387 36.1766L22.6447 33.5207C23.2101 32.7722 23.5159 31.8598 23.5159 30.9218V30.9217C23.5158 29.3814 22.6939 27.958 21.3599 27.1876Z" fill="#FFC83A"/>
<path d="M18.0684 37.6221L20.0745 34.9661C20.6398 34.2177 20.9456 33.3053 20.9456 32.3673C20.9456 30.8267 20.1238 29.4033 18.7896 28.6331L16.3196 27.2071C14.8309 26.3476 13.0702 26.0887 11.3971 26.4836C9.93486 26.8287 8.62969 27.6518 7.68841 28.8228L7.04288 29.6258C6.57224 30.2113 6.73455 31.0786 7.38511 31.4542L18.0684 37.6221Z" fill="#D49C08"/>
<path d="M37.748 38.5968V20.296L39.0598 21.0533V39.3541L37.748 38.5968Z" fill="#FABC1B"/>
<path d="M39.0596 21.0533L40.3701 20.2966V38.5974L39.0596 39.354V21.0533Z" fill="#FFF5D9"/>
<path d="M42.4688 14.8371L45.5909 13.0222V13.0223C45.7429 12.9417 45.9382 12.9532 46.1513 13.0763C46.636 13.3561 47.0291 14.1071 47.0291 14.7535C47.0291 15.1089 46.9102 15.3584 46.7227 15.4648L46.7228 15.4651L43.6339 17.2614L42.4688 14.8371Z" fill="#FABC1B"/>
<path d="M42.1758 15.5407C42.1758 14.8942 42.5688 14.5972 43.0536 14.8771C43.5384 15.157 43.9315 15.9079 43.9315 16.5543C43.9315 17.2007 43.5385 17.4978 43.0536 17.2179C42.5688 16.9379 42.1758 16.1871 42.1758 15.5407Z" fill="url(#paint1_linear)"/>
<path d="M41.5215 14.777L42.8682 13.9945V13.9946C43.0897 13.8773 43.3742 13.894 43.6845 14.0731C44.3906 14.4808 44.9631 15.5745 44.9631 16.5161C44.9631 17.0338 44.7898 17.3972 44.5167 17.552L44.5169 17.5525L43.2187 18.3079L41.5215 14.777Z" fill="#40454A"/>
<path d="M43.0277 15.4648L40.0677 13.7449L40.0676 13.7451C39.5809 13.4872 38.9556 13.5239 38.2734 13.9178C36.7214 14.8139 34.2324 16.132 34.2324 18.2015C34.2324 19.3392 34.6133 20.1378 35.2136 20.4784L36.4439 21.5653L39.2975 23.2258L43.0277 15.4648Z" fill="#D49C08"/>
<path d="M43.4167 20.3118C44.3507 18.1196 44.1025 15.9142 42.8623 15.3858C41.6222 14.8574 39.8596 16.206 38.9256 18.3982C37.9916 20.5903 38.2397 22.7957 39.4799 23.3241C40.7201 23.8525 42.4827 22.5039 43.4167 20.3118Z" fill="#FABC1B"/>
<path d="M42.8192 20.0572C43.5046 18.4485 43.3225 16.8301 42.4124 16.4423C41.5022 16.0545 40.2088 17.0442 39.5233 18.6529C38.8379 20.2616 39.02 21.88 39.9302 22.2678C40.8403 22.6556 42.1338 21.6659 42.8192 20.0572Z" fill="#FFF5D9"/>
<path d="M34.2334 18.9269L35.5801 18.1444V18.1445C35.8016 18.0272 36.086 18.0439 36.3964 18.223C37.1025 18.6307 37.675 19.7244 37.675 20.666C37.675 21.1837 37.5017 21.5471 37.2286 21.7019L37.2288 21.7024L35.9306 22.4578L34.2334 18.9269Z" fill="#40454A"/>
<path d="M35.8584 22.477C36.4226 22.2366 36.5355 21.2332 36.1106 20.2359C35.6856 19.2385 34.8837 18.6249 34.3195 18.8653C33.7553 19.1058 33.6423 20.1092 34.0673 21.1065C34.4922 22.1038 35.2941 22.7174 35.8584 22.477Z" fill="#FABC1B"/>
<path d="M31.3496 21.3377L34.4717 19.523V19.5231C34.6238 19.4425 34.8191 19.4539 35.0322 19.577C35.5169 19.8569 35.91 20.6078 35.91 21.2543C35.91 21.6096 35.7911 21.8591 35.6035 21.9655L35.6036 21.9658L32.5148 23.7621L31.3496 21.3377Z" fill="#FABC1B"/>
<path d="M31.0566 22.0413C31.0566 21.3949 31.4496 21.0978 31.9345 21.3777C32.4192 21.6576 32.8123 22.4085 32.8123 23.0549C32.8123 23.7014 32.4193 23.9984 31.9345 23.7185C31.4497 23.4385 31.0566 22.6877 31.0566 22.0413Z" fill="#D49C08"/>
</g>
<defs>
<linearGradient id="paint0_linear" x1="15.5696" y1="12.742" x2="17.9053" y2="12.742" gradientUnits="userSpaceOnUse">
<stop stop-color="#ECAB00"/>
<stop offset="1" stop-color="#FAC02B"/>
</linearGradient>
<linearGradient id="paint1_linear" x1="43.0536" y1="17.6833" x2="43.0536" y2="14.516" gradientUnits="userSpaceOnUse">
<stop stop-color="#43386B"/>
<stop offset="1" stop-color="#7662BD"/>
</linearGradient>
<clipPath id="clip0">
<rect width="56" height="56" fill="white"/>
</clipPath>
</defs>
</svg>
