<svg width="56" height="56" viewBox="0 0 56 56" fill="none" xmlns="http://www.w3.org/2000/svg">
<path d="M9.67676 35.0683L13.6465 32.7858L13.6466 32.7861C14.3704 32.4026 15.3001 32.4572 16.3144 33.0428C18.6222 34.3752 20.493 37.9497 20.493 41.0267C20.493 42.7184 19.9267 43.9059 19.034 44.4123L19.0347 44.4138L15.2232 46.6079L9.67676 35.0683Z" fill="#40454A"/>
<path d="M25.3828 44.1654L29.3526 41.8828L29.3527 41.8831C30.0764 41.4997 31.0061 41.5542 32.0205 42.1398C34.3283 43.4722 36.199 47.0467 36.199 50.1238C36.199 51.8155 35.6328 53.003 34.7401 53.5094L34.7407 53.5107L30.9292 55.7049L25.3828 44.1654Z" fill="#40454A"/>
<path d="M6.2373 27.5263V8.48462L36.7996 9.79515V28.8368C36.7996 29.2731 36.5838 29.7094 36.1519 29.9588L24.0449 36.9487C23.1839 37.4458 22.1229 37.4458 21.2619 36.9487L6.88502 28.6482C6.4531 28.399 6.2372 27.9626 6.2373 27.5263Z" fill="url(#paint0_linear)"/>
<path d="M36.1509 8.67341L21.774 0.372832C20.913 -0.124277 19.8521 -0.124277 18.9911 0.372832L6.88405 7.36277C6.02042 7.86141 6.02042 9.10785 6.88405 9.60649L21.2611 17.9071C22.1221 18.4042 23.183 18.4042 24.044 17.9071L36.1511 10.9171C37.0146 10.4185 37.0146 9.17194 36.1509 8.67341Z" fill="#FDD364"/>
<path d="M31.4908 5.98197L16.0492 14.8971L11.9531 12.5322L27.3948 3.61707L31.4908 5.98197Z" fill="#FABC1B"/>
<path d="M29.0422 4.56726L13.6006 13.4825L14.403 13.9457L29.8445 5.03057L29.0422 4.56726Z" fill="#40454A"/>
<path d="M16.0492 14.8971V18.2799L11.9531 15.915V12.5322L16.0492 14.8971Z" fill="#40454A"/>
<path d="M48.91 36.7594L45.9825 24.4863C45.6318 23.0159 44.6914 21.7544 43.3821 20.9987L37.0901 17.3614C36.7131 17.1437 36.2828 17.2073 35.9834 17.4433L24.9847 23.7934L22.7793 25.0668L23.6451 31.6897L25.0309 32.5002L35.544 53.0767L48.4898 45.6025C48.5803 45.5654 48.6654 45.5163 48.7427 45.4564C48.9882 45.2666 49.1542 44.9703 49.1542 44.616V38.8343C49.154 38.1355 49.0722 37.4391 48.91 36.7594Z" fill="#F4B50F"/>
<path d="M37.4722 44.698L39.3161 43.6334C39.426 43.57 39.5633 43.6493 39.5633 43.7761V45.3948C39.5633 45.6142 39.4463 45.817 39.2562 45.9267L37.4122 46.9912C37.3023 47.0547 37.165 46.9754 37.165 46.8485V45.2298C37.165 45.0104 37.2821 44.8078 37.4722 44.698Z" fill="#FFF5D9"/>
<path d="M46.5454 39.4539L48.3894 38.3894C48.4993 38.326 48.6365 38.4053 48.6365 38.5321V40.1508C48.6365 40.3702 48.5195 40.573 48.3294 40.6827L46.4855 41.7472C46.3755 41.8106 46.2383 41.7313 46.2383 41.6045V39.9858C46.2384 39.7664 46.3554 39.5636 46.5454 39.4539Z" fill="#FFF5D9"/>
<path d="M22.3889 35.6426V25.8534C22.3889 25.093 23.212 24.6177 23.8706 24.998L30.1626 28.6351C31.4718 29.391 32.4122 30.6523 32.763 32.1228L35.6904 44.3959C35.8525 45.0756 35.9344 45.772 35.9344 46.4708V52.2525C35.9344 53.0725 35.0467 53.585 34.3365 53.1751L7.48007 37.6214C6.69891 37.1704 6.21777 36.337 6.21777 35.435V29.3244C6.21777 28.8309 6.75207 28.5225 7.1794 28.7692L20.701 36.6147C21.4502 37.0495 22.3889 36.5088 22.3889 35.6426Z" fill="#40454A"/>
<path d="M24.0146 37.2577V27.2251L29.0926 30.1614C29.5947 30.4513 29.9488 30.9424 30.0652 31.5105L32.2124 41.9953L24.0146 37.2577Z" fill="#FFF4D9"/>
<path d="M45.5778 25.4545L34.3008 31.9652L36.6187 41.9953L47.8957 35.4845L45.5778 25.4545Z" fill="#FFF5D9"/>
<path d="M23.9883 47.5145C23.9883 44.4375 25.859 43.0232 28.1668 44.3556C30.4747 45.688 32.3454 49.2625 32.3454 52.3395C32.3454 55.4166 30.4745 56.8309 28.1668 55.4985C25.8591 54.1661 23.9883 50.5916 23.9883 47.5145Z" fill="#FABC1B"/>
<path d="M29.7502 53.581C30.8983 53.0918 31.128 51.0501 30.2633 49.0207C29.3986 46.9913 27.767 45.7427 26.6189 46.2319C25.4708 46.7211 25.241 48.7628 26.1057 50.7922C26.9704 52.8216 28.6021 54.0701 29.7502 53.581Z" fill="#FFF5D9"/>
<path d="M28.9825 51.7784C29.5674 51.5292 29.6845 50.489 29.2439 49.4551C28.8034 48.4212 27.9721 47.7851 27.3872 48.0343C26.8023 48.2836 26.6852 49.3237 27.1258 50.3576C27.5663 51.3915 28.3976 52.0276 28.9825 51.7784Z" fill="#40454A"/>
<path d="M8.28125 38.4175C8.28125 35.3404 10.1521 33.9261 12.4598 35.2585C14.7676 36.5909 16.6384 40.1655 16.6384 43.2425C16.6384 46.3195 14.7676 47.7338 12.4598 46.4014C10.1521 45.0691 8.28125 41.4945 8.28125 38.4175Z" fill="#FABC1B"/>
<path d="M14.0422 44.4928C15.1903 44.0036 15.42 41.9619 14.5553 39.9326C13.6906 37.9032 12.0589 36.6546 10.9108 37.1438C9.76275 37.633 9.533 39.6747 10.3977 41.7041C11.2624 43.7334 12.8941 44.982 14.0422 44.4928Z" fill="#FFF5D9"/>
<path d="M11.1348 40.0649C11.1348 39.0888 11.7281 38.6402 12.4602 39.0629C13.1922 39.4855 13.7856 40.6193 13.7856 41.5953C13.7856 42.5714 13.1922 43.02 12.4602 42.5973C11.7282 42.1747 11.1348 41.0409 11.1348 40.0649Z" fill="#40454A"/>
<path d="M49.1171 44.0369L35.5535 51.4633L33.0537 50.2619V53.1695L35.1982 54.4076C35.5768 54.6262 36.0433 54.6262 36.4218 54.4076L49.5271 46.8413C49.6977 46.7429 49.7829 46.5705 49.7829 46.3981V43.4905L49.1171 44.0369Z" fill="#40454A"/>
<path d="M33.6338 49.9271L35.9343 51.2552L49.1538 43.6229V42.8319L49.5271 43.0474C49.8683 43.2444 49.8683 43.7368 49.5271 43.9336L36.4218 51.5C36.0433 51.7185 35.5768 51.7185 35.1982 51.5L33.0537 50.2619L33.6338 49.9271Z" fill="#FFF5D9"/>
<path d="M40.2823 46.1519L45.8259 42.9513V43.902C45.8259 44.5061 45.5037 45.0643 44.9804 45.3663L41.115 47.598C40.7449 47.8117 40.2822 47.5446 40.2822 47.1172V46.1519H40.2823Z" fill="#40454A"/>
<defs>
<linearGradient id="paint0_linear" x1="17.9407" y1="22.9031" x2="22.139" y2="22.9031" gradientUnits="userSpaceOnUse">
<stop stop-color="#ECAB00"/>
<stop offset="1" stop-color="#FAC02B"/>
</linearGradient>
</defs>
</svg>
