<svg width="56" height="56" viewBox="0 0 56 56" fill="none" xmlns="http://www.w3.org/2000/svg">
<g clip-path="url(#clip0)">
<path d="M31.8802 1.75558L29.0135 0.12272L29.0128 0.124908C28.7137 -0.0570921 28.3211 -0.0475765 27.8894 0.20158L11.6927 9.55293C10.7579 10.0926 10 11.5406 10 12.787V52.8941C10 53.615 10.2544 54.1086 10.6491 54.2939L10.6486 54.2953L13.4992 55.9186L31.8802 1.75558Z" fill="#40454A"/>
<path d="M30.7401 46.4457L14.5433 55.7969C13.6084 56.3367 12.8506 55.7637 12.8506 54.5173V14.4103C12.8506 13.1638 13.6084 11.7159 14.5433 11.1761L30.7401 1.82491C31.6749 1.28515 32.4328 1.85805 32.4328 3.10449V43.2114C32.4328 44.458 31.6749 45.9059 30.7401 46.4457Z" fill="#FABC1B"/>
<path d="M14.6914 13.8478L30.7397 4.58234V41.1931L14.6914 50.4586V13.8478Z" fill="#FFF5D9"/>
<path d="M22.333 47.396L25.3909 45.6305V48.7025L22.333 50.468V47.396Z" fill="#344B89"/>
<path d="M18.0254 20.8252L27.7691 15.1997V24.9883L18.0254 30.6138V20.8252Z" fill="#FABC1B"/>
<path d="M19.5039 32.2425L26.2913 28.3239V30.2506L19.5039 34.1694V32.2425Z" fill="#FDD364"/>
<path d="M20.5449 36.886L25.2505 34.1694V36.8635L20.5449 39.5803V36.886Z" fill="#FDD364"/>
<path d="M21.9316 18.5878L23.8623 17.4731V20.5274L21.9316 21.6421V18.5878Z" fill="#40454A"/>
<path d="M18.7256 26.4474L21.9322 24.596V25.1994L18.7256 27.0508V26.4474Z" fill="url(#paint0_linear)"/>
<path d="M18.7256 27.5245L21.1602 26.119V26.577L18.7256 27.9826V27.5245Z" fill="url(#paint1_linear)"/>
<path d="M18.7256 28.356L21.1602 26.9503V27.4085L18.7256 28.8141V28.356Z" fill="url(#paint2_linear)"/>
<path d="M46 47.6549V35.3754L26.291 36.2205V48.5C26.291 48.7813 26.4303 49.0628 26.7087 49.2235L34.5162 53.7312C35.0715 54.0518 35.7557 54.0518 36.311 53.7312L45.5824 48.3784C45.8607 48.2176 46 47.9362 46 47.6549Z" fill="url(#paint3_linear)"/>
<path d="M26.7087 35.4971L35.9801 30.1443C36.5354 29.8237 37.2196 29.8237 37.7748 30.1443L45.5823 34.652C46.1392 34.9735 46.1392 35.7773 45.5823 36.0989L36.3109 41.4517C35.7556 41.7723 35.0714 41.7723 34.5161 41.4517L26.7086 36.944C26.1518 36.6225 26.1518 35.8187 26.7087 35.4971Z" fill="#FDD364"/>
<path d="M29.7148 33.7615L39.6728 39.5106L42.3142 37.9856L32.3562 32.2365L29.7148 33.7615Z" fill="#FABC1B"/>
<path d="M31.2937 32.8491L41.2517 38.5983L40.7342 38.8971L30.7764 33.1479L31.2937 32.8491Z" fill="#40454A"/>
<path d="M39.6729 39.5106V41.6921L42.3143 40.1671V37.9856L39.6729 39.5106Z" fill="#40454A"/>
</g>
<defs>
<linearGradient id="paint0_linear" x1="19.4362" y1="25.1637" x2="21.2638" y2="25.9881" gradientUnits="userSpaceOnUse">
<stop stop-color="#EBEEF6"/>
<stop offset="1" stop-color="#EBEEF6"/>
</linearGradient>
<linearGradient id="paint1_linear" x1="19.2651" y1="26.5499" x2="20.6526" y2="27.1759" gradientUnits="userSpaceOnUse">
<stop stop-color="#EBEEF6"/>
<stop offset="1" stop-color="#EBEEF6"/>
</linearGradient>
<linearGradient id="paint2_linear" x1="19.2651" y1="27.3813" x2="20.6527" y2="28.0073" gradientUnits="userSpaceOnUse">
<stop stop-color="#EBEEF6"/>
<stop offset="1" stop-color="#EBEEF6"/>
</linearGradient>
<linearGradient id="paint3_linear" x1="33.8383" y1="44.6735" x2="36.5457" y2="44.6735" gradientUnits="userSpaceOnUse">
<stop stop-color="#ECAB00"/>
<stop offset="1" stop-color="#FAC02B"/>
</linearGradient>
<clipPath id="clip0">
<rect width="56" height="56" fill="white"/>
</clipPath>
</defs>
</svg>
