<svg width="56" height="56" viewBox="0 0 56 56" fill="none" xmlns="http://www.w3.org/2000/svg">
<g clip-path="url(#clip0)">
<path d="M11.9351 13.9961C11.6159 13.9961 11.2926 13.9147 10.9963 13.7438L8.01126 12.0203C7.11143 11.5008 6.80321 10.3503 7.32263 9.45046C7.84216 8.55074 8.99279 8.24252 9.89251 8.76183L12.8776 10.4853C13.7773 11.0048 14.0856 12.1553 13.5662 13.0551C13.2177 13.6585 12.5853 13.9961 11.9351 13.9961Z" fill="#FABC1B"/>
<path d="M26.6984 5.47269C26.3793 5.47269 26.056 5.39131 25.7597 5.22036L22.7983 3.51061C21.8986 2.99108 21.5903 1.84056 22.1097 0.940734C22.6291 0.0410146 23.78 -0.267095 24.6796 0.252108L27.6409 1.96186C28.5406 2.48139 28.849 3.63191 28.3295 4.53173C27.9812 5.13527 27.3487 5.47269 26.6984 5.47269Z" fill="#FABC1B"/>
<path d="M12.251 44.6471L14.7714 43.1979L14.7715 43.1981C15.231 42.9546 15.8213 42.9893 16.4653 43.3611C17.9305 44.207 19.1183 46.4765 19.1183 48.4301C19.1183 49.5042 18.7588 50.2581 18.192 50.5797L18.1924 50.5806L15.7725 51.9737L12.251 44.6471Z" fill="#40454A"/>
<path d="M11.3652 46.7736C11.3652 44.8199 12.553 43.9219 14.0182 44.768C15.4834 45.6139 16.6712 47.8834 16.6712 49.837C16.6712 51.7907 15.4834 52.6886 14.0182 51.8426C12.553 50.9966 11.3652 48.7272 11.3652 46.7736Z" fill="#FABC1B"/>
<path d="M15.0316 50.6243C15.7606 50.3137 15.9065 49.0174 15.3575 47.7289C14.8085 46.4404 13.7725 45.6477 13.0435 45.9583C12.3146 46.2689 12.1687 47.5652 12.7177 48.8537C13.2667 50.1422 14.3027 50.9349 15.0316 50.6243Z" fill="#E9E5F6"/>
<path d="M13.1768 47.8194C13.1768 47.1997 13.5536 46.9149 14.0183 47.1833C14.483 47.4516 14.8598 48.1715 14.8598 48.7912C14.8598 49.4109 14.483 49.6957 14.0183 49.4273C13.5536 49.1589 13.1768 48.4391 13.1768 47.8194Z" fill="#40454A"/>
<path d="M25.2188 54.82C24.9577 54.82 24.693 54.7535 24.4507 54.6136L15.036 49.178C14.5599 48.903 14.2664 48.3948 14.2664 47.8449V15.2368L11.1673 13.4474C10.4311 13.0225 10.1789 12.0811 10.604 11.3449C11.029 10.6088 11.9702 10.3562 12.7065 10.7816L16.5752 13.0152C17.0513 13.2902 17.3448 13.7983 17.3448 14.3483V46.9563L25.9899 51.9477C26.7261 52.3727 26.9783 53.3141 26.5532 54.0503C26.2681 54.5438 25.7507 54.82 25.2188 54.82Z" fill="#40454A"/>
<path d="M40.0062 46.3104C39.7451 46.3104 39.4804 46.2439 39.2381 46.104L29.8234 40.6684C29.3473 40.3934 29.0538 39.8852 29.0538 39.3353V6.72721L25.931 4.92406C25.1948 4.49913 24.9425 3.55774 25.3677 2.82154C25.7926 2.08545 26.734 1.8329 27.4702 2.25815L31.3626 4.50548C31.8387 4.78045 32.1322 5.2886 32.1322 5.83854V38.4466L40.7773 43.438C41.5135 43.863 41.7657 44.8044 41.3406 45.5406C41.0556 46.0342 40.5381 46.3104 40.0062 46.3104Z" fill="#40454A"/>
<path d="M15.8076 15.8875C15.2748 15.8875 14.7567 15.6106 14.472 15.1158C14.048 14.379 14.3016 13.438 15.0383 13.014L29.8254 4.50438C30.5624 4.08055 31.5033 4.33397 31.9273 5.07072C32.3513 5.80747 32.0977 6.74854 31.3609 7.17258L16.5739 15.6822C16.3318 15.8213 16.0679 15.8875 15.8076 15.8875Z" fill="#40454A"/>
<path d="M15.8076 24.8656C15.2755 24.8656 14.7582 24.5896 14.4731 24.0958C14.048 23.3596 14.3003 22.4182 15.0364 21.9931L29.8234 13.4559C30.5597 13.0309 31.5009 13.2834 31.9259 14.0193C32.351 14.7555 32.0989 15.6968 31.3625 16.1219L16.5755 24.6591C16.3333 24.799 16.0685 24.8656 15.8076 24.8656Z" fill="#40454A"/>
<path d="M48.9293 45.6147V25.4263L16.5264 26.8158V47.0041C16.5264 47.4667 16.7552 47.9293 17.213 48.1937L30.0492 55.6046C30.9621 56.1317 32.0868 56.1317 32.9998 55.6046L48.2426 46.8042C48.7004 46.5399 48.9294 46.0773 48.9293 45.6147Z" fill="url(#paint0_linear)"/>
<path d="M17.2131 25.6265L32.4559 16.826C33.3688 16.299 34.4935 16.299 35.4065 16.826L48.2426 24.237C49.1582 24.7656 49.1582 26.0871 48.2426 26.6158L32.9998 35.4162C32.0869 35.9432 30.9621 35.9432 30.0492 35.4162L17.2131 28.0053C16.2975 27.4766 16.2975 26.1551 17.2131 25.6265Z" fill="#FDD364"/>
<path d="M22.1553 22.773L38.5267 32.225L42.8696 29.7177L26.498 20.2657L22.1553 22.773Z" fill="#FABC1B"/>
<path d="M24.751 21.2731L41.1226 30.7252L40.2719 31.2163L23.9004 21.7642L24.751 21.2731Z" fill="#40454A"/>
<path d="M38.5264 32.225V35.8114L42.8692 33.3041V29.7177L38.5264 32.225Z" fill="#40454A"/>
</g>
<defs>
<linearGradient id="paint0_linear" x1="28.9346" y1="40.7131" x2="33.3858" y2="40.7131" gradientUnits="userSpaceOnUse">
<stop stop-color="#ECAB00"/>
<stop offset="1" stop-color="#FAC02B"/>
</linearGradient>
<clipPath id="clip0">
<rect width="56" height="56" fill="white"/>
</clipPath>
</defs>
</svg>
