<svg width="31" height="23" viewBox="0 0 31 23" fill="none" xmlns="http://www.w3.org/2000/svg">
<path d="M30.4643 4.17207C30.0848 2.52343 28.7363 1.30711 27.113 1.12567C23.2688 0.696553 19.3779 0.694313 15.505 0.696553C11.6314 0.694313 7.73984 0.696553 3.89568 1.12567C2.27328 1.30711 0.92576 2.52343 0.54624 4.17207C0.00608002 6.51991 0 9.08279 0 11.5001C0 13.9174 0 16.4799 0.54016 18.8274C0.91904 20.4758 2.26688 21.6921 3.89024 21.8738C7.73408 22.3033 11.6253 22.3055 15.4989 22.3033C19.3731 22.3055 23.2634 22.3033 27.1069 21.8738C28.7293 21.6924 30.0781 20.4761 30.4576 18.8274C30.9981 16.4796 31 13.917 31 11.5001C31 9.08279 31.0045 6.51991 30.4643 4.17207ZM11.4995 16.3116C11.4995 12.8825 11.4995 9.48919 11.4995 6.05975C14.785 7.77399 18.0486 9.47671 21.3549 11.2015C18.0589 12.911 14.7936 14.6034 11.4995 16.3116Z" fill="black"/>
</svg>
