<svg width="28" height="28" viewBox="0 0 28 28" fill="none" xmlns="http://www.w3.org/2000/svg">
<circle cx="14" cy="14" r="14" fill="url(#paint0_linear)"/>
<path d="M17.5845 6H10.4153C7.98072 6 6 7.98081 6 10.4154V17.5846C6 20.0193 7.98072 22 10.4153 22H17.5845C20.0193 22 22 20.0192 22 17.5846V10.4154C22.0001 7.98081 20.0193 6 17.5845 6ZM20.5805 17.5846C20.5805 19.2365 19.2365 20.5804 17.5846 20.5804H10.4153C8.76348 20.5805 7.4196 19.2365 7.4196 17.5846V10.4154C7.4196 8.76358 8.76348 7.4196 10.4153 7.4196H17.5845C19.2364 7.4196 20.5804 8.76358 20.5804 10.4154V17.5846H20.5805Z" fill="white"/>
<path d="M14 9.87695C11.7266 9.87695 9.8772 11.7264 9.8772 13.9997C9.8772 16.273 11.7266 18.1224 14 18.1224C16.2733 18.1224 18.1228 16.273 18.1228 13.9997C18.1228 11.7264 16.2733 9.87695 14 9.87695ZM14 16.7027C12.5095 16.7027 11.2968 15.4901 11.2968 13.9997C11.2968 12.5091 12.5094 11.2965 14 11.2965C15.4906 11.2965 16.7032 12.5091 16.7032 13.9997C16.7032 15.4901 15.4905 16.7027 14 16.7027Z" fill="white"/>
<path d="M18.2957 8.67334C18.0222 8.67334 17.7535 8.78407 17.5603 8.97808C17.3662 9.17115 17.2546 9.43992 17.2546 9.71438C17.2546 9.98798 17.3663 10.2567 17.5603 10.4507C17.7534 10.6437 18.0222 10.7554 18.2957 10.7554C18.5701 10.7554 18.838 10.6437 19.032 10.4507C19.226 10.2567 19.3367 9.98789 19.3367 9.71438C19.3367 9.43992 19.226 9.17115 19.032 8.97808C18.8389 8.78407 18.5701 8.67334 18.2957 8.67334Z" fill="white"/>
<defs>
<linearGradient id="paint0_linear" x1="23.5" y1="-0.5" x2="4.5" y2="28" gradientUnits="userSpaceOnUse">
<stop stop-color="#5062D0"/>
<stop offset="0.20442" stop-color="#743BB7"/>
<stop offset="0.430939" stop-color="#DB2E78"/>
<stop offset="0.696133" stop-color="#EF7836"/>
<stop offset="0.980999" stop-color="#FFD385"/>
</linearGradient>
</defs>
</svg>
