<svg width="28" height="28" viewBox="0 0 28 28" fill="none" xmlns="http://www.w3.org/2000/svg">
<circle cx="14" cy="14" r="14" fill="#7D3DAF"/>
<path fill-rule="evenodd" clip-rule="evenodd" d="M18.089 21.4499C17.8114 21.3657 17.5469 21.3091 17.3013 21.2071C14.7561 20.1512 12.4137 18.7889 10.5582 16.7005C9.50309 15.513 8.67724 14.1723 7.97913 12.7535C7.64808 12.0806 7.36909 11.3814 7.08472 10.6867C6.82542 10.0533 7.20735 9.39884 7.60951 8.92154C7.98688 8.47361 8.47247 8.1308 8.99835 7.87816C9.40882 7.68095 9.81372 7.79464 10.1135 8.14256C10.7616 8.89474 11.3568 9.68539 11.8389 10.5573C12.1353 11.0936 12.0539 11.7491 11.5167 12.1141C11.3862 12.2028 11.2672 12.3069 11.1456 12.4071C11.0389 12.4949 10.9385 12.5836 10.8654 12.7025C10.7317 12.92 10.7254 13.1766 10.8114 13.4131C11.4739 15.2336 12.5905 16.6493 14.4229 17.4118C14.7161 17.5338 15.0106 17.6758 15.3484 17.6364C15.9141 17.5703 16.0973 16.9498 16.4937 16.6256C16.8812 16.3088 17.3763 16.3046 17.7937 16.5687C18.2112 16.8329 18.6159 17.1166 19.0182 17.4032C19.4131 17.6846 19.8062 17.9598 20.1704 18.2806C20.5206 18.589 20.6413 18.9936 20.4441 19.4122C20.083 20.1788 19.5577 20.8165 18.7998 21.2236C18.5859 21.3384 18.3303 21.3756 18.089 21.4499C17.8114 21.3656 18.3303 21.3756 18.089 21.4499Z" fill="white"/>
<path fill-rule="evenodd" clip-rule="evenodd" d="M14.169 7.00139C17.4982 7.09466 20.2326 9.30406 20.8185 12.5954C20.9184 13.1562 20.9539 13.7296 20.9983 14.2988C21.017 14.5382 20.8814 14.7657 20.6231 14.7688C20.3562 14.772 20.2361 14.5487 20.2188 14.3094C20.1845 13.8356 20.1607 13.3598 20.0954 12.89C19.7508 10.41 17.7733 8.35822 15.3047 7.91795C14.9333 7.85167 14.5531 7.83425 14.1768 7.79477C13.939 7.76979 13.6274 7.75539 13.5747 7.45971C13.5305 7.21181 13.7398 7.01442 13.9758 7.00175C14.04 6.99819 14.1045 7.00111 14.169 7.00139C17.4982 7.09466 14.1045 7.00111 14.169 7.00139Z" fill="white"/>
<path fill-rule="evenodd" clip-rule="evenodd" d="M19.2283 13.56C19.2229 13.6016 19.22 13.6993 19.1956 13.7914C19.1073 14.1257 18.6005 14.1675 18.4838 13.8302C18.4493 13.7301 18.4441 13.6162 18.4439 13.5084C18.4427 12.8033 18.2894 12.0989 17.9339 11.4854C17.5684 10.8548 17.0099 10.3247 16.3549 10.004C15.9589 9.81006 15.5305 9.68953 15.0965 9.61769C14.9067 9.58632 14.715 9.56727 14.5244 9.54074C14.2933 9.50864 14.17 9.3614 14.1809 9.13374C14.1911 8.9204 14.347 8.76695 14.5795 8.78008C15.3435 8.82348 16.0815 8.98859 16.7607 9.34827C18.142 10.0798 18.931 11.2344 19.1613 12.7761C19.1717 12.8459 19.1885 12.9151 19.1938 12.9853C19.2068 13.1584 19.215 13.3317 19.2283 13.56C19.2229 13.6016 19.215 13.3317 19.2283 13.56Z" fill="white"/>
<path fill-rule="evenodd" clip-rule="evenodd" d="M17.1576 13.4793C16.8791 13.4843 16.73 13.3301 16.7013 13.0748C16.6813 12.8967 16.6656 12.7163 16.6231 12.5431C16.5394 12.2019 16.358 11.8857 16.071 11.6766C15.9355 11.5779 15.782 11.506 15.6212 11.4595C15.4168 11.4006 15.2047 11.4168 15.0008 11.3668C14.7795 11.3126 14.657 11.1333 14.6918 10.9256C14.7235 10.7366 14.9074 10.5891 15.1139 10.6041C16.4046 10.6973 17.3271 11.3645 17.4588 12.884C17.4681 12.9913 17.479 13.1046 17.4552 13.2072C17.4145 13.3828 17.2844 13.4707 17.1576 13.4793C16.8791 13.4843 17.2844 13.4707 17.1576 13.4793Z" fill="white"/>
</svg>
