<svg width="72" height="72" viewBox="0 0 72 72" fill="none" xmlns="http://www.w3.org/2000/svg">
<path d="M25.5273 39.6005V44.4818C25.5273 45.36 26.2356 46.066 27.1138 46.066H31.4995C32.3777 46.066 33.0859 45.36 33.0859 44.4818V39.6005H25.5273Z" fill="url(#paint0_linear)"/>
<path d="M4.24556 2.25403C3.14206 2.25403 2.25391 3.14218 2.25391 4.24569V63.969C2.25391 65.0725 3.14207 65.9607 4.24556 65.9607H67.8685C69.2566 65.9607 69.8602 65.1654 69.8602 63.969V4.24569C69.8602 3.14218 68.972 2.25403 67.8685 2.25403H65.3069C64.2034 2.25403 63.3152 3.14218 63.3152 4.24569V22.0033H8.79886V4.24569C8.79886 3.14218 7.91067 2.25403 6.80721 2.25403H4.24556ZM8.79886 28.5505H63.3152V59.4157H8.79886V28.5505Z" fill="url(#paint1_linear)"/>
<path d="M38.6152 2.24854V7.12984C38.6152 8.00804 39.3234 8.71408 40.2016 8.71408H44.5874C45.4656 8.71408 46.1738 8.00804 46.1738 7.12984V2.24854H38.6152Z" fill="url(#paint2_linear)"/>
<path d="M4.24538 1.12671C2.53729 1.12671 1.12695 2.53703 1.12695 4.24514V63.9684C1.12695 65.6765 2.53727 67.0869 4.24538 67.0869H7.6323V67.6767C7.6323 69.4908 9.128 70.9865 10.9422 70.9865H15.238C17.574 70.9865 18.6777 68.2556 18.6777 67.0869H55.5751C55.906 69.3531 57.52 70.9865 59.0148 70.9865H63.3107C65.1248 70.9865 66.6206 69.4908 66.6206 67.6767V67.0869H67.8684C69.86 67.0869 70.9868 65.9116 70.9868 63.9684V4.24514C70.9868 2.53703 69.5764 1.12671 67.8684 1.12671H65.3067C63.5986 1.12671 62.1883 2.53703 62.1883 4.24514V20.876H56.5346C56.9249 20.2096 57.1662 19.4456 57.1662 18.6225V5.62939C57.1662 3.15196 55.1344 1.13111 52.6569 1.13111H32.2694C29.792 1.13111 27.7623 3.15196 27.7623 5.62939V15.8452C27.7283 17.3812 30.05 17.3812 30.0159 15.8452V5.62939C30.0159 4.36146 31.0015 3.37585 32.2694 3.37585H37.5512V7.14349C37.5512 8.62887 38.7812 9.85479 40.2647 9.85479H44.6551C46.1386 9.85479 47.3752 8.62887 47.3752 7.14349V3.37585H52.6569C53.9249 3.37585 54.9105 4.36142 54.9105 5.62939V18.6225C54.9105 19.8904 53.9249 20.876 52.6569 20.876H9.92545V4.24514C9.92545 2.53703 8.5151 1.12671 6.80703 1.12671H4.24538ZM4.24538 3.38025H6.80703C7.30588 3.38025 7.67191 3.74606 7.67191 4.24514V22.0028C7.67197 22.6251 8.17641 23.1295 8.79868 23.1296H63.3151C63.9373 23.1295 64.4418 22.6251 64.4418 22.0028V4.24514C64.4418 3.74619 64.8078 3.38025 65.3067 3.38025H67.8684C68.3672 3.38025 68.7332 3.74606 68.7332 4.24514V63.9684C68.7332 64.4648 68.5267 64.8333 67.8684 64.8333H4.24538C3.7465 64.8333 3.3805 64.4675 3.3805 63.9684V4.24514C3.3805 3.74619 3.74646 3.38025 4.24538 3.38025ZM39.8069 3.38466H45.1217V7.1435C45.1217 7.41733 44.9308 7.60125 44.6551 7.60125H40.2647C39.989 7.60125 39.8069 7.41741 39.8069 7.1435V3.38466ZM8.79868 27.4232C8.17641 27.4232 7.67197 27.9277 7.67191 28.55V59.4151C7.67197 60.0374 8.17641 60.5418 8.79868 60.5419C25.3986 60.544 41.9915 60.5419 58.5923 60.5419C60.1161 60.5635 60.1161 58.2668 58.5923 58.2884H42.1333C42.5234 57.622 42.7627 56.8578 42.7627 56.0348V43.0439C42.7627 40.5665 40.7331 38.5346 38.2556 38.5346H20.4539C17.9765 38.5346 15.9469 40.5665 15.9469 43.0439V56.0348C15.9469 56.8578 16.1861 57.622 16.5763 58.2884H9.92545V29.6767H62.1883V59.4151C62.1667 60.9389 64.4634 60.9389 64.4418 59.4151V28.55C64.4418 27.9277 63.9373 27.4232 63.3151 27.4232H8.79868ZM20.4539 40.7882H32.0166V44.5558C32.0166 44.8297 31.8257 45.0136 31.55 45.0136H27.1595C26.8838 45.0136 26.693 44.8297 26.693 44.5558V43.275C26.693 41.7723 24.4395 41.7723 24.4395 43.275V44.5558C24.4395 46.0412 25.6761 47.2693 27.1595 47.2693H31.55C33.0335 47.2693 34.2701 46.0412 34.2701 44.5558V40.7882H38.2556C39.5236 40.7882 40.5092 41.776 40.5092 43.0439V56.0348C40.5092 57.3027 39.5236 58.2884 38.2556 58.2884H20.4539C19.186 58.2884 18.2004 57.3027 18.2004 56.0348V43.0439C18.2004 41.776 19.186 40.7882 20.4539 40.7882ZM9.88584 67.0869H16.3846C16.3318 68.0503 15.8723 68.733 15.238 68.733H10.9422C10.3375 68.733 9.88584 68.2814 9.88584 67.6767V67.0869ZM57.8683 67.0869H64.367V67.6767C64.367 68.2814 63.9154 68.733 63.3107 68.733H59.0148C58.3116 68.733 57.8683 67.7271 57.8683 67.0869Z" fill="#40454A"/>
<defs>
<linearGradient id="paint0_linear" x1="25.2754" y1="41.6479" x2="32.5779" y2="45.7787" gradientUnits="userSpaceOnUse">
<stop stop-color="#FBBD1C"/>
<stop offset="1" stop-color="#F5B714"/>
</linearGradient>
<linearGradient id="paint1_linear" x1="0.0003636" y1="22.4278" x2="68.2271" y2="57.4615" gradientUnits="userSpaceOnUse">
<stop stop-color="#FBBD1C"/>
<stop offset="1" stop-color="#F5B714"/>
</linearGradient>
<linearGradient id="paint2_linear" x1="38.3633" y1="4.29596" x2="45.6658" y2="8.42676" gradientUnits="userSpaceOnUse">
<stop stop-color="#FBBD1C"/>
<stop offset="1" stop-color="#F5B714"/>
</linearGradient>
</defs>
</svg>
