<svg width="484" height="352" viewBox="0 0 484 352" fill="none" xmlns="http://www.w3.org/2000/svg">
<g clip-path="url(#clip0)">
<path d="M71.6014 315.047C165.959 364.318 318.93 364.318 413.177 315.047C507.534 265.775 507.534 185.876 413.177 136.605C318.819 87.3341 165.848 87.3341 71.6014 136.605C-22.7564 185.876 -22.7564 265.775 71.6014 315.047Z" fill="#E9F0F2"/>
<path d="M36.4106 232.484C36.4106 232.484 40.2959 221.72 41.184 210.068C42.0721 198.416 36.4106 180.439 25.9757 174.447C15.5409 168.454 9.99043 175.889 13.4317 182.214C16.873 188.651 28.64 206.628 28.862 222.164L36.4106 232.484Z" fill="#4699BA"/>
<path d="M32.7476 232.151C32.3035 232.04 32.1925 231.819 32.1925 231.486V231.375C33.0806 226.048 34.3017 218.835 32.6366 205.629C30.8604 190.759 25.976 183.879 21.5357 179.107C21.3136 178.885 21.3136 178.552 21.5357 178.331C21.7577 178.109 22.0907 178.109 22.3127 178.331C26.9751 183.213 31.9705 190.315 33.7467 205.518C35.3008 218.835 34.0797 226.159 33.1916 231.597V231.708C33.3026 232.04 33.0806 232.151 32.7476 232.151Z" fill="white"/>
<path d="M30.5275 239.143C29.4174 233.705 25.3101 227.491 17.5394 223.828C9.76877 220.166 1.6651 218.058 0.221984 213.397C-1.22114 208.736 3.66327 203.299 13.8761 205.629C24.089 207.849 34.9679 222.941 34.3018 233.15L30.5275 239.143Z" fill="#4699BA"/>
<path d="M32.7472 236.146C32.5252 236.146 32.1921 235.925 32.1921 235.703C30.083 221.942 18.427 211.4 9.21325 210.623C8.88022 210.623 8.6582 210.29 8.6582 210.068C8.6582 209.735 8.99123 209.513 9.21325 209.513C18.76 210.401 30.971 221.276 33.1912 235.592C33.4132 235.814 33.1912 236.036 32.7472 236.146C32.8582 236.146 32.8582 236.146 32.7472 236.146Z" fill="white"/>
<path d="M410.956 133.72C410.956 133.72 405.738 122.29 406.626 112.414C407.514 102.426 411.067 92.9936 419.614 86.3353C428.162 79.6771 434.712 82.6733 436.155 85.1146C437.598 87.556 437.598 92.3278 431.27 97.4324C424.943 102.648 418.06 116.741 419.947 130.946L417.061 139.268L410.956 133.72Z" fill="#4699BA"/>
<path d="M414.064 134.83C413.842 134.83 413.731 134.719 413.62 134.497C411.511 130.502 411.177 113.967 414.619 104.757C418.837 93.5485 426.497 87.2232 432.269 85.0038C432.602 84.8928 432.824 85.0038 432.935 85.3367C433.046 85.6696 432.935 85.8915 432.602 86.0025C427.052 88.111 419.725 94.2144 415.618 105.09C412.288 113.856 412.51 130.169 414.508 133.831C414.619 134.053 414.508 134.386 414.286 134.608C414.286 134.719 414.175 134.83 414.064 134.83Z" fill="white"/>
<path d="M435.489 157.579C436.377 151.919 436.488 148.368 441.817 144.928C447.145 141.488 451.918 138.936 452.251 133.942C452.584 128.948 449.365 123.289 449.476 118.961C449.698 114.633 452.362 112.525 457.913 108.752C463.574 104.979 469.236 98.4312 463.796 93.7704C458.246 89.1097 450.031 93.4375 446.257 96.6557C442.483 99.8739 439.485 101.095 433.713 99.5409C427.94 97.9873 422.39 101.982 423.722 109.306C425.054 116.63 424.388 119.96 419.726 119.738C415.063 119.516 408.292 124.287 413.731 135.385L435.489 157.579Z" fill="#4699BA"/>
<path d="M423.721 146.149C423.388 146.149 423.166 145.816 423.166 145.483C425.83 123.289 447.81 99.5408 457.801 96.1007C458.134 95.9897 458.356 96.1007 458.467 96.4336C458.578 96.7665 458.467 96.9885 458.134 97.0994C448.365 100.429 426.829 123.843 424.276 145.594C424.276 145.927 424.054 146.149 423.721 146.149Z" fill="white"/>
<path d="M433.269 121.624C433.047 121.624 432.825 121.513 432.714 121.18C430.383 113.523 429.605 105.977 429.605 105.977C429.605 105.644 429.827 105.422 430.05 105.422C430.383 105.422 430.605 105.644 430.605 105.866C430.605 105.977 431.382 113.301 433.713 120.847C433.824 121.18 433.602 121.402 433.38 121.513C433.38 121.624 433.269 121.624 433.269 121.624Z" fill="white"/>
<path d="M427.052 133.609C426.83 133.609 426.608 133.498 426.497 133.276C426.386 132.943 426.497 132.721 426.83 132.499C436.821 128.06 446.034 131.168 446.478 131.39C446.811 131.5 446.922 131.833 446.811 132.055C446.7 132.388 446.367 132.499 446.145 132.388C446.034 132.388 436.932 129.281 427.274 133.498C427.163 133.609 427.163 133.609 427.052 133.609Z" fill="white"/>
<path d="M278.522 23.415L251.436 7.76807L224.35 23.415L251.436 39.0619L278.522 23.415Z" fill="#EEEEEE"/>
<path d="M251.437 70.2445L278.523 54.7086V23.4148L251.437 39.0617V70.2445Z" fill="#E7E7E7"/>
<path d="M256.653 59.9242C256.542 59.9242 256.32 59.9242 256.209 59.8133C255.876 59.5913 255.654 59.2584 255.654 58.7035V55.3744V55.1525H255.876L258.43 53.5989V57.2609C258.43 58.1487 257.875 59.2584 257.097 59.7023C256.986 59.8133 256.875 59.9242 256.653 59.9242ZM256.209 55.5964V58.7035C256.209 59.0365 256.32 59.3694 256.542 59.4803C256.764 59.5913 256.986 59.4803 257.097 59.3694C257.652 59.0365 258.208 58.1487 258.208 57.2609V57.039H257.208L256.986 55.7073L256.209 55.5964ZM257.541 56.5951H258.097V54.3757L256.542 55.2634L257.319 55.3744L257.541 56.5951Z" fill="white"/>
<path d="M257.098 62.5875C256.987 62.5875 256.876 62.4766 256.876 62.3656V59.5913C256.876 59.4804 256.987 59.3694 257.098 59.3694C257.209 59.3694 257.32 59.4804 257.32 59.5913V62.3656C257.32 62.4766 257.209 62.5875 257.098 62.5875Z" fill="white"/>
<path d="M255.876 63.2535C255.765 63.2535 255.765 63.2535 255.654 63.1425C255.543 63.0315 255.654 62.9205 255.765 62.8096L258.208 61.3669C258.319 61.3669 258.43 61.3669 258.541 61.4779C258.652 61.5889 258.541 61.6999 258.43 61.8108L255.876 63.2535C255.987 63.2535 255.987 63.2535 255.876 63.2535Z" fill="white"/>
<path d="M264.536 58.4816C264.425 58.4816 264.425 58.4816 264.314 58.3707C264.203 58.2597 264.092 58.1487 264.092 57.8158V57.2609C264.092 57.15 264.203 57.039 264.314 57.039C264.425 57.039 264.536 57.15 264.536 57.2609V57.8158C264.536 57.9268 264.536 57.9268 264.536 57.9268H264.647C264.869 57.8158 264.98 57.3719 264.98 57.039V53.377C264.98 53.266 265.091 53.155 265.202 53.155C265.313 53.155 265.424 53.266 265.424 53.377V57.039C265.424 57.5939 265.202 58.1487 264.869 58.3707C264.758 58.3707 264.647 58.4816 264.536 58.4816Z" fill="white"/>
<path d="M262.315 55.2635V54.9306C262.315 53.266 263.537 51.1576 264.98 50.2698C265.757 49.8259 266.423 49.8259 266.978 50.0479C267.533 50.3808 267.866 51.0466 267.866 51.9344V52.0454L262.315 55.2635ZM266.201 50.2698C265.868 50.2698 265.535 50.3808 265.202 50.6027C263.981 51.2686 262.87 53.0441 262.759 54.4867L267.422 51.8234C267.422 51.1576 267.2 50.7137 266.756 50.4918C266.645 50.3808 266.423 50.2698 266.201 50.2698Z" fill="white"/>
<path d="M271.973 54.1539C271.862 54.1539 271.751 54.043 271.751 53.932V46.8299C271.751 46.7189 271.862 46.6079 271.973 46.6079C272.084 46.6079 272.195 46.7189 272.195 46.8299V53.932C272.195 54.1539 272.084 54.1539 271.973 54.1539Z" fill="white"/>
<path d="M271.418 48.4943C271.418 48.4943 271.307 48.4943 271.418 48.4943C271.196 48.3833 271.196 48.2724 271.196 48.1614L271.973 46.4968L272.75 47.4956C272.861 47.6065 272.861 47.7175 272.75 47.8285C272.639 47.9394 272.528 47.9394 272.417 47.8285L271.973 47.3846L271.529 48.4943C271.529 48.4943 271.529 48.4943 271.418 48.4943Z" fill="white"/>
<path d="M273.971 53.0441C273.86 53.0441 273.749 52.9331 273.749 52.8221V45.72C273.749 45.609 273.86 45.498 273.971 45.498C274.082 45.498 274.193 45.609 274.193 45.72V52.8221C274.193 53.0441 274.082 53.0441 273.971 53.0441Z" fill="white"/>
<path d="M273.305 47.3847C273.083 47.2737 273.083 47.1627 273.083 47.0518L273.86 45.3872L274.637 46.3859C274.748 46.4969 274.748 46.6079 274.637 46.7189C274.526 46.8298 274.415 46.8298 274.304 46.7189L273.86 46.275L273.416 47.3847C273.527 47.3847 273.416 47.3847 273.305 47.3847Z" fill="white"/>
<path d="M251.436 70.2445L224.35 54.7086V23.4148L251.436 39.0617V70.2445Z" fill="#D6D6D6"/>
<path d="M239.336 32.0706L266.422 16.4237L263.425 14.6482L236.339 30.2951L239.336 32.0706Z" fill="white"/>
<path d="M228.457 41.2811L238.115 46.8297C239.225 47.4955 240.002 48.9381 240.002 50.1588V56.1512C240.002 57.3719 239.114 57.9268 238.115 57.2609L228.457 51.7124C227.347 51.0465 226.57 49.6039 226.57 48.3832V42.3908C226.57 41.1701 227.458 40.7262 228.457 41.2811Z" fill="#4699BA"/>
<path d="M227.791 42.8347L228.124 43.0567V49.7149L227.791 49.493V42.8347Z" fill="#4699BA"/>
<path d="M229.234 43.7227L229.9 44.0556V50.7138L229.234 50.2699V43.7227Z" fill="#4699BA"/>
<path d="M230.789 44.4993L231.122 44.7212V51.3795L230.789 51.1575V44.4993Z" fill="#4699BA"/>
<path d="M231.898 45.1653L232.564 45.6092V52.2674L231.898 51.8235V45.1653Z" fill="#4699BA"/>
<path d="M233.786 46.2749L234.119 46.4968V53.1551L233.786 52.9332V46.2749Z" fill="#4699BA"/>
<path d="M234.785 46.8298L235.562 47.3847V53.932L234.785 53.4881V46.8298Z" fill="#4699BA"/>
<path d="M236.783 48.0505L237.116 48.1615V54.8198L236.783 54.5978V48.0505Z" fill="#4699BA"/>
<path d="M237.561 48.4944L237.783 48.6054V55.2636L237.561 55.1526V48.4944Z" fill="#4699BA"/>
<path d="M236.117 47.6064L236.228 47.7174V54.3757L236.006 54.2647L236.117 47.6064Z" fill="#4699BA"/>
<path d="M233.009 45.8311L233.231 45.942V52.6003L233.009 52.4893V45.8311Z" fill="#4699BA"/>
<path d="M231.344 44.9434L231.566 45.0543V51.7126L231.344 51.6016V44.9434Z" fill="#4699BA"/>
<path d="M230.233 44.2773L230.344 44.3883V51.0466L230.233 50.9356V44.2773Z" fill="#4699BA"/>
<path d="M228.568 43.2788L228.79 43.3898V50.048L228.568 49.9371V43.2788Z" fill="#4699BA"/>
<path d="M238.227 48.8271L238.56 49.0491V55.7073L238.227 55.4854V48.8271Z" fill="#4699BA"/>
<path d="M242.444 18.1992L210.918 0L179.28 18.1992L210.918 36.3985L242.444 18.1992Z" fill="#EEEEEE"/>
<path d="M197.375 28.6305L228.901 10.4313L225.793 8.65576L194.267 26.855L197.375 28.6305Z" fill="white"/>
<path d="M210.918 93.6595L242.445 75.4602V18.1992L210.918 36.3985V93.6595Z" fill="#E7E7E7"/>
<path d="M216.024 83.3393C215.913 83.3393 215.691 83.3393 215.58 83.2283C215.247 83.0064 215.025 82.6734 215.025 82.1186V78.7895V78.5675H215.247L217.801 77.0139V80.676C217.801 81.5637 217.246 82.6734 216.469 83.1173C216.469 83.2283 216.247 83.3393 216.024 83.3393ZM215.58 79.0114V82.1186C215.58 82.4515 215.691 82.7844 215.913 82.8954C216.135 83.0063 216.358 82.8954 216.469 82.7844C217.024 82.4515 217.579 81.5637 217.579 80.676V80.454H216.58L216.358 79.1224L215.58 79.0114ZM216.913 80.0101H217.468V77.6797L215.913 78.5675L216.691 78.6785L216.913 80.0101Z" fill="white"/>
<path d="M216.579 86.0026C216.468 86.0026 216.357 85.8916 216.357 85.7806V83.0064C216.357 82.8954 216.468 82.7844 216.579 82.7844C216.69 82.7844 216.801 82.8954 216.801 83.0064V85.7806C216.801 85.8916 216.69 86.0026 216.579 86.0026Z" fill="white"/>
<path d="M215.358 86.6683C215.247 86.6683 215.247 86.6683 215.136 86.5573C215.025 86.4464 215.136 86.3354 215.247 86.2244L217.689 84.7818C217.8 84.6708 217.911 84.7818 218.022 84.8928C218.133 85.0037 218.022 85.1147 217.911 85.2257L215.358 86.6683Z" fill="white"/>
<path d="M223.906 81.8967C223.795 81.8967 223.795 81.8967 223.684 81.7857C223.573 81.6747 223.462 81.5638 223.462 81.2308V80.676C223.462 80.565 223.573 80.4541 223.684 80.4541C223.795 80.4541 223.906 80.565 223.906 80.676V81.2308C223.906 81.3418 223.906 81.3418 223.906 81.3418H224.017C224.239 81.2309 224.35 80.787 224.35 80.4541V76.792C224.35 76.681 224.461 76.5701 224.572 76.5701C224.683 76.5701 224.794 76.681 224.794 76.792V80.4541C224.794 81.0089 224.572 81.5638 224.239 81.7857C224.128 81.8967 224.017 81.8967 223.906 81.8967Z" fill="white"/>
<path d="M221.797 78.6783V78.3454C221.797 76.6808 223.018 74.5724 224.461 73.6846C225.238 73.2407 225.904 73.2407 226.459 73.4627C227.014 73.7956 227.347 74.4614 227.347 75.3492V75.4602L221.797 78.6783ZM225.682 73.6846C225.349 73.6846 225.016 73.7956 224.683 74.0175C223.462 74.6834 222.352 76.4589 222.241 77.9015L226.903 75.2382C226.903 74.5724 226.681 74.1285 226.237 73.9066C226.015 73.7956 225.904 73.6846 225.682 73.6846Z" fill="white"/>
<path d="M231.454 77.5687C231.343 77.5687 231.232 77.4578 231.232 77.3468V70.2446C231.232 70.1337 231.343 70.0227 231.454 70.0227C231.565 70.0227 231.676 70.1337 231.676 70.2446V77.3468C231.676 77.5687 231.565 77.5687 231.454 77.5687Z" fill="white"/>
<path d="M230.788 71.9091C230.566 71.7981 230.566 71.6872 230.566 71.5762L231.343 69.9116L232.121 70.9104C232.232 71.0213 232.232 71.1323 232.121 71.2433C232.01 71.3542 231.899 71.3542 231.788 71.2433L231.343 70.7994L230.899 71.9091C231.01 71.9091 230.899 71.9091 230.788 71.9091Z" fill="white"/>
<path d="M233.342 76.57C233.231 76.57 233.12 76.459 233.12 76.348V69.2459C233.12 69.1349 233.231 69.0239 233.342 69.0239C233.453 69.0239 233.564 69.1349 233.564 69.2459V76.348C233.564 76.459 233.453 76.57 233.342 76.57Z" fill="white"/>
<path d="M232.786 70.7995C232.675 70.7995 232.675 70.7995 232.786 70.7995C232.564 70.6885 232.564 70.5775 232.564 70.4666L233.342 68.802L234.119 69.8007C234.23 69.9117 234.23 70.0227 234.119 70.1337C234.008 70.2446 233.897 70.2446 233.786 70.1337L233.342 69.6898L232.897 70.7995H232.786Z" fill="white"/>
<path d="M210.918 93.6595L179.28 75.4602V18.1992L210.918 36.3985V93.6595Z" fill="#D6D6D6"/>
<path d="M185.719 63.5864L195.377 69.1349C196.487 69.8007 197.264 71.2434 197.264 72.464V78.4565C197.264 79.6771 196.376 80.232 195.377 79.5662L185.719 74.0176C184.609 73.3518 183.832 71.9092 183.832 70.6885V64.6961C183.832 63.4754 184.609 62.9205 185.719 63.5864Z" fill="#EEEEEE"/>
<path d="M184.941 65.0291L185.385 65.251V71.9093L184.941 71.6873V65.0291Z" fill="#D6D6D6"/>
<path d="M186.496 65.9167L187.051 66.2497V72.9079L186.496 72.575V65.9167Z" fill="#D6D6D6"/>
<path d="M187.939 66.8044L188.383 67.0264V73.6846L187.939 73.4627V66.8044Z" fill="#D6D6D6"/>
<path d="M189.049 67.4705L189.826 67.9143V74.4616L189.049 74.0177V67.4705Z" fill="#D6D6D6"/>
<path d="M190.937 68.469L191.381 68.6909V75.3492L190.937 75.1273V68.469Z" fill="#D6D6D6"/>
<path d="M192.046 69.135L192.823 69.5789V76.2371L192.046 75.7933V69.135Z" fill="#D6D6D6"/>
<path d="M193.934 70.2446L194.378 70.4666V77.1248L193.934 76.9029V70.2446Z" fill="#D6D6D6"/>
<path d="M194.821 70.6885L195.043 70.7994V77.4577L194.821 77.3467V70.6885Z" fill="#D6D6D6"/>
<path d="M193.268 69.9116L193.49 70.0226V76.5699L193.268 76.4589V69.9116Z" fill="#D6D6D6"/>
<path d="M190.271 68.1362L190.493 68.2472V74.9055L190.271 74.7945V68.1362Z" fill="#D6D6D6"/>
<path d="M188.605 67.1375L188.828 67.2484V73.9067L188.605 73.7957V67.1375Z" fill="#D6D6D6"/>
<path d="M187.384 66.4717L187.606 66.5826V73.2409L187.384 73.1299V66.4717Z" fill="#D6D6D6"/>
<path d="M185.83 65.5837L185.941 65.6947V72.242L185.83 72.131V65.5837Z" fill="#D6D6D6"/>
<path d="M195.487 71.1323L195.82 71.3543V77.9016L195.487 77.7906V71.1323Z" fill="#D6D6D6"/>
<path d="M194.267 34.29L197.375 36.0656V28.6305L194.267 26.855V34.29Z" fill="#F0F0F0"/>
<path d="M147.754 78.1234L125.219 65.0288L93.5811 83.228L116.227 96.3226L147.754 78.1234Z" fill="#EEEEEE"/>
<path d="M116.227 148.368L147.753 130.169V78.1235L116.227 96.3228V148.368Z" fill="#E7E7E7"/>
<path d="M121.333 137.937C121.222 137.937 121 137.937 120.889 137.826C120.556 137.604 120.334 137.271 120.334 136.716V133.387V133.165H120.556L123.109 131.612V135.274C123.109 136.161 122.554 137.271 121.777 137.715C121.777 137.937 121.555 137.937 121.333 137.937ZM120.889 133.72V136.827C120.889 137.16 121 137.493 121.222 137.604C121.444 137.715 121.666 137.604 121.777 137.493C122.332 137.16 122.887 136.272 122.887 135.385V135.163H121.888L121.666 133.831L120.889 133.72ZM122.221 134.719H122.776V132.388L121.222 133.276L121.999 133.387L122.221 134.719Z" fill="white"/>
<path d="M121.888 140.6C121.777 140.6 121.666 140.489 121.666 140.378V137.604C121.666 137.493 121.777 137.382 121.888 137.382C121.999 137.382 122.11 137.493 122.11 137.604V140.378C122.11 140.489 121.999 140.6 121.888 140.6Z" fill="white"/>
<path d="M120.667 141.266C120.556 141.266 120.556 141.266 120.445 141.155C120.334 141.044 120.445 140.933 120.556 140.822L122.999 139.379C123.11 139.268 123.221 139.379 123.332 139.49C123.443 139.601 123.332 139.712 123.221 139.823L120.667 141.266Z" fill="white"/>
<path d="M129.215 136.494C129.104 136.494 129.104 136.494 128.993 136.383C128.882 136.272 128.771 136.161 128.771 135.828V135.384C128.771 135.274 128.882 135.163 128.993 135.163C129.104 135.163 129.215 135.274 129.215 135.384V135.939C129.215 136.05 129.215 136.05 129.215 136.05H129.326C129.548 135.939 129.659 135.495 129.659 135.163V131.501C129.659 131.39 129.77 131.279 129.881 131.279C129.992 131.279 130.103 131.39 130.103 131.501V135.163C130.103 135.717 129.881 136.272 129.548 136.494C129.437 136.494 129.326 136.494 129.215 136.494Z" fill="white"/>
<path d="M127.105 133.276V132.943C127.105 131.279 128.327 129.17 129.77 128.282C130.547 127.838 131.213 127.838 131.768 128.06C132.323 128.393 132.656 129.059 132.656 129.947V130.058L127.105 133.276ZM130.991 128.393C130.658 128.393 130.325 128.504 129.992 128.726C128.771 129.392 127.661 131.168 127.55 132.61L132.212 129.947C132.212 129.281 131.99 128.837 131.546 128.615C131.324 128.393 131.213 128.393 130.991 128.393Z" fill="white"/>
<path d="M136.764 132.277C136.653 132.277 136.542 132.166 136.542 132.055V124.953C136.542 124.842 136.653 124.731 136.764 124.731C136.875 124.731 136.986 124.842 136.986 124.953V132.055C136.986 132.166 136.875 132.277 136.764 132.277Z" fill="white"/>
<path d="M136.098 126.618C135.876 126.507 135.876 126.396 135.876 126.285L136.653 124.62L137.43 125.619C137.541 125.73 137.541 125.841 137.43 125.952C137.319 126.063 137.208 126.063 137.097 125.952L136.653 125.508L136.209 126.618C136.32 126.507 136.209 126.618 136.098 126.618Z" fill="white"/>
<path d="M138.651 131.168C138.54 131.168 138.429 131.057 138.429 130.946V123.844C138.429 123.733 138.54 123.622 138.651 123.622C138.762 123.622 138.873 123.733 138.873 123.844V130.946C138.873 131.057 138.762 131.168 138.651 131.168Z" fill="white"/>
<path d="M138.096 125.508C137.985 125.508 137.985 125.508 138.096 125.508C137.874 125.397 137.874 125.286 137.874 125.175L138.651 123.51L139.428 124.509C139.539 124.62 139.539 124.731 139.428 124.842C139.317 124.953 139.206 124.953 139.095 124.842L138.762 124.287L138.318 125.397C138.207 125.508 138.096 125.508 138.096 125.508Z" fill="white"/>
<path d="M116.227 148.368L93.5811 135.384V83.228L116.227 96.3226V148.368Z" fill="#D6D6D6"/>
<path d="M104.127 96.7666L107.124 98.4312V91.1071L104.127 89.3315V96.7666Z" fill="#EEEEEE"/>
<path d="M107.124 91.1071L138.762 72.9079L135.654 71.1323L104.127 89.3316L107.124 91.1071Z" fill="white"/>
<path d="M107.124 122.29L66.6059 98.875L25.9766 122.29L66.6059 145.705L107.124 122.29Z" fill="#EEEEEE"/>
<path d="M66.6055 176.999L107.124 153.584V122.29L66.6055 145.705V176.999Z" fill="#E7E7E7"/>
<path d="M71.8223 166.567C71.7113 166.567 71.4893 166.567 71.3783 166.456C71.0453 166.234 70.8232 165.901 70.8232 165.347V162.017V161.796H71.0453L73.5985 160.242V163.904C73.5985 164.792 73.0434 165.901 72.2664 166.345C72.1553 166.567 71.9333 166.567 71.8223 166.567ZM71.2673 162.35V165.458C71.2673 165.791 71.3783 166.123 71.6003 166.234C71.8223 166.345 72.0443 166.234 72.1554 166.123C72.7104 165.791 73.2654 164.792 73.2654 164.015V163.793H72.2664L72.0443 162.461L71.2673 162.35ZM72.5994 163.349H73.2654V161.019L71.7113 161.907L72.4884 162.017L72.5994 163.349Z" fill="white"/>
<path d="M72.2679 169.231C72.1569 169.231 72.0459 169.12 72.0459 169.009V166.234C72.0459 166.123 72.1569 166.012 72.2679 166.012C72.3789 166.012 72.4899 166.123 72.4899 166.234V169.009C72.4899 169.12 72.3789 169.231 72.2679 169.231Z" fill="white"/>
<path d="M71.0463 169.896C70.9353 169.896 70.9353 169.896 70.8243 169.785C70.7133 169.674 70.8243 169.563 70.9353 169.452L73.3775 168.01C73.4885 167.899 73.5995 168.01 73.7105 168.121C73.8216 168.232 73.7106 168.343 73.5995 168.454L71.0463 169.896C71.1573 169.896 71.0463 169.896 71.0463 169.896Z" fill="white"/>
<path d="M79.7048 165.125C79.5938 165.125 79.5938 165.125 79.4828 165.014C79.3717 164.903 79.2607 164.792 79.2607 164.459V163.904C79.2607 163.793 79.3717 163.682 79.4828 163.682C79.5938 163.682 79.7048 163.793 79.7048 163.904V164.459C79.7048 164.57 79.7048 164.57 79.7048 164.57H79.8158C80.0378 164.459 80.1488 164.015 80.1488 163.682V160.02C80.1488 159.909 80.2598 159.798 80.3708 159.798C80.4818 159.798 80.5928 159.909 80.5928 160.02V163.682C80.5928 164.237 80.3708 164.792 80.0378 165.014C79.9268 165.125 79.8158 165.125 79.7048 165.125Z" fill="white"/>
<path d="M77.4844 161.907V161.574C77.4844 159.909 78.7055 157.801 80.1486 156.913C80.9257 156.469 81.5917 156.469 82.1468 156.691C82.7018 157.024 83.0348 157.69 83.0348 158.577V158.688L77.4844 161.907ZM81.3697 157.024C81.0367 157.024 80.7036 157.135 80.3706 157.357C79.1495 158.023 78.0394 159.798 77.9284 161.241L82.5908 158.577C82.5908 157.912 82.3688 157.468 81.9247 157.246C81.8137 157.024 81.5917 157.024 81.3697 157.024Z" fill="white"/>
<path d="M87.1429 160.908C87.0319 160.908 86.9209 160.797 86.9209 160.686V153.584C86.9209 153.473 87.0319 153.362 87.1429 153.362C87.2539 153.362 87.3649 153.473 87.3649 153.584V160.686C87.3649 160.797 87.2539 160.908 87.1429 160.908Z" fill="white"/>
<path d="M86.4769 155.248C86.2549 155.137 86.2549 155.026 86.2549 154.915L87.0319 153.251L87.809 154.249C87.92 154.36 87.92 154.471 87.809 154.582C87.698 154.693 87.587 154.693 87.476 154.582L87.0319 154.138L86.5879 155.248C86.6989 155.137 86.5879 155.248 86.4769 155.248Z" fill="white"/>
<path d="M89.0296 159.798C88.9186 159.798 88.8076 159.687 88.8076 159.576V152.474C88.8076 152.363 88.9186 152.252 89.0296 152.252C89.1406 152.252 89.2517 152.363 89.2517 152.474V159.576C89.2517 159.687 89.1406 159.798 89.0296 159.798Z" fill="white"/>
<path d="M88.4749 154.139C88.3639 154.139 88.3639 154.139 88.4749 154.139C88.2529 154.028 88.2529 153.917 88.2529 153.806L89.03 152.141L89.8071 153.14C89.9181 153.251 89.9181 153.362 89.8071 153.473C89.6961 153.584 89.585 153.584 89.474 153.473L89.03 153.029L88.586 154.139C88.586 154.028 88.4749 154.139 88.4749 154.139Z" fill="white"/>
<path d="M66.6059 176.999L25.9766 153.584V122.29L66.6059 145.705V176.999Z" fill="#D6D6D6"/>
<path d="M44.7373 140.489L47.8456 142.265V134.941L44.7373 133.165V140.489Z" fill="#EEEEEE"/>
<path d="M47.8456 134.941L88.3639 111.526L85.3667 109.75L44.7373 133.165L47.8456 134.941Z" fill="white"/>
<path d="M32.4155 141.599L42.0733 147.148C43.1834 147.813 43.9604 149.256 43.9604 150.477V156.469C43.9604 157.69 43.0724 158.245 42.0733 157.579L32.4155 152.03C31.3054 151.364 30.5283 149.922 30.5283 148.701V142.709C30.5283 141.488 31.3054 141.044 32.4155 141.599Z" fill="#EEEEEE"/>
<path d="M31.6377 143.153L32.0817 143.375V150.033L31.6377 149.811V143.153Z" fill="#D6D6D6"/>
<path d="M33.1924 144.04L33.7474 144.373V151.031L33.1924 150.588V144.04Z" fill="#D6D6D6"/>
<path d="M34.6357 144.817L35.0798 145.039V151.697L34.6357 151.475V144.817Z" fill="#D6D6D6"/>
<path d="M35.7451 145.483L36.5222 145.927V152.585L35.7451 152.141V145.483Z" fill="#D6D6D6"/>
<path d="M37.6328 146.593L38.0768 146.814V153.473L37.6328 153.251V146.593Z" fill="#D6D6D6"/>
<path d="M38.7422 147.147L39.5193 147.702V154.25L38.7422 153.806V147.147Z" fill="#D6D6D6"/>
<path d="M40.6299 148.368L41.0739 148.479V155.137L40.6299 154.915V148.368Z" fill="#D6D6D6"/>
<path d="M41.5176 148.812L41.7396 148.923V155.581L41.5176 155.47V148.812Z" fill="#D6D6D6"/>
<path d="M39.9639 147.924L40.1859 148.035V154.694L39.9639 154.583V147.924Z" fill="#D6D6D6"/>
<path d="M36.9668 146.149L37.1888 146.26V152.918L36.9668 152.807V146.149Z" fill="#D6D6D6"/>
<path d="M35.3018 145.261L35.5238 145.372V152.03L35.3018 151.919V145.261Z" fill="#D6D6D6"/>
<path d="M34.0801 144.595L34.3021 144.706V151.364L34.0801 151.253V144.595Z" fill="#D6D6D6"/>
<path d="M32.5264 143.596L32.6374 143.707V150.366L32.5264 150.255V143.596Z" fill="#D6D6D6"/>
<path d="M42.1836 149.145L42.5166 149.367V156.025L42.1836 155.803V149.145Z" fill="#D6D6D6"/>
<path d="M98.133 59.8133L66.6064 41.614L34.9688 59.8133L66.6064 78.1235L98.133 59.8133Z" fill="#EEEEEE"/>
<path d="M66.6055 140.489L98.1321 122.29V59.8132L66.6055 78.1234V140.489Z" fill="#E7E7E7"/>
<path d="M71.8223 130.169C71.7113 130.169 71.4893 130.169 71.3783 130.058C71.0453 129.836 70.8232 129.503 70.8232 128.948V125.619V125.397H71.0453L73.5985 123.844V127.506C73.5985 128.393 73.0434 129.503 72.2664 129.947C72.1553 130.169 71.9333 130.169 71.8223 130.169ZM71.2673 125.841V128.948C71.2673 129.281 71.3783 129.614 71.6003 129.725C71.8223 129.836 72.0443 129.725 72.1554 129.614C72.7104 129.281 73.2654 128.393 73.2654 127.506V127.284H72.2664L72.0443 125.952L71.2673 125.841ZM72.5994 126.951H73.2654V124.62L71.7113 125.508L72.4884 125.619L72.5994 126.951Z" fill="white"/>
<path d="M72.2679 132.832C72.1569 132.832 72.0459 132.721 72.0459 132.61V129.836C72.0459 129.725 72.1569 129.614 72.2679 129.614C72.3789 129.614 72.4899 129.725 72.4899 129.836V132.61C72.4899 132.721 72.3789 132.832 72.2679 132.832Z" fill="white"/>
<path d="M71.0463 133.498C70.9353 133.498 70.9353 133.498 70.8243 133.387C70.7133 133.276 70.8243 133.165 70.9353 133.054L73.3775 131.611C73.4885 131.5 73.5995 131.611 73.7105 131.722C73.8216 131.833 73.7106 131.944 73.5995 132.055L71.0463 133.498C71.1573 133.498 71.0463 133.498 71.0463 133.498Z" fill="white"/>
<path d="M79.7048 128.726C79.5938 128.726 79.5938 128.726 79.4828 128.615C79.3717 128.504 79.2607 128.393 79.2607 128.061V127.617C79.2607 127.506 79.3717 127.395 79.4828 127.395C79.5938 127.395 79.7048 127.506 79.7048 127.617V128.172C79.7048 128.282 79.7048 128.282 79.7048 128.282H79.8158C80.0378 128.172 80.1488 127.728 80.1488 127.395V123.733C80.1488 123.622 80.2598 123.511 80.3708 123.511C80.4818 123.511 80.5928 123.622 80.5928 123.733V127.395C80.5928 127.95 80.3708 128.504 80.0378 128.726C79.9268 128.726 79.8158 128.726 79.7048 128.726Z" fill="white"/>
<path d="M77.4844 125.508V125.175C77.4844 123.511 78.7055 121.402 80.1486 120.514C80.9257 120.071 81.5917 120.071 82.1468 120.293C82.7018 120.625 83.0348 121.291 83.0348 122.179V122.29L77.4844 125.508ZM81.3697 120.514C81.0367 120.514 80.7036 120.625 80.3706 120.847C79.1495 121.513 78.0394 123.289 77.9284 124.731L82.5908 122.068C82.5908 121.402 82.3688 120.958 81.9247 120.736C81.8137 120.625 81.5917 120.514 81.3697 120.514Z" fill="white"/>
<path d="M87.1429 124.509C87.0319 124.509 86.9209 124.398 86.9209 124.287V117.185C86.9209 117.074 87.0319 116.963 87.1429 116.963C87.2539 116.963 87.3649 117.074 87.3649 117.185V124.287C87.3649 124.398 87.2539 124.509 87.1429 124.509Z" fill="white"/>
<path d="M86.4769 118.739C86.2549 118.628 86.2549 118.517 86.2549 118.406L87.0319 116.741L87.809 117.74C87.92 117.851 87.92 117.962 87.809 118.073C87.698 118.184 87.587 118.184 87.476 118.073L87.0319 117.629L86.5879 118.739C86.6989 118.739 86.5879 118.739 86.4769 118.739Z" fill="white"/>
<path d="M89.0296 123.4C88.9186 123.4 88.8076 123.289 88.8076 123.178V116.076C88.8076 115.965 88.9186 115.854 89.0296 115.854C89.1406 115.854 89.2517 115.965 89.2517 116.076V123.178C89.2517 123.289 89.1406 123.4 89.0296 123.4Z" fill="white"/>
<path d="M88.4749 117.74C88.3639 117.74 88.3639 117.74 88.4749 117.74C88.2529 117.629 88.2529 117.518 88.2529 117.407L89.03 115.743L89.8071 116.741C89.9181 116.852 89.9181 116.963 89.8071 117.074C89.6961 117.185 89.585 117.185 89.474 117.074L89.03 116.63L88.586 117.74C88.586 117.629 88.4749 117.74 88.4749 117.74Z" fill="white"/>
<path d="M66.6064 140.489L34.9688 122.29V59.8132L66.6064 78.1234V140.489Z" fill="#D6D6D6"/>
<path d="M49.9541 75.9041L53.0624 77.6796V70.2445L49.9541 68.469V75.9041Z" fill="#EEEEEE"/>
<path d="M53.0624 70.2446L84.589 52.0453L81.5917 50.2698L49.9541 68.469L53.0624 70.2446Z" fill="white"/>
<path d="M41.4067 110.416L51.0645 115.964C52.1746 116.63 52.9516 118.073 52.9516 119.294V125.286C52.9516 126.507 52.0636 127.062 51.0645 126.396L41.4067 120.847C40.2966 120.181 39.5195 118.739 39.5195 117.518V111.526C39.5195 110.305 40.4076 109.75 41.4067 110.416Z" fill="#EEEEEE"/>
<path d="M40.6299 111.859L41.0739 112.081V118.739L40.6299 118.517V111.859Z" fill="#D6D6D6"/>
<path d="M42.1836 112.746L42.8496 113.19V119.738L42.1836 119.405V112.746Z" fill="#D6D6D6"/>
<path d="M43.627 113.634L44.071 113.856V120.514L43.627 120.293V113.634Z" fill="#D6D6D6"/>
<path d="M44.8486 114.3L45.5147 114.744V121.291L44.8486 120.958V114.3Z" fill="#D6D6D6"/>
<path d="M46.624 115.41L47.0681 115.521V122.179L46.624 121.957V115.41Z" fill="#D6D6D6"/>
<path d="M47.7344 115.965L48.5114 116.408V123.067L47.7344 122.623V115.965Z" fill="#D6D6D6"/>
<path d="M49.6221 117.074L50.0661 117.296V123.954L49.6221 123.732V117.074Z" fill="#D6D6D6"/>
<path d="M50.5098 117.629H50.7318V124.287L50.5098 124.176V117.629Z" fill="#D6D6D6"/>
<path d="M48.9561 116.741L49.1781 116.852V123.511L48.9561 123.4V116.741Z" fill="#D6D6D6"/>
<path d="M45.958 114.966L46.18 115.077V121.735L45.958 121.624V114.966Z" fill="#D6D6D6"/>
<path d="M44.293 113.967L44.515 114.078V120.736L44.293 120.625V113.967Z" fill="#D6D6D6"/>
<path d="M43.0723 113.412H43.2943V120.07L43.0723 119.959V113.412Z" fill="#D6D6D6"/>
<path d="M41.5176 112.414L41.7396 112.525V119.072L41.5176 118.961V112.414Z" fill="#D6D6D6"/>
<path d="M51.1758 117.962L51.5088 118.184V124.842L51.1758 124.62V117.962Z" fill="#D6D6D6"/>
<path d="M35.3009 231.818L156.412 301.73C159.076 303.284 163.406 303.284 166.07 301.73L431.493 148.479C434.157 146.926 434.157 144.484 431.493 142.931L310.382 73.019C307.717 71.4654 303.388 71.4654 300.724 73.019L35.3009 226.27C32.6367 227.823 32.6367 230.265 35.3009 231.818Z" fill="#455A64"/>
<path d="M100.796 264.222C104.46 266.33 110.454 266.33 114.117 264.222C117.781 262.114 117.781 258.673 114.117 256.565C110.454 254.457 104.46 254.457 100.796 256.565C97.133 258.673 97.133 262.114 100.796 264.222Z" fill="#263238"/>
<path d="M158.632 301.73L37.5211 231.818C35.1899 230.487 34.8569 228.267 36.7441 226.825C34.4129 228.6 32.6367 231.818 32.6367 234.593V239.142C32.6367 242.25 34.7459 245.912 37.4101 247.465L158.521 317.377C159.853 318.154 161.629 318.487 163.295 318.487V302.84C161.74 302.84 159.964 302.507 158.632 301.73Z" fill="#37474F"/>
<path d="M431.493 164.126C434.157 162.573 436.267 158.911 436.267 155.803V151.254C436.267 148.479 434.49 145.15 432.159 143.486C434.046 145.039 433.824 147.148 431.382 148.479L166.07 301.73C164.738 302.507 162.962 302.84 161.297 302.84V318.487C163.073 318.487 164.738 318.154 166.07 317.377L431.493 164.126Z" fill="#263238"/>
<path d="M176.393 287.193L60.4996 220.277C58.9455 219.39 58.9455 217.836 60.4996 216.948L284.627 87.5562C286.181 86.6684 288.845 86.6684 290.4 87.5562L406.404 154.472C407.958 155.359 407.958 156.913 406.404 157.801L182.166 287.193C180.612 288.192 178.058 288.192 176.393 287.193Z" fill="white"/>
<path d="M129.659 249.796L143.202 242.028L138.762 239.475L125.219 247.243L129.659 249.796Z" fill="#4699BA"/>
<path d="M292.065 156.136L305.608 148.368L301.057 145.705L287.514 153.584L292.065 156.136Z" fill="#4699BA"/>
<path d="M319.04 140.489L332.583 132.721L328.143 130.169L314.6 137.937L319.04 140.489Z" fill="#4699BA"/>
<path d="M362.556 113.19C363.444 113.745 364.998 113.745 365.886 113.19C366.774 112.636 366.774 111.748 365.886 111.193C364.998 110.638 363.444 110.638 362.556 111.193C361.557 111.748 361.557 112.636 362.556 113.19Z" fill="#263238"/>
<path d="M367.884 128.505C369.771 129.614 372.769 129.614 374.656 128.505C376.543 127.395 376.543 125.73 374.656 124.621C372.769 123.511 369.771 123.511 367.884 124.621C365.997 125.73 365.997 127.395 367.884 128.505Z" fill="#263238"/>
<path d="M363.111 121.735C364.332 121.069 364.332 119.849 363 119.072L340.798 106.199C339.466 105.423 337.357 105.423 336.136 106.088C334.915 106.754 334.915 107.975 336.247 108.752L358.449 121.624C359.781 122.401 361.89 122.401 363.111 121.735Z" fill="#263238"/>
<path d="M325.256 69.6897L326.033 69.2458C325.589 70.9104 325.256 72.9078 325.256 75.0163V77.6796C325.256 87.445 336.912 112.192 341.242 121.069C341.686 121.957 335.802 128.282 335.802 128.282L342.796 124.287C342.796 124.287 360.335 109.861 360.335 97.9873V95.324C360.335 83.4501 352.454 69.2458 342.796 63.6972C337.911 60.923 333.471 60.812 330.363 62.9204L323.702 66.6935L325.256 69.6897ZM334.026 78.7893C334.026 73.2407 337.911 70.9104 342.796 73.6846C342.352 77.2357 348.901 88.4438 351.565 88.8877C351.565 94.4362 347.68 96.7666 342.796 93.9923C338.022 91.1071 334.026 84.3378 334.026 78.7893Z" fill="#4699BA"/>
<path d="M318.041 82.0075C318.263 93.8814 336.358 128.171 336.358 128.171C336.358 128.171 353.675 113.523 353.453 101.649V98.9861C353.231 87.1122 345.238 73.0189 335.469 67.5813C325.701 62.1437 317.93 67.3593 318.152 79.3442L318.041 82.0075ZM326.811 82.8953C326.7 77.3467 330.585 75.0163 335.469 77.6796C340.354 80.3429 344.35 87.1122 344.461 92.6607C344.572 98.2093 340.687 100.54 335.802 97.8764C330.918 95.2131 326.922 88.5548 326.811 82.8953Z" fill="#4699BA"/>
<path opacity="0.1" d="M318.041 82.0075C318.263 93.8814 336.358 128.171 336.358 128.171C336.358 128.171 353.675 113.523 353.453 101.649V98.9861C353.231 87.1122 345.238 73.0189 335.469 67.5813C325.701 62.1437 317.93 67.3593 318.152 79.3442L318.041 82.0075ZM326.811 82.8953C326.7 77.3467 330.585 75.0163 335.469 77.6796C340.354 80.3429 344.35 87.1122 344.461 92.6607C344.572 98.2093 340.687 100.54 335.802 97.8764C330.918 95.2131 326.922 88.5548 326.811 82.8953Z" fill="black"/>
<path d="M148.752 240.696C159.964 247.132 186.273 242.472 207.476 230.154L265.756 196.53C286.958 184.323 295.062 169.12 283.85 162.683C272.638 156.247 246.218 160.908 225.015 173.226L166.736 206.85C145.644 219.057 137.54 234.26 148.752 240.696Z" fill="#F0F0F0"/>
<path d="M156.745 234.26L170.288 226.381L165.736 223.828L152.193 231.596L156.745 234.26Z" fill="#4699BA"/>
<path d="M183.831 218.613L197.374 210.845L192.822 208.182L179.279 216.061L183.831 218.613Z" fill="#4699BA"/>
<path d="M178.281 215.506C178.281 222.053 173.729 229.932 168.068 233.261C165.07 235.037 162.295 235.037 160.519 233.705C159.187 232.706 158.188 231.042 157.966 228.822C158.299 228.711 158.743 228.489 159.076 228.267C164.737 225.049 169.289 217.059 169.289 210.512C169.289 209.957 169.289 209.513 169.178 209.069C171.287 208.071 173.285 207.96 174.728 208.625C176.948 209.513 178.281 211.955 178.281 215.506Z" fill="#263238"/>
<path d="M179.169 202.078C179.058 202.078 179.058 201.967 178.947 201.967C176.06 200.413 172.286 200.746 167.957 203.188C159.298 208.181 152.193 220.388 152.193 230.487C152.193 235.591 153.97 239.142 156.856 240.696C159.742 242.36 163.627 242.028 167.957 239.586C176.615 234.593 183.72 222.275 183.72 212.287C183.831 207.183 182.055 203.632 179.169 202.078ZM168.068 233.15C165.07 234.925 162.295 234.925 160.519 233.594C158.854 232.484 157.855 230.265 157.855 227.157C157.855 220.61 162.406 212.731 168.068 209.402C170.621 207.96 172.952 207.627 174.839 208.403C176.948 209.291 178.392 211.733 178.392 215.284C178.281 221.942 173.729 229.932 168.068 233.15Z" fill="#37474F"/>
<path d="M175.283 208.847C175.283 208.847 175.172 208.847 175.172 208.736C173.285 207.738 170.843 207.96 168.067 209.513C162.406 212.731 157.854 220.721 157.854 227.268C157.854 230.598 158.965 232.817 160.852 233.927C162.739 234.925 165.292 234.815 168.067 233.15C173.729 229.932 178.28 221.942 178.28 215.395C178.28 212.176 177.059 209.846 175.283 208.847ZM168.067 230.82C165.625 232.262 163.516 232.262 161.962 231.152C160.63 230.265 159.853 228.489 159.853 226.048C159.853 220.832 163.516 214.396 168.067 211.844C170.177 210.623 172.064 210.401 173.507 211.067C175.283 211.844 176.282 213.73 176.282 216.615C176.282 221.831 172.619 228.267 168.067 230.82Z" fill="#4699BA"/>
<path d="M210.917 202.966L224.349 195.198L219.908 192.535L206.365 200.414L210.917 202.966Z" fill="#4699BA"/>
<path d="M237.893 187.43L251.436 179.551L246.995 176.999L233.452 184.767L237.893 187.43Z" fill="#4699BA"/>
<path d="M264.978 171.783L278.521 163.904L273.97 161.352L260.427 169.12L264.978 171.783Z" fill="#4699BA"/>
<path d="M197.707 99.208C198.595 98.4312 199.483 98.7641 199.705 99.8738C199.927 100.984 199.372 102.537 198.484 103.314C197.596 104.091 196.707 103.758 196.485 102.648C196.263 101.427 196.819 99.8738 197.707 99.208Z" fill="#4699BA"/>
<path d="M208.031 104.091L199.039 98.8752L197.041 103.647L206.144 108.863L208.031 104.091Z" fill="#4699BA"/>
<path d="M206.699 104.313C207.587 103.536 208.475 103.869 208.697 104.979C208.919 106.088 208.364 107.642 207.476 108.419C206.588 109.195 205.7 108.863 205.478 107.753C205.256 106.643 205.811 105.09 206.699 104.313Z" fill="#4699BA"/>
<path d="M276.19 148.146C276.19 148.368 276.19 148.59 276.19 148.812C276.19 149.256 276.19 149.7 276.19 150.144C274.414 149.367 272.083 149.589 269.419 151.142C263.757 154.361 259.206 162.351 259.206 168.898C259.206 171.894 260.205 174.113 261.87 175.334C261.426 175.667 260.982 176 260.427 176.222C260.205 176.333 260.094 176.444 259.872 176.444L258.318 182.325L249.215 177.221C246.329 175.556 244.553 172.005 244.553 167.011C244.553 156.913 251.657 144.706 260.316 139.712C264.645 137.271 268.531 136.938 271.417 138.603L280.298 143.596C280.409 143.596 280.409 143.707 280.52 143.707L276.19 148.146Z" fill="#455A64"/>
<path d="M280.631 143.596C280.519 143.596 280.519 143.485 280.408 143.485C277.522 141.932 273.748 142.265 269.419 144.706C260.649 149.7 253.655 162.018 253.655 172.005C253.655 177.11 255.431 180.661 258.318 182.214C261.204 183.879 265.089 183.546 269.419 181.105C278.077 176.111 285.182 163.793 285.182 153.806C285.293 148.812 283.517 145.261 280.631 143.596ZM269.53 174.668C266.532 176.444 263.757 176.444 261.981 175.112C260.316 174.002 259.317 171.783 259.317 168.676C259.317 162.129 263.868 154.25 269.53 150.92C272.083 149.478 274.414 149.145 276.301 149.922C278.41 150.809 279.853 153.251 279.853 156.802C279.742 163.571 275.191 171.45 269.53 174.668Z" fill="#37474F"/>
<path d="M279.742 157.024C279.742 163.571 275.191 171.45 269.53 174.779C266.532 176.555 263.757 176.555 261.981 175.223C260.649 174.224 259.65 172.56 259.428 170.34C259.761 170.229 260.205 170.008 260.538 169.786C266.199 166.567 270.751 158.577 270.751 152.03C270.751 151.475 270.751 151.031 270.64 150.588C272.749 149.589 274.747 149.589 276.19 150.144C278.41 151.031 279.742 153.473 279.742 157.024Z" fill="#263238"/>
<path d="M276.745 150.366C276.745 150.366 276.634 150.366 276.634 150.255C274.747 149.256 272.304 149.478 269.529 151.031C263.868 154.25 259.316 162.24 259.316 168.787C259.316 172.116 260.426 174.335 262.314 175.445C264.201 176.444 266.754 176.333 269.529 174.668C275.191 171.45 279.742 163.46 279.742 156.913C279.742 153.695 278.521 151.475 276.745 150.366ZM269.529 172.449C267.087 173.891 264.978 173.891 263.424 172.782C262.092 171.894 261.315 170.118 261.315 167.677C261.315 162.461 264.978 156.025 269.529 153.473C271.638 152.252 273.526 152.03 274.969 152.696C276.745 153.473 277.744 155.359 277.744 158.245C277.744 163.46 274.081 169.786 269.529 172.449Z" fill="#4699BA"/>
<path d="M260.427 160.353C260.427 160.353 282.962 147.37 285.96 145.594C288.957 143.929 279.188 133.831 272.083 133.165C264.979 132.499 260.316 134.275 260.316 134.275C260.316 134.275 265.756 141.266 264.868 145.261C264.091 149.145 260.427 160.353 260.427 160.353Z" fill="#4699BA"/>
<path d="M224.349 118.628C224.349 118.628 261.315 137.271 262.98 138.381C264.534 139.49 262.98 152.474 260.427 160.242C257.874 168.01 253.988 179.773 252.434 183.213C250.88 186.653 248.771 187.763 245.108 189.982C241.333 192.202 218.466 205.407 218.466 205.407L182.388 209.735L168.067 201.967L171.842 178.552C171.842 178.552 210.14 158.134 215.468 155.137C220.686 152.03 236.116 137.937 224.349 118.628Z" fill="#4699BA"/>
<path opacity="0.2" d="M224.349 118.628C224.349 118.628 261.315 137.271 262.98 138.381C264.534 139.49 262.98 152.474 260.427 160.242C257.874 168.01 253.988 179.773 252.434 183.213C250.88 186.653 248.771 187.763 245.108 189.982C241.333 192.202 218.466 205.407 218.466 205.407L182.388 209.735L168.067 201.967L171.842 178.552C171.842 178.552 210.14 158.134 215.468 155.137C220.686 152.03 236.116 137.937 224.349 118.628Z" fill="black"/>
<path d="M263.757 155.914C267.088 146.926 269.53 139.601 269.197 134.497C268.642 128.615 266.422 123.733 256.653 121.291C246.884 118.85 233.119 118.85 233.119 118.85L228.9 121.291C228.9 121.291 257.097 137.604 260.205 139.379C262.203 140.489 264.201 145.372 260.427 160.353C260.427 160.353 260.76 160.575 261.093 160.686C261.537 160.908 262.647 158.799 263.757 155.914Z" fill="#4699BA"/>
<path opacity="0.3" d="M263.757 155.914C267.088 146.926 269.53 139.601 269.197 134.497C268.642 128.615 266.422 123.733 256.653 121.291C246.884 118.85 233.119 118.85 233.119 118.85L228.9 121.291C228.9 121.291 257.097 137.604 260.205 139.379C262.203 140.489 264.201 145.372 260.427 160.353C260.427 160.353 260.76 160.575 261.093 160.686C261.537 160.908 262.647 158.799 263.757 155.914Z" fill="white"/>
<path d="M242.443 129.059L246.995 126.507C246.995 126.507 246.773 110.749 240.112 106.865C233.451 103.092 210.917 105.644 210.917 105.644L206.365 108.197L242.443 129.059Z" fill="#4699BA"/>
<path d="M227.68 110.527C225.57 111.748 225.57 113.745 227.68 115.077C229.789 116.298 233.341 116.298 235.561 115.077C237.67 113.856 237.67 111.859 235.561 110.527C233.341 109.195 229.789 109.195 227.68 110.527Z" fill="#F0F0F0"/>
<path d="M234.562 118.073C233.008 118.961 233.008 120.403 234.562 121.291C236.116 122.179 238.558 122.179 240.113 121.291C241.667 120.403 241.667 118.961 240.113 118.073C238.558 117.185 236.116 117.185 234.562 118.073Z" fill="#F0F0F0"/>
<path d="M217.133 108.53C215.579 109.417 215.579 110.86 217.133 111.748C218.687 112.636 221.13 112.636 222.684 111.748C224.238 110.86 224.238 109.417 222.684 108.53C221.13 107.642 218.687 107.642 217.133 108.53Z" fill="#F0F0F0"/>
<path d="M242.999 124.51C243.887 123.733 244.775 124.066 244.997 125.175C245.219 126.285 244.664 127.839 243.776 128.615C242.888 129.392 241.999 129.059 241.777 127.95C241.555 126.84 242.11 125.286 242.999 124.51Z" fill="#4699BA"/>
<path d="M253.433 129.392L244.442 124.177L242.443 128.948L251.546 134.164L253.433 129.392Z" fill="#4699BA"/>
<path d="M252.101 129.725C252.989 128.948 253.877 129.281 254.099 130.391C254.321 131.501 253.766 133.054 252.878 133.831C251.99 134.608 251.102 134.275 250.88 133.165C250.658 132.056 251.213 130.502 252.101 129.725Z" fill="#4699BA"/>
<path d="M252.101 129.725C252.989 128.948 253.877 129.281 254.099 130.391C254.321 131.501 253.766 133.054 252.878 133.831C251.99 134.608 251.102 134.275 250.88 133.165C250.658 132.056 251.213 130.502 252.101 129.725Z" fill="black"/>
<path d="M174.727 206.628C174.727 206.85 174.727 207.072 174.727 207.294C174.727 207.738 174.727 208.182 174.727 208.625C172.951 207.849 170.62 208.071 167.956 209.624C162.294 212.842 157.743 220.832 157.743 227.38C157.743 230.376 158.742 232.595 160.407 233.816C159.963 234.149 159.519 234.482 158.964 234.704C158.742 234.815 158.631 234.926 158.409 234.926L156.855 240.807L147.752 235.702C144.866 234.038 143.09 230.487 143.09 225.493C143.09 215.395 150.194 203.188 158.853 198.194C163.183 195.753 167.068 195.42 169.954 197.084L178.835 202.078C178.946 202.078 178.946 202.189 179.057 202.189L174.727 206.628Z" fill="#455A64"/>
<path d="M147.753 188.984L140.981 212.398L154.525 220.166L161.518 196.863L147.753 188.984Z" fill="#4699BA"/>
<path opacity="0.2" d="M147.753 188.984L140.981 212.398L154.525 220.166L161.518 196.863L147.753 188.984Z" fill="black"/>
<path d="M147.753 188.984C147.753 188.984 155.413 195.42 161.518 196.974C169.511 198.86 182.277 199.082 186.828 199.415C193.711 199.859 198.928 199.859 201.37 198.971C204.59 197.861 213.026 192.979 215.358 191.536C219.909 188.984 221.796 178.663 209.363 175.889C196.93 173.115 183.831 173.337 183.831 173.337L147.753 188.984Z" fill="#4699BA"/>
<path d="M224.238 185.987C223.905 186.431 223.794 187.541 223.461 188.983C223.128 190.426 223.017 191.536 223.239 192.313C223.461 192.978 225.015 194.643 227.013 195.198C228.9 195.753 231.342 195.309 233.562 193.977C235.894 192.646 237.559 190.981 240.889 189.982C244.108 189.094 245.773 188.318 247.328 187.097C249.104 185.654 251.546 181.659 248.105 180.661C244.663 179.773 237.115 182.991 230.232 183.324L224.238 185.987Z" fill="#37474F"/>
<path d="M224.238 181.659V186.764C224.238 186.764 224.682 188.54 227.014 188.873C227.569 188.984 228.124 188.873 228.679 188.651C230.344 188.096 231.454 186.431 231.565 184.545L231.787 181.438H224.238V181.659Z" fill="#FFA8A7"/>
<path d="M234.007 149.922C234.007 156.358 232.23 183.879 232.23 183.879C232.23 183.879 229.566 187.208 223.905 183.879L222.018 153.14L234.007 149.922Z" fill="#37474F"/>
<path d="M204.257 177.11L222.018 166.9C223.35 166.124 224.46 164.348 224.46 162.905C224.46 161.463 223.35 159.687 222.018 158.91L208.808 151.253C207.476 150.477 205.367 150.477 204.035 151.253L186.273 161.463C184.941 162.24 183.831 164.015 183.831 165.458C183.831 166.9 184.941 168.676 186.273 169.453L199.483 177.11C200.815 177.887 202.925 177.887 204.257 177.11Z" fill="#4699BA"/>
<path d="M204.257 177.11L222.018 166.9C223.35 166.124 224.46 164.348 224.46 162.905C224.46 161.463 223.35 159.687 222.018 158.91L208.808 151.253C207.476 150.477 205.367 150.477 204.035 151.253L186.273 161.463C184.941 162.24 183.831 164.015 183.831 165.458C183.831 166.9 184.941 168.676 186.273 169.453L199.483 177.11C200.815 177.887 202.925 177.887 204.257 177.11Z" fill="white"/>
<path d="M186.162 164.348L199.372 172.005C200.704 172.782 202.814 172.782 204.146 172.005L221.907 161.796C223.239 161.019 223.239 159.798 221.907 159.021L208.697 151.364C207.365 150.588 205.256 150.588 203.924 151.364L186.162 161.574C184.83 162.35 184.83 163.571 186.162 164.348Z" fill="#4699BA"/>
<path d="M197.041 96.4337L194.821 105.644L185.052 106.31L187.161 93.4375L197.041 96.4337Z" fill="#FFA8A7"/>
<path d="M206.366 89.4426C206.366 89.4426 207.365 93.3266 207.032 93.5486C206.588 93.7705 204.923 93.5486 204.923 93.5486L206.366 89.4426Z" fill="#F28F8F"/>
<path d="M204.59 76.9029C206.144 78.7894 207.587 81.7857 206.477 89.1097C205.256 97.2106 203.813 98.0984 202.592 98.8752C201.037 99.8739 194.821 99.3191 193.045 98.0984C190.936 96.5448 187.605 91.6621 186.828 86.7793C185.94 81.1198 187.827 74.7945 192.046 73.7957C197.929 72.2421 203.258 75.3493 204.59 76.9029Z" fill="#FFA8A7"/>
<path d="M186.162 95.9899C187.605 97.5435 190.713 97.9874 192.711 98.3203C194.599 98.6532 200.593 99.0971 202.369 94.8802C204.145 90.6633 202.924 87.5561 205.033 86.5573C207.143 85.5586 209.363 84.8928 209.918 84.3379C210.473 83.7831 210.473 76.9029 204.7 73.2408C198.928 69.6898 190.047 68.802 184.275 76.1261C179.834 81.7856 181.611 91.2181 186.162 95.9899Z" fill="#455A64"/>
<path d="M192.045 98.4312C193.488 98.5422 198.261 97.7654 199.705 95.8789C201.148 93.8814 201.703 90.4413 201.925 88.5548C202.147 86.6683 203.035 86.0025 204.478 85.5586C205.921 85.1147 209.029 83.5611 209.029 83.5611V82.6733C209.029 82.6733 211.472 82.5624 212.138 82.6733C212.804 82.7843 212.471 83.7831 210.805 84.6708C209.14 85.5586 204.478 87.2232 203.812 87.778C203.146 88.3329 202.813 90.7742 202.258 93.3266C201.481 95.6569 199.816 99.5409 192.045 98.4312Z" fill="#37474F"/>
<path d="M205.367 108.862L210.917 105.644C211.472 103.98 210.584 103.203 209.03 103.314C207.476 103.425 208.031 101.982 207.032 101.538C205.811 100.984 205.145 101.316 204.59 101.095C203.924 100.762 203.813 100.207 203.147 100.096C199.928 99.7629 197.818 104.313 197.818 104.313L205.367 108.862Z" fill="#F28F8F"/>
<path d="M167.623 149.7C167.623 149.7 192.156 137.493 196.374 135.606C200.704 133.609 207.364 130.835 210.917 130.835C213.47 130.835 216.134 133.387 216.245 136.272C216.356 139.158 215.912 142.709 215.912 142.709C215.912 142.709 205.588 146.26 195.375 147.924C185.162 149.478 167.623 149.7 167.623 149.7Z" fill="#37474F"/>
<path d="M170.398 142.598C170.398 147.591 169.954 152.918 172.063 156.58C174.062 160.131 185.496 168.787 196.264 167.011C203.257 165.791 224.016 156.247 224.016 156.247C224.016 156.247 234.118 152.585 234.118 149.922C234.229 146.038 233.896 140.6 225.126 140.822C217.133 141.044 193.488 145.927 193.488 145.927L170.398 142.598Z" fill="#455A64"/>
<path d="M177.17 102.759C180.944 98.7641 183.498 98.4312 185.385 98.986C191.712 100.651 196.153 103.314 197.485 103.869C197.485 103.869 196.042 118.073 202.924 122.179V144.262C202.924 144.262 202.702 146.704 199.705 149.034C197.041 151.142 191.046 153.251 183.831 152.696C175.283 152.03 170.399 142.82 170.399 142.82C170.399 142.82 170.177 124.731 171.398 117.518C172.73 108.973 175.838 104.091 177.17 102.759Z" fill="#455A64"/>
<path d="M202.924 123.067C202.924 123.067 198.705 119.738 197.484 115.41C197.484 115.41 198.039 122.179 202.924 125.619V123.067Z" fill="#37474F"/>
<path d="M241.777 133.498C243.443 133.72 245.996 132.832 247.328 131.833C247.328 131.833 249.215 128.06 251.657 128.393C251.657 128.393 252.101 126.84 251.102 126.285C250.103 125.73 249.659 125.952 249.326 125.397C248.882 124.842 248.882 123.844 247.106 123.844C246.329 123.844 246.44 123.289 244.664 123.067C242.888 122.845 241.111 126.951 239.779 126.951L241.777 133.498Z" fill="#FFA8A7"/>
<path d="M197.485 103.758C203.591 104.646 205.811 106.532 208.031 108.53C210.362 110.638 223.794 124.176 223.794 124.176L240.224 126.507C240.224 126.507 241.334 127.284 242 129.17C242.666 131.057 242.111 133.165 241.445 133.72C241.445 133.72 225.126 134.719 221.907 134.053C218.688 133.498 202.814 122.845 202.814 122.845C202.814 122.845 198.262 119.96 197.263 113.301C196.264 106.754 197.485 103.758 197.485 103.758Z" fill="#455A64"/>
<path d="M182.832 162.351L157.633 193.089C157.299 193.089 157.077 193.2 156.744 193.2C155.745 193.2 154.635 192.979 153.858 192.535L132.544 180.217C132.544 180.217 131.878 179.884 131.101 179.329C130.324 178.885 129.658 176.999 129.658 175.112V169.897C129.658 159.021 135.431 149.034 144.866 143.596L170.288 128.948L197.374 144.595L182.832 162.351Z" fill="#4699BA"/>
<g opacity="0.1">
<path opacity="0.1" d="M182.832 162.351L157.633 193.089C157.299 193.089 157.077 193.2 156.744 193.2C155.745 193.2 154.635 192.979 153.858 192.535L132.544 180.217C132.544 180.217 131.878 179.884 131.101 179.329C130.324 178.885 129.658 176.999 129.658 175.112V169.897C129.658 159.021 135.431 149.034 144.866 143.596L170.288 128.948L197.374 144.595L182.832 162.351Z" fill="black"/>
</g>
<path d="M174.172 173.004L197.373 144.706L170.287 129.059L144.866 143.707C141.536 145.594 138.65 148.146 136.318 151.032L174.172 173.004Z" fill="#4699BA"/>
<path d="M197.373 167.344C197.373 169.231 196.707 171.006 195.93 171.561L194.487 172.449L159.63 192.535C159.075 192.868 158.298 193.09 157.632 193.201C157.299 193.201 157.077 193.311 156.744 193.311V185.765C156.744 174.89 162.517 164.903 171.952 159.465L174.839 157.801L197.373 144.817V167.344Z" fill="#4699BA"/>
<g opacity="0.2">
<path opacity="0.2" d="M197.373 167.344C197.373 169.231 196.707 171.006 195.93 171.561L194.487 172.449L159.63 192.535C159.075 192.868 158.298 193.09 157.632 193.201C157.299 193.201 157.077 193.311 156.744 193.311V185.765C156.744 174.89 162.517 164.903 171.952 159.465L174.839 157.801L197.373 144.817V167.344Z" fill="black"/>
</g>
<path d="M204.812 205.407H218.466L237.892 194.199L218.799 207.96L204.479 208.182L204.812 205.407Z" fill="#E0E0E0"/>
<path d="M171.73 224.827C171.73 224.827 196.263 215.617 198.373 214.507C201.037 213.064 205.366 209.402 205.366 209.402C206.254 208.625 206.254 206.295 205.033 205.407C205.033 205.407 195.042 204.963 192.489 205.74C191.046 206.184 167.956 213.619 167.956 213.619L171.73 224.827Z" fill="#E0E0E0"/>
<path d="M170.621 214.507C168.623 212.731 166.514 213.508 166.07 216.06C165.626 218.724 166.847 222.275 168.845 223.939C170.843 225.715 172.952 224.938 173.396 222.386C173.951 219.723 172.619 216.171 170.621 214.507Z" fill="#455A64"/>
</g>
<defs>
<clipPath id="clip0">
<rect width="484" height="352" fill="white"/>
</clipPath>
</defs>
</svg>
