<svg width="86" height="94" viewBox="0 0 86 94" fill="none" xmlns="http://www.w3.org/2000/svg">
<g filter="url(#filter0_d)">
<path d="M71.1401 53.855L65.0437 50.3496L65.0435 50.3501C63.9321 49.7612 62.5044 49.8451 60.9466 50.7444C57.4025 52.7906 54.5295 58.2799 54.5295 63.0054C54.5295 65.6034 55.3991 67.427 56.7701 68.2047L56.7691 68.2069L62.6224 71.5765L71.1401 53.855Z" fill="#40454A"/>
<path d="M47.0197 67.8254L40.9232 64.3201L40.9231 64.3206C39.8116 63.7317 38.3839 63.8155 36.8261 64.7148C33.282 66.761 30.409 72.2504 30.409 76.9759C30.409 79.5738 31.2786 81.3975 32.6496 82.1752L32.6486 82.1772L38.502 85.5468L47.0197 67.8254Z" fill="#40454A"/>
<path d="M76.4214 42.2725V13.03L29.4864 15.0426V44.2851C29.4864 44.9551 29.8178 45.6252 30.4811 46.0081L49.0741 56.7427C50.3963 57.5061 52.0256 57.5061 53.3479 56.7427L75.4267 43.9955C76.09 43.6127 76.4216 42.9425 76.4214 42.2725Z" fill="url(#paint0_linear)"/>
<path d="M30.4832 13.3199L52.562 0.572594C53.8843 -0.190824 55.5136 -0.190824 56.8358 0.572594L75.4288 11.3071C76.7551 12.0729 76.7551 13.9871 75.4288 14.7529L53.3498 27.5002C52.0276 28.2636 50.3983 28.2636 49.076 27.5002L30.4831 16.7656C29.1569 15.9999 29.1569 14.0855 30.4832 13.3199Z" fill="#FDD364"/>
<path d="M37.6402 9.18669L61.354 22.8778L67.6444 19.246L43.9304 5.55487L37.6402 9.18669Z" fill="#FABC1B"/>
<path d="M41.3998 7.01404L65.1136 20.7053L63.8814 21.4167L40.1676 7.72555L41.3998 7.01404Z" fill="#40454A"/>
<path d="M61.354 22.8778V28.0728L67.6444 24.4409V19.246L61.354 22.8778Z" fill="#40454A"/>
<path d="M10.8891 56.452L15.3848 37.604C15.9234 35.3458 17.3676 33.4087 19.3782 32.248L29.041 26.6622C29.6199 26.3279 30.2807 26.4255 30.7406 26.788L47.6314 36.5399L51.0183 38.4954L49.6887 48.6664L47.5605 49.9111L31.4154 81.5107L11.5343 70.0324C11.3953 69.9755 11.2647 69.9 11.1459 69.8082C10.769 69.5166 10.514 69.0615 10.514 68.5175V59.6385C10.5143 58.5653 10.64 57.4959 10.8891 56.452Z" fill="#F4B50F"/>
<path d="M28.4543 68.6433L25.6225 67.0084C25.4537 66.911 25.2429 67.0328 25.2429 67.2276V69.7134C25.2429 70.0503 25.4226 70.3618 25.7145 70.5302L28.5463 72.1651C28.7151 72.2625 28.9259 72.1407 28.9259 71.9459V69.4601C28.9259 69.1232 28.7462 68.8119 28.4543 68.6433Z" fill="#FFF5D9"/>
<path d="M14.5193 60.59L11.6875 58.9552C11.5187 58.8578 11.3079 58.9795 11.3079 59.1744V61.6602C11.3079 61.9971 11.4877 62.3085 11.7796 62.477L14.6114 64.1118C14.7802 64.2092 14.991 64.0875 14.991 63.8926V61.4069C14.9908 61.0699 14.8111 60.7585 14.5193 60.59Z" fill="#FFF5D9"/>
<path d="M51.6176 54.7368V39.7034C51.6176 38.5357 50.3535 37.8057 49.3421 38.3897L39.6794 43.9754C37.6688 45.1362 36.2246 47.0732 35.6859 49.3314L31.1903 68.1793C30.9413 69.2232 30.8155 70.2927 30.8155 71.3659V80.2448C30.8155 81.5041 32.1788 82.2912 33.2694 81.6617L74.5133 57.7757C75.7129 57.0831 76.4518 55.8032 76.4518 54.418V45.0339C76.4518 44.276 75.6313 43.8024 74.975 44.1813L54.2097 56.2297C53.0591 56.8974 51.6176 56.0671 51.6176 54.7368Z" fill="#40454A"/>
<path d="M49.1216 57.2174V41.8101L41.3233 46.3194C40.5522 46.7647 40.0084 47.5188 39.8297 48.3913L36.5322 64.4929L49.1216 57.2174Z" fill="#FFF4D9"/>
<path d="M16.0063 39.0909L33.3246 49.0895L29.765 64.4928L12.4467 54.4941L16.0063 39.0909Z" fill="#FFF5D9"/>
<path d="M49.1619 72.9688C49.1619 68.2433 46.2889 66.0713 42.7448 68.1175C39.2007 70.1637 36.3277 75.6531 36.3277 80.3786C36.3277 85.104 39.2008 87.276 42.7448 85.2299C46.2888 83.1837 49.1619 77.6943 49.1619 72.9688Z" fill="#FABC1B"/>
<path d="M40.3125 82.2851C38.5494 81.5339 38.1966 78.3984 39.5245 75.2819C40.8524 72.1653 43.3582 70.2479 45.1214 70.9991C46.8845 71.7504 47.2373 74.8858 45.9094 78.0024C44.5815 81.1189 42.0757 83.0364 40.3125 82.2851Z" fill="#FFF5D9"/>
<path d="M41.4918 79.5169C40.5935 79.1341 40.4137 77.5367 41.0903 75.9489C41.7668 74.3612 43.0434 73.3843 43.9417 73.767C44.8399 74.1498 45.0197 75.7472 44.3432 77.335C43.6666 78.9227 42.39 79.8996 41.4918 79.5169Z" fill="#40454A"/>
<path d="M73.2824 58.9983C73.2824 54.2729 70.4093 52.1009 66.8653 54.1471C63.3212 56.1933 60.4483 61.6828 60.4483 66.4081C60.4483 71.1336 63.3212 73.3056 66.8653 71.2594C70.4093 69.2133 73.2824 63.7238 73.2824 58.9983Z" fill="#FABC1B"/>
<path d="M64.436 68.3282C62.6728 67.577 62.32 64.4415 63.6479 61.3249C64.9758 58.2084 67.4816 56.2909 69.2448 57.0422C71.0079 57.7935 71.3608 60.9289 70.0328 64.0455C68.7049 67.162 66.1991 69.0795 64.436 68.3282Z" fill="#FFF5D9"/>
<path d="M68.9008 61.5281C68.9008 60.0292 67.9895 59.3403 66.8653 59.9894C65.7411 60.6384 64.8299 62.3796 64.8299 63.8785C64.8299 65.3775 65.7411 66.0663 66.8653 65.4173C67.9894 64.7682 68.9008 63.0271 68.9008 61.5281Z" fill="#40454A"/>
<path d="M10.5707 67.6282L31.4005 79.033L35.2394 77.188V81.6533L31.946 83.5547C31.3647 83.8903 30.6483 83.8903 30.0669 83.5547L9.94094 71.935C9.67891 71.7838 9.54806 71.5191 9.54806 71.2543V66.7891L10.5707 67.6282Z" fill="#40454A"/>
<path d="M34.3486 76.6737L30.8157 78.7133L10.5143 66.9923V65.7776L9.94106 66.1085C9.41717 66.411 9.41717 67.1672 9.94106 67.4695L30.0671 79.0892C30.6484 79.4249 31.3648 79.4249 31.9461 79.0892L35.2395 77.1878L34.3486 76.6737Z" fill="#FFF5D9"/>
<path d="M24.1386 70.8762L15.6253 65.961V67.421C15.6253 68.3487 16.1201 69.206 16.9237 69.6697L22.8599 73.097C23.4283 73.4252 24.1388 73.015 24.1388 72.3586V70.8762H24.1386Z" fill="#40454A"/>
</g>
<defs>
<filter id="filter0_d" x="-4" y="0" width="94" height="94" filterUnits="userSpaceOnUse" color-interpolation-filters="sRGB">
<feFlood flood-opacity="0" result="BackgroundImageFix"/>
<feColorMatrix in="SourceAlpha" type="matrix" values="0 0 0 0 0 0 0 0 0 0 0 0 0 0 0 0 0 0 127 0"/>
<feOffset dy="4"/>
<feGaussianBlur stdDeviation="2"/>
<feColorMatrix type="matrix" values="0 0 0 0 0 0 0 0 0 0 0 0 0 0 0 0 0 0 0.25 0"/>
<feBlend mode="normal" in2="BackgroundImageFix" result="effect1_dropShadow"/>
<feBlend mode="normal" in="SourceGraphic" in2="effect1_dropShadow" result="shape"/>
</filter>
<linearGradient id="paint0_linear" x1="58.4483" y1="35.1726" x2="52.0009" y2="35.1726" gradientUnits="userSpaceOnUse">
<stop stop-color="#ECAB00"/>
<stop offset="1" stop-color="#FAC02B"/>
</linearGradient>
</defs>
</svg>
