<svg width="86" height="88" viewBox="0 0 86 88" fill="none" xmlns="http://www.w3.org/2000/svg">
<g filter="url(#filter0_d)">
<path d="M46.5839 7.86204L46.5857 7.86351C50.3106 5.33059 55.6282 5.53811 62.3052 9.3932C72.4229 15.2346 80.625 26.916 80.625 35.4844L42.0146 57.9625L8.66602 29.8364L46.5839 7.86204Z" fill="#ECAB00"/>
<path d="M57.4617 12.1908C51.2978 8.63215 46.2935 8.18374 42.6303 10.1282L43.9828 9.34438L43.9846 9.34585C47.7093 6.81293 53.0271 7.02045 59.7041 10.8754C69.8218 16.7171 78.0239 28.3985 78.0239 36.9669L75.7813 38.2724C75.7751 29.7049 67.5758 18.0302 57.4617 12.1908Z" fill="#40454A"/>
<path d="M47.3731 18.0762C41.2092 14.5175 36.2049 14.0691 32.5416 16.0136L33.8942 15.2298L33.896 15.2312C37.6207 12.6985 42.9385 12.906 49.6155 16.7609C59.7332 22.6024 67.9353 34.2839 67.9353 42.8521L65.6926 44.1578C65.6865 35.5903 57.4872 23.9154 47.3731 18.0762Z" fill="#40454A"/>
<path d="M37.2896 23.9341C31.1257 20.3754 26.1215 19.927 22.4582 21.8715L23.8108 21.0877L23.8125 21.0891C27.5373 18.5562 32.855 18.7637 39.532 22.6187C49.6497 28.4604 57.8517 40.1418 57.8517 48.7102L55.609 50.0157C55.603 41.4482 47.4036 29.7735 37.2896 23.9341Z" fill="#40454A"/>
<path d="M27.3336 29.7424C21.1697 26.1838 16.1654 25.7354 12.5021 27.6798L13.8547 26.896L13.8565 26.8975C17.5812 24.3645 22.899 24.5721 29.5759 28.427C39.6935 34.2687 47.8956 45.9501 47.8956 54.5185L45.653 55.824C45.6469 47.2566 37.4475 35.5818 27.3336 29.7424Z" fill="#40454A"/>
<path d="M23.6949 31.8714C33.7368 37.669 41.8873 49.2178 42.009 57.7678L42.0113 57.7736L80.625 35.4844V56.0781C80.625 57.5153 79.8582 58.8434 78.6137 59.5619L44.8635 79.0475C43.0986 80.0665 40.9242 80.0664 39.1595 79.0473L7.38604 60.6974C6.14162 59.9787 5.37516 58.6508 5.37516 57.2139V36.8086C5.37501 28.2404 13.5771 26.0298 23.6949 31.8714V31.8714Z" fill="url(#paint0_linear)"/>
<path d="M7.38588 55.8748L39.1593 74.2245C40.924 75.2438 43.0985 75.2438 44.8635 74.2249L78.6137 54.7393C79.8582 54.0208 80.625 52.6927 80.625 51.2555V56.0781C80.625 57.5153 79.8582 58.8434 78.6137 59.5619L44.8635 79.0477C43.0986 80.0665 40.9242 80.0665 39.1593 79.0473L7.38588 60.6976C6.14146 59.9789 5.375 58.651 5.375 57.214V52.3914C5.375 53.8282 6.14161 55.1561 7.38588 55.8748Z" fill="#ECAB00"/>
<path d="M28.1017 72.6574L14.911 65.0417V52.0409L28.1017 59.6872V72.6574Z" fill="#40454A"/>
<path d="M68.8886 53.4326L73.1166 51.0014V44.3924L68.8886 46.8434V53.4326Z" fill="#40454A"/>
<path d="M53.3976 62.4729L57.6256 60.0417V53.4326L53.3976 55.8835V62.4729Z" fill="#40454A"/>
<path d="M28.1017 55.747L23.8737 53.3158V46.7069L28.1017 49.1576V55.747Z" fill="#40454A"/>
<path d="M19.1389 50.5589L14.9109 48.1277V41.5188L19.1389 43.9696V50.5589Z" fill="#40454A"/>
</g>
<defs>
<filter id="filter0_d" x="-4" y="0" width="94" height="94" filterUnits="userSpaceOnUse" color-interpolation-filters="sRGB">
<feFlood flood-opacity="0" result="BackgroundImageFix"/>
<feColorMatrix in="SourceAlpha" type="matrix" values="0 0 0 0 0 0 0 0 0 0 0 0 0 0 0 0 0 0 127 0"/>
<feOffset dy="4"/>
<feGaussianBlur stdDeviation="2"/>
<feColorMatrix type="matrix" values="0 0 0 0 0 0 0 0 0 0 0 0 0 0 0 0 0 0 0.25 0"/>
<feBlend mode="normal" in2="BackgroundImageFix" result="effect1_dropShadow"/>
<feBlend mode="normal" in="SourceGraphic" in2="effect1_dropShadow" result="shape"/>
</filter>
<linearGradient id="paint0_linear" x1="51.8092" y1="54.2094" x2="41.4721" y2="54.2094" gradientUnits="userSpaceOnUse">
<stop stop-color="#FEC530"/>
<stop offset="1" stop-color="#FFCE4E"/>
</linearGradient>
</defs>
</svg>
