<svg width="36" height="36" viewBox="0 0 36 36" fill="none" xmlns="http://www.w3.org/2000/svg">
<path d="M33.4178 20.287C33.2899 20.2601 33.1691 20.2348 33.0614 20.2068C31.8718 19.8974 31.2815 19.7132 30.868 18.9149L29.315 15.7707C28.8192 14.8134 27.5387 14.0345 26.4607 14.0345H23.6744V11.8926C23.6744 11.2523 23.1534 10.7314 22.5129 10.7314L15.8569 10.7384C15.6987 6.50329 12.2047 3.10645 7.93153 3.10645C3.55805 3.10637 0 6.6645 0 11.038C0 13.5108 1.13768 15.7226 2.91679 17.1783V27.9465C2.91679 28.5868 3.43774 29.1077 4.07798 29.1077H6.10009C6.40289 31.2446 8.24347 32.8937 10.4628 32.8937C12.6824 32.8937 14.523 31.2446 14.8258 29.1077H22.197C22.2451 29.1077 22.2945 29.105 22.344 29.1013C22.644 31.2413 24.4859 32.8937 26.7075 32.8937C28.927 32.8937 30.7677 31.2446 31.0705 29.1077H33.9669C35.0879 29.1077 36 28.1957 36 27.0747V23.5891C36 20.8287 34.446 20.5027 33.4178 20.287ZM7.93153 5.48878C10.9913 5.48878 13.4806 7.97808 13.4806 11.0379C13.4806 14.0977 10.9913 16.587 7.93153 16.587C4.8718 16.587 2.38241 14.0977 2.38241 11.038C2.38241 7.97824 4.8718 5.48878 7.93153 5.48878ZM10.4628 30.1178C9.56356 30.1178 8.83192 29.3862 8.83192 28.4868C8.83192 27.5875 9.56356 26.8558 10.4628 26.8558C11.3624 26.8558 12.0944 27.5875 12.0944 28.4868C12.0944 29.3862 11.3624 30.1178 10.4628 30.1178ZM26.7076 30.1178C25.8084 30.1178 25.0767 29.3862 25.0767 28.4868C25.0767 27.5875 25.8084 26.8558 26.7076 26.8558C27.6072 26.8558 28.3392 27.5875 28.3392 28.4868C28.3391 29.3862 27.6072 30.1178 26.7076 30.1178ZM23.6743 20.0371V15.707H25.8086C26.6277 15.707 27.6383 16.3217 28.0136 17.0459L29.3955 19.8438C29.4307 19.9118 29.4675 19.9761 29.5062 20.0371H23.6743V20.0371Z" fill="white"/>
<path d="M8.01552 12.4464L10.0854 13.1023C10.2051 13.1402 10.3263 13.1583 10.4455 13.1583C10.9509 13.1583 11.42 12.834 11.5808 12.3266C11.7795 11.6994 11.4321 11.0299 10.8049 10.8312L9.13557 10.3023L8.96078 10.0801V8.56608C8.96078 7.90822 8.42744 7.37488 7.76958 7.37488C7.11171 7.37488 6.57837 7.90822 6.57837 8.56608V10.4837C6.57845 11.3571 7.18279 12.1826 8.01552 12.4464Z" fill="white"/>
</svg>
