<svg width="34" height="34" viewBox="0 0 34 34" fill="none" xmlns="http://www.w3.org/2000/svg">
<g clip-path="url(#clip0)">
<path d="M22.6666 31.1666H19.8333V28.3333H14.1666V31.1666H11.3333C10.5513 31.1666 9.91663 31.8013 9.91663 32.5833C9.91663 33.3653 10.5513 34 11.3333 34H22.6666C23.45 34 24.0833 33.3653 24.0833 32.5833C24.0833 31.8013 23.45 31.1666 22.6666 31.1666Z" fill="white"/>
<path d="M31.5208 5.66669H30.3733C30.0758 6.63002 29.6792 7.57919 29.2117 8.50002H31.1667V25.5H2.83333V8.50002H5.49667C5.63833 7.83419 5.96417 7.22502 6.46 6.72919C6.8425 6.34669 7.2675 5.97835 7.735 5.66669H2.47917C1.11917 5.66669 0 6.78585 0 8.14585V25.8542C0 27.2142 1.11917 28.3334 2.47917 28.3334H31.5208C32.8808 28.3334 34 27.2142 34 25.8542V8.14585C34 6.78585 32.8808 5.66669 31.5208 5.66669Z" fill="white"/>
<path d="M28.1776 0.385318C28.0416 0.249318 27.839 0.171401 27.6633 0.178484C23.6584 0.253568 18.9862 2.59107 16.0197 5.98682C12.811 6.10015 10.1321 7.06773 8.46183 8.73798C8.2805 8.91932 8.21108 9.18423 8.2805 9.43073C8.34991 9.67865 8.54825 9.86848 8.79758 9.92798L11.8137 10.6505L11.7952 10.6703C11.5431 10.9494 11.5544 11.3787 11.8207 11.645L16.9165 16.7407C17.0539 16.8796 17.2352 16.9476 17.418 16.9476C17.588 16.9476 17.7566 16.8881 17.8912 16.7662L17.911 16.7478L18.6335 19.7639C18.693 20.0132 18.8828 20.2116 19.1307 20.281C19.1945 20.2994 19.2582 20.3079 19.3234 20.3079C19.509 20.3079 19.6889 20.2357 19.8249 20.1011C21.4966 18.4294 22.4627 15.7519 22.5775 12.5417C25.9775 9.56532 28.3107 4.89882 28.3858 0.898151C28.3887 0.706901 28.3136 0.521318 28.1776 0.385318Z" fill="white"/>
<path d="M9.56536 14.8353C8.61477 15.7859 7.39786 19.7342 7.16411 20.5162C7.08903 20.7655 7.15844 21.0361 7.34119 21.2202C7.47578 21.3548 7.65711 21.4271 7.84269 21.4271C7.91069 21.4271 7.97869 21.4172 8.04669 21.3973C8.82869 21.1636 12.7755 19.9481 13.7275 18.9961C14.875 17.8486 14.875 15.9828 13.7275 14.8339C12.5772 13.6864 10.7114 13.6878 9.56536 14.8353Z" fill="white"/>
</g>
<defs>
<clipPath id="clip0">
<rect width="34" height="34" fill="white"/>
</clipPath>
</defs>
</svg>
