<svg width="36" height="36" viewBox="0 0 36 36" fill="none" xmlns="http://www.w3.org/2000/svg">
<g clip-path="url(#clip0)">
<path d="M8.93995 19.47L3.13495 29.895C2.93995 30.255 2.95495 30.705 3.17995 31.05C3.40495 31.395 3.79495 31.605 4.21495 31.56L8.83495 31.215L10.8749 35.37C11.07 35.745 11.445 35.985 11.8499 36H11.88C12.285 36 12.6749 35.775 12.87 35.43L16.65 28.71L12.9749 22.215C11.4599 21.57 10.0949 20.625 8.93995 19.47Z" fill="white"/>
<path d="M32.8499 29.895L26.9999 19.53C25.0949 21.435 22.5899 22.725 19.7999 23.115C19.2149 23.205 18.6149 23.25 17.9999 23.25C17.3399 23.25 16.6949 23.205 16.0649 23.1L17.9399 26.415L23.0249 35.43C23.2199 35.775 23.5949 36 23.9999 36H24.0299C24.4499 35.985 24.8249 35.745 25.0199 35.37L27.0749 31.215L31.7849 31.575C32.2049 31.605 32.5949 31.41 32.8199 31.05C33.0449 30.705 33.0599 30.255 32.8499 29.895Z" fill="white"/>
<path d="M18 0C12.21 0 7.5 4.71 7.5 10.5C7.5 16.29 12.21 21 18 21C23.79 21 28.5 16.29 28.5 10.5C28.5 4.71 23.79 0 18 0ZM19.5 15.375C19.5 15.996 18.996 16.5 18.375 16.5C17.754 16.5 17.25 15.996 17.25 15.375V8.187C16.812 8.031 16.5 7.6155 16.5 7.125C16.5 6.504 17.004 6 17.625 6H18.375C18.996 6 19.5 6.504 19.5 7.125V15.375Z" fill="white"/>
</g>
<defs>
<clipPath id="clip0">
<rect width="36" height="36" fill="white"/>
</clipPath>
</defs>
</svg>
