<svg width="34" height="34" viewBox="0 0 34 34" fill="none" xmlns="http://www.w3.org/2000/svg">
<path d="M9.03125 13.9453C7.38345 13.9453 6.04297 15.2858 6.04297 16.9336V25.0352C6.04297 26.683 7.38345 28.0234 9.03125 28.0234C10.6791 28.0234 12.0195 26.683 12.0195 25.0352V16.9336C12.0195 15.2858 10.6791 13.9453 9.03125 13.9453Z" fill="white"/>
<path d="M4.05078 16.9336C4.05078 16.6462 4.0887 16.3687 4.13565 16.0946C2.93516 16.4826 2.05859 17.5977 2.05859 18.9258V23.043C2.05859 24.371 2.93516 25.4861 4.13565 25.8741C4.0887 25.6001 4.05078 25.3225 4.05078 25.0351V16.9336Z" fill="white"/>
<path d="M24.9688 13.9453C23.3209 13.9453 21.9805 15.2858 21.9805 16.9336V25.0352C21.9805 26.683 23.3209 28.0234 24.9688 28.0234C25.2682 28.0234 25.5519 27.9658 25.8249 27.8835C25.454 29.1126 24.3249 30.0156 22.9766 30.0156H19.8048C19.3922 28.8587 18.2969 28.0234 17 28.0234C15.3522 28.0234 14.0117 29.3639 14.0117 31.0117C14.0117 32.6595 15.3522 34 17 34C18.2969 34 19.3922 33.1647 19.8048 32.0078H22.9766C25.7227 32.0078 27.957 29.7734 27.957 27.0273V25.0352V16.9336C27.957 15.2858 26.6166 13.9453 24.9688 13.9453Z" fill="white"/>
<path d="M29.8643 16.0946C29.9112 16.3687 29.9491 16.6462 29.9491 16.9336V25.0351C29.9491 25.3225 29.9112 25.6001 29.8643 25.8741C31.0647 25.4861 31.9413 24.371 31.9413 23.043V18.9258C31.9413 17.5977 31.0647 16.4826 29.8643 16.0946Z" fill="white"/>
<path d="M17 0C8.76084 0 2.05859 6.70225 2.05859 14.9414V14.9668C2.65207 14.5175 3.33871 14.1888 4.0964 14.0415C4.56198 7.32136 10.1637 1.99219 17 1.99219C23.8363 1.99219 29.438 7.32136 29.9036 14.0415C30.6612 14.1887 31.3479 14.5175 31.9414 14.9668V14.9414C31.9414 6.70225 25.2392 0 17 0Z" fill="white"/>
</svg>
