<svg width="34" height="34" viewBox="0 0 34 34" fill="none" xmlns="http://www.w3.org/2000/svg">
<path d="M13.2812 0H15.2734V5.3125H13.2812V0Z" fill="white"/>
<path d="M17.2656 5.3125H28.1742L25.7933 0.550641C25.6245 0.213164 25.2797 0 24.9023 0H17.2656V5.3125Z" fill="white"/>
<path d="M11.2891 0H3.6524C3.27508 0 2.93023 0.213164 2.76142 0.550641L0.380493 5.3125H11.2891V0Z" fill="white"/>
<path d="M13.2812 7.30469H15.2734V11.9531H13.2812V7.30469Z" fill="white"/>
<path d="M33.0039 17.3984C31.7452 17.3984 30.6136 16.699 30.0507 15.5733L29.9105 15.2929C29.7418 14.9554 29.3969 14.7422 29.0195 14.7422H23.707C23.3297 14.7422 22.9848 14.9554 22.8161 15.2928L22.6759 15.5732C22.113 16.699 20.9814 17.3984 19.7227 17.3984C19.1725 17.3984 18.7266 17.8444 18.7266 18.3945V24.0787C18.7266 26.3135 19.4317 28.4426 20.7658 30.2356C22.0998 32.0286 23.9365 33.3158 26.0771 33.958C26.1704 33.986 26.2669 34 26.3633 34C26.4597 34 26.5561 33.986 26.6495 33.958C28.7901 33.3158 30.6268 32.0286 31.9608 30.2356C33.2948 28.4426 34 26.3135 34 24.0787V18.3945C34 17.8444 33.554 17.3984 33.0039 17.3984ZM29.885 23.1972L26.1285 26.9536C25.934 27.1481 25.6791 27.2454 25.4242 27.2454C25.1694 27.2454 24.9144 27.1482 24.7199 26.9536L22.8417 25.0754C22.4527 24.6864 22.4527 24.0557 22.8417 23.6667C23.2306 23.2777 23.8614 23.2777 24.2504 23.6667L25.4243 24.8406L28.4765 21.7885C28.8654 21.3995 29.4961 21.3995 29.8851 21.7885C30.274 22.1775 30.274 22.8082 29.885 23.1972Z" fill="white"/>
<path d="M17.2656 7.30469V12.9492C17.2656 13.4993 16.8196 13.9453 16.2695 13.9453H12.2852C11.735 13.9453 11.2891 13.4993 11.2891 12.9492V7.30469H0V23.5742C0 24.1243 0.445984 24.5703 0.996094 24.5703H16.7344V18.3945C16.7344 16.7468 18.0749 15.4062 19.7227 15.4062C20.2295 15.4062 20.6674 15.1356 20.894 14.6824L21.0342 14.4019C21.5436 13.3831 22.5678 12.75 23.707 12.75H28.5547V7.30469H17.2656ZM8.30078 21.25H4.31641C3.7663 21.25 3.32031 20.804 3.32031 20.2539C3.32031 19.7038 3.7663 19.2578 4.31641 19.2578H8.30078C8.85089 19.2578 9.29688 19.7038 9.29688 20.2539C9.29688 20.804 8.85089 21.25 8.30078 21.25ZM8.30078 17.2656H4.31641C3.7663 17.2656 3.32031 16.8196 3.32031 16.2695C3.32031 15.7194 3.7663 15.2734 4.31641 15.2734H8.30078C8.85089 15.2734 9.29688 15.7194 9.29688 16.2695C9.29688 16.8196 8.85089 17.2656 8.30078 17.2656Z" fill="white"/>
</svg>
