<svg width="32" height="32" viewBox="0 0 32 32" fill="none" xmlns="http://www.w3.org/2000/svg">
<g clip-path="url(#clip0)">
<path d="M31.568 10.5093L16.568 0.176C16.2267 -0.0586667 15.776 -0.0586667 15.4333 0.176L0.433333 10.5093C0.161333 10.696 0 11.004 0 11.3333V30.6667C0 31.4027 0.597333 32 1.33333 32H4V16C4 15.264 4.59733 14.6667 5.33333 14.6667H26.6667C27.4027 14.6667 28 15.264 28 16V32H30.6667C31.4027 32 32 31.4027 32 30.6667V11.3333C32 11.004 31.8387 10.696 31.568 10.5093Z" fill="white"/>
<path d="M12.3334 25.3334V26.3334C12.3334 26.8854 11.8854 27.3334 11.3334 27.3334C10.7814 27.3334 10.3334 26.8854 10.3334 26.3334V25.3334H8.00004C7.63204 25.3334 7.33337 25.632 7.33337 26V31.3334C7.33337 31.7014 7.63204 32 8.00004 32H14.6667C15.0347 32 15.3334 31.7014 15.3334 31.3334V26C15.3334 25.632 15.0347 25.3334 14.6667 25.3334H12.3334Z" fill="white"/>
<path d="M21.6666 25.3334V26.3334C21.6666 26.8854 21.2186 27.3334 20.6666 27.3334C20.1146 27.3334 19.6666 26.8854 19.6666 26.3334V25.3334H17.3333C16.9653 25.3334 16.6666 25.632 16.6666 26V31.3334C16.6666 31.7014 16.9653 32 17.3333 32H24C24.368 32 24.6666 31.7014 24.6666 31.3334V26C24.6666 25.632 24.368 25.3334 24 25.3334H21.6666Z" fill="white"/>
<path d="M17 17.3334V18.3334C17 18.8854 16.552 19.3334 16 19.3334C15.448 19.3334 15 18.8854 15 18.3334V17.3334H12.6667C12.2987 17.3334 12 17.632 12 18V23.3334C12 23.7014 12.2987 24 12.6667 24H19.3333C19.7013 24 20 23.7014 20 23.3334V18C20 17.632 19.7013 17.3334 19.3333 17.3334H17Z" fill="white"/>
</g>
<defs>
<clipPath id="clip0">
<rect width="32" height="32" fill="white"/>
</clipPath>
</defs>
</svg>
