<svg width="27" height="31" viewBox="0 0 27 31" fill="none" xmlns="http://www.w3.org/2000/svg">
<path d="M18.2829 0H5.83202C4.01307 0 2.53264 1.48146 2.53264 3.29938V15.4999H2.21039C1.47625 15.4999 0.880859 16.0947 0.880859 16.8295V24.8926C0.880859 25.6273 1.47618 26.222 2.21039 26.222H2.53264V27.7006C2.53264 29.5205 4.01307 30.9999 5.83202 30.9999H22.8207C24.6385 30.9999 26.1191 29.5204 26.1191 27.7006V7.80877L18.2829 0ZM4.36876 18.2846C4.7584 18.2188 5.30608 18.1691 6.0777 18.1691C6.85749 18.1691 7.41327 18.318 7.78671 18.617C8.14343 18.8987 8.38415 19.3638 8.38415 19.9111C8.38415 20.4582 8.20174 20.9234 7.86984 21.2385C7.43816 21.6449 6.79975 21.8273 6.05295 21.8273C5.88674 21.8273 5.73777 21.8191 5.62126 21.8029V23.8023H4.36876V18.2846ZM22.8207 28.9793H5.83202C5.12772 28.9793 4.55419 28.4058 4.55419 27.7006V26.222H20.3911C21.1254 26.222 21.7207 25.6273 21.7207 24.8926V16.8295C21.7207 16.0947 21.1254 15.4999 20.3911 15.4999H4.55419V3.29938C4.55419 2.59611 5.12778 2.02258 5.83202 2.02258L17.5269 2.01036V6.33322C17.5269 7.59588 18.5514 8.62135 19.8151 8.62135L24.0498 8.6092L24.0974 27.7005C24.0974 28.4058 23.5249 28.9793 22.8207 28.9793ZM9.19178 23.777V18.2846C9.65633 18.2107 10.2618 18.1691 10.9008 18.1691C11.9627 18.1691 12.6513 18.3597 13.1909 18.7659C13.7716 19.1976 14.1363 19.8857 14.1363 20.8737C14.1363 21.9437 13.7467 22.6825 13.207 23.1384C12.6183 23.6279 11.722 23.86 10.6271 23.86C9.97144 23.86 9.5069 23.8184 9.19178 23.777ZM18.2465 20.5252V21.5537H16.2385V23.8023H14.9693V18.2107H18.3873V19.2473H16.2385V20.5252H18.2465Z" fill="#FCBD17"/>
</svg>
