<svg width="160" height="160" viewBox="0 0 160 160" fill="none" xmlns="http://www.w3.org/2000/svg">
<path d="M24.564 4.68491L31.7215 0.552727C32.92 -0.23196 34.5215 -0.210398 36.2819 0.805852L130.831 55.3934C134.543 57.5371 137.553 63.2877 137.553 68.238V150.01C137.553 152.934 136.502 154.924 134.877 155.622L128.403 159.359L24.564 4.68491Z" fill="url(#paint0_linear)"/>
<path d="M29.1692 104.606L123.718 159.193C127.431 161.337 130.44 159.061 130.44 154.111V72.3394C130.44 67.3891 127.431 61.6382 123.718 59.4947L29.1692 4.90724C25.4564 2.76381 22.4467 5.03912 22.4467 9.98943V91.761C22.4467 96.7113 25.4564 102.462 29.1692 104.606Z" fill="#98C7D9"/>
<path d="M130.44 144.707L22.4467 82.3574V63.8765L130.44 126.226V144.707Z" fill="#274E75"/>
<path d="M47.0324 66.4969L67.468 78.4309V69.4572L47.0324 57.5234V66.4969Z" fill="#B7E3F4"/>
<path d="M32.1535 57.7015L42.3713 63.6687V54.6949L32.1535 48.728V57.7015Z" fill="#B7E3F4"/>
<path d="M32.9194 38.0088C30.06 31.2981 30.8198 24.5465 34.6164 22.9288C38.4131 21.3111 43.8088 25.4399 46.6682 32.1506C49.5275 38.8614 48.7677 45.6129 44.9711 47.2306C41.1745 48.8483 35.7787 44.7196 32.9194 38.0088Z" fill="#274E75"/>
<path d="M55.38 51.8098C52.5206 45.0991 53.2804 38.3475 57.0771 36.7298C60.8737 35.1121 66.2694 39.2409 69.1288 45.9516C71.9882 52.6624 71.2284 59.4139 67.4317 61.0316C63.6351 62.6493 58.2394 58.5206 55.38 51.8098Z" fill="#0980AD"/>
<path d="M99.1265 79.3272L115.997 89.1794C117.227 89.8978 118.773 89.0106 118.773 87.5859V74.2044C118.773 72.5175 117.877 70.9572 116.421 70.1065L99.5496 60.2544C98.3196 59.5359 96.774 60.4234 96.774 61.8478V75.2294C96.7743 76.9162 97.6699 78.4765 99.1265 79.3272Z" fill="#0980AD"/>
<path d="M115.685 69.6918V89.0115L113.514 87.743V68.4233L115.685 69.6918Z" fill="#98C7D9"/>
<path d="M115.685 75.4175L96.7742 64.499V66.5559L115.685 77.4747V75.4175Z" fill="#98C7D9"/>
<path d="M115.685 81.9053L96.7742 70.9868V73.0437L115.685 83.9621V81.9053Z" fill="#98C7D9"/>
<defs>
<linearGradient id="paint0_linear" x1="109.1" y1="82.9827" x2="100.522" y2="68.1259" gradientUnits="userSpaceOnUse">
<stop stop-color="#7EB6CC"/>
<stop offset="1" stop-color="#B7E3F4"/>
</linearGradient>
</defs>
</svg>
