<svg width="160" height="160" viewBox="0 0 160 160" fill="none" xmlns="http://www.w3.org/2000/svg">
<g clip-path="url(#clip0)">
<path d="M11.616 116.674V106.965L63.2432 76.2195L148.387 110.865V115.662C148.387 121.673 145.177 127.226 139.969 130.227L89.6182 159.261C88.071 160.155 85.7304 160.252 84.3904 159.478L12.5173 117.982C11.912 117.632 11.6176 117.165 11.616 116.674Z" fill="url(#paint0_linear)"/>
<path d="M64.1011 5.61159L72.3876 0.236903L72.3879 0.237528C72.8258 -0.083409 73.4254 -0.0918465 74.0876 0.290341L145.961 41.7866C147.301 42.5603 148.387 44.6357 148.387 46.4222V114.182C148.387 115.207 148.029 115.912 147.47 116.183L139.16 120.98L66.1667 8.73815L64.1011 5.61159Z" fill="url(#paint1_linear)"/>
<path d="M65.6695 5.74905L137.543 47.245C138.883 48.0187 139.969 50.0941 139.969 51.8806V120.517L132.052 118.109L63.2436 77.9484V76.2194V7.58311C63.2436 5.79686 64.3298 4.97561 65.6695 5.74905Z" fill="url(#paint2_linear)"/>
<path d="M135.483 51.2358V105.488L67.7297 66.3705V12.1189L135.483 51.2358Z" fill="#274E75"/>
<path d="M12.8929 105.254L63.2432 76.2197L139.969 120.517L89.6186 149.552C88.0714 150.445 85.7307 150.542 84.3907 149.768L12.5176 108.272C11.1776 107.499 11.3457 106.148 12.8929 105.254Z" fill="url(#paint3_linear)"/>
<path d="M38.9743 96.4982L60.9733 83.7466C62.378 82.9357 64.1086 82.9357 65.5136 83.7466L125.749 118.523C127.283 119.409 127.283 121.624 125.749 122.511L103.75 135.262C102.345 136.073 100.614 136.073 99.2093 135.262L38.9743 100.486C37.4396 99.5994 37.4396 97.3841 38.9743 96.4982Z" fill="#6FAFC8"/>
<path d="M74.0713 124.479L51.6416 111.529C50.4507 110.841 48.9832 110.841 47.7919 111.529L39.4919 116.321C38.3988 116.952 38.3988 118.53 39.4919 119.161L61.9216 132.111C63.1125 132.799 64.5801 132.799 65.771 132.111L74.071 127.319C75.1644 126.688 75.1644 125.11 74.0713 124.479Z" fill="#6FAFC8"/>
<path d="M122.999 119.432L115.601 115.16C114.742 114.664 113.684 114.664 112.825 115.16L110.631 116.427C109.91 116.843 109.91 117.883 110.631 118.3L118.029 122.571C118.888 123.067 119.946 123.067 120.805 122.571L122.999 121.304C123.72 120.888 123.72 119.848 122.999 119.432Z" fill="#99C7D9"/>
<path d="M110.225 112.031L102.826 107.76C101.968 107.264 100.91 107.264 100.051 107.76L97.8565 109.027C97.1355 109.443 97.1355 110.483 97.8565 110.9L105.255 115.171C106.114 115.667 107.172 115.667 108.031 115.171L110.225 113.904C110.946 113.488 110.946 112.448 110.225 112.031Z" fill="#99C7D9"/>
<path d="M97.4505 104.632L90.0521 100.36C89.1933 99.8645 88.1352 99.8645 87.2764 100.36L85.0821 101.627C84.3611 102.044 84.3611 103.084 85.0821 103.5L92.4805 107.772C93.3392 108.268 94.3974 108.268 95.2561 107.772L97.4505 106.505C98.1711 106.089 98.1711 105.048 97.4505 104.632Z" fill="#99C7D9"/>
<path d="M84.6757 97.2319L77.2773 92.9603C76.4185 92.4647 75.3604 92.4647 74.5017 92.9603L72.3073 94.2272C71.5863 94.6435 71.5863 95.6838 72.3073 96.1L79.7057 100.372C80.5645 100.868 81.6226 100.868 82.4814 100.372L84.6757 99.1047C85.3967 98.6888 85.3967 97.6482 84.6757 97.2319Z" fill="#99C7D9"/>
<path d="M71.9014 89.8322L64.503 85.5607C63.6442 85.0647 62.5861 85.0647 61.7274 85.5607L59.533 86.8275C58.8121 87.2438 58.8121 88.2841 59.533 88.7004L66.9314 92.9716C67.7902 93.4676 68.8483 93.4676 69.7071 92.9716L71.9014 91.7047C72.6224 91.2888 72.6224 90.2485 71.9014 89.8322Z" fill="#99C7D9"/>
<path d="M115.983 123.449L108.585 119.178C107.726 118.682 106.668 118.682 105.809 119.178L101.421 121.751C100.7 122.167 100.7 123.208 101.421 123.624L108.819 127.895C109.678 128.391 110.736 128.391 111.595 127.895L115.983 125.322C116.704 124.906 116.704 123.865 115.983 123.449Z" fill="#99C7D9"/>
<path d="M103.209 116.049L95.8106 111.778C94.9519 111.282 93.8937 111.282 93.035 111.778L88.6462 114.351C87.9253 114.767 87.9253 115.808 88.6462 116.224L96.0447 120.496C96.9034 120.991 97.9616 120.991 98.8203 120.496L103.209 117.922C103.93 117.506 103.93 116.466 103.209 116.049Z" fill="#99C7D9"/>
<path d="M90.4345 108.649L83.0361 104.378C82.1773 103.882 81.1192 103.882 80.2605 104.378L75.8717 106.951C75.1508 107.368 75.1508 108.408 75.8717 108.824L83.2701 113.095C84.1289 113.591 85.187 113.591 86.0458 113.095L90.4345 110.522C91.1555 110.106 91.1555 109.066 90.4345 108.649Z" fill="#99C7D9"/>
<path d="M77.6599 101.25L70.2614 96.9782C69.4027 96.4822 68.3445 96.4822 67.4858 96.9782L63.097 99.5516C62.3761 99.9678 62.3761 101.008 63.097 101.424L70.4955 105.696C71.3542 106.192 72.4124 106.192 73.2711 105.696L77.6599 103.123C78.3808 102.706 78.3808 101.666 77.6599 101.25Z" fill="#99C7D9"/>
<path d="M64.8856 93.8497L57.4871 89.5785C56.6284 89.0826 55.5703 89.0826 54.7115 89.5785L50.3228 92.1519C49.6018 92.5682 49.6018 93.6085 50.3228 94.0247L57.7212 98.2963C58.58 98.7919 59.6381 98.7919 60.4968 98.2963L64.8856 95.7229C65.6065 95.3066 65.6065 94.266 64.8856 93.8497Z" fill="#99C7D9"/>
<path d="M106.549 128.886L99.1505 124.614C98.2917 124.119 97.2336 124.119 96.3748 124.614L91.9861 127.188C91.2651 127.604 91.2651 128.644 91.9861 129.061L99.3845 133.332C100.243 133.828 101.301 133.828 102.16 133.332L106.549 130.759C107.27 130.343 107.27 129.302 106.549 128.886Z" fill="#99C7D9"/>
<path d="M93.7744 121.486L86.3759 117.215C85.5172 116.719 84.4591 116.719 83.6003 117.215L79.2116 119.788C78.4906 120.204 78.4906 121.245 79.2116 121.661L86.61 125.933C87.4687 126.428 88.5269 126.428 89.3856 125.933L93.7744 123.359C94.4953 122.943 94.4953 121.902 93.7744 121.486Z" fill="#99C7D9"/>
<path d="M80.9998 114.086L73.6014 109.815C72.7426 109.319 71.6845 109.319 70.8258 109.815L66.437 112.388C65.7161 112.804 65.7161 113.845 66.437 114.261L73.8354 118.532C74.6942 119.028 75.7523 119.028 76.6111 118.532L80.9998 115.959C81.7208 115.543 81.7208 114.502 80.9998 114.086Z" fill="#99C7D9"/>
<path d="M68.2254 106.686L60.827 102.415C59.9682 101.919 58.9101 101.919 58.0514 102.415L53.6626 104.988C52.9417 105.405 52.9417 106.445 53.6626 106.861L61.061 111.133C61.9198 111.629 62.9779 111.629 63.8367 111.133L68.2254 108.559C68.9463 108.143 68.9463 107.102 68.2254 106.686Z" fill="#99C7D9"/>
<path d="M55.4512 99.2866L48.0528 95.015C47.194 94.5191 46.1359 94.5191 45.2772 95.015L40.8884 97.5885C40.1675 98.0047 40.1675 99.045 40.8884 99.4613L48.2869 103.733C49.1456 104.228 50.2037 104.228 51.0625 103.733L55.4512 101.159C56.1722 100.743 56.1722 99.7028 55.4512 99.2866Z" fill="#99C7D9"/>
<path d="M67.7297 24.2736V12.1189L135.483 51.2358V92.0264L67.7297 24.2736Z" fill="url(#paint4_linear)" fill-opacity="0.3"/>
</g>
<defs>
<linearGradient id="paint0_linear" x1="85.5448" y1="118.11" x2="76.6473" y2="118.11" gradientUnits="userSpaceOnUse">
<stop stop-color="#94C3D5"/>
<stop offset="1" stop-color="#B7E3F4"/>
</linearGradient>
<linearGradient id="paint1_linear" x1="128.263" y1="63.4157" x2="123.25" y2="54.7319" gradientUnits="userSpaceOnUse">
<stop stop-color="#94C3D5"/>
<stop offset="1" stop-color="#B7E3F4"/>
</linearGradient>
<linearGradient id="paint2_linear" x1="101.606" y1="195.055" x2="101.606" y2="20.3375" gradientUnits="userSpaceOnUse">
<stop stop-color="#DBF1F9"/>
<stop offset="0.483653" stop-color="#82B7CC"/>
<stop offset="1" stop-color="#A3D2E4"/>
</linearGradient>
<linearGradient id="paint3_linear" x1="20.5001" y1="116" x2="120.104" y2="87.671" gradientUnits="userSpaceOnUse">
<stop stop-color="#94C3D5"/>
<stop offset="0.4836" stop-color="#9FCDDE"/>
<stop offset="1" stop-color="#B7E3F4"/>
</linearGradient>
<linearGradient id="paint4_linear" x1="69.9675" y1="118.764" x2="105.115" y2="44.6758" gradientUnits="userSpaceOnUse">
<stop stop-color="white"/>
<stop offset="1" stop-color="white" stop-opacity="0"/>
</linearGradient>
<clipPath id="clip0">
<rect width="160" height="160" fill="white" transform="matrix(-1 0 0 1 160 0)"/>
</clipPath>
</defs>
</svg>
