<svg width="160" height="160" viewBox="0 0 160 160" fill="none" xmlns="http://www.w3.org/2000/svg">
<g clip-path="url(#clip0)">
<path d="M104.931 127.384C105.7 127.384 106.472 127.112 107.091 126.559C108.425 125.366 108.539 123.316 107.345 121.982L81.9298 93.5687C80.7363 92.2347 78.6873 92.1206 77.3532 93.314C76.0191 94.5072 75.9048 96.5565 77.0985 97.8906L102.514 126.304C103.154 127.02 104.041 127.384 104.931 127.384Z" fill="#274E75"/>
<path d="M41.9313 127.384C42.6304 127.384 43.3347 127.159 43.9279 126.694L77.7525 100.196C79.1616 99.0927 79.4091 97.0552 78.305 95.6462C77.2013 94.2374 75.1635 93.9896 73.7547 95.0937L39.93 121.591C38.521 122.695 38.2735 124.733 39.3775 126.142C40.0169 126.958 40.9694 127.384 41.9313 127.384Z" fill="#274E75"/>
<path d="M74.7461 101.242V93.2795L86.0002 94.2574V102.184C86.028 102.954 85.5774 103.693 84.628 104.241C82.593 105.416 79.0383 105.269 76.6886 103.912C75.3664 103.149 74.7074 102.166 74.7461 101.242Z" fill="#274E75"/>
<path d="M76.6882 96.0395C74.3385 94.683 74.0832 92.6305 76.1182 91.4558C78.1532 90.2808 81.7078 90.4283 84.0575 91.7849C86.4072 93.1414 86.6625 95.1939 84.6275 96.3686C82.5925 97.5436 79.0378 97.3961 76.6882 96.0395Z" fill="#0980AD"/>
<path d="M76.8575 93.3606V12.7144L83.8885 13.3253V93.9487C83.9057 94.43 83.6244 94.8918 83.0313 95.2343C81.76 95.9684 79.5391 95.8762 78.0713 95.0287C77.245 94.5518 76.8332 93.9375 76.8575 93.3606Z" fill="url(#paint0_linear)"/>
<path d="M78.0699 14.4386C76.6018 13.5911 76.4424 12.3089 77.7137 11.5749C78.985 10.8408 81.2059 10.933 82.6737 11.7805C84.1418 12.628 84.3012 13.9102 83.03 14.6442C81.7587 15.3783 79.5381 15.2861 78.0699 14.4386Z" fill="#0980AD"/>
<path d="M120.14 104.598L46.5154 62.0932V62.0935C45.8883 61.7104 45.0614 61.7344 44.1551 62.2579C42.1948 63.3897 40.6058 66.426 40.6058 69.0397C40.6058 70.4507 41.0692 71.4497 41.8039 71.8929V71.8932L41.8164 71.9004C41.827 71.9066 41.8379 71.9129 41.8486 71.9191L115.397 114.378L120.14 104.598Z" fill="url(#paint1_linear)"/>
<path d="M121.312 107.436C121.312 104.822 119.723 103.621 117.763 104.752C115.802 105.884 114.213 108.92 114.213 111.534C114.213 114.148 115.802 115.349 117.763 114.217C119.723 113.085 121.312 110.049 121.312 107.436Z" fill="#0980AD"/>
<path d="M116.811 41.6189V102.687L111.456 105.789L48.5397 5.52075L116.811 41.6189Z" fill="#94C3D5"/>
<path d="M111.456 44.7205V105.789L46.048 68.0255V6.95703L111.456 44.7205Z" fill="url(#paint2_linear)"/>
<path d="M116.959 40.2299L47.4652 0.158331V0.158644C47.0849 -0.073856 46.5834 -0.0591685 46.034 0.258331C44.8452 0.944582 43.8815 2.78583 43.8815 4.37083C43.8815 5.22646 44.1624 5.83239 44.608 6.10083V6.10114L44.6155 6.10552C44.6221 6.10927 44.6287 6.11302 44.6352 6.11677L114.083 46.1608L116.959 40.2299Z" fill="url(#paint3_linear)"/>
<path d="M117.669 41.9504C117.669 40.3654 116.706 39.637 115.517 40.3232C114.328 41.0095 113.364 42.8507 113.364 44.4357C113.364 46.0207 114.328 46.7491 115.517 46.0629C116.706 45.3766 117.669 43.5354 117.669 41.9504Z" fill="#0980AD"/>
<path d="M98.4202 160C98.7112 160 99.0071 159.961 99.3008 159.878C101.024 159.392 102.027 157.602 101.542 155.879L86.0624 100.929C85.5768 99.2059 83.7862 98.2028 82.064 98.6878C80.3412 99.1731 79.3377 100.963 79.823 102.686L95.3024 157.637C95.7049 159.066 97.0052 160 98.4202 160Z" fill="#274E75"/>
<path d="M99.5388 84.6448V70.1654L90.6822 65.0522V79.5313L99.5388 84.6448Z" fill="url(#paint4_linear)"/>
<path d="M87.6083 77.7711V70.8974L78.7517 65.7839V72.6577L87.6083 77.7711Z" fill="url(#paint5_linear)"/>
<path d="M75.7537 70.8973V53.0079L66.8971 47.8948V65.7838L75.7537 70.8973Z" fill="url(#paint6_linear)"/>
<path d="M63.8239 64.0236V40.9936L54.9673 35.8801V58.9101L63.8239 64.0236Z" fill="url(#paint7_linear)"/>
</g>
<defs>
<linearGradient id="paint0_linear" x1="83.8891" y1="54.2222" x2="76.8563" y2="54.2222" gradientUnits="userSpaceOnUse">
<stop stop-color="#295179"/>
<stop offset="1" stop-color="#274E75"/>
</linearGradient>
<linearGradient id="paint1_linear" x1="77.1933" y1="92.0276" x2="81.0114" y2="85.4144" gradientUnits="userSpaceOnUse">
<stop stop-color="#274E75"/>
<stop offset="1" stop-color="#4074A8"/>
</linearGradient>
<linearGradient id="paint2_linear" x1="78.752" y1="190.12" x2="78.752" y2="40.043" gradientUnits="userSpaceOnUse">
<stop offset="0.44489" stop-color="#94C3D5"/>
<stop offset="0.790207" stop-color="#AEDBEC"/>
<stop offset="1" stop-color="#B7E3F4"/>
</linearGradient>
<linearGradient id="paint3_linear" x1="78.4818" y1="25.4765" x2="80.8121" y2="21.4402" gradientUnits="userSpaceOnUse">
<stop stop-color="#295078"/>
<stop offset="1" stop-color="#4074A8"/>
</linearGradient>
<linearGradient id="paint4_linear" x1="95.1105" y1="65.0522" x2="95.1105" y2="84.6448" gradientUnits="userSpaceOnUse">
<stop stop-color="#1297C9"/>
<stop offset="1" stop-color="#0980AD"/>
</linearGradient>
<linearGradient id="paint5_linear" x1="83.1798" y1="79.2318" x2="83.1798" y2="64.8751" gradientUnits="userSpaceOnUse">
<stop stop-color="#274E75"/>
<stop offset="0.3545" stop-color="#2D5C8B"/>
<stop offset="0.6972" stop-color="#386EA5"/>
<stop offset="0.8982" stop-color="#4C87C1"/>
</linearGradient>
<linearGradient id="paint6_linear" x1="71.3254" y1="47.8948" x2="71.3254" y2="70.8973" gradientUnits="userSpaceOnUse">
<stop stop-color="#1297C9"/>
<stop offset="1" stop-color="#0980AD"/>
</linearGradient>
<linearGradient id="paint7_linear" x1="59.3954" y1="67.4529" x2="59.3954" y2="33.7464" gradientUnits="userSpaceOnUse">
<stop stop-color="#274E75"/>
<stop offset="0.3545" stop-color="#2D5C8B"/>
<stop offset="0.6972" stop-color="#386EA5"/>
<stop offset="0.8982" stop-color="#4C87C1"/>
</linearGradient>
<clipPath id="clip0">
<rect width="160" height="160" fill="white" transform="matrix(-1 0 0 1 160 0)"/>
</clipPath>
</defs>
</svg>
