<svg width="160" height="160" viewBox="0 0 160 160" fill="none" xmlns="http://www.w3.org/2000/svg">
<g clip-path="url(#clip0)">
<path d="M56.8391 1.80018L59.5697 0.231746L59.57 0.23237C59.9982 -0.0816921 60.585 -0.0898171 61.2328 0.284246L131.542 40.8771C132.853 41.6339 133.915 43.6639 133.915 45.4118V156.271C133.915 157.274 133.564 157.963 133.018 158.228L133.018 158.228L130.264 159.819L56.8391 1.80018Z" fill="#274E75"/>
<path d="M58.3734 1.93486L128.682 42.5277C129.992 43.2845 131.055 45.3149 131.055 47.0624V157.921C131.055 159.669 129.993 160.472 128.682 159.715L58.3734 119.123C57.0628 118.366 56 116.336 56 114.588V3.72923C56 1.98142 57.0628 1.1783 58.3734 1.93486Z" fill="#70BAD7"/>
<path d="M104.288 43.2987L77.6046 27.6337C76.269 26.8553 74.5924 27.8184 74.5924 29.3644C74.5924 31.2466 75.5924 32.9869 77.2183 33.9347L103.902 49.5997C105.237 50.3781 106.914 49.4147 106.914 47.8691C106.914 45.9869 105.914 44.2466 104.288 43.2987Z" fill="#B7E3F4"/>
<path d="M119.562 72.7558L65.7591 41.3724C64.4881 40.6315 62.8928 41.5483 62.8928 43.0193C62.8928 44.8102 63.8444 46.4662 65.3916 47.368L119.194 78.7518C120.465 79.4927 122.06 78.5758 122.06 77.1049C122.06 75.314 121.109 73.6577 119.562 72.7558Z" fill="#B7E3F4"/>
<path d="M119.562 86.5981L65.7591 55.2147C64.4881 54.4738 62.8928 55.3906 62.8928 56.8616C62.8928 58.6525 63.8444 60.3084 65.3916 61.2103L119.194 92.5938C120.465 93.3347 122.06 92.4178 122.06 90.9469C122.06 89.1559 121.109 87.5 119.562 86.5981Z" fill="#B7E3F4"/>
<path d="M119.562 100.44L65.7591 69.057C64.4881 68.316 62.8928 69.2329 62.8928 70.7039C62.8928 72.4948 63.8444 74.1507 65.3916 75.0526L119.194 106.436C120.465 107.177 122.06 106.26 122.06 104.789C122.06 102.998 121.109 101.342 119.562 100.44Z" fill="#B7E3F4"/>
<path d="M119.562 114.02L65.7591 82.6366C64.4881 81.8956 62.8928 82.8125 62.8928 84.2834C62.8928 86.0744 63.8444 87.7303 65.3916 88.6322L119.194 120.016C120.465 120.757 122.06 119.84 122.06 118.369C122.06 116.578 121.109 114.922 119.562 114.02Z" fill="#B7E3F4"/>
<path d="M119.562 127.862L88.7566 109.796C87.4856 109.055 85.8903 109.972 85.8903 111.443C85.8903 113.234 86.8419 114.89 88.389 115.792L119.194 133.858C120.465 134.598 122.06 133.682 122.06 132.211C122.06 130.42 121.109 128.764 119.562 127.862Z" fill="#B7E3F4"/>
</g>
<defs>
<clipPath id="clip0">
<rect width="160" height="160" fill="white" transform="matrix(-1 0 0 1 160 0)"/>
</clipPath>
</defs>
</svg>
