<svg width="160" height="160" viewBox="0 0 160 160" fill="none" xmlns="http://www.w3.org/2000/svg">
<path d="M86.6678 14.6272L86.6711 14.6299C93.6011 9.91749 103.494 10.3036 115.917 17.4758C134.74 28.3436 150 50.0764 150 66.0176L78.1666 107.837L16.1228 55.5096L86.6678 14.6272Z" fill="url(#paint0_linear)"/>
<path d="M106.905 22.6807C95.4377 16.0599 86.1274 15.2257 79.312 18.8433L81.8284 17.385L81.8317 17.3877C88.7614 12.6753 98.6549 13.0614 111.077 20.2334C129.901 31.1017 145.161 52.8345 145.161 68.7757L140.988 71.2046C140.977 55.2651 125.722 33.5446 106.905 22.6807Z" fill="#274E75"/>
<path d="M88.1361 33.6302C76.6684 27.0094 67.3581 26.1752 60.5427 29.7927L63.0591 28.3345L63.0624 28.3372C69.9921 23.6251 79.8857 24.0112 92.3079 31.1832C111.132 42.0509 126.391 63.784 126.391 79.7249L122.219 82.1541C122.207 66.2146 106.953 44.4938 88.1361 33.6302Z" fill="#274E75"/>
<path d="M69.3762 44.5286C57.9085 37.9078 48.5982 37.0736 41.7828 40.6912L44.2992 39.2329L44.3025 39.2356C51.2322 34.5232 61.1258 34.9093 73.548 42.0813C92.3717 52.9496 107.631 74.6824 107.631 90.6236L103.459 93.0525C103.448 77.113 88.1928 55.3925 69.3762 44.5286Z" fill="#274E75"/>
<path d="M50.8532 55.335C39.3855 48.7142 30.0752 47.88 23.2598 51.4976L25.7762 50.0393L25.7795 50.042C32.7092 45.3296 42.6027 45.7157 55.025 52.8877C73.8484 63.756 89.1082 85.4888 89.1082 101.43L84.9358 103.859C84.9246 87.9194 69.6698 66.1989 50.8532 55.335Z" fill="#274E75"/>
<path d="M44.0835 59.2957C62.7661 70.082 77.9298 91.5682 78.1562 107.475L78.1606 107.486L150 66.0177V104.331C150 107.005 148.573 109.476 146.258 110.813L83.4669 147.065C80.1835 148.961 76.138 148.961 72.8548 147.065L13.7415 112.926C11.4263 111.588 10.0003 109.118 10.0003 106.445V68.4813C10 52.5405 25.2597 48.4277 44.0835 59.2957Z" fill="url(#paint1_linear)"/>
<path d="M13.7412 103.953L72.8545 138.092C76.1377 139.988 80.1832 139.988 83.4669 138.093L146.258 101.841C148.573 100.504 150 98.0331 150 95.3591V104.331C150 107.005 148.573 109.476 146.258 110.813L83.4669 147.066C80.1835 148.961 76.138 148.961 72.8545 147.065L13.7412 112.926C11.426 111.589 10 109.118 10 106.445V97.4725C10 100.146 11.4263 102.616 13.7412 103.953Z" fill="#0980AD"/>
<path d="M52.2823 135.176L27.7415 121.008V96.8203L52.2823 111.046V135.176Z" fill="#274E75"/>
<path d="M128.165 99.4094L136.031 94.8862V82.5906L128.165 87.1504V99.4094Z" fill="#274E75"/>
<path d="M99.3445 116.229L107.211 111.706V99.4097L99.3445 103.97V116.229Z" fill="#274E75"/>
<path d="M52.2823 103.715L44.4163 99.1921V86.8965L52.2823 91.4561V103.715Z" fill="#274E75"/>
<path d="M35.6072 94.0633L27.7413 89.5401V77.2444L35.6072 81.804V94.0633Z" fill="#274E75"/>
<defs>
<linearGradient id="paint0_linear" x1="104.591" y1="93.3269" x2="66.4826" y2="27.3215" gradientUnits="userSpaceOnUse">
<stop stop-color="#0980AD"/>
<stop offset="0.2007" stop-color="#0B8EBF"/>
<stop offset="0.5471" stop-color="#0D8EBF"/>
<stop offset="0.956193" stop-color="#70BAD7"/>
<stop offset="1" stop-color="#70BAD7"/>
</linearGradient>
<linearGradient id="paint1_linear" x1="87.4834" y1="100.855" x2="76.2624" y2="100.855" gradientUnits="userSpaceOnUse">
<stop stop-color="#94C2D5"/>
<stop offset="1" stop-color="#B7E3F4"/>
</linearGradient>
</defs>
</svg>
