<svg width="16" height="12" viewBox="0 0 16 12" fill="none" xmlns="http://www.w3.org/2000/svg">
<path d="M15 12.0002H1.00001C0.447699 12.0002 0 11.5525 0 11.0002C0 10.448 0.447699 10.0002 1.00001 10.0002H15C15.5523 10.0002 16 10.448 16 11.0002C16 11.5525 15.5523 12.0002 15 12.0002Z" fill="#25292E"/>
<path d="M15 7.00023H1.00001C0.447699 7.00023 0 6.55253 0 6.00025C0 5.44798 0.447699 5.00024 1.00001 5.00024H15C15.5523 5.00024 16 5.44794 16 6.00025C16 6.55256 15.5523 7.00023 15 7.00023Z" fill="#25292E"/>
<path d="M15 2.00026H1.00001C0.447699 2.00026 0 1.55256 0 1.00025C0 0.447943 0.447699 0.000244141 1.00001 0.000244141H15C15.5523 0.000244141 16 0.447943 16 1.00025C16 1.55256 15.5523 2.00026 15 2.00026Z" fill="#25292E"/>
</svg>
